<svg xmlns="http://www.w3.org/2000/svg" width="78" height="86" viewBox="0 0 78 86"><path fill-rule="evenodd" clip-rule="evenodd" d="M18.788 9.11c-.336-.086-.331-.511-.622-.642-.203-.506-.646-.776-.811-1.33.063-.057.149 0 .223 0 .329.532.696 1.028 1.078 1.504.004.195.261.284.132.468m-1.433-1.307c-.118-.097-.125-.411-.32-.37-.263.064.107.505.244.671l.594.562c.119.006.187.123.291.075.031-.272-.225-.368-.367-.494-.151-.14-.302-.284-.442-.444m25.299 4.807c-.139.218-.6.21-.59.52.003.123.363.491.519.614.274.218.739.324 1.034.077.121-.102.101-.25.192-.396.07-.101.245-.16.248-.32 0-.044-.081-.222-.116-.272-.246-.267-.888-.445-1.287-.223m-13.01.888c-.231.063-.474.212-.464.42.007.189.313.474.52.515.289.07.789-.095.839-.29.091-.434-.528-.738-.895-.645m3.234.395c.042.208-.212.366-.222.59-.011.291.264.64.467.662.21.029.38-.116.563-.195.038-.283.432-.394.373-.739-.035-.222-.428-.565-.616-.565-.203 0-.356.197-.565.247m-2.713 1.969c.241-.54-.726-.634-.744-.171.133.174.485.359.744.171m7.91-.466c-1.201-.133-1.258.882-1.65 1.554-.138.095-.349.11-.347.342.029.136.234.094.397.099.259-.267.708-.217 1.028-.419.321-.193.574-.625.815-.862.096-.347-.063-.571-.243-.714m9.509.91c.016-.077.162-.155.12-.297-.047-.21-.442-.114-.688-.122-.196-.001-.604-.037-.934-.074l-.426-.092c-.751-.045-.855.8-.811 1.379-.435.052-.967.015-1.229.244-.13.284-.273.604-.196.96.025.146.129.443.222.516.097.09.239.041.339.075.188.064.425.234.668.222.325-.013.46-.364.668-.37.128-.003.173.104.267.174.172.55.15 1.28.549 1.605.568-.038.839.351 1.229.441.523.115 1.102-.062 1.307-.346.281-.392-.308-.982-.619-1.082l-.22-.03c-.117-.048-.572-.373-.612-.49l-.055-1.036c-.152-.183-.342-.327-.593-.418-.021-.379.406-.328.571-.145.367.01.741-.016.786-.273l-.122-.346c-.049-.279-.104-.37-.221-.495m-5.297-.244c-.322-.177-.945-.288-1.456-.2-.325.065-.771.442-.763.716.01.21.504.657.637.692.218.053.63-.056.765-.149l.221-.245c.239-.21.74-.404.596-.814m-3.057 5.843c.237.174.768.523 1.135.37.099-.046.067-.125.146-.224.075-.093.158-.079.175-.194.043-.304-.334-.783-.568-.963l-.196-.076c-.091-.075-.095-.233-.246-.215-.114.01-.096.143-.146.215-.254.089-.539.138-.668.346.051.311.492.336.368.741m-4.799-.542c.098.645.851 1.307 1.474.765.278-.539-.079-1.017-.614-1.041-.235.147-.619.143-.86.276m.611 2.07c.044-.308.29-.462.201-.764-.055-.163-.457-.558-.643-.667-.601-.362-.69.414-.67 1.013.25.272.671.862 1.112.418m10.298-.987c-.366.044-.945-.357-1.108.025.095.164.288.065.451.097.31.063.62.3.956.22-.02-.131-.181-.112-.27-.166l-.029-.176m-25.842-22.358c-.353-.116-.818-.091-1.232-.073-.631.029-1.266.16-1.726.323l-.393.172-1.526.716c-.362.168-.562.26-.888.443-.379.209-.543.324-.812.565-.34.296-.603.62-.888.936-.383.429-.653.956-1.062 1.354l-.486.399c-.146.143-.248.34-.372.516-.421.561-.985 1.036-1.257 1.699l-.098.371-.222.395c-.158.378-.259.922-.397 1.401-.051.195-.128.416-.094.548.023.109.184.169.299.294l.166.269c.091.089.248.137.372.224.124.088.252.22.341.248.442.132 1.207-.039 1.55-.076 1.065-.1 2.762.042 3.869-.05.26-.02.506-.135.689-.121.438.028.87.495 1.089.788.355.475.627 1.074.936 1.626.15.274.303.559.441.839.327.663.771 1.279.959 2.044l.37.47c.079.153.06.304.099.471.141.536.377.926.571 1.427.107.303.18.62.316.887.175.348.373.638.52.988.463 1.061.771 2.2 1.177 3.327.576 1.148 1.445 1.99 2.397 2.758.415.018.48.26.71.593.393.573.829 1.008 1.159 1.556.224.369.453.735.665 1.129.221.412.394.886.521 1.314.183.625.269 1.292.296 1.941.013.515.188.963.097 1.459.253.181.215.418.294.836.074.34.064.598.075.939l.099.509-.099.915.099.373c-.005.064-.074.217-.099.268-.436.808-2.048 1.039-1.603 2.343.416.028.841.213 1.233.17l.345-.122.468-.021c.458-.137.7-.634 1.108-.691-.039.7.309 1.39.104 1.993-.046.115-.192.217-.327.4-.13.169-.178.331-.298.441l-.247.145c-.19.204-.272.409-.467.542-.22.164-.844.347-.836.642.003.238.357.268.443.37.435-.009.689.19 1.012.198l.27-.028c.181.017.355.119.545.101l.958-.42c.506-.698.623-1.789 1.504-2.119.258-.406.009-.796-.076-1.253l-.023-.372-.125-.345c-.084-.405-.035-.858-.095-1.309-.064-.433-.03-.878-.125-1.305-.133-.635-.277-1.272-.373-1.919l-.14-.986c-.098-.678-.225-1.32-.298-1.997l-.029-.861c-.033-.45-.213-.866-.297-1.312-.05-.294-.092-.611-.116-.909-.043-.316-.05-1.204.018-1.28.231-.274.813.094 1.04.094l.32-.094c.086-.009.23 0 .369.019.473.092.977.352 1.474.524.247.079.515.156.767.247.253.086.498.21.742.271l.32.02c.277.073.567.22.859.271.522.102 1.024.119 1.648.174.677.057 1.436.169 2.193.103l.641-.126c.688-.057 1.295.069 1.998-.02l.293-.102.396-.029.883-.291.297-.03c.275-.072.55-.22.842-.268h.269l.493-.149h1.648l.471.394c.104.064.234.072.323.177l.142.317c.596 1.056.585 3.017.912 4.34.302.438.327 1.128.5 1.748.103.397.322.777.392 1.18.116.684.034 1.458.116 2.197l.127.421c.025.25-.085.542-.094.71l.021.222-.32.836c-.204.135-.313.328-.496.524l-.416.316-.218.368-.274.32c-.203.209-.357.457-.567.62-.188.147-.337.103-.591.173l-.223.125c-.322.132-.504.211-.564.611.149.107.27-.005.415 0l1.058.369c.081.088.107.2.256.253.156.053.467.053.682.021l.324-.099.393.099c.377-.031.8-.604 1.005-.812.354-.348.603-.672 1.042-.986.188-.14.508-.324.52-.52.004-.177-.224-.496-.331-.715-.187-.429-.41-.706-.292-1.207l.399.048c.511.14 1.844 1.018 2.189.12.276-.222.542-.438.887-.662.255-.158.83-.368.864-.691.017-.159-.111-.34-.169-.489-.07-.171-.179-.34-.179-.497l.121-.37c.093-.776-.09-1.828 0-2.786.053-.503.17-1.045.348-1.426l.275-.421c.111-.227.277-.6.271-.815-.011-.089-.097-.254-.151-.39-.259-.662-.665-1.2-1.006-1.728-.147-.217-.331-.473-.423-.688-.123-.306-.138-.652-.192-1.014l-.104-.344c-.1-.817.016-1.483.124-2.316.077-.594.063-1.203.149-1.677.052-.268.129-.58.094-.936-.035-.486-.015-.812.102-1.207.058-.204.188-.425.193-.641.009-.264-.125-.52-.118-.739.013-.283.151-.412.298-.614.169-.243.29-.452.515-.598.132-.119.174-.283.271-.419.216-.292.618-.393.714-.763.131-.507-.162-1.159-.244-1.577-.225-1.074-.625-2.984.146-3.622.122 0 .167.042.248-.025-.071-.17.157-.294.126-.491-.029-.099-.262-.213-.374-.321-.396-.386-.536-.836-.982-1.089-.556-.301-1.153-.578-1.775-.81-.277-.103-.567-.243-.763-.295-.312-.078-1.045-.161-1.333-.124-.868.111-1.434.774-1.997 1.158-1.66-.047-3.501.076-5.101.148-.559.027-1.088.113-1.62.147-1.215.086-2.457-.026-3.553.173-1.058.188-2.009.664-3.076.863l-.372.023-.391.127c-.596.072-1.431.06-2.022 0l-.52-.127-.691-.023-.39-.123c-.4-.074-.868-.113-1.284-.149-.22-.019-.424.016-.64-.024-.797-.151-1.575-.463-2.385-.566-.897-.105-1.709-.196-2.47-.442l-1.084-.323c-.356-.119-1.143-.453-1.323-.689-.168-.206-.17-.539-.521-.543-.164-.309-.532-.417-.614-.81-.433-.433-.832-.891-1.238-1.359-.185-.232-.363-.466-.542-.736-.155-.236-.279-.629-.615-.692-.133.12.075.296.028.395-1.334-1.488-2.13-3.506-3.721-4.73.121-.143.111-.338.269-.447.165-.112.412-.144.619-.225.411-.286.851-.561 1.379-.737.153-.212.491-.232.491-.594m-3.327.915c.664-.28 1.399-.493 2.243-.59-.354.423-1.138.419-1.557.784-.245.036-.559-.004-.661.175-.233.022-.384-.042-.568-.073l-.172.119c0-.278.44-.338.715-.415m-1.252.933c.043-.183.297-.177.368-.343.102.087-.148.226-.175.343h-.193m.537 0c.069-.133.301-.09.416-.022-.039.113-.336.095-.416.022m-2.341.67c.119-.021.315.197.542.071.352.253.428.776.89.908.363.918 1.078 1.473 1.649 2.172 1.105.146 1.172-.959 1.699-1.477.324.301.515.734.787 1.129.313.458.672.931.985 1.436.36.58.629 1.123.964 1.77-.032.117.098.333.052.47l-.293.272-.076.247-.202.249c-.048.291.271.738.468.763.256.029.343-.174.467-.322.509.333.633 1.176 1.53 1.033.133-.049.08-.289.097-.395.071-.044.177-.051.271-.072.126.144.288.243.596.201l.93.588c.559 0 .908.337 1.384.441l.323.028.243.123.416.024c.23.039.417.076.744.097l.273.027c.36.071.771.103 1.105.196.247.071.74.174.96.32.114.078.157.282.298.321.149.02.066-.194.121-.272 1.275.133 2.578.436 3.891.568.348.034.707-.072.864.168.786-.019 1.497-.15 2.241-.267l.539-.152.422-.021c.166-.039.31-.185.471-.249.453-.166 1.017-.281 1.577-.417.16-.04.346-.026.542-.046.358-.047.74-.163 1.029-.126l.273.1c.225.018.518-.096.785-.123.819-.08 1.581-.103 2.419-.125-.063.244-.335.357-.35.64-.008.244.167.389.251.618-.092.097-.264.117-.367.196-.27.904.629 1.221 1.099 1.627.77.244.909-.278 1.192-.713l.763-1.157c.372-.008.749-.289.34-.571l-.415-.194c-.25-.146-.433-.245-.688-.321.234-.256.853-.233 1.303-.271.434-.035 1.063 0 1.623-.028.479-.018.889-.083 1.23 0 .303.075.488.345.693.423h.248c.223.138.463.242.713.345.152.319.543.382.837.589.395.28.738.623 1.084.942-.087.227.137.462.124.634-.007.118-.179.247-.224.373-.128.383-.021.791.1 1.136.104.282.325.612.299.859-.019.139-.152.217-.175.32-.062.246-.02.593-.023.84 0 .607-.027 1.268-.273 1.796-.128.274-.386.394-.393.738-.462.516-.692 1.265-1.286 1.655-.25.419-.488.851-.855 1.157-.221-.163-.278-.499-.595-.567l-.962.05c-.077-.208-.271-.294-.341-.517.257-.05.492-.165.761-.077l.075-.071c.041-.19-.178-.21-.297-.294-.219-.152-.422-.529-.688-.345.015.266.361.216.443.419-.421.256-.879-.105-1.185-.271-.13 0-.12.138-.22.173-.383-.113-.836-.168-1.232-.272-.181-.047-.418-.234-.594-.05.131.208.477.236.74.297.271.061.53.152.789.222.259.064.557.044.643.292l-.713.2c-.117-.041-.022-.137-.105-.2-.12-.078-.265-.053-.416-.1-.159-.041-.292-.164-.441-.22l-.367-.047c-.128-.035-.275-.139-.473-.122l-.271.097c-.384.05-.795-.271-1.181-.025.251.152.551.042.836.075l.248.097c.221.06.447.03.664.073.409.083.835.33 1.283.444-.098.146-.389.124-.541.099-.202-.032-.471-.156-.695-.223-.249-.073-.471-.18-.661-.249-.206.233-.646.04-.887.1 0 .193.214.023.297.127l-.024.193c.234.07.621.099.614.319-.38.075-.465-.108-.815-.122l-.167-.341c-.528-.121-1.396-.092-2.101-.199-.37-.052-.63-.313-.912-.369-.261-.055-.916-.083-.957.127-.038.164.345.433.47.537.276.24.636.416.956.64.012.104.1.124.073.245-.286-.066-.517-.198-.863-.219-.174-.125-.38-.229-.609-.3-.313-.138-.664-.584-1.063-.391.103.5 1.063.466 1.133 1.109.097.167.374.285.374.469-.38.005-.502-.245-.814-.294-.493-.349-1.008-.666-1.506-1.038-.146-.108-.327-.377-.566-.221.005.297.334.426.52.567.197.158.387.323.566.495.367.338.815.594 1.081 1.034-1.233-.372-2.018-1.182-2.932-1.875h-.22c-.125-.06-.227-.285-.423-.318-.227-.043-.538.136-.563.294-.032.216.472.622.74.566.128-.029.19-.222.322-.222.131 0 .708.539.833.644.396.306.732.471.968.813-.298.038-.354-.162-.595-.173-.898-.417-1.735-.899-2.488-1.459.151-.214.105-.604-.077-.756-.183-.037-.31-.09-.442-.076-.732.063-.69 1.123.027 1.183l.415-.098c.087.007.211.115.322.193.359.247.884.575 1.158.841.259.119.526.23.64.488-.661.004-1.131-.459-1.676-.588l-.266-.024c-.472-.125-.776-.543-1.28-.593-.023.264.286.215.366.396.314.117.57.277.832.441.452.194.963.327 1.283.645-.25.109-.415-.05-.617-.098l-.298-.027c-.232-.063-.455-.193-.685-.269l-.223-.025-.986-.444c-.116-.033-.281-.05-.392.07.021.222.202.278.392.322.226.234.595.324.813.568.268.069.427.235.646.345.136.19.498.154.513.468-.246.096-.386-.122-.466-.268-1.242-.429-2.475-.866-3.672-1.334-.029-.616-.659-.641-.912-1.038.244-.012.42.153.668.051l.021-.072c-.206-.469-1.079-.263-1.377-.645.208.039.662.15.637-.118-.021-.29-.853-.121-.986-.42.26-.008.436.115.647.026.012-.198-.081-.279-.222-.324.365-.477-.396-.387-.818-.44l-.242-.103c-.293-.084-.702-.088-.84-.268.357-.008.754.171 1.082.026.048-.058.025-.188 0-.25.231-.05.294-.283.174-.665-.05-.156-.285-.386-.367-.667l-.077-.419c-.069-.173-.281-.44-.391-.49-.204-.086-.47-.007-.547.049l-.244.517c-.037.049-.153.044-.175.15-.061.371.677.497.694.837-.488-.021-1.237.007-1.527-.3.149-.251.771.204.833-.22-.064-.164-.348-.132-.537-.174-.038-.201-.234-.24-.35-.371-.313-.033-.646-.292-1.007-.119.102.25.583.123.742.323.186-.003.376.12.366.244-.301.076-.678-.047-.908.097-.347.216-.194.579.145.741-.06.099-.193.115-.294.174-.175-.168-.436-.166-.721-.276-.22-.084-.414-.359-.64-.215.094.158.235.253.447.292.46.412 1.186.684 1.549 1.113-.434-.105-.733-.304-1.206-.472-.169-.058-.507-.338-.564-.048-.039.18.267.248.393.317.185.111.245.245.443.273.052.188.299.181.374.344-.352-.115-.729-.45-1.133-.344.468.573 1.365.719 1.819 1.304-.199 0-.358-.229-.569-.27l-.268.027c-.265-.033-.485-.394-.718-.199.091.243.438.236.593.419l-.099.222c.41.324.889.677 1.309 1.059.105.099.362.244.223.441-.363-.193-.57-.554-.861-.81-.172-.013-.302-.311-.446-.123.053.176.245.252.369.366.358.338.666.771 1.034 1.138.021.145.099.246.196.323.054.223.165.395.268.559.084.419.124.889.246 1.257.182.03.105-.196.2-.246.221.123.084.276.074.394-.081.881-.056 1.82.075 2.689.145.962.359 2.047.446 3.156.016.239.109.474.144.711l.05.639c.114.73.255 1.474.395 2.249.032.169.173.563-.026.714.059.361.029.811.179 1.087-.107.171.029.371-.028.544l-.225.045c-.045.058-.014.197-.022.295-.057.051-.216 0-.245.076.094.647.61 1.002.66 1.601-.209-.091-.318-.3-.715-.269-.103-.01-.154.137-.244.069-.223-.577-.061-1.41-.17-2.117l-.048-.174.125-.293v-.273l.247-.562c.065-.436-.081-1.006-.101-1.387-.018-.221.043-.45.043-.662l-.074-.566c-.013-.409 0-.734-.144-1.039-.084-.164-.277-.366-.419-.443l-.072-.27c-.207-.225-.479-.203-.69-.391-.288-.261-.185-.708-.42-1.042.025-.219-.096-.41-.15-.613-.109-.433-.159-.899-.446-1.18-.192.156.167.414.031.663-.185-.029-.216-.245-.274-.394-.092-.252-.152-.344-.192-.664-.036-.216-.19-.317-.299-.492-.207-.336-.411-.733-.614-1.037-.555-.802-1.145-1.716-1.821-2.437-.38-.41-.625-.887-.864-1.336.134-.147.032-.39.194-.516-.106-.361-.53-.546-.564-.913.632.304 1.051.82 1.75 1.062l-.048.296c-.199-.045-.211-.263-.318-.389-.188.176-.277.013-.498.045.031.182.155.323.272.491.091.134.287.31.319.465v.251c.092.348.577.653.691 1.008.361.076.464.46.683.813.263.408.361.753.97.74.135.193.247.409.466.518l.099-.076c-.23-.447-.564-.792-.814-1.231.263-.124.347.137.473.27.117.138.268.447.539.401-.072-.241-.225-.415-.371-.597-.076-.094-.174-.138-.221-.272l-.051-.346c-.066-.156-.376-.344-.566-.537-.385-.393-.61-.629-.933-1.085-.198-.283-.306-.45-.443-.765-.072-.164-.529-.384-.719-.516-.461-.32-1.05-.624-1.423-1.058.025-.146.119-.223.17-.348.455.008.223-.68.415-.937-.164-.5-.177-1.164-.025-1.705.148.065.12.29.299.373l.319.025c.207.045.486.236.539-.048.028-.11-.099-.22-.121-.321-.041-.182.007-.393-.048-.591-.069-.231-.264-.382-.224-.592.826.079 1.309-.245.965-.886-.112-.208-.367-.322-.646-.324-.319-.133-.453-.468-.785-.586-.004-.144.177-.103.124-.3.48-.163.687-.611.661-1.284-.259-.264-.549-.594-1.13-.465-.128-.619-.646-1.652-1.233-1.797-.119-.03-.305.028-.447-.03-.353-.14-.317-.77-.859-.71-.175.017-.298.177-.466.22-.373-.196-.593-.543-.911-.787-.411-.067-.732.016-.937.217-.215-.024-.246-.225-.421-.245-.25-.026-.506.276-.519.566-.007.284.294.611.026.789-.712-.432-.965-1.319-1.573-1.847l-.153-.319c.27-.025.417.312.638.096.031-.167-.092-.183-.094-.32.832.079-.14-.557-.168-.74.216-.077.504.251.687 0 .221.019.47.42.664.149-.119-.233-.443-.251-.591-.442-.374-.023-.481.111-.785-.126-.17-.128-.293-.204-.351-.418l-.17.076c-.16-.003-.232-.209-.073-.273.134.011.016.113.099.174.357-.225.513.28.812.341l.076-.046c-.084-.272-.32-.381-.498-.565.032-.107.088-.182.15-.25.379-.044.363.311.645.374-.072-.332-.6-.782-.984-1.037-.279-.18-.66-.431-.593.125h-.419c-.159.044-.18.293-.369.244-.107.018-.056.18-.122.22-.421.077-.697.297-.967.518-.769.093-1.569.154-2.141.443.116.249.38.017.567 0l.297.027c.442-.011.934-.201 1.354-.167.268.012.494.17.715.24-.089.234.108.33.076.493-.111.064-.236-.037-.322-.076l-.22.126c-.964-.046-1.892.014-2.862.1-.144-.133-.412-.126-.541-.269.103-.292.226-.568.489-.692.431.268.76-.212 1.207-.226.07-.193.315-.215.469-.321v-.292c.447-.035 1.188.195 1.311-.225-.094-.258-.303-.045-.473-.023-.535.09-1.178-.22-1.697-.121-.093.016-.055.174-.095.244l-.32-.047c-.051.173-.146.167-.35.267l-.146.1c-.139.006-.182-.114-.317-.174l-2.1-.12c-.078-.436.144-.789.369-1.006.131-.368.307-.677.543-.938l.026-.247c.711-.569 1.254-1.309 1.797-2.047.166.303-.037.613-.076.891v.485c-.036.204-.092.483-.149.618-.089.227-.331.378-.363.715-.883.139.087 1.116.564.839.862.105 1.575-.38 2.099-.79.499-.04.682.233 1.202.122.359-.068.587-.409.421-.932-.121-.368-.421-.691-.667-1.035-.176-.249-.326-.533-.52-.792-.212-.283-.386-.613-.542-.74-.262-.212-.729-.339-.958-.469.037-.132.179-.326.268-.339m.316 2.511c.18.063.433.001.404.224-.521-.05-1.188.307-1.286-.321.186-.053.405-.126.619-.073l.263.17m-3.096 4.045c.017-.079.068-.131.151-.152.01.113-.062.145-.151.152m5.494.072c.104-.002.173-.047.195.071-.056.052-.201.022-.195-.071m37.962 1.726c.034-.049.26-.101.244.023-.083.046-.177.017-.244-.023m-.911.122c.081-.04.158-.01.243 0 .023.099-.263.12-.243 0m.537.567c.457.09.91-.192 1.31.023-.184.094-.471.039-.712.075-.207.028-.466.132-.598-.098m1.581.023c.317.07.515.263.738.417.018.103-.104.067-.122.127-.278-.127-.666-.041-1.057-.024-.262.011-.591.065-.745-.103.181-.01.313-.059.4-.168.347.005.722.034.786-.249m-.639 1.311c.088-.197.459-.101.713-.126.113.209.561.41.301.763-.342-.215-.71-.393-1.014-.637m-32.592 2.244c0-.135-.026-.458.042-.594.235.143.374.372.797.317.169.148.356.282.537.417.005.239.012.476-.095.597-.148-.244-.205-.878-.623-.792l-.212.195c-.191-.01-.244-.153-.446-.14m-1.703 1.526c.143-.184.38-.275.492-.493l.047.046c-.283.234-.047.824-.118 1.181-.172-.21-.291-.481-.421-.734m9.56 4.213c.387-.015 1.058-.108 1.134.273-.404.052-.822-.083-1.134-.2v-.073m1.772 1.211c-.174.067-.73.112-.714-.175.309-.013.44.15.714.175m-2.514.736l-.807-.736c.551.053.893.347 1.104.786l.224.519c.187.381.381.82.393 1.332.013.129-.21.02-.222.119-.041.174.154.164.222.298.068.141.101.473.123.69.029.356.034.773 0 1.11-.212-.499-.355-1.054-.644-1.478-.079-.13-.203-.202-.243-.37.125.04.339.084.425-.025.021-.38-.336-.38-.425-.642.109-.053.319.011.344-.124.049-.218-.189-.336-.272-.495.477-.242-.167-.548-.342-.738l.12-.246m2.59-.29c-.032.06-.151.003-.193 0 .036-.073.126.007.193 0m12.116 1.203c-.401-.419-1.04-.597-1.377-1.085h.47c.365.209.884.263 1.163.564-.163.052-.409.007-.423.2.112.144.352.146.542.172.376.049.877.108 1.138.245.059.043.199.147.164.249-.309-.016-.481-.156-.661-.295-.332.137-.721.096-1.016-.05m-11.153.987l-.149-.15.072-.197c-.431-.526-1.225-.68-1.626-1.23.264-.034.335.127.547.146.524.466 1.313.669 1.813 1.159l.125.445c.165.077.304.173.396.316.393.069.599.325.963.422.02.133.24.145.172.295-.387-.133-.865-.383-1.135-.718-.463-.084-.604-.598-1.178-.488m12.115-1.554c.511-.048 1.047.096 1.215.468-.136.003-.157-.13-.301-.171-.192-.063-.469.026-.592-.152-.132 0-.238-.023-.322-.073v-.072m5.993.443c-.138-.003-.186-.1-.199-.22.142-.008.219.06.199.22m-4.366-.123l.105-.022.043.069c-.048.044-.154.08-.148-.047m3.106.44c-.109-.125-.262-.209-.321-.393.385.104.477.491.717.745-.153 0-.303-.215-.396-.352m-2.806-.142c.185.029.728.038.568.423.123.001.205-.157.316-.034-.343.212-.76-.067-.912-.343l.028-.046m2.242.219c.32-.025.421.364.586.567-.178-.203-.483-.286-.586-.567m-5.895.297c-.189-.037-.272-.183-.414-.273.147-.034.329.116.518.125.01.091-.049.111-.104.148m5.622.225c-.137-.05-.242-.122-.244-.299.15.031.218.141.244.299m2.908 1.106c-.258-.411-.565-.764-.791-1.208.146.147.542.512.791.785.147.169.305.445.568.178.138.363-.23.587-.398.814-.156-.072-.221-.238-.322-.374l.152-.195m-3.375-.865c-.217.031-.508-.069-.52-.318.293-.012.44.123.52.318m-3.946.074c-.204-.059-.34-.196-.469-.346.188.082.377.174.469.346m-1.768.645c-.214-.321-.574-.5-.795-.817.651.125 1.048.71 1.526 1.086-.117.05-.178.163-.267.25-.238-.049-.38-.196-.542-.323-.036-.121.078-.103.078-.196m3.839-.719c.053-.045.12.011.178.026.007.138-.207.121-.178-.026m-1.083.055c.208-.038.461.088.563.245-.221.099-.439-.052-.583-.173l.02-.072m9.609.465c-.126-.086-.157-.336-.072-.494.191.008.127.382.072.494m-5.424-.394c-.01.087-.146.021-.125-.072l.125.072m-6.128.593c-.085-.11-.248-.14-.271-.3.542.123.898.435 1.251.742-.429.054-.535-.436-.98-.442m-6.187-.175c.293.208.792.211 1.109.393l-.247.317c-.439-.179-.769-.471-1.186-.69.044-.121.205.03.324-.02m2.264.175c.279.026.843.269.767-.174.18-.024.278.049.349.15-.07.1-.122.165-.076.321-.387.031-.968.065-1.04-.297m2.759.463c-.452-.068-.85-.198-.934-.638.393.128.761.289.934.638m-1.104-.267c-.055.049-.114-.039-.178-.05.038-.053.195-.028.178.05m13.648.267c-.099-.001-.092-.12-.127-.194.073.034.132.079.127.194m-18.726-.046c.273.072.783.113.913.422-.36-.089-.674-.216-.913-.422m-1.577.37c.251.149.456.282.665.318.093-.021.099-.125.148-.196.197.043.201.404.148.544-.632-.24-1.187-.558-1.697-.918.097-.276.567.151.736.252m17.199.57c-.262-.18-.439-.44-.518-.793.256.162.531.44.518.793m-11.083-.715c.339-.123.839.137.909.366-.38-.043-.712-.14-.909-.366m1.959.197c.086-.047.209.043.227.145-.13.023-.246-.095-.227-.145m-1.643.545c.265-.068.621 0 .742.164-.184.235-.682.036-.742-.164m-.223.24c-.097-.004-.176-.037-.17-.149.1.008.159.055.17.149m-2.14.196c-.193-.074-.407-.122-.5-.298.44.064.69.298.912.571-.175.14-.348-.132-.412-.273m-1.748-.221c.417.097.877.361 1.248.596-.475-.036-.974-.261-1.276-.546l.028-.05m15.025.147l.022-.169c.338.072.48.347.615.619-.251-.117-.406-.317-.637-.45m-10.836.322c-.053.127-.36.039-.395-.069.156-.012.305 0 .395.069m-.968.197c.139-.187.47-.016.573.074-.168.119-.481.026-.573-.074m11.241.367c-.109-.073-.251-.114-.223-.315.149.03.185.166.223.315m-15.35.052c-.166-.067-.386-.077-.418-.267.209.015.348.104.418.267m14.658.218c-.116-.068-.242-.133-.223-.343.172 0 .203.276.223.343m-14.342-.165c.137-.095.336.149.443.241-.181-.044-.311-.143-.443-.241m18.701.165c-.102-.01-.138-.088-.125-.219l.125.023v.196m-2.195 0l-.169-.166c.045-.033.179.061.169.166m-.2.668c-.349-.041-.404-.377-.539-.637.251.061.355.268.593.342.016.127.016.216-.054.295m-.709-.344c-.055-.061-.134-.099-.128-.224.069.047.19.135.128.224m-13.405.121c-.139.073-.442-.087-.486-.268.29-.038.307.204.486.268m12.543.813c-.335-.2-.705-.361-.666-.934h.051c.169.069.169.259.245.394.096.188.326.316.37.54m1.307-.22c-.23.359-.592-.141-.69-.369.307.045.506.203.69.369m-.637.74c-.181-.266-.444-.447-.521-.814.333.081.468.375.735.518-.005.169-.111.231-.214.296m3.05-.494c-.073-.031-.104-.117-.104-.222.138-.018.198.155.104.222m-.124.177c-.089.018-.123-.052-.075-.101.068-.009.068.055.075.101m-.392.096l.021-.121c.089-.014.109.039.097.121h-.118m.637.195c-.1-.06-.18-.143-.225-.271.117.056.213.125.225.271m-4.429.299c-.027-.101-.034-.216-.027-.346.446.2.708.717 1.232.763l-.021-.367c.149 0 .267.307.289.441v.616c.039.13.263.07.35.148.23.537-.257 1.14-.151 1.85.021.135.084.253.174.276.391.068.313-.825.269-1.115.232-.498.189-1.378.736-1.523.171.783.13 1.923.223 2.859.023.147.098.275 0 .417-.346-.145-.308.007-.563.168-.145.097-.362.156-.396.342l.046.274c.011.37-.167.72.149.817.124.035.278-.043.421-.097l.054-.301.344-.096c-.173.906-.847 1.308-1.157 2.07.051.143.188-.01.266.047.063.171-.037.371-.096.494-.124.714-.332 1.508-.374 2.296-.009.296-.011.66.057.906.103.418.382.753.461 1.139-.352.171-.917-.083-1.43-.124-.186-.022-.351.028-.541-.028.498-.605 1.105-1.204 1.16-2.268v-.592c.028-.244.135-.593-.068-.762-.017-.683 0-1.24-.082-1.826-.054-.425-.258-.808-.367-1.206l-.123-.617c-.135-.568-.27-1.249-.39-1.95.08-.334-.051-.771 0-1.126.063-.491-.174-.954-.149-1.386l-.296-.193m3.395 1.303c0-.195-.063-.41 0-.561l.026.02c.256.329.397.683.614 1.086.141.263.318.539.394.934.139.74.088 1.615.149 2.367.059.723.146 1.675-.024 2.372-.069.269-.31.599-.57.807-.352.295-.62.379-.812.642-.154.212-.162.514-.344.667-.084.067-.191.074-.3.122-.076.038-.144.165-.246.102.149-1.153.428-2.178.717-3.18l-.068-.251c.152-.313.474-.538.588-.885l.049-.342.096-.273c.014-.18-.102-.377-.117-.563-.097-.875-.152-2.082-.152-3.064m2.168-.241c.059-.058.14.003.198.022-.04.082-.205.1-.198-.022m.466 1.449c-.042-.057-.102-.111-.121-.193.054.05.135.078.121.193m-1.06.617c-.044-.17-.047-.348-.021-.541h.074c.046.188.235.492-.053.541m.939.495c.096-.39-.041-.752.393-.763.093.255-.223.446-.271.666-.049.245.052.482.052.736 0 .237-.025.518-.052.762-.102 1.225-.159 2.584-.191 3.656-.256-.041-.152-.388-.152-.55 0-.516-.045-.928-.122-1.353-.028-.178-.007-.428-.02-.669-.016-.174-.173-.524-.076-.787l.245-.222c.094-.211-.014-.659.023-.936l.171-.54m-.983.295h.073c.125.33.119.811.148 1.284.027.463.086.932.076 1.329.414.409.277 1.448.245 2.096l-.792-.201c-.021-.285.212-.447.293-.688.063-.16.029-.325.053-.516.022-.158.096-.302.099-.473.021-.891-.185-1.852-.195-2.758v-.073zm-24.832.323c-.127-.048-.183-.152-.225-.275.102.053.31.11.225.275m.222 2.582c.047.416-.015.788-.125 1.06-.179-.022-.133-.228-.173-.341-.064-.172-.221-.325-.272-.517-.063-.218-.061-.523-.097-.791-.06-.373-.14-.685-.098-1.086.2.049.286.333.51.273.125-.065.022-.262-.02-.322l.097-.171-.223-.4.223-.068c.201.446.062 1.236.072 1.921.004.166.08.292.106.442m-1.678-2.141c.052-.053.081.003.118.025l-.021.073c-.06 0-.094-.037-.097-.098m-24.413 12.072l-.447.457-.084-.099c-.318 0-.526.118-.629.361v.185h.185v.08h-.185l-.084-.08-.53.167c-.149.603-.27.903-.358.903l-.094-.36h.094l-.627-.63-.172.172c-.144 0-.27-.227-.357-.699l-.097.084-.531-.183c-.24.032-.359.128-.359.269l.179.178.18-.178c.269.114.417.238.435.357-.172 0-.262.058-.262.172.302.366.661.551 1.072.551v.08l-.174.188-.086-.268h-.102l-.086.08c0 .188-.059.272-.17.272l.17.357-.082.091c0 .174.145.264.441.264v.176h-.359v.268l.086 1.334-.086.458v.085l.086.09-.086.086v.1l.086.086h-.086c0 .228.146.467.447.715l.18-.182v-.088l.266.088h.094l-.094-.264v-.096l.264.096.274.264h.172v-.088l-.172-.271v-.093l.444.093-.172.186v.086l.09.088.614-.359.095.096h.086l.084-.541-.084-.09.084-.085v-.184l-.084-.089h.084l-.084-.443v-.717l.084-.629-.528-.088v-.087h.264l.095.087c.17-.239.258-.573.258-.984l-.172-.26c.117 0 .172-.119.172-.353.246 0 .359-.067.359-.19 0-.114-.146-.167-.447-.167l.192-.277h.084l.086.093h.357l.716-.532-.173-.188h-.816zm2.143 6.065c-.474.076-.711.193-.711.357v.104l.086.086h-.086v.17h-.17l-.1-.082-.174.354c-.298 0-.446.06-.446.183-.234.083-.353.172-.353.264l.17.354h.183l.168-.169c.552-.599.878-.903.988-.903l.094.102.538-.461.171.55v.082l-.171-.171-.271.171.169.538.361-.184v.092c.295 0 .443.055.443.185l.099-.093.358.093.532-.093h.179v-.268h.087v.36h-.086l-.095.089v.08l-.257-.08h-.103l-.087.08-.443-.17-.354.169-.44-.169v.089l-.091.08c0 .11.149.199.446.272l.521-.083.28.083-.28.446h-.082c0-.186-.115-.303-.354-.362l-.176.185-.097-.096-.168.186v.627c0 .113.111.174.355.174v.187h-.187l.272.616c-.233 0-.36.06-.36.182v.262l.088.099c-.077 0-.136.172-.168.532h.08l.088.083-.168.183.08.268v.093l-.08.087.265.172-.265.817h.08l.088.083v-.184h.188v.184c-.297.045-.446.129-.446.264l.355.45-.265.263.08.543v.083l-.08.087c.032.773.13 1.16.265 1.16l-.185.453h-.273l-.529-.354-.354.079h-.083c0-.291-.188-.44-.552-.44-.111 0-.168.086-.168.26h-.086v-.085c0-.349-.302-.583-.903-.715 0-.415-.145-.62-.444-.62v-.096l.444-.174-.084-.446v-.181l.172-.27-.353-.708.265-.101-.17-.441.086-.086v-.087h-.985l-.086.087-.624-.18.094-.268h.086l.272.176h.258c.549 0 .906-.121 1.069-.358l-.084-.443.084-.356-.084-.357v-.718l-.086-.086h.086l.084-.084c0-.463.1-.756.276-.902v-.089l-.084-.084c.296 0 .469-.089.527-.272v-.169h-.082l-.549.169-.437-.169v-.093l.35-.092c0-.479-.114-.719-.35-.719v-.359h.35v-.168l-.084-.086-.795.086-.362-.086-.628.086-.717-.086v.086l-.086.084c0 .119.146.188.447.188v.256c-.301 0-.447.064-.447.19v.082l.086.081-.086.102v.448l.086.089-.086.08c0 .123.146.189.447.189v.083c-.32.206-.502.563-.529 1.075h.082c.146.354.265.525.359.525l-.273.361.361.625v.089l-.26-.089-.188.183v.351l.086.087-.086.096v.09h.359v-.186l.443.363v.093l-.442-.094h-.086l-.273.266h.543v.086l-.457.104c0 .11.152.166.457.166v.271l-.27.091.27.357h-.27v-.272h-.188l-.086.542.188.443h.086l.086-.088v.173l-.359.09.086.357-.353.984v.089l.097.085-.359.185v.089l.085.085c.294-.092.444-.267.444-.532h.086l.188.174v.099l-.188.175v.085l.102.1v.081h-.189l-.17-.181-.274.1v.259l.718.187.174-.189c.375.419.853.629 1.428.629h.084l.103-.089.166.256.532-.256.188.356.268-.187h.093v.275c-.36 0-.549.057-.549.172 0 .107.188.2.549.27v-.089l.083-.083.438.172h.105l-.105.275v.168l.191.184h.087l.084-.082v.082l.09.09.355-.273-.256-.258c0-.086.115-.176.354-.274v.089l.083.088.176-.177h.1l.085.089.442-.27-.171-.172-.356.085-.456-.085v-.089c.42 0 .625-.087.625-.268h.085c0 .181.065.268.193.268h.08l.185-.187c.948 0 1.42-.238 1.42-.71h.182v.267h.175c0-.178.116-.267.354-.267l.188-.358.083-.085-.178-.273.178-.259c0-.125-.087-.183-.271-.183v-.086c.184 0 .271-.058.271-.177v-.098l-.178-.26c-.416.057-.624.142-.624.26l-.438-.26-.633.26-.184-.355.359-.092.457.092h.085l.088-.092.357.092h.086l.185-.174.262.174h.178v-.258c0-.129-.147-.189-.439-.189v-.268l.262.095.178-.181v-.09l-.083-.085h.083l.091-.095-.174-.175h-.46l-.614.083v-.083c.181 0 .267-.058.267-.172h.087l.092.083h.532l.178-.184-.178-.176h-.262l-.102.091c.155-.479.336-.718.541-.718l-.178-.173-.262.173c0-.181-.064-.266-.185-.266v-.092h.185l.081.092.358-.178-.083-.355h-.186l-.088.085-.081-.257h-.628c0-.187-.061-.275-.173-.275h-.103l-.087.089.19.275-.9-.089v-.093c.641-.211.974-.36.985-.449v-.27l-.275-.088-.267.088-.094-.088h-.082l-.085.088v-.088h-.182l.084-.089-.084-.441v-.086h.183l.085.086.273-.356.532.084v.085l-.088.102v.173l.088.082c.229 0 .464-.145.709-.441h.181l-.262.441h.081l.088.092c.123 0 .216-.236.271-.707h-.084l-.095-.102.178-.254v-.096l-.177-.266c-.713-.063-1.063-.152-1.063-.269l.352-.083.53.083h.275l.083-.083-.271-.989-.087.081-.266-.081.266-.272-.183-.256v-.104l.102-.084-1.16-.17-.098.086.098.271v.086h-.192v.17l.094.102h-.094c0 .238-.089.354-.266.354 0-.436-.173-.674-.531-.711v-.104l.088-.084v-.084c-.296 0-.446-.066-.446-.189m-4.814-3.735v.178l-.26-.091v-.087h.26zm0 2.852h-.26v-.09l.086-.085.174.175zm.179 9.008h.176l-.176.277-.439-.09v-.096l.439-.091zm-.353 1.607h.354v.1h-.354v-.1zm.353-12.938h-.18v-.187l.18.187zm-.084 4.735h.084v.18h-.084v-.18zm.444.532v.173h-.444v-.089l.444-.084zm-.094 2.504v.172h-.35v-.089l.35-.083zm-.35 4.907h.174v.086h-.174v-.086zm.084-9.011h.445v.086h-.445v-.086zm.091 7.222h.175v.086h-.175v-.086zm.533-9.281l-.265.27c0-.185-.062-.27-.184-.27v-.089l.09-.085.359.174zm.266.54v.175h-.714v-.09l.714-.085zm0 10.79v.1l-.266.081h-.094l-.084-.081h-.086l-.094.081v-.081l-.09-.1h.714zm-.444-13.289h-.18v-.178l.18.178zm.084 5.084v.093l-.084.089-.18-.182h.264zm-.264 3.396c0-.158.211-.279.624-.358v.172l-.266.093-.095-.093h-.083v.187h-.18m0 1.244c.136.176.343.271.624.271v.085l-.53.176h-.094v-.532m.264 1.957h.095l.094.092.086-.092h.086v.188h.358l.084-.096v.096l-.166.26-.19-.17h-.087l-.086.083h-.18v-.173h-.178l-.086.09v-.09l.17-.188zm-.17.721h.086v.172h-.086v-.172zm.264 1.244l-.178.19h-.086v-.19h.264zm0-4.108h.18l-.18.186h-.178l.178-.186zm.18-5.521l-.086.256h-.188l.095-.256h.179zm.172 1.517v.167h-.258l-.188-.167h.446zm-.352-6.429h.178v.093h-.178v-.093zm.18.716c0 .16.089.336.272.528-.242 0-.392-.177-.452-.528h.18zm.528 7.04v.102l-.356.086.19.354c-.238 0-.362.063-.362.176l-.18-.176.352-.094-.086-.448h.442zm-.442 3.394l.187.184h.09l.082-.083v.172h-.625l.266-.273zm-.172-5.711h.172v.082h-.172v-.082zm.086 9.102l.172.189h-.086l-.172-.189h.086zm.272-14.18v.085h-.272v-.186l.272.101zm-.186-.361h.187v.093h-.187v-.093zm.086 5.085l.19.184v.171h-.19l-.086-.272v-.082h.086zm-.086 6.868h.187v.095h-.187v-.095zm.086-8.475h.806v.09h-.806v-.09zm.272-1.072l.187.529h-.103c-.137 0-.224-.176-.256-.529h.172zm.084 4.023l.801.083v.173c-.172 0-.258.088-.258.273h-.18l-.178-.446-.269.173h-.172v-.173l.256-.083zm-.166-5.271h.166v.176h-.166v-.176zm.351 4.636l-.082.445h-.103l-.084-.08.084-.365h.185zm.084-3.558v.082l-.084.088-.185-.17h.269zm-.084 9.097v.172l-.185-.172h.185zm.263-11.685h.181l-.181.445h-.345v-.271l.345-.174zm-.263 8.108h.177v.102h-.177v-.102zm.263.449v.181l-.18.177h-.083v-.357h.263zm.095-9.099h.086v.085l-.181.18-.18-.18.275-.085zm-.274 9.991h.18v.091h-.18v-.091zm.36 4.912l.084.273-.35.081h-.094l.36-.354zm.446.532v.095l.085.095h-.359v-.095l.274-.095zm.182-.443h-.097l-.171-.175v-.099l.268.274zm.263.185h-.263v-.1l.093-.085.17.185zm-.263.259h.359v.094h-.359v-.094zm.359.896c0-.104.177-.199.532-.268v.081l.084.086v.101l-.53.089-.086-.089m.707.53v.275h-.174v-.09l.174-.185zm.711-11.16h.1v.104l-.275.086h-.083v-.086l.258-.104zm1.342-1.597l-.085.083.167.273h-.35c-.147.179-.298.271-.447.271v.174c.29 0 .587.088.891.271v-.086l.098-.09v-.096l.444.186h.088l-.088-.09.088-.096-.276-.445c-.167 0-.256-.062-.256-.175l-.098-.099-.094-.081h-.082zm-.627 1.343l.188-.182h-.188v.182zm.36 5.436v.092l-.263.093v-.094l-.097-.092h.36zm-.36.899h.188v.085h-.188v-.085zm.188 1.778l.085.096-.176.173-.097-.269h.188zm-.091-7.309h.176v.082h-.176v-.082zm.347 1.513l-.171.176h-.176v-.176h.347zm-.256 2.046l.172.182h-.087l-.176-.182h.091zm.521 2.233l.094.272-.261.083h-.354v-.083c.237 0 .354-.097.354-.272h.167zm.192 3.133c.112 0 .169-.092.169-.273h.087l.72.174h.083l.102-.085v.185l-.102.081-.614-.081h-.086l-.104.081.188.272h-.274l-.169-.354-.273.081-.439-.081v-.1c.292 0 .439-.085.439-.26l.273.36zm-.628-9.478h.354v-.165h-.354v.165zm0 5.542h.171v.086h-.171v-.086zm.269 1.788v.175h-.182l.182-.175zm-.098-8.382h.358v.086h-.358v-.086zm.457 5.965l.089.363h.08l.087-.092h.36l.182.185h-1.072l-.184-.185c.177 0 .266-.086.266-.271h.192zm.444.629l.172.441-.447-.085-.36.271h-.083l-.184-.186v-.085c.303 0 .457-.118.457-.356h.445zm-.718 3.304v.174l-.183-.174h.183zm.176-1.874l.098.271v.088l-.273-.088v-.095l.175-.176zm0-3.746l-.094.082v.092l.094.094v.087l.267-.087.275.087v-.087l.088-.094-.173-.174h-.457zm.63-3.223v.104l-.088.086.354.442h-.354l-.275-.528v-.104h.363zm-.173 2.063v.176h-.19l.19-.176zm-.19 4.018h.19v.085h-.19v-.085zm.629 1.064v.095c-.182 0-.266.063-.266.173h-.088l-.085-.085h-.103l-.087.085v-.268h.629zm-.354-.262h.445v.086h-.445v-.086zm.088-4.46h.179v.079h-.179v-.079zm.443 3.116v.542l-.265-.186.179-.356h.086zm-.086 3.304l.086.089v.27h-.086l-.178-.359h.178zm-.091-8.739h.177v.086h-.177v-.086zm.362 3.473c0 .148-.094.294-.271.446v.185h.086l.446-.099v.363h.178l-.083-.896h-.356m-.185 1.245h.185v.089h-.185v-.089zm.083-3.743h.102v.185h-.102v-.185zm12.085-.313l-1.072-.085c-.168 0-.25.193-.25.583l-.239-.163.239-.42v-.086l-.086-.072-.153.158v.085l-.251-.085-.249.085v-.085h-.159v-.158l.075-.084h-.075l-.085-.091h-.403v.091l.242.327-.49-.171-.09.086c-.318 0-.541.277-.661.828l-.253-.245v-.093c.209 0 .351-.105.421-.326v-.079l-.087-.085-.334.085-.319-.085-.243.085v-.085l-.086-.086-.156.171-.334-.085h-.093l-.076.085v-.085l-.084-.086v-.072c-.197 0-.418.078-.646.243h-.089c-.114 0-.178-.083-.178-.243h-.156c0 .16-.141.243-.409.243h-.24v-.171h-.181v.171c0 .108.196.165.584.165v.081l-.084.089v.07h.241v-.159l-.074-.081.246.081h.073l.09-.081.494.333h.085l.081-.093-.166-.24h.244l.084.081v.089l-.084.07v.093l.084.089h.084l.076-.089h.093c.63.384 1.074.577 1.314.577v-.178h.158c0 .186.144.327.406.422h.09l.084-.086.249.244.25-.244h.081l.073.086-.073.073.073.334-.073.254.073.331-.073.318h-.081l-.09-.074h-.071v.165l.315.082-.073.073.073.418v1.147l-.404-.16h-.084l-.075.083c-.065-.148-.398-.338-1.004-.576-.252 0-.553-.133-.895-.409h-.082l-.073.076c0 .388.182.578.563.578h.246c0 .169.11.278.336.331h.082l.077-.083c0 .141.16.275.487.407h.09l.084-.072c0 .164.279.27.826.32l-.246.576v.086l.073.079-.073.329.073.248v.086l-.073.076.073.331-.073.579h.073l.088.085h.085l.075-.085v.085l.084.077h-.084c-.661.769-1.043 1.16-1.145 1.16 0 .104.076.157.243.157v.083l-.084.079h-.09l-.069-.079h-.418c0 .217-.165.346-.495.412l-.735-.089h-.073c0-.212-.144-.323-.425-.323l.084-.083-.162-1.072c-.321-.106-.483-.214-.483-.322l.317-.085-.071-.579.071-.407-.071-.086.156-.158-.156-.174c.103-.131.184-.402.237-.811h-.081c-.266 0-.402-.147-.402-.424l.246-.072c0 .211.054.32.156.32l.403-.409v-.246c0-.11-.103-.159-.322-.159v-.089l.246-.087h.076l.093.087.088-.087c0-.104-.084-.158-.257-.158v-.161h-.084l-.985 1.147.073.338h-.319v.243c.166 0 .246.081.246.243.113 0 .163-.078.163-.243h.088v.405c0 .079-.112.166-.334.246l-.33-.084h-.079l-.085.084v-.162l-.336.252.089.066-.16.254c0 .114.079.168.252.168v.163l-.092.089h-.089l-.071-.089-.174.173v.406l.088.085c.165 0 .246.058.246.165-.293 0-.46.215-.493.648l.825.664c-.384 0-.578.051-.578.166.153.497.354.802.578.908h.163v-.243h.402c-.077.213-.245.348-.486.405l.413.337.163-.178.822.178v-.089c.558 0 .829-.06.829-.16v-.175l-.745-.16c0 .073-.159.155-.483.247l-.513-.087v-.075l.669-.243h.081l.246.158v-.158h.413v.158h.332v-.158h.159l.084.073c.424-.105.725-.246.903-.408l-.163-.25h.163c.203 0 .511-.195.91-.576h.073v.247l.581-.157v.24l-.493.166.16.157-.075.089c0 .274.086.443.249.492h.075l.084-.073v.073l.404-.162.336.089h.088l.068-.089-.245-.496.245.077h.095l.086-.077.405.077v.089l-.405.158v.261h.243v-.177h.077l.085.25c1.102-.045 1.646-.204 1.646-.492v-.089l-.165.173c-.567 0-.894-.16-.99-.496l-.251.079-.646-.079-.746.079h-.08v-.319l.239.157h.089l.249-.157h.068l.251.157h.25l.239-.247v-.085l-.076-.077c.216 0 .321-.054.321-.172l-.159-.156v-.09l.09-.069v-.087c0-.11-.166-.169-.492-.169v-.327c.326 0 .492-.049.492-.155v-.251l-.09-.084-.086.084h-.076l-.078-.084c.019-.121.154-.232.399-.342l-.159-.154.09-.334c0-.105-.084-.162-.252-.162v-.084c.168 0 .252-.057.252-.162v-.415l-.176-.165h-.076l-.078.094v-.092l-.085-.082c.278-.035.415-.113.415-.248v-.49l-.09-.076.09-.089-.176-.159.176-.495-.176-.167v-.096l.086-.066v-.089l-.086-.085.245-.246v-.159l-.069-.087.069-.072v-.421l-.069-.073-.09.073-.086-.073-.239.073-.501-.073v-.091l.424-.081.077.081h.325c.132 0 .216-.217.251-.651l-.092-.332.583-.664v-.079l-.073-.085v-.086l.16-.247c0-.075-.105-.168-.33-.243l-.407.66zm-6.421 8.315v.159l-.33-.077v-.082h.33zm-.33.489h.167v.085h-.167v-.085zm.241-8.217c0 .156-.055.24-.157.24 0 .216.302.762.915 1.644v.085l-.089.074.245.246h.081l.078-.073-.078.247.078.244h.244l-.16-.491.253-.082-.581-.83h-.16l-.087.09-.07-.254c.162 0 .246-.049.246-.157 0-.113-.109-.177-.335-.177 0-.232-.079-.509-.251-.806h-.172m-.074 5.173h.246v-.162h-.083l-.163.162zm.163 1.652l.246-.085h.088v.085l-.088.077c-.165 0-.246.056-.246.165l-.163-.165v-.254l.163.177zm-.089-1.251h.172v.094h-.172v-.094zm.335 2.488h.247l.332.157v.083h-.491l-.088-.083-.09.083h-.156l.246-.24zm-.163.487h.34v.165h-.34v-.165zm.986 1.484l.084.08-.818-.165c.055.384.137.577.246.577h.326l.415-.412v-.08l-.169-.157h-.084v.157zm-.243-1.565v.08l.081.077-.413.089v-.166l.332-.08zm.081-6.672v.172h-.166l.166-.172zm1.065-3.044v-.161c-.381.058-.903.47-.903.579l.829.243c.277 0 .32-.437.32-.171h.178v-.404h.485l.163.404.33-.072h.09l-.09-.244.249-.088-.159-.247-.174.161h-.09l-.069-.076c0-.166-.055-.241-.173-.241h-.563l-.423.317zm.246 1.066l.088.093-.165.157v-.25h.077zm.088-.159h.154v.089h-.154v-.089zm0 .409h.154v.088h-.154v-.088zm.154-1.979l-.064.094.158.158h.24l.087-.085-.168-.167h-.253zm.094.906l-.094.091v.084l.094.072h.082l.077-.072v-.084l-.077-.091h-.082zm.736.916l-.09.245h-.069l-.087-.245h.246zm.249.157l.084.088v.154h-.084l-.165-.154v-.088h.165zm.986-.49l.335.333v.089c-.166 0-.251.048-.251.156l-.333-.245h-.075l-.085.089v-.252h-.161v.163h-.242v-.252l.812-.081zm-.652-.653l.154-.174h-.154v.174zm.487 3.7l-.159.167v-.167h.159zm-.084.496h.172v.166h-.172v-.166zm0 1.226h.333v.084h-.333v-.084zm0 1.227h.247v.094h-.247v-.094zm.249-4.435l.173.164h-.248v-.164h.075zm.084 1.568v.161l-.159-.161h.159zm-.084-2.061h.173v.086h-.173v-.086zm.084 4.035l.161.16v.084l-.245-.244h.084zm0 2.144l.161.165v.157l-.245-.245v-.077h.084zm-.084 2.802v.071l.084.089.74-.089c0-.132-.212-.217-.651-.246l-.173.175zm.173-5.28h.162v.084h-.162v-.084zm.072-4.279h.17v.088h-.17v-.088zm.09 1.071l.08-.081.073.335h-.073v.157h-.08l-.09-.411h.09zm-.09 4.435h.17v.094h-.17v-.094zm0 2.974h.243v.077h-.243v-.077zm.243-7.816h.086l-.159.158h-.08l.153-.158zm.086 1.797h.089v.178h-.248l.159-.178zm-.159 3.721h.073v.156h-.073v-.156zm.409.398h.156l-.156.254v.088l.088.077-.338.08-.159-.322.409-.177zm-.089-2.217h-.247v-.082l.086-.076.161.158zm-.247 5.764l.175.171h.249l.068-.089-.156-.164h-.336v.082zm.424-9.056v.254l-.338-.09v-.245l.338.081zm-.088-1.321h.088l.163.182v.156h-.412v-.156l.161-.182zm-.161 5.758c0-.158.056-.24.161-.24l-.089.332h-.072v-.092m.249-2.13v.165l-.177-.165h.177zm.319.903l-.156.176h-.095l-.156-.176h.407zm-.156.824l-.251.084v-.167l.088-.079.163.162zm.24.988l.166.173v.158h-.25l-.407-.242v-.089h.491zm-.24 3.216c-.113 0-.197.165-.251.499h.337l.243-.178-.329-.321m-.163-6.509c0-.082.103-.165.319-.243l.25.082v.085l-.25.076-.07-.076-.249.165v-.089m0 3.538h.068v.179h-.068v-.179zm.403-5.76v.159l-.084-.073-.251.158v-.244h.335zm.089-.987l-.089.252-.24-.252v-.081l.329.081zm0 10.289c-.222.075-.329.161-.329.247v.24h.086l.32-.322v-.08l-.077-.085m.162-6.661v.248l-.405-.176v-.072l.07-.086.335.086zm-.335 4.105h.172v.09h-.172v-.09zm0 .58h.172v.09h-.172v-.09zm.084-5.757h.251v.073h-.251v-.073zm.166 3.205c0 .168.053.248.163.248v.086h-.078l-.251-.086v-.092l.166-.156zm.163 4.119l.162.159h.34l.084-.071-.173-.25-.413.162zm.162-1.409h.159v-.068h-.159v.068zm0 .496h.159v.089h-.159v-.089zm.34-8.967v.089l-.089.07-.161-.159h.25zm.244-.573v.084l-.16.158v-.086l.16-.156zm.405 9.462l.418-.08v.157h.075v-.244h-.493v.167zm18.993-16.322l-.441.457-.088-.099c-.326 0-.528.118-.633.361v.185h.188v.08h-.188l-.086-.08-.531.167c-.147.603-.261.903-.35.903l-.105-.36h.105l-.638-.63-.169.172c-.148 0-.265-.227-.36-.699l-.097.084-.524-.183c-.241.031-.367.128-.367.269l.191.178.176-.178c.266.114.418.238.44.357-.179 0-.278.058-.278.172.308.366.666.551 1.078.551v.08l-.176.188-.083-.268h-.1l-.082.08c0 .188-.061.272-.179.272l.179.357-.089.091c0 .174.15.264.439.264v.176h-.351v.268l.082 1.334-.082.458v.085l.082.09-.082.086v.1l.082.086h-.082c0 .228.148.467.44.715l.186-.182v-.088l.257.088h.105l-.105-.264v-.096l.272.096.267.264h.181v-.088l-.181-.271v-.093l.447.093-.174.186v.086l.09.088.614-.359.102.096h.087l.088-.541-.088-.09.088-.085v-.184l-.088-.089h.088l-.088-.443v-.717l.088-.629-.533-.089v-.087h.257l.102.087c.175-.239.254-.573.254-.984l-.167-.26c.111 0 .167-.119.167-.353.24 0 .362-.067.362-.19 0-.114-.152-.167-.441-.167l.18-.277h.086l.083.093h.358l.714-.532-.169-.188h-.81zm2.141 6.065c-.469.076-.719.193-.719.357v.104l.087.086h-.087v.17h-.168l-.096-.082-.18.354c-.291 0-.438.06-.438.183-.237.083-.358.172-.358.264l.168.354h.19l.174-.169c.539-.599.866-.903.984-.903l.083.102.542-.461.169.55v.082l-.169-.171-.266.171.168.538.357-.184v.092c.296 0 .444.055.444.185l.104-.093.349.093.532-.093h.187v-.268h.087v.36h-.087l-.095.089v.08l-.267-.08h-.094l-.089.08-.44-.169-.361.169-.444-.169v.089l-.086.08c0 .11.15.199.444.272l.53-.083.27.083-.27.446h-.083c0-.186-.124-.303-.361-.362l-.17.185-.101-.096-.174.186v.627c0 .113.12.174.358.174v.187h-.185l.271.616c-.234 0-.361.06-.361.182v.262l.091.099c-.072 0-.131.172-.174.532h.083l.091.083-.174.183.083.268v.093l-.083.087.274.172-.274.817h.083l.091.083v-.184h.185v.184c-.294.045-.444.129-.444.264l.36.45-.274.263.083.543v.083l-.083.087c.043.773.133 1.16.274 1.16l-.191.453h-.267l-.524-.357-.36.081h-.085c0-.291-.177-.44-.539-.44-.113 0-.174.086-.174.26h-.086v-.085c0-.349-.304-.583-.897-.715 0-.415-.153-.62-.45-.62v-.096l.45-.174-.088-.446v-.181l.167-.27-.355-.708.276-.101-.175-.441.087-.086v-.087h-.985l-.089.087-.631-.18.105-.268h.08l.27.176h.265c.548 0 .907-.121 1.073-.358l-.088-.443.088-.356-.088-.357v-.718l-.087-.085h.087l.088-.084c0-.463.084-.756.266-.902v-.089l-.086-.084c.297 0 .472-.089.527-.272v-.17h-.082l-.546.169-.441-.169v-.093l.362-.092c0-.479-.123-.719-.362-.719v-.359h.362v-.168l-.088-.086-.803.086-.363-.086-.622.086-.718-.086v.086l-.082.084c0 .119.148.188.44.188v.256c-.292 0-.44.064-.44.19v.082l.082.081-.082.102v.448l.082.089-.082.08c0 .123.148.189.44.189v.083c-.32.206-.495.563-.529 1.075h.089c.134.354.257.525.351.525l-.269.361.358.625v.089l-.259-.089-.182.182v.351l.082.087-.082.096v.09h.351v-.186l.449.363v.093l-.449-.093h-.086l-.265.266h.541v.086l-.459.104c0 .11.153.166.459.166v.271l-.276.091.276.357h-.276v-.272h-.183l-.082.542.182.443h.083l.086-.088v.173l-.351.09.082.357-.357.983v.089l.097.085-.355.185v.089l.09.085c.295-.092.444-.267.444-.532h.082l.183.174v.099l-.183.175v.085l.1.1v.081h-.182l-.179-.181-.266.1v.259l.709.189.176-.189c.378.419.854.629 1.429.629h.086l.104-.089.166.256.529-.256.187.356.275-.187h.084v.275c-.368 0-.546.057-.546.172 0 .107.178.2.546.27v-.089l.082-.083.45.172h.095l-.095.275v.168l.179.184h.085l.096-.082v.082l.084.09.351-.273-.255-.258c0-.086.12-.176.357-.274v.089l.088.088.17-.177h.104l.086.089.435-.27-.169-.172-.352.085-.464-.085v-.089c.423 0 .632-.087.632-.268h.086c0 .181.063.268.184.268h.083l.191-.187c.939 0 1.421-.238 1.421-.71h.182v.267h.17c0-.178.119-.267.358-.267l.181-.358.09-.085-.185-.273.185-.259c0-.125-.092-.183-.271-.183v-.086c.179 0 .271-.058.271-.177v-.098l-.185-.26c-.409.057-.614.142-.614.26l-.448-.26-.623.26-.188-.355.357-.092.453.092h.089l.086-.092.354.092h.089l.188-.174.257.174h.185v-.258c0-.129-.15-.189-.441-.189v-.268l.257.095.185-.181v-.09l-.09-.085h.09l.086-.095-.176-.175h-.453l-.615.083v-.083c.185 0 .272-.058.272-.172h.087l.081.083h.533l.185-.184-.185-.176h-.257l-.102.091c.155-.479.339-.718.543-.718l-.185-.173-.257.173c0-.181-.063-.266-.188-.266v-.092h.188l.086.092.355-.178-.09-.355h-.181l-.085.083-.086-.257h-.631c0-.187-.055-.275-.175-.275h-.094l-.089.089.183.275-.9-.089v-.092c.647-.211.974-.36.989-.449v-.27l-.271-.088-.271.088-.086-.088h-.083l-.083.088v-.088h-.194l.09-.089-.09-.441v-.086h.194l.083.086.266-.356.532.084v.085l-.086.102v.173l.086.082c.228 0 .467-.145.717-.441h.171l-.257.441h.086l.085.092c.12 0 .214-.236.271-.707h-.09l-.095-.102.185-.254v-.096l-.185-.266c-.701-.063-1.063-.152-1.063-.269l.361-.083.53.083h.266l.09-.083-.271-.989-.085.081-.273-.081.273-.272-.188-.256v-.104l.102-.084-1.163-.17-.096.086.096.271v.086h-.182v.17l.087.102h-.087c0 .238-.086.354-.271.354 0-.436-.176-.674-.535-.711v-.104l.091-.084v-.084c-.294 0-.444-.066-.444-.189m-4.818-3.735v.178l-.259-.091v-.087h.259zm0 2.852h-.259v-.09l.083-.085.176.175zm.186 9.008h.174l-.174.277-.444-.09v-.096l.444-.091zm-.362 1.607h.361v.1h-.361v-.1zm.362-12.938h-.186v-.187l.186.187zm-.085 4.735h.086v.18h-.086v-.18zm.447.532v.173h-.447v-.089l.447-.084zm-.106 2.504v.172h-.342v-.089l.342-.083zm-.341 4.907h.17v.086h-.17v-.086zm.085-9.011h.439v.086h-.439v-.086zm.085 7.222h.172v.086h-.172v-.086zm.531-9.281l-.254.27c0-.185-.066-.27-.188-.27v-.089l.083-.085.359.174zm.271.54v.175h-.714v-.09l.714-.085zm0 10.79v.1l-.271.081h-.087l-.087-.081h-.08l-.105.081v-.081l-.083-.1h.713zm-.445-13.289h-.186v-.178l.186.178zm.087 5.084v.093l-.087.089-.186-.182h.273zm-.273 3.396c0-.158.21-.279.631-.358v.172l-.271.093-.087-.093h-.087v.187h-.186m0 1.244c.141.176.348.271.631.271v.085l-.525.176h-.105v-.532m.272 1.957h.087l.096.092.084-.092h.092v.188h.355l.086-.096v.096l-.17.26-.183-.17h-.089l-.092.083h-.18v-.173h-.174l-.08.09v-.09l.168-.188zm-.167.721h.08v.172h-.08v-.172zm.254 1.244l-.174.189h-.08v-.189h.254zm0-4.108h.18l-.18.186h-.174l.174-.186zm.179-5.521l-.084.256h-.183l.087-.256h.18zm.181 1.517v.167h-.265l-.183-.167h.448zm-.36-6.429h.18v.093h-.18v-.093zm.179.716c0 .16.097.336.273.528-.235 0-.384-.177-.453-.528h.18zm.534 7.04v.102l-.353.086.183.354c-.239 0-.363.063-.363.176l-.18-.176.36-.094-.089-.448h.442zm-.442 3.394l.182.184h.09l.084-.083v.172h-.627l.271-.273zm-.175-5.711h.169v.082h-.169v-.082zm.083 9.102l.181.189h-.089l-.176-.189h.084zm.274-14.18v.085h-.273v-.186l.273.101zm-.182-.361h.182v.093h-.182v-.093zm.089 5.085l.183.184v.171h-.183l-.089-.272v-.082h.089zm-.089 6.868h.182v.095h-.182v-.095zm.089-8.475h.797v.09h-.797v-.09zm.267-1.072l.19.529h-.104c-.134 0-.226-.176-.26-.529h.174zm.086 4.023l.8.083v.173c-.167 0-.254.088-.254.273h-.188l-.171-.446-.273.173h-.174v-.173l.26-.083zm-.17-5.271h.168v.176h-.168v-.176zm.357 4.636l-.083.445h-.104l-.086-.08.086-.365h.187zm.083-3.558v.082l-.083.088-.188-.17h.271zm-.083 9.097v.172l-.188-.172h.188zm.257-11.685h.188l-.188.445h-.34v-.271l.34-.174zm-.257 8.108h.171v.102h-.171v-.102zm.257.449v.181l-.174.177h-.083v-.357h.257zm.102-9.099h.087v.085l-.188.18-.174-.18.275-.085zm-.276 9.991h.174v.091h-.174v-.091zm.363 4.912l.088.273-.362.081h-.088l.362-.354zm.436.532v.095l.093.095h-.362v-.095l.269-.095zm.192-.443h-.1l-.176-.175v-.099l.276.274zm.252.185h-.252v-.1l.084-.085.168.185zm-.252.259h.354v.094h-.354v-.094zm.357.896c0-.104.176-.199.523-.268v.081l.096.086v.101l-.533.089-.086-.089m.703.53v.275h-.18v-.09l.18-.185zm.711-11.16h.104v.104l-.274.085h-.088v-.086l.258-.103zm1.347-1.597l-.083.083.166.273h-.36c-.147.179-.293.271-.445.271l-.353.611c.291 0 1.393-.203 1.696-.019l-.451-.233.096-.09.237.096.188.287.302-.11-.28-.272.086-.096-.269-.445c-.177 0-.264-.062-.264-.175l-.096-.099-.087-.082h-.083zm-.632 1.343l.185-.182h-.185v.182zm.354 5.436v.092l-.254.093v-.094l-.101-.092h.355zm-.354.899h.184v.085h-.184v-.085zm.184 1.778l.086.096-.17.173-.101-.269h.185zm-.084-7.309h.17v.082h-.17v-.082zm.344 1.513l-.174.176h-.17v-.176h.344zm-.26 2.046l.17.182h-.084l-.17-.182h.084zm.531 2.233l.087.272-.253.083h-.364v-.083c.233 0 .364-.097.364-.272h.166zm.182 3.133c.117 0 .175-.092.175-.273h.089l.712.174h.086l.102-.085v.185l-.102.081-.615-.081h-.089l-.094.081.183.272h-.271l-.176-.354-.266.081-.447-.081v-.1c.298 0 .447-.085.447-.26l.266.36zm-.627-9.478h.36v-.165h-.36v.165zm0 5.542h.174v.086h-.174v-.086zm.279 1.788v.175h-.194l.194-.175zm-.105-8.382h.357v.086h-.357v-.086zm.453 5.965l.087.363h.088l.089-.092h.36l.182.185h-1.071l-.188-.185c.185 0 .271-.086.271-.271h.182zm.447.629l.178.441-.449-.085-.358.271h-.083l-.188-.186v-.085c.301 0 .453-.118.453-.356h.447zm-.712 3.304v.174l-.188-.174h.188zm.17-1.874l.096.271v.088l-.266-.088v-.095l.17-.176zm0-3.746l-.087.082v.092l.087.094v.087l.271-.087.271.087v-.087l.086-.094-.175-.174h-.453zm.627-3.223v.104l-.086.086.359.442h-.359l-.271-.528v-.104h.357zm-.174 2.063v.176h-.183l.183-.176zm-.183 4.018h.183v.085h-.183v-.085zm.631 1.064v.095c-.178 0-.273.063-.273.173h-.086l-.089-.085h-.094l-.089.085v-.268h.631zm-.359-.262h.44v.086h-.44v-.086zm.085-4.46h.187v.079h-.187v-.079zm.444 3.116v.542l-.257-.186.168-.356h.089zm-.089 3.304l.089.089v.27h-.089l-.168-.358h.168zm-.081-8.739h.17v.086h-.17v-.086zm.357 3.473c0 .148-.095.294-.276.446v.185h.089l.444-.099v.363h.185l-.09-.896h-.352m-.187 1.245h.188v.089h-.188v-.089zm.086-3.743h.102v.185h-.102v-.185zm12.091-.313l-1.068-.085c-.164 0-.245.193-.245.583l-.257-.163.257-.42v-.086l-.087-.072-.17.158v.085l-.244-.085-.244.085v-.085h-.16v-.158l.075-.084h-.075l-.084-.091h-.408v.091l.25.327-.497-.171-.087.086c-.319 0-.541.277-.667.828l-.245-.245v-.093c.213 0 .348-.105.424-.326v-.079l-.089-.085-.335.085-.316-.085-.247.085v-.085l-.084-.086-.165.171-.334-.085h-.082l-.075.085v-.085l-.08-.086v-.072c-.213 0-.428.078-.663.243h-.082c-.112 0-.171-.083-.171-.243h-.166c0 .16-.133.243-.404.243h-.248v-.171h-.167v.171c0 .108.188.165.569.165v.081l-.083.089v.07h.255v-.159l-.077-.081.245.081h.076l.086-.081.484.333h.093l.088-.093-.181-.24h.253l.093.081v.089l-.093.07v.093l.093.089h.08l.075-.089h.082c.63.384 1.07.577 1.317.577v-.178h.164c0 .186.131.327.406.422h.087l.084-.086.246.244.252-.244h.086l.072.086-.072.073.072.334-.072.254.072.331-.072.318h-.086l-.093-.074h-.071v.165l.322.082-.072.073.072.418v1.147l-.41-.16h-.083l-.076.083c-.068-.148-.397-.338-.999-.576-.255 0-.748-.76-1.091-1.032l-.386.538.419.161c0 .388.192.578.566.578h.244c0 .169.116.278.336.331h.082l.074-.083c0 .141.174.275.496.407h.087l.084-.072c0 .164.279.27.826.32l-.242.576v.086l.072.079-.072.329.072.248v.086l-.072.076.072.331-.072.579h.072l.086.085h.084l.075-.085v.085l.085.077h-.085c-.666.769-1.048 1.16-1.145 1.16 0 .104.081.157.243.157v.083l-.084.079h-.087l-.072-.079h-.424c0 .217-.159.346-.492.412l-.734-.089h-.076c0-.212-.146-.323-.419-.323l.093-.083-.165-1.072c-.333-.106-.498-.214-.498-.322l.317-.085-.071-.579.071-.407-.071-.086.164-.158-.164-.174c.111-.131.196-.402.252-.811h-.088c-.271 0-.41-.147-.41-.424l.246-.072c0 .211.056.32.164.32l.408-.409v-.246c0-.11-.11-.159-.32-.159v-.089l.245-.087h.075l.082.087.089-.087c0-.104-.085-.158-.246-.158v-.161h-.08l-.992 1.147.076.338h-.321v.243c.162 0 .245.081.245.243.104 0 .162-.078.162-.243h.085v.405c0 .079-.108.166-.337.246l-.333-.084h-.071l-.088.084v-.162l-.327.252.086.066-.162.254c0 .114.081.168.243.168v.163l-.081.089h-.086l-.076-.089-.172.173v.406l.086.085c.162 0 .248.058.248.165-.299 0-.463.215-.497.648l.826.664c-.39 0-.577.051-.577.166.155.497.35.802.577.908h.154v-.243h.416c-.082.213-.244.348-.499.405l.423.337.162-.178.83.178v-.089c.544 0 .82-.06.82-.16v-.175l-.74-.16c0 .073-.163.155-.497.247l-.499-.087v-.075l.663-.243h.088l.245.158v-.158h.402v.158h.338v-.158h.157l.09.073c.418-.105.715-.246.898-.408l-.158-.25h.158c.201 0 .506-.195.914-.576h.072v.247l.574-.157v.24l-.488.166.159.157-.075.089c0 .274.085.443.248.492h.076l.08-.073v.073l.414-.162.332.089h.084l.073-.089-.248-.496.248.077h.085l.088-.077.407.077v.089l-.407.158v.261h.255v-.177h.061l.092.25c1.102-.045 1.649-.204 1.649-.492v-.089l-.174.173c-.554 0-.886-.16-.983-.496l-.248.079-.651-.079-.737.079h-.095v-.319l.257.157h.085l.244-.157h.073l.249.157h.239l.253-.247v-.085l-.073-.077c.215 0 .316-.054.316-.172l-.16-.156v-.09l.087-.069v-.087c0-.11-.159-.169-.483-.169v-.327c.324 0 .483-.049.483-.155v-.251l-.087-.084-.083.084h-.073l-.088-.084c.022-.121.161-.232.404-.342l-.16-.154.087-.334c0-.105-.084-.162-.243-.162v-.084c.159 0 .243-.057.243-.162v-.415l-.17-.165h-.073l-.088.094v-.092l-.092-.082c.284-.035.423-.113.423-.248v-.49l-.087-.076.087-.089-.17-.159.17-.495-.17-.167v-.096l.083-.066v-.089l-.083-.085.243-.246v-.159l-.073-.087.073-.072v-.421l-.073-.073-.087.073-.083-.073-.253.073-.488-.073v-.091l.428-.081.061.081h.336c.138 0 .214-.217.248-.651l-.088-.332.579-.664v-.079l-.069-.085v-.086l.16-.247c0-.075-.115-.168-.336-.243l-.407.66zm-6.423 8.315v.159l-.333-.077v-.082h.333zm-.333.489h.178v.085h-.178v-.085zm.255-8.217c0 .156-.061.24-.172.24 0 .216.305.762.915 1.644v.085l-.084.074.248.246h.088l.072-.073-.072.247.072.244h.248l-.155-.491.237-.082-.583-.83h-.155l-.088.09-.074-.254c.165 0 .246-.049.246-.157 0-.113.146-.457-.069-.457 0-.24-.034-.551-.199-.854l-.475.328m-.078 5.173h.245v-.162h-.09l-.155.162zm.156 1.652l.252-.085h.085v.085l-.085.077c-.165 0-.252.056-.252.165l-.155-.165v-.254l.155.177zm-.078-1.251h.168v.094h-.168v-.094zm.33 2.488h.241l.336.157v.083h-.492l-.085-.083-.086.083h-.166l.252-.24zm-.162.487h.329v.165h-.329v-.165zm.992 1.484l.08.08-.825-.165c.06.384.139.577.244.577h.336l.402-.412v-.08l-.157-.157h-.08v.157zm-.253-1.565v.08l.088.077-.424.089v-.166l.336-.08zm.088-6.672v.172h-.181l.181-.172zm1.057-3.044v-.161c-.374.058-1.113.503-1.113.607l.898.55c.271 0 .459-.771.459-.506h.171l.076-.156.245.084.337.072.33-.072h.087l-.087-.244.246-.088-.159-.247-.171.161h-.087l-.072-.076c0-.166-.06-.241-.18-.241h-.565l-.415.317zm.244 1.066l.09.093-.159.157v-.25h.069zm.09-.159h.157v.089h-.157v-.089zm0 .409h.157v.088h-.157v-.088zm.158-1.979l-.076.094.165.158h.246l.089-.085-.179-.167h-.245zm.828 1.822l-.087.245h-.072l-.087-.245h.246zm.247.157l.083.088v.154h-.083l-.163-.154v-.088h.163zm.987-.49l.324.333v.089c-.159 0-.244.048-.244.156l-.329-.245h-.075l-.084.089v-.252h-.158v.163h-.25v-.252l.816-.081zm-.652-.653l.158-.174h-.158v.174zm.488 3.7l-.16.167v-.167h.16zm-.085.496h.171v.166h-.171v-.166zm0 1.226h.329v.084h-.329v-.084zm0 1.227h.245v.094h-.245v-.094zm.249-4.435l.168.164h-.244v-.164h.076zm.08 1.568v.161l-.156-.161h.156zm-.08-2.061h.168v.086h-.168v-.086zm.08 4.035l.165.16v.084l-.245-.244h.08zm0 2.144l.165.165v.157l-.245-.245v-.077h.08zm-.08 2.802v.071l.08.089.746-.089c0-.132-.22-.217-.658-.246l-.168.175zm.168-5.28h.158v.084h-.158v-.084zm.077-4.279h.174v.088h-.174v-.088zm.079 1.071l.095-.081.075.335h-.075v.157h-.095l-.079-.411h.079zm-.079 4.435h.174v.094h-.174v-.094zm0 2.974h.249v.077h-.249v-.077zm.249-7.816h.087l-.162.158h-.095l.17-.158zm.087 1.797h.085v.178h-.247l.162-.178zm-.162 3.721h.075v.156h-.075v-.156zm.407.398h.157l-.157.254v.088l.084.077-.329.08-.162-.322.407-.177zm-.091-2.217h-.241v-.082l.087-.076.154.158zm-.241 5.764l.172.171h.244l.073-.089-.157-.164h-.332v.082zm.416-9.056v.254l-.329-.09v-.245l.329.081zm-.084-1.321h.084l.158.182v.156h-.402v-.156l.16-.182zm-.16 5.758c0-.158.044-.24.16-.24l-.091.332h-.069v-.092m.244-2.13v.165l-.175-.165h.175zm.322.903l-.164.176h-.085l-.157-.176h.406zm-.164.824l-.242.084v-.167l.084-.079.158.162zm.247.988l.156.173v.158h-.239l-.406-.242v-.089h.489zm-.247 3.216c-.104 0-.184.165-.242.499h.33l.255-.178-.343-.321m-.158-6.509c0-.082.104-.165.322-.243l.239.082v.085l-.239.076-.076-.076-.246.165v-.089m0 3.538h.073v.179h-.073v-.179zm.405-5.76v.159l-.083-.073-.249.158v-.244h.332zm.096-.987l-.096.252-.247-.252v-.081l.343.081zm0 10.289c-.228.075-.343.161-.343.247v.24h.088l.315-.322v-.08l-.06-.085m.153-6.661v.248l-.407-.176v-.072l.076-.086.331.086zm-.332 4.105h.177v.09h-.177v-.09zm0 .58h.177v.09h-.177v-.09zm.083-5.757h.248v.073h-.248v-.073zm.157 3.205c0 .168.063.248.18.248v.086h-.088l-.248-.086v-.092l.156-.156zm.179 4.119l.156.159h.335l.083-.071-.17-.25-.404.162zm.157-1.409h.159v-.068h-.159v.068zm0 .496h.159v.089h-.159v-.089zm.335-8.967v.089l-.087.07-.161-.159h.248zm.24-.573v.084l-.157.158v-.086l.157-.156zm.416 9.462l.414-.08v.157h.074v-.244h-.488v.167zm5.171-10.821v.177l.172.182h.094l.086-.09-.18-.184.284.061.155-.146h.1l.084-.09v.09h.172v.085l-.525.184.088.261v.084l-.264-.085-.443.085-.099-.256v-.09l.099-.092h-.099l.136-.361-.576.27-.094.092c0 .117.094.182.28.182v.084l-.28.087-.081-.087h-.087l-.359.273c0 .236-.145.354-.443.354v.179l.101.082.072-.082.53.172.361-.172.099.352-.273.085.273.269h.088l.082-.091v.185c-.178 0-.269.059-.269.174v.352l.099.093c.228 0 .342.06.342.18l.355.099.218-.369-.032-.271v.188l.217.733.76-.408-.105-.354-.041-.147.273.09h.146-.273v.087c0 .091.146.181.444.253v-.079h.169v-.261c-.169 0-.257-.147-.257-.451.173 0 .257-.055.257-.181h.096l.096.09h.082v-.349c.238 0 .356-.086.356-.266h.089c0 .233.057.352.17.352l.1-.352h.169v.082h-.169v.09l.086.094c.197 0 .397.148.612.439h.276l.356-.354.09.085.271-.265.256.094c.122 0 .185-.086.185-.266h.085v.352l-.627.173.102.356v.092l-.102.082-.447-.082v.184c0 .088.242.207.721.34.477 0 .711-.115.711-.34.355-.232.529-.409.529-.542l-.084-.442.084-.351-.084-.095-.445.095h-.36l.168-.712c0-.15-.111-.241-.352-.273v-.085l.099-.09v-.085c-.149 0-.299-.082-.44-.27h-.271l-.18.171.18.273.085-.09c.3.147.441.295.441.448-.174 0-.256.057-.256.171v.271c0 .121.142.176.44.176v.095h-.185l-.441-.19-.265.19h-.099c.116-.472.269-.712.447-.712v-.182l-.084-.092-.265.092h-.099l-.082-.092-.447.092v.182l.085.084c-.233 0-.352.182-.352.533l-.261-.176c-.42.176-.628.354-.628.531h-.351l.096-.082-.191-.273-.257.095h-.274v-.095c.298-.041.447-.126.447-.26v-.104l-.085-.085-.892.187v-.357l.172.171.357-.261-.167-.358-.628-.354h-.088l-.437.443zm-.81 10.749l.265.314.727.212-.216-1.265-.413.564-.363.175zm.094-9.871h.355v.098h-.355v-.098zm.186 2.224v.099h.169c0 .182.088.264.274.264v.185h-.189l-.44-.092.44.44h.189v-.174l.258.085h.18l.178-.175-.047-.431-.482.254v-.175l.172-.182.259-.129-.084-.381-.347.334-.086.077h-.091v-.167h-.184l-.169.168zm.28 1.009c-.285 0-.399.152-.466.327l.187.541c.082 0 .349.203.432-.031l.262-.051.188-.188.09-.085h.088l.082.085.175.121.009-.206c0-.103-.21-.219-.623-.361h-.089l-.083.085-.252-.237m-.425 3.718l-.041 1.68h.539l.26-.176.712.801-.184-2.134-1.286-.171zm-.12 2.776l.332-.096-.066-.559h-.187l-.079.655zm1.236-5.625c-.71.098-1.059.219-1.059.365v.252l.257.188.902.885.189-1.194-.202-.411-.087-.085m-.717-3.731v.352h-.085l-.169-.352h.254zm.811 5.62c-.298 0-.452.394-.452.694-.235-.041-.358-.133-.358-.279l-.255.28v.078c.14 0 .186.242.339.424.12 0 .495.144.495-.039l.047-.385.178.178h.082l.1-.092-.182-.529.006-.33zm-.896-.557v.088l-.087.083c.179 0 .271.122.271.361l.143.459.4-.476-.283-.516-.26.088h-.099v-.172h.541l-.183-.186h-.53l.087.271zm-.086.703l.172.184h.099v-.085l-.184-.186h-.087v.087zm-.083 2.625l.254.494h.275l.266-.271.039-.244-.834.021zm.169-3.855v.087h.085l.189-.188v-.172h-.189l-.085.273zm.361-4.011l.083.274-.26.174-.099-.268.276-.18zm.265-1.058l.086.084h.178l.082-.084.184.26-.529.182.086.092-.086.352h-.094c0-.18-.122-.27-.349-.27l.401-.264.041-.352zm0 9.332c0 .168-.089.259-.266.259l.172.186h.094l.176-.186v-.259h-.176m-.093-8.094h.357v.094h-.357v-.094zm.709 7.188l.086.105-.256-.985-.22.629-.256.079-.063.277c0 .173.148.262.439.262 0 .18.088.268.27.268v.086h-.27v.088l.184.184c.118 0 .277.062.394-.408l.296.141.198-.156v-.172l-.084-.205.173.176h.084l.096-.089-.18-.278-.529.191c-.108 0-.168-.118-.182-.357h-.18v.164zm-.504 1.103l-.205.504v.095l.074.715.61-.875-.479-.439zm-.112-6.063h.176v-.089h-.176v.089zm.086 3.191h.093v.19h-.093v-.19zm-.093 1.485l.384-.521-.376-.066-.008.587zm.183-2.287l.27.272h.084v-.174l-.184-.271-.17.173zm1.414 4.178c0 .242-.173.387-.531.445h-.082l-.085-.085-.276.085h-.086l-.084-.085c-.179 0-.27.058-.27.174v.268l.12.62.627-.318.222.057h.188v-.175h.173l.18.175c.3-.098.571.244.571.048l.052-.491.088.269h.082l.1-.095v-.089l-.1-.085.798-.183-.166-.174h-.276l-.087.085v-.085l-.269.085c-.17 0-.259-.059-.259-.172l-.534.172h-.096v-.085h.191v-.177l-.096-.089.096-.095h-.191m-1.326-5.684h.182v-.085h-.182v.085zm0 .891v.086l.182.186c0-.235.056-.355.17-.355v-.087l-.086-.102-.266.272zm.795-2.931l.274.532-.987.177v.175l.449.089.097-.089v.185l-.473.111c.104.469.424.675.558.675l-.337.132.363.803.056-.302.362.085c.111 0 0-.178 0 0h.085l.18-.178v-.176c-.232-.039-.18-.01-.237-.27l.191-.076-.134-.549-.085.09h-.171v-.09h.171l-.444-.44h.273l.19.305.246-.48-.18-.177.084-.093c0-.117-.084-.17-.257-.17v-.094h.257v-.354h-.084l-.447.179zm-.713 5.15l.1.087.17-.171v-.091h-.27v.175zm0 2.221h.27v-.18l-.374-.393.104.573zm.1-8.795h.084v.173h-.084v-.173zm.17 3.996l.18-.178-.35-.354.17.532zm-.086 2.851l-.084.082v.082l.071.226.278-.226h.182v.093h-.182v.183h.795l-.169-.439-.088.082-.441-.082h-.362zm0-1.334l.086.084.18-.184v-.086h-.266v.186zm.028-1.039l.058.407v.089l.086.099h.094l.097-.099.285-.031-.137-.393-.483-.072zm.948 1.039c0 .297-.085.449-.256.449l-.273-.894-.543.7c.182.892-.333.463.845.628l.474-.278-.067-.605h-.18m-.804-1.072l.275.27h.082l.312-.353-.628-.288-.041.285v.086zm.093 6.039l-.094.101c0 .089.187.204.549.343l.436-.168.096.085.438-.36h-.184l-.087.101-.086-.101h-.178l-.096.101-.169-.189-.171.189-.455-.189v.087zm-.078-7.947l.342-.934.274-.174-.946.125.33.983zm.175 4.041l.167.184h.191l.083-.097v.097h.088l.085-.097v-.087l-.085-.084-.088.084h-.083l-.105-.084h-.253v.084zm0 3.208h.253v.168h-.253v-.168zm.358-5.256h.083l.173.185-.085.088c0 .146-.15.241-.444.271l.168.174h.276l.265-.174c0-.459-.246-1.001-.485-1.078l.049.534zm-.869 4.794l.897.102.228-.627-.173-.18-.379-.288-.573.993zm.869-3.637h.086v-.17h-.086v.17zm.083 5.241l-.083.102v.082l.083.09h.088l.085-.09v-.082l-.085-.102h-.088zm.257-10.393h.19v-.084h-.19v.084zm.037 8.408l.383-.449-.378-.765-.326.685.321.529zm-.037.841h.19v.085h-.19v-.085zm.36-9.607v.181h.184l.264-.269v-.085h-.264l-.184.173zm-.377 8.919l.932.186-.284-.663-.325-.002-.323.479zm.647.24h.089l.088-.089-.177-.179v.268zm.243-.424l.115.24v.095l-.074.27.58-.226-.041-.272-.58-.107zm.371-9.26h.19v.082h-.19v-.082zm.443-.635v.266l-.085.096h-.081l-.086-.096.086-.266h.166zm.188.635c0 .18.088.266.256.266v.086l-.082.085-.528-.085v-.086h.166v-.184l-.085-.082h.273zm-.458 9.797l.481.068.15-.182.082-.089-.168-.179h-.361l-.184.382zm.813-10.687c-.086.24-.172.357-.267.357h-.088l.088-.357h.267zm-.487 10.205l.603.232-.212-.705-.171.216-.22.257zm.577-.516v.086l.09.082-.09.091v.089h.259l.124-.204-.208-.144.084-.098-.084-.088-.175.186zm.885-8.274l.263.181-.263.451-.085-.102-.269.102h-.09v-.102c.242 0 .358-.176.358-.53h.086zm-.183-1.332h.184v.088h-.184v-.088zm.446.274l-.095.084.189.176h.259v-.176l-.259-.084h-.094zm.095.799v.171l-.189-.171h.189zm6.348-1.43c-.432 0-.688.12-.765.346v.088l.088.084c-.401 0-.605.084-.605.261-.424.22-.709.449-.847.68l.429.432c.255 0 .428.278.507.856v.079l-.089.084.26.245h.172v-.246l.258.075c.127 0 .206-.141.251-.42h.087l.082.086h.173l.089-.086c0-.113-.143-.174-.431-.174v-.083l.087-.089c.292.057.521.172.691.346h.158l.167-.174.267.082.929-.932c-.263-.318-.456-.49-.585-.516-.711-.686-1.165-1.024-1.373-1.024m-1.554 9.264l.104.381.08.087c.465-.168.349 1.603.349-.263.216 0 .43 1.781.43.346h.071l.095-.083v-.087l-.095-.09c.229 0 .38.118.437.342h-.17l-.51-.082-.258.082.172.254v.082l-.257-.082c0-.164-.056-.254-.175-.254h-.331l.075.254v.082l-.075-.082-.431.168v.089l.082.083.262-.083h.087l.075.083.345-.083h.086l.172.173.085-.09h.329v.09h-.329v.346h.329v.176h-.501l-.085.071v-.071h-.086l-.089.071c0 .133.144.222.432.263v.081h-.257v.171l.586.09h.095l.085-.09h.087l.082.09.351-.09.259.163h.07v-.163h.088l.254.163h.093v-.163h.087l.083.09c.38 0 .663-.172.846-.523 0-.106-.165-.186-.504-.242v-.086l.157-.175v-.087l-.085-.084-.247.084h-.081v-.257c0-.336-.169-.511-.521-.511l.126.154.519-.426-.293-.412-.236-.143-.859.082.067-.029h-.521v.176h-.071l-.258-.176-.356-.203-.351.343zm-.231 1.487l.172.175h.506l.085-.09-.171-.172h-.592v.087zm.592-4.179l-.089.084v.176c-.287-.156 1.005 2.914.518.679h-.086l-.085.087h-.087l-.171-.176-.178.176-.026.46.342.259c.205-.289.291-.35.291-.461l.172.172.42-.086.143.181.379-.095v.068l-.087.09.245.258.17-.17-.17-.246v-.086c.285 0 .435.083.435.244h.17v-.158l-.083-.086.169-.178-.256-.253v-.089l.087-.086v-.089l-.087-.083c-.18 0-.265-.057-.265-.162h-.082l-.088.073v.089l.088.083h-.158c0-.165-.068-.245-.175-.245h-.084l-.178.162h-.085l-.088-.089h-.169l-.085.089-.424-.332.086-.084.037-.236-.466.06zm-.178 2.129c.178 0 .264.09.264.263h.172v-.173h.343v.256l.42-.083h.351v-.173h.171l.088.256c.445-.067.675-.188.675-.346l-.274-.691-.33.018v.764c0-.171-.059-.264-.158-.475h-.604l-.085.148-.848-.178-.185.414zm1.133-5.308c.337.131.745-.326.745-.238l.255-.17-.273.322c0 .274.166.267-.227.627 0-.405.253-.723.142-.723l-.403.117-.239.065.327.459v.082l-.089.074.262.089-.14.022-.348.174-.131-.039c0-.174-.209-.075-.32-.075h-.174v.175h-.085v-.175l.085-.082.424.082.172-.171v-.074l-.267-.082c-.501.064-.761.145-.761.245v.082l.089.085h-.089l.175.174-.175.262v.26l.347-.084h.085l.086.084.338-.084h.085l.087.084h.082l.088-.084v.084l.085.072.595-.156v.328l-.088.086-.158-.172-1.025.171-.259-.258v.172h-.172l-.086-.086-.089.086.089.342-.089.349c0 .104.089.156.26.156v.093c-.171 0-.26.052-.26.172v.083l.417.125.588.091.022-.127-.087.086c-.221 0-.335.053-.335.176l.155.169h.267l.082-.085.088.085.102.019.855.26.156-.193.083-.085-.17-.431-.435.086c-.162 0-.245-.061-.245-.175l.415-.083.085.083h.18l.087-.083v-.088l-.087-.084-.435.084-.158-.177v-.239l.158-.177.342.26h.093l.17-.515c-.14 0-.283-.09-.435-.262l.172-.242h.093l.087.084h.083v-.26l-.083-.086.083-.09v-.086l-.083.086h-.087l-.093-.086-.172.176-.17-.176.255-.341-.255-.245v-.093c.462 0 .69-.309.69-.934l-.256-.175-1.283-.086.105.829zm-.697-2.701h.085l.086.087-.086.335-.343-.335.258-.087zm-.542 3.048l.552.078.075-.4.044.377.313-.041-.1-.336-.354-.317-.53.639zm.713-1.603l.088.254h-.088l.088.26v.096l-.259-.096v-.086l.085-.428h.086zm.338 3.242c0 .281.053.432.172.432v.083l-.087.086h-.085l-.095-.086h-.243l-.086.086v-.086l-.085-.083c.28-.063.414-.202.414-.432h.095zm-.338-.941h.088v.176h-.088v-.176zm0 3.925h.172v-.09h-.172v.09zm.243 1.712l.437.075v.082h-.68v-.082l.243-.075zm-.071-4.025l.166.177h-.095l-.155-.177h.084zm-.084 5.386h.157v.081h-.157v-.081zm.155-10.241h.095v.178h-.095v-.178zm.18 2.564h.087l.082-.081-.056-.604-.427-.109.314.794zm-.085 4.515v.09l.085.08.169-.17v-.088l-.082-.09-.172.178zm.515-2.224v.177h-.431v-.084l.431-.093zm.488 4.108l.345.16.107.346c-.18 0-.267.057-.267.172v.09l.436-.09h.081l.023.113-1.365-.076-.278.229v-.176c.562-.053.849-.146.849-.262v-.084l-.329.084-.263-.084v-.173h.174v-.175l-.089-.082.218.736.377-.396.434.174-.434-.589-.019.083zm-.662 1.782c-.17 0-.257.053-.257.167l.52.349-.089.086.173.172h.087l.593-.518v-.089l-.093-.085-.087.085-.085-.085c-.113 0-.17.085-.17.263-.104 0-.158-.089-.158-.263v-.082l-.26.082h-.089l-.085-.082m.174-10.915h-.262l-.082-.086v-.076l.082-.085.262.247zm-.344.348h.167v.085h-.167v-.085zm.255-1.027h.089v.172h-.262l.173-.172zm0 2.808h.178v-.08h-.178v.08zm0 2.48h.178v.089h-.178v-.089zm.178 4.098h.084v.165l-.084.092h-.089l-.089-.092.178-.165zm.329-8.707v.348h-.418v-.09l.418-.258zm-.07.865l-.175.247-.173-.174v-.073h.348zm-.259 2.548h.17v.176h-.17v-.176zm.171 2.898v.262h-.171v-.087l.171-.175zm.93-11.19c0 .206-.108.405-.337.602h-.093l-.087-.084v.084l.18.265c-.287.018-.435.1-.435.247v.165l.088.086-.246.265.158.172c0 .104-.083.161-.245.161v.168l.245.088c.521-.034.771-.117.771-.256l-.167-.246.596-.172-.097-.346v-.086l.097-.093-.335-.08.311-.139.024-.2.17.177c.096 0 .179-.177.255-.519v-.086l.263.086c.223 0 .329-.086.329-.26v-.085l-.422-.074h-.084l-.017-.07-.839-.44-.083.67zm-.842 2.303l-.088.086v.089l.088.088.07-.088.17.168.172-.168-.172-.175h-.24zm-.088 1.985h.159v.084h-.159v-.084zm0 11.002h.159v.081h-.159v-.081zm.328-4.014l.172.176h-.342v-.176h.17zm-.082-6.644h.167v.161h-.167v-.161zm.053-4.096l.262-.055.202-.137.086-.504h-.169l-.381.696zm.201 5.12v.161h-.172l.172-.161zm-.552 2.931l.603.579.212-1.379-.899-.665.084 1.465zm1.075-2.843l-.175.155v-.155h.175zm.081 9.546h.159v.081h-.159v-.081zm.339-15.795l.559.26-.354-.425-.205.076v.089zm0 1.525h.257v-.08l-.092-.074-.165.154zm.257 13.498l-.092.087.175.422h.17l-.17-.509h-.083zm.253 2.049h.178l-.178-.172v.172zm.093-1.877h.159l-.159-.172v.172zm-49.806-10.921l-.134.405.21.094.189-.141.088-.09-.187-.184.244.074.204-.159h.094l.086-.09v.09h.182v.085l-.531.184.085.261v.085l-.265-.085-.437.085-.106-.256v-.09l.106-.092h-.106l-.083-.092h-.355l-.088.092c0 .117.088.182.276.182v.084l-.276.087-.087-.087h-.084l-.358.273c0 .236-.148.354-.437.354v.179l.095.082.069-.082.532.172.357-.172.103.352-.277.085.277.269h.086l.081-.091v.185c-.178 0-.27.059-.27.174v.352l.061.4c.232 0 .378-.248.378-.128h.192l.168-.542h.184l-.108.326.331.201.618-.105.021-.246-.01-.144.296-.382.103.451h-.274v.087c0 .091.149.181.449.253v-.079h.164v-.261c-.164 0-.253-.147-.253-.451.17 0 .253-.055.253-.181h.106l.083.09h.087v-.349c.24 0 .35-.086.35-.266h.096c0 .233.052.352.175.352l.091-.352h.171v.082h-.171v.09l.086.094c.2 0 .463.355.679.658l.313-.177.26-.396.083.085.269-.265.265.094c.115 0 .183-.086.183-.266h.081v.352l-.876.25-.055.187v.111l.304.155-.443-.082v.184c0 .088.241.207.719.34.478 0 .714-.115.714-.34.355-.232.53-.409.53-.542l-.09-.442.09-.351-.09-.095-.44.095h-.362l.178-.712c0-.15-.123-.241-.357-.273v-.085l.099-.09v-.085c-.153 0-.298-.082-.447-.27h-.269l-.173.171.173.273.086-.09c.296.147.447.295.447.448-.179 0-.265.057-.265.171v.271c0 .121.149.176.447.176v.095h-.183l-.447-.19-.259.19.087-.256.256-.456v-.182l-.084-.092-.259.092h-.101l-.088-.092-.445.092v.182l.09.084c-.237 0-.354.182-.354.533l-.264-.176c-.414.176-.628.354-.628.531h-.339l.083-.082-.189-.273-.253.095h-.281v-.095c.3-.041.446-.126.446-.26v-.1l-.081-.085-.896.187v-.357l.182.171.349-.261-.168-.358-.627-.354h-.085l-.445.443zm-.804 10.749l.19.184h.614v-.626l-.779.032-.025.41zm.087-9.871h.355v.098h-.355v-.098zm.189 2.224v.099h.167c0 .182.09.264.275.264v.185h-.192l-.438-.092.12.555.511-.114.12.035.132-.126h.187l.177-.175.11-.883-.641.706v-.175l.167-.182.197-.195.01-.162-.245-.117-.215.376h-.086v-.167h-.189l-.167.168zm.356 1.08c-.296 0-.482.082-.545.257l.104.655c.094 0 .438.083.521-.151l.32-.021.125-.211.092-.085h.085l.085.085h.094l.086-.085c0-.103-.207-.219-.628-.361h-.085l-.082.085-.172-.168m-.484 4.579l-.061.748h.545l.254-.176v-.086l-.019-1.082-.719.596zm-.061 1.287l.188.168.027-.639-.237.024.022.447zm1.163-5.068c-.714.098-1.06.219-1.06.365v.252l.253-.252.627.074.265-.265v-.09l-.085-.084m-.724-3.731v.352h-.083l-.167-.352h.25zm.856 5.63c-.293 0-.496.384-.496.685-.237-.041-.36-.133-.36-.279l-.25.279-.183.739c.138 0 .268-.153.426.03.117 0 .367-.506.367-.691h.271l.177.178h.085l.094-.092.012-.492-.143-.357zm-.939-.567v.088l-.086.083c.179 0 .275.122.275.361h.172l.266-.272-.184-.26-.254.088h-.106v-.172h.544l-.184-.186h-.529l.086.27zm-.086.703l.169.184h.106l.515-.229-.765-.225-.025.184v.086zm.061 2.587l.108.532h.278l.266-.271v-.321l-.652.06zm.025-3.817v.087l.193.17.494-.229-.412-.302h-.192l-.083.274zm.361-4.011l.082.274-.254.174-.106-.268.278-.18zm.266-1.058l.088.084h.177l.085-.084-.303.196-.366.208.407.129-.088.352h-.099c0-.18-.116-.27-.339-.27l.339-.615h.099zm0 9.332c0 .168-.088.259-.266.259l.167.186h.099l.18-.186v-.259h-.18m-.099-8.094h.363v.094h-.363v-.094zm.714 7.188l.096.105h-.096v.173l-.615-.278-.099.105c0 .173.152.262.448.262 0 .18.087.268.266.268v.086h-.266l-.17.186.35.086c.12 0 .859.739.977.262l-.53-.976.084.089h.088l.479.414-.12-.414h.083l.106-.089-.189-.278-.446-.047c-.104 0-.079-.105-.267-.119l-.558-.138.379.303zm-.766 1.41l.052.197v.095l.099.089.539-.164-.69-.217zm.151-6.37h.177v-.089h-.177v.089zm.088 3.191h.092v.19h-.092v-.19zm.057 2.542l.738-2.181-1.203-.499.465 2.68zm-.195-3.178l.493.106h.086v-.174l-.398-.433-.181.501zm1.639 4.012c0 .242-.174.387-.529.445h-.084l-.084-.085-.276.085h-.087l-.086-.085c-.176 0-.264.058-.264.174v.268l.17.184h.798v.175h.188v-.175h.17l.189.175c.292-.098.438-.248.438-.443h.178l.087.269h.088l.091-.095v-.089l-.091-.085.795-.183-.172-.174h-.266l-.096.085v-.085l-.262.085c-.175 0-.271-.059-.271-.172l-.52.172h-.104v-.085h.189v-.177l-.083-.089.083-.095h-.189m-1.324-5.684l.36-.077.016-.258-.51.095.134.24zm0 .891v.086l.179.186c0-.235.063-.355.172-.355v-.087l-.087-.102-.264.272zm.794-2.931l.276.532-.986.177v.175l.443.089.099-.089v.185l-.276.089c.11.465.229.697.36.697l-.084.101.026.536.197.364.135-.535c.109 0 .175.074.175.252h.081l.189-.178v-.176c-.24-.039-.396-.185-.445-.451l.445-.167-.189-.276-.081.09h-.175v-.09h.175l-.449-.44h.274l.445.089v-.265l-.189-.177.083-.093c0-.117-.083-.17-.253-.17v-.094h.253v-.354h-.083l-.446.179zm-.71 5.15l.094.087h.375l-.232-.492-.461.171.224.234zm-.261 2.373l.451.101.076-.433h-.266l-.261.332zm.355-8.947h.086v.173h-.086v-.173zm.46 4.144l-.178-.766-.73.606.908.16zm-.374 2.703l-.086.082v.082l.086.093.264-.093h.183v.093h-.183v.183l.85.244-.218-.684-.089.082-.444-.082h-.363zm0-1.334l.01.371.521-.365-.267-.191h-.264v.185zm.182-.714l-.096.083v.089l.096.099.236.18-.056-.278v-.089l-.099-.083h-.081zm.795.714c0 .297-.081.449-.256.449l-.19-.279-.444.279c0 .113.213.196.635.256l.528-.256-.084-.449h-.189m-.795-1.072l.265.27h.084l.088-.084-.354-.271h-.082v.085zm.082 6.039l-.082.101c0 .089.173.204.539.343l.445-.168.083.085.437-.36h-.181l-.086.101-.083-.101h-.17l-.106.101-.164-.189-.175.189-.457-.189v.087zm-.46-8.503l.71.025-.032-.786-.55.037-.128.724zm.558 4.597l.168.184h.19l.086-.097v.097h.089l.253.06.051-.522-.086-.088-.307.367h-.086l-.125-.326-.36.124.127.201zm0 3.208h.256v.168h-.256v-.168zm.359-5.256h.086l.17.185-.081.088c0 .146-.149.241-.449.271l.172.174h.277l.271-.174c0-.459-.123-.727-.359-.798l-.087.254zm-.696 4.851l.772.057.18-.639-.17-.18-.166-.537-.616 1.299zm.696-3.694h.089v-.17h-.089v.17zm.086 5.241l-.086.102v.082l.086.09h.089l.081-.09v-.082l-.081-.102h-.089zm.068-10.409l.207.232.209-.374-.162-.111-.254.253zm-.039 8.07l.455.435-.042-.572-.427-.367.014.504zm.224 1.195h.188v.085h-.188v-.085zm.359-9.607v.181h.185l.265-.269v-.085h-.265l-.185.173zm-.136 8.766l.552.112-.149-.437h-.181l-.222.325zm.197.404l.302-.012.127-.197-.564-.069.135.278zm.653-.279l-.086.084-.187.314.398.013.236-.232-.182-.179h-.179zm.181-9.416h.182v.082h-.182v-.082zm.437-.635v.266l-.09.096h-.082l-.084-.096.084-.266h.172zm.189.635c0 .18.084.266.255.266v.086l-.088.085-.527-.085v-.086h.172v-.184l-.09-.082h.278zm-.614 9.779l.464.188.316-.283.146-.123-.229-.145h-.362l-.335.363zm.969-10.669c-.094.24-.18.357-.271.357h-.084l.084-.357h.271zm-.635 10.212l.501.1.033-.364h-.171l-.363.264zm.725-.523l-.124.029-.095.069.219.16-.224.364.477-.275-.084-.262v-.086l.084-.098-.084-.088-.169.187zm.88-8.274l.264.181-.264.451-.081-.102-.271.102h-.091v-.102c.24 0 .361-.176.361-.53h.082zm-.18-1.332h.18v.088h-.18v-.088zm.443.274l-.086.084.185.176h.254v-.176l-.32-.322-.033.238zm.099.799v.171l-.185-.171h.185zm7.541 22.41l-.171-.034-.184.034-.076.016-.099.897.022-.007.261-.078.15-.108c.107-.116.176-.244.19-.396l-.015-.215-.078-.109zm26.403 3.537c.13 1.09.609 3.699-.136 5.752-.582-1.263-2.582-4.24-6.466-4.033-1.55.092-3.607.754-3.326.096l.097-.124c.129.013.301 0 .47-.048.42-.117 1.415-.287 2.329-.256.91.031 2.187.229 2.478-.229-.425-.394-1.447-.743-2.416-1.007-4.03-.642-11.386-.427-19.068 1.447-9.725 2.372-20.812 2.354-23.469 1.957-2.649-.387-1.482-2.385-1.445-2.879l.003-.129c-1.115.019-7.02-.145-9.341-5.414.723.203 3.019.36 3.817.207-.098-1.097-.496-3.721.308-5.746.538 1.277 2.446 4.317 6.337 4.229 1.559-.041 3.632-.647 3.33.01-.074.075-.175.218-.304.405.073-.146.146-.259.209-.317.311-.234-.178-.292-.59-.143-.411.148-1.395.398-2.306.432-.878.037-2.072-.051-2.403.357 3.089 3.639 28.233-2.331 37.534-2.864 9.327-.536 8.697 1.064 8.694 1.501 0 .563-.103 1.141-.201 1.769.155-.013 6.973-.565 9.686 5.115-.729-.176-3.03-.268-3.821-.088zm-51.937-5.379l.006.004.002-.013-.008.009zm7.506 4.029l-.115-.006c-.82-.022-1.636-.082-2.408-.163l-.104-.013-.146.869.25.051.036-.1c.033-.122.084-.217.132-.284.058-.065.117-.112.188-.134l.297-.023h.084l.114.004-.189 1.694-.044.244-.059.093-.08.037-.104.01h-.028l-.112.038-.019.221.106.017c.365.029.752.057 1.152.078l.105.004.025-.264-.112-.008-.126-.029-.066-.047-.026-.094.004-.245.196-1.714c.198.018.337.039.419.067.099.031.171.087.22.155.05.064.079.176.085.32l.012.108.258-.01.055-.876zm3.507-.082l-.13.009c-.384.022-.767.045-1.148.058l-.106.043-.019.223.125.004.126.016.056.04.031.081-.009.24-.052.48c-.351.018-.709.023-1.047.033l.054-.451.039-.246.067-.099.083-.055.138-.024.094-.01.025-.26-.125.004c-.379.006-.761.01-1.142.006h-.108l-.026.26.124.006.123.022.064.047.034.079-.016.248-.151 1.318-.039.246-.067.096-.078.048-.144.025-.094.007-.035.264h.129l.429.002.722-.006.111-.041.02-.226-.125-.002-.122-.027-.057-.033-.039-.085.016-.246.058-.557c.346-.003.69-.01 1.045-.033l-.059.53-.042.248-.067.104-.085.058-.14.022-.098.053-.026.223.131-.004c.386-.014.769-.027 1.153-.051l.095-.009.027-.265h-.131l-.12-.015-.052-.038-.038-.079.01-.24.148-1.323.052-.243.066-.104.081-.061.144-.031.089-.008.028-.271zm2.72 1.463l-.258.016-.026.073-.097.255-.109.167c-.063.068-.133.126-.219.167-.089.043-.206.076-.335.085-.112.009-.207.004-.271-.02l-.103-.106-.02-.138.032-.351.033-.318h.011l.184.002.066.039.048.09.02.188.044.118.217-.025.141-1.185-.264.014-.018.088-.061.192-.066.095-.096.062-.189.038.096-.844.32-.035.277-.006.136.049.105.109.032.195.055.125.216-.041.047-.812-.132.017c-.659.074-1.317.138-1.942.191l-.092.02-.015.123.015.129.135-.005.097.014.055.037.029.067-.011.25-.152 1.319-.046.251-.066.11-.086.06-.134.029-.096.016-.025.266.138-.009c.69-.058 1.409-.128 2.156-.216l.086-.011.138-.944zm2.754-1.564l.04-.121.074-.119c.07-.084.16-.13.264-.155l.171.021.125.127.053.131.052.233.026.112.236-.041.088-.945-.249.037-.03.068-.023.027-.106-.021-.209-.035-.178.01c-.202.035-.381.131-.544.277-.086.09-.159.19-.214.299-.058.11-.097.222-.106.336-.023.197.028.361.141.482l.16.121.271.106.249.108.097.08.047.102.006.145c-.012.117-.063.219-.149.309-.082.092-.179.143-.293.167-.152.022-.262-.029-.347-.173-.052-.082-.095-.207-.119-.373l-.018-.103-.233.02-.104.836-.016.149.255-.037.02-.058.051-.043.12.031c.151.042.317.056.484.019.194-.026.361-.1.512-.209.148-.107.272-.242.356-.414.06-.118.099-.24.111-.365.028-.195-.019-.363-.117-.494-.094-.114-.239-.207-.451-.27l-.239-.077c-.257-.085-.273-.205-.264-.3zm3.249-1.149l-.153.029-1.156.221-.09.061-.024.228.143-.021.132-.002.047.022.025.063-.008.243-.149 1.334-.05.247-.072.12-.09.074-.144.055-.084.016-.026.271.156-.023 1.161-.225.082-.059.024-.229-.146.019h-.146l-.039-.027-.018-.079.017-.216.147-1.33.03-.203.081-.169.102-.068.136-.06.092-.061.02-.231zm3.883-.81l-.775.166-.094.018-.089.025-.935 1.889-.518-1.589-.099.022-.373.074-.043.006-.369.082-.088.016-.03.272.15-.02h.151l.045.038.006.131-.016.148-.142 1.33-.051.257-.071.12-.092.076-.146.051-.079.038-.028.259.159-.031.84-.169.078-.063.033-.232-.156.026-.129.003-.041-.022-.032-.063.01-.241.126-1.081.525 1.484.046.093.181-.043.915-1.844-.107.967-.048.255-.07.126-.093.075-.147.052-.072.021-.01.077-.007.047-.021.156 1.4-.301.026-.27-.146.024-.175-.02-.021-.058.008-.242.154-1.328.03-.217.034-.096.048-.065.103-.079.138-.054.077-.061.03-.235zm2.675.226c.039-.322-.118-.493-.25-.574-.082-.047-.187-.073-.296-.073-.105 0-.242.017-.446.062l-1.095.232-.092.063-.018.248.153-.045h.138l.044.027.016.076-.016.217-.15 1.327-.045.258-.071.12-.096.081-.146.053-.076.034-.032.262 1.403-.3.026-.272-.146.025-.127.007-.05-.022-.023-.063.011-.238.065-.565.27-.063.308-.066c.147-.046.274-.106.377-.184.216-.16.338-.369.364-.627zm2.788.332l-.269.029-.021.073-.105.271-.107.182c-.064.081-.141.15-.229.195-.088.048-.205.091-.332.117-.126.02-.215.021-.276.01l-.095-.089-.016-.136.021-.339.119-1.042.051-.258.075-.129.089-.065.144-.051.086-.063.022-.234-.161.035c-.383.071-.772.151-1.158.238l-.09.058-.019.233.149-.025.116-.013.056.024.024.057-.012.249-.148 1.328-.043.257-.073.123c-.06.061-.134.105-.232.125l-.077.027-.035.271.151-.034c.727-.149 1.448-.294 2.176-.438l.078-.019.141-.967zm2.821-.485l-.267.03-.017.07-.098.259-.116.167c-.063.074-.137.137-.223.184-.089.043-.2.085-.339.106-.117.02-.212.02-.272.004l-.092-.095-.016-.135.022-.342.037-.328.023-.004.179-.01.067.029.042.076.019.183v.138l.256-.045.131-1.053-.023-.141-.223.028-.022.079-.055.197-.073.102-.107.072-.18.051.093-.84.338-.061.245-.025h.029l.141.039.093.102.04.191.041.127.22-.048.056-.819-.141.021c-.622.104-1.286.219-1.96.348l-.085.029-.022.257.139-.018.136-.003.042.023.022.066-.006.239-.149 1.331-.045.251-.068.12-.094.072-.146.055-.077.045-.04.244.159-.026c.764-.142 1.478-.267 2.164-.384l.086-.015.136-.943zm4.33-.44l-.022-.135h-.22l-.021.082-.096.26-.114.174c-.063.065-.136.125-.222.164-.09.041-.196.072-.329.085-.122.012-.214.006-.278-.017l-.095-.104-.021-.143.025-.348.121-1.028.043-.261.07-.113.087-.053.141-.043.081-.01.041-.269-.146.017c-.385.037-.774.084-1.162.138l-.083.01-.032.273.14-.013.12.003.053.021.035.07-.015.251-.147 1.319-.046.254-.071.111c-.056.063-.13.098-.225.11l-.088.025-.027.266.137-.023c.74-.101 1.468-.18 2.155-.239l.092-.013.119-.821zm1.992-1.979l-.135.004-1.15.073-.101.052-.015.097.006.126h.131l.109.009.056.038.033.072-.017.244-.146 1.324-.046.248-.063.107-.089.058-.143.036-.09.012-.027.268.138-.01c.382-.033.767-.055 1.146-.076l.105-.045.022-.225h-.132l-.144-.021-.05-.05-.022-.088.014-.215.153-1.32.03-.209.078-.146.084-.058.138-.031.091-.008.036-.266zm2.593-.029l-.116-.002c-.623-.015-1.25-.012-1.882.008l-.099.004-.028.266.121.004.147.025c.057.029.075.068.075.129l-.015.227-.15 1.32-.04.242-.065.107-.094.059-.124.02-.101.025-.027.255.131-.006c.382-.017.76-.023 1.143-.023l.106-.042.024-.219-.121-.008-.133-.021-.053-.043-.035-.086.008-.244.073-.61.144.019.127.049.08.104.027.238.047.116h.22l.156-1.3-.264-.016-.017.095-.061.185-.084.115c-.072.063-.186.1-.341.113l.093-.828c.167 0 .367 0 .466.02l.155.057c.076.044.129.105.165.188l.053.186.07.105.198-.041.021-.792zm2.395 2.841l.112.01.133-.933-.249-.031-.027.089-.1.229-.104.141c-.055.055-.124.093-.203.115-.084.021-.198.028-.322.018-.124-.005-.214-.033-.276-.07-.051-.025-.09-.074-.107-.135l-.022-.153.028-.342.037-.298.165.028.083.062.054.107.016.195.038.107.216.016.133-1.061-.032-.121-.212-.022-.024.099-.051.182-.063.078-.087.035-.21.006.099-.84.296.021.278.046.142.081.107.147.043.215.044.104.219.016.05-.811-.112-.014c-.623-.064-1.268-.111-1.923-.139l-.106-.008-.03.268.119.012.125.023.059.053.039.085-.007.243-.152 1.316-.046.242-.064.1-.075.045-.145.015-.104.041-.017.229.116.006c.72.023 1.431.077 2.119.153z"/></svg>