<?xml version="1.0" encoding="utf-8"?>
<!-- Generator: Adobe Illustrator 16.2.0, SVG Export Plug-In . SVG Version: 6.00 Build 0)  -->
<!DOCTYPE svg PUBLIC "-//W3C//DTD SVG 1.1//EN" "http://www.w3.org/Graphics/SVG/1.1/DTD/svg11.dtd">
<svg version="1.1" id="Layer_1" xmlns="http://www.w3.org/2000/svg" xmlns:xlink="http://www.w3.org/1999/xlink" x="0px" y="0px"
	 width="24px" height="18px" viewBox="0 0 24 18" enable-background="new 0 0 24 18" xml:space="preserve">
<g>
	<path fill="#CF132B" d="M0,1.25V0h1.667L10,6.25V7H7.667L0,1.25z M16.333,11H14v0.75L22.334,18H24v-1.25L16.333,11z M14,6.25V7
		h2.333L24,1.25V0h-1.666L14,6.25z M10,11.75V11H7.667L0,16.75V18h1.667L10,11.75z M24,10V8H13V0h-2v8H0v2h11v8h2v-8H24z"/>
	<path fill="#012077" d="M6,7H0V2.5L6,7z M20.668,0H14v5L20.668,0z M0,11v4.5L6,11H0z M10,0H3.333L10,5V0z M24,15.501V11h-6.001
		L24,15.501z M24,7V2.499L17.999,7H24z M3.333,18H10v-5.001L3.333,18z M14,18h6.668L14,12.999V18z"/>
	<path fill="#FFFFFF" d="M10,5V0h1v8H0V7h6L0,2.5V1.25L7.667,7H10V6.25L1.667,0h1.667L10,5z M24,7h-6.001L24,2.499V1.25L16.332,7H14
		V6.25L22.334,0h-1.666L14,5V0h-1v8h11V7z M20.668,18h1.666L14,11.75V11h2.332L24,16.751v-1.25L17.999,11H24v-1H13v8h1v-5.001
		L20.668,18z M11,18v-8H0v1h6l-6,4.5v1.25L7.667,11H10v0.75L1.667,18h1.667L10,12.999V18H11z"/>
</g>
</svg>
