<svg xmlns="http://www.w3.org/2000/svg" width="48" height="48" viewBox="0 0 48 48"><path d="M20 24c0-2.209 1.791-4 4-4s4 1.791 4 4-1.791 4-4 4-4-1.791-4-4zm28 0c0 13.255-10.745 24-24 24s-24-10.745-24-24 10.745-24 24-24 24 10.745 24 24zm-11-4h-7.26c.792 1.134 1.26 2.512 1.26 4 0 3.865-3.135 7-7 7s-7-3.135-7-7c0-1.488.468-2.866 1.26-4h-7.26v12c0 2.75 2.25 5 5 5h16c2.75 0 5-2.25 5-5v-12zm-19 4c0 3.313 2.687 6 6 6s6-2.687 6-6-2.687-6-6-6-6 2.687-6 6zm19-8c0-2.75-2.25-5-5-5h-14v7h-1v-7h-1v7h-1v-6.898c-.349.071-.682.185-1 .325v6.573h-1v-5.97c-1.206.916-2 2.349-2 3.97v3h8.105c1.263-1.236 2.988-2 4.895-2s3.632.764 4.895 2h8.105v-3zm-3-3h-3c-.55 0-1 .45-1 1v3c0 .55.45 1 1 1h3c.55 0 1-.45 1-1v-3c0-.55-.45-1-1-1z"/></svg>