<svg xmlns="http://www.w3.org/2000/svg" width="17" height="12" viewBox="0 0 17 12"><path d="M15.662 11.698c-.349.187-.74.302-1.162.302h-12c-.422 0-.813-.115-1.163-.302l5.103-5.403 2.06 1.697 2.061-1.695 5.101 5.401zm1.055-1.069c.175-.341.283-.721.283-1.129v-7c0-.448-.129-.865-.338-1.229l-4.941 4.068 4.996 5.29zm-8.217-4.58l7.053-5.807c-.322-.151-.676-.242-1.053-.242h-12c-.377 0-.73.091-1.052.241l7.052 5.808zm-8.162-4.778c-.209.365-.338.781-.338 1.229v7c0 .407.108.787.283 1.129l4.995-5.29-4.94-4.068z"/></svg>