<svg xmlns="http://www.w3.org/2000/svg" width="174" height="122" viewBox="0 0 174 122"><path fill-rule="evenodd" clip-rule="evenodd" d="M15.422 87.353c0 1.663-.637 3.065-1.908 4.168-1.281 1.106-2.807 1.667-4.561 1.667-.759 0-1.346-.066-1.77-.192l-.444-1.216.195.037c.265.068.548.132.846.187.293.052.576.085.845.085 1.104 0 2.027-.36 2.768-1.073.734-.702 1.103-1.63 1.103-2.765 0-1.357-.362-2.365-1.094-3.004-.739-.648-1.798-.972-3.201-.972-.379 0-.812.03-1.294.108l-1.264.254c-.064.188-.104.408-.126.658-.019.239-.029.606-.029 1.109l-.134 12.389c0 1.17.075 1.836.234 2.004.213.238.95.367 2.208.367h.138l-.061 1.018h-.076c-.419 0-1.068-.031-1.923-.078-.864-.051-1.517-.084-1.966-.084-.437 0-1.083.033-1.946.084-.857.047-1.487.078-1.886.078h-.076v-1.018h.11c1.246 0 1.989-.129 2.217-.367.183-.197.271-.859.271-2.004l.112-12.389c0-1.129-.076-1.785-.246-1.959-.22-.248-.968-.373-2.231-.373h-.08v-.979h.112c.516 0 1.303.021 2.354.059 1.049.041 1.858.049 2.42.049.532 0 1.318-.008 2.37-.049 1.057-.037 1.846-.059 2.372-.059 1.526 0 2.8.317 3.812.942 1.225.76 1.829 1.866 1.829 3.318zm14.741 3.599c1.185 1.19 1.771 2.679 1.771 4.444 0 2.092-.689 3.822-2.058 5.166-1.378 1.346-3.111 2.02-5.199 2.02-1.737 0-3.166-.6-4.297-1.807-1.127-1.207-1.694-2.748-1.694-4.63 0-2.074.634-3.757 1.899-5.05 1.264-1.287 2.985-1.938 5.17-1.938 1.757.001 3.23.597 4.408 1.795zm-.978 5.618c0-1.734-.34-3.193-1.007-4.398-.714-1.307-1.638-1.947-2.77-1.947h-.29c-1.285 0-2.247.471-2.886 1.424-.552.818-.828 1.928-.828 3.308 0 1.695.304 3.141.919 4.294.775 1.448 1.929 2.177 3.469 2.177 1.116 0 1.979-.49 2.574-1.487.543-.873.819-1.985.819-3.371zm11.158 3.976c-.184-.326-.271-1.209-.271-2.657.01 0 .018-.676.023-2.002.009-1.339.018-2.849.033-4.53.014-1.678.022-3.122.022-4.313l.191-4.101c0-.108-.014-.214-.041-.325-.02-.12-.077-.207-.15-.277l-.047-.081h-.032c-.941.292-1.881.522-2.811.684-.545.098-1.087.18-1.622.259h-.076l-.039.99h.115c.567 0 1.055.11 1.469.32.423.204.628.553.628 1.029l-.112 12.348c0 1.448-.093 2.331-.271 2.657-.23.408-.864.618-1.906.618h-.119v1.018h.081c.37 0 .935-.031 1.694-.078.757-.051 1.326-.084 1.696-.084.384 0 .953.033 1.713.084.754.047 1.315.078 1.675.078h.077l.037-1.018h-.114c-.997-.001-1.617-.211-1.843-.619zm8.463 1.474c.376 0 .951.033 1.699.084.751.047 1.306.078 1.666.078h.077l.038-1.018h-.115c-1.005 0-1.617-.21-1.845-.618-.186-.326-.273-1.209-.273-2.657v-3.952l.232-4.183c-.06-.262-.137-.469-.232-.596l-.038-.034-.058.034c-.916.285-1.828.506-2.754.655-.563.095-1.115.175-1.658.26l-.072.049v.95h.072c.554 0 1.046.1 1.471.316.414.209.631.547.631 1.006v5.494c0 1.448-.091 2.331-.274 2.657-.225.408-.865.618-1.899.618h-.119v1.018h.076c.372 0 .938-.031 1.686-.078.752-.05 1.319-.083 1.689-.083zm-1.07-18.268c-.33.334-.496.713-.496 1.114 0 .409.157.771.473 1.095.32.318.679.486 1.093.486.426 0 .8-.168 1.118-.486.313-.324.477-.686.477-1.095 0-.421-.155-.795-.466-1.126-.31-.329-.679-.494-1.096-.494-.401 0-.778.172-1.103.506zm17.961 17.79l.559-.979-.305-.391h-.079c-.809.352-1.392.565-1.746.658-.353.086-.679.134-.992.134-1.39 0-2.538-.46-3.404-1.358-.989-1.047-1.484-2.563-1.484-4.553 0-1.422.279-2.49.852-3.191.608-.772 1.618-1.166 3.018-1.166.619 0 1.189.106 1.728.319.529.207.832.46.914.765l.154.424c.024.116.041.258.041.445l.039.982h.961l.151-1.273c0-.371.019-.732.068-1.104.041-.352.11-.761.199-1.225v-.082l-.038-.037c-.718-.29-1.281-.491-1.698-.59-.406-.104-.948-.162-1.614-.162-.181 0-.436.025-.768.058l-.93.122c-.277.047-.772.263-1.482.633-.39.197-.899.502-1.519.883-.516.313-.91.621-1.202.944-.291.296-.564.722-.796 1.228-.452 1.008-.677 2.072-.677 3.199 0 1.943.631 3.507 1.886 4.706 1.168 1.1 2.606 1.651 4.312 1.651 1.156 0 2.426-.33 3.819-.998l.033-.042zm14.142-.767c-1.113 1.207-2.67 1.807-4.674 1.807-.759 0-1.521-.135-2.284-.4-.76-.273-1.481-.64-2.166-1.108l-.038-.027-.48-.992.364-.398v.044c.285.154.699.384 1.239.689.729.358 1.441.544 2.128.544 1.589 0 2.781-.461 3.59-1.38.811-.918 1.208-2.172 1.208-3.777h-3.832c-1.666 0-3.313-.103-4.936-.334l-.073-.045v-.08l-.036-.496c-.029-.309-.038-.521-.038-.645 0-1.548.487-2.765 1.455-3.666.967-.906 2.231-1.352 3.784-1.352.631 0 1.308.146 2.028.445.727.297 1.365.651 1.919 1.056 1.05.784 1.765 1.758 2.136 2.925.202.66.309 1.506.309 2.525-.001 1.954-.538 3.503-1.603 4.665zm-1.113-6.237c0-1.172-.252-2.144-.75-2.907-.576-.908-1.412-1.354-2.483-1.354-1.168 0-2.004.438-2.503 1.331-.384.695-.575 1.699-.575 2.998l1.494.08 2.834-.08c.679-.001 1.338-.022 1.983-.068zm19.407-11.362c.077.748.115 1.489.115 2.211 0 .25-.017.623-.061 1.103l-.094 1.097v.133h1.023l.188-1.662c.12-.727.208-1.125.267-1.18.21-.161.939-.24 2.176-.24.682 0 1.698-.018 3.044-.055 1.35-.042 2.36-.059 3.046-.059h1.578l-.513.863-.721.896-9.269 11.748-2.632 3.203.001.947h.078c.919 0 2.317-.031 4.177-.078 1.861-.051 3.284-.084 4.254-.084.959 0 2.355.033 4.224.084 1.861.047 3.253.078 4.171.078h.083l-.042-4.256.077-.791h-1.058l-.23 1.614c-.117.584-.225.982-.331 1.217-.099.233-.266.374-.494.442-.373.115-.78.191-1.205.221-.433.03-.971.051-1.631.051h-1.267l-6.84-.08 12.722-16.098.416-.466.036-.942h-15.29v.083zm28.98 7.334c.967.901 1.462 2.117 1.462 3.666l-.041.645-.041.496v.08l-.079.045c-1.616.231-3.262.334-4.931.334h-3.834c0 1.605.406 2.859 1.214 3.777.804.922 1.999 1.38 3.591 1.38.683 0 1.387-.186 2.127-.544.539-.306.95-.535 1.236-.689v-.044l.364.398-.482.992-.033.031c-.688.465-1.403.831-2.165 1.104-.768.266-1.537.402-2.288.402-2.001 0-3.563-.602-4.681-1.805-1.069-1.166-1.597-2.711-1.597-4.67 0-1.02.103-1.865.308-2.525.372-1.167 1.083-2.139 2.138-2.925.551-.404 1.19-.759 1.918-1.056.725-.299 1.401-.445 2.028-.445 1.557.001 2.816.447 3.786 1.353zm-1.14 4.095c0-1.299-.197-2.303-.582-2.998-.5-.894-1.336-1.331-2.513-1.331-1.068 0-1.894.446-2.477 1.354-.499.764-.752 1.735-.752 2.903.639.05 1.305.071 1.979.071l2.836.08 1.509-.079zm18.217-3.81c.838 1.018 1.254 2.334 1.254 3.971 0 .899-.149 1.744-.444 2.516-.334.882-.838 1.668-1.526 2.373-.317.312-.668.598-1.058.892-.282.201-.883.593-1.809 1.169l-.863.389c-.273.1-.444.154-.528.154-.11 0-.326.016-.656.059-.328.037-.522.049-.572.049-.628 0-1.225-.07-1.778-.227-.56-.148-1.071-.403-1.529-.746l-1.061.973-.56-.184v-.078c0-.135.019-.342.063-.597.031-.255.059-.456.059-.574l.167-3.126.115-12.266c0-.463-.241-.82-.716-1.062-.381-.184-.853-.288-1.427-.288h-.072v-.992h.072c1.046-.152 1.783-.277 2.238-.368.765-.151 1.526-.339 2.272-.572h.043l.036.081.096.253.06.35-.155 4.101-.079 4.639c.731-.83 1.405-1.438 2.003-1.803.784-.474 1.663-.721 2.639-.721 1.578-.002 2.814.544 3.716 1.635zm-1.269 4.797c0-1.277-.277-2.329-.834-3.115-.624-.912-1.55-1.374-2.787-1.374-.695 0-1.375.21-2.039.625-.668.415-1.115.948-1.351 1.579l-.022.145-.057.133-.079 5.838c.278.407.728.717 1.369.967.645.24 1.253.358 1.833.358 1.332 0 2.355-.533 3.062-1.607.606-.933.905-2.11.905-3.549zm15.668-6.207c-.2-.108-.394-.186-.608-.207-.192-.041-.431-.054-.712-.054-.384 0-.812.126-1.28.368-.367.187-.731.438-1.126.743l-1.341 1.176.052-1.688-.061-.265c-.034-.123-.085-.242-.145-.334h-.039c-.723.211-1.441.384-2.167.509-.724.148-1.428.277-2.091.396l-.072.056-.041.938h.113c.561 0 1.058.116 1.475.322.416.219.622.553.622 1.012v5.52c0 1.456-.088 2.337-.271 2.662-.238.415-.885.625-1.938.625h-.084v1.018h.084c.368 0 .924-.031 1.678-.078.746-.051 1.297-.084 1.666-.084.39 0 .949.033 1.697.084.748.047 1.302.078 1.657.078h.08l.08-1.018h-.118c-1.001 0-1.62-.21-1.853-.625-.182-.325-.272-1.219-.272-2.662v-2.695c0-1.056.189-1.893.563-2.527.425-.719 1.063-1.084 1.905-1.084.392 0 .724.111 1.014.322.301.22.526.515.693.865l.04.08h.717l.232-3.04.043-.165c-.001-.137-.072-.221-.192-.248zm15.411 11.779l-.042 1.018h-.114c-.232-.031-.564-.064-1.004-.102-.44-.039-.77-.061-1.013-.061-.379 0-.757.021-1.159.061-.396.037-.727.07-.984.102h-.153l.04-.113c.094-.361.135-.713.135-1.044v-1.146l-2.801 2.073c-.241.165-.422.279-.534.343-.321.195-.639.287-.96.287-1.082 0-1.934-.313-2.543-.954-.605-.631-.904-1.515-.904-2.642 0-1.109.342-2.004 1.02-2.678.798-.805 2.241-1.367 4.312-1.742l2.487-.44c0-1.106-.234-1.923-.692-2.47-.497-.582-1.288-.879-2.352-.879-.361 0-.705.035-1.022.105-.329.069-.62.189-.863.339-.158.177-.304.427-.446.731-.167.422-.303.767-.422 1.042l-.056.077-.871-.191.043-.945c-.027-.208-.043-.371-.043-.512 0-.111.022-.216.06-.328.041-.113.116-.211.231-.281.768-.488 1.416-.844 1.951-1.069.866-.39 1.686-.587 2.461-.587 1.731 0 2.945.517 3.634 1.535.584.836.875 2.145.875 3.912l-.099 4.973c0 .691.119 1.131.344 1.314.234.174.691.271 1.369.271h.115zm-4.219-5.998l-.979.178c-.72.139-1.318.288-1.798.432-.787.246-1.355.512-1.689.834-.336.325-.619.824-.83 1.51-.035.107-.063.244-.079.383l-.014.334c0 .583.2 1.059.61 1.416.408.361.881.545 1.431.545.361 0 .71-.099 1.042-.273.339-.184.719-.438 1.143-.777.304-.238.572-.477.803-.723.071-.103.127-.242.167-.389l.118-.447.075-3.023zm-57.185-86.069c.879-.238 2.335-.443 2.889-.631-1.105.061-2.215.131-2.889.631zm-42.391 8.141c-.376-1.176-1.76-1.587-1.929-3.005-.127-1.081.734-2.28.218-3.424-.295.935-.772 2.224-.646 3.215-.18 0-.329.029-.422.107.113.404.94 1.008.215 1.274 1.265 1.126 2.279 3.073 3.845 3.546.139-.727-.973-1.083-1.281-1.713zm52.569-2.575c-.442-.561-1.697-.298-2.462-.535.412.583 1.624.377 2.462.535zm-3.325.427c1.136.219 3.262.472 4.286.112-1.274-.064-3.378-.369-4.286-.112zm3.005 4.291c-1.051.591-2.776.508-3.752 1.168 1.292-.282 3.293-.42 3.752-1.168zm-30.735 13.802c.592-.044 1.141.299 1.5-.103-.406.045-1.601-.118-1.5.103zm-2.888.113c-.502.073-1.286-.145-1.604.099.502-.077 1.286.147 1.604-.099zm-3.852 1.178c-.278-.157-.216-.653-.533-.754.113.248.211 1.059.533.754zm2.566.216c.367-.355 1.414-.028 1.713-.438-.281-.032-1.91-.014-1.713.438zm-37.896.633c.374.061.57.286.96.326-.06-.307-.767-.512-.96-.326zm-1.177.965l-1.285-.424c.159.345.964.604 1.285.424zm-.963 2.568c.371-.095.702-.23.853-.521-.651.012-1.152.19-1.604.423.332.136.732-.399.751.098zm28.8 3.112c-.449.087-.948-.336-1.285 0 .323.014 1.378.257 1.285 0zm40.682 13.916c-.787.11-1.605.167-1.822.862.663.167 1.936.084 1.822-.862zm-66.053 7.272c.091-.654 1.053-.434 1.39-.844-.554-.31-2.083.259-1.39.844zm1.817-.637c-.339.237-.663.485-1.178.54.096.757 1.696-.342 1.178-.54zm18.199 1.067c.786.23 1.515-.367 2.036-.745-.812.112-1.389.472-2.036.745zm-26.761 1.185c1.847-.475 3.105-.336 4.497-1.066-1.419-.354-3.151.641-4.497 1.066zm49.568-.649c.579.124 1.447-.401 2.145-.536-.928-.023-1.726.081-2.145.536zm-34.472 1.079c2.141-.361 4.234-.766 6.096-1.4-2.046.16-4.246.188-5.783.858l.433.221c-.264.089-.743-.032-.746.321zm-11.35.528c1.362-.106 2.281-.653 3.638-.749-1.003-.4-2.798.271-3.638.749zm57.388.11c.553.043 2.252.015 2.563-.216-.941.134-2.065-.444-2.563.216zm-43.79-.11c-.587-.113-1.565.103-2.248.216.211.555 2.292.53 2.248-.216zm.317 1.291c-.802-.188-1.991.219-2.781 0 .848-.119 1.812-.119 2.465-.432-1.104-.135-2.864.377-3.316.636 1.201 0 2.939-.05 3.632-.204zm57.067-.315c-.57 0-1.177-.043-1.396.314.371.24 1.328-.29 1.396-.314zm-9.85.736c-.902-.067-1.755.453-2.471.209.563-.111 1.321-.023 1.609-.427-.909.168-2.13.015-2.792.427.087.22.607-.023.649.229-.343 0-.758-.05-.74.313 1.338.277 2.487-.58 3.745-.751zm3.85 1.394c-.142.03-.084.28-.109.435-.556-.18-.748-.602-1.496-.314.011-1.452 1.161-2.531 1.28-3.754.703-.592 1.246-1.34 1.72-2.143.023-3.084.631-6.27.425-9.314-.051-.344.286-.29.318-.539.068-1.949-.619-3.168-.854-4.816-.197.268-.409.515-.428.964-.965.544-1.543 1.854-2.349 2.998-.83 1.153-1.81 1.964-2.688 2.886-.658.713-1.047 2.35-.85 4.066.107 1.003.757 1.944.534 3.538-1.519.626-3.234 1.116-4.278 2.462.299 1.063 1.634 1.769.854 3.002-1.607-.463-3.649-.018-5.462.213-.394.037-.202-.519-.536-.538-2.253.39-5.302-.062-7.814.538.77-.369 1.878-.4 3.002-.433.304-.051.477-.226.534-.538 1.554-.264 2.801-.834 4.174-1.277-.475.488-1.4.526-1.714 1.172.653-.277 1.322-.513 1.92-.854-.217.483-1.354.996-2.24 1.174-.109-.46.406-.307.429-.646-.922.156-1.525.626-2.464.765 1.329.325 2.844-.082 4.174-.118 1.288-2.393 3.863-3.487 5.25-5.775.973-2.232 1.37-5.644 2.893-8.459.652-1.216 2.378-2.219 2.458-3.643.065-1.222-1.08-1.896-1.713-2.884-.256-1.776-.971-3.11-1.822-4.288-.294-.169-.631-.299-.96-.421-.203-.947-.759-1.527-1.182-2.255-.405-2.671-2.724-3.413-4.28-4.915-2.122 1.113-5.881.393-8.677.202-2.373-.16-4.797.251-6.846 0-2.788-.338-5.721-1.175-8.242-.202-.693 1.346.137 2.403.428 3.421.14.495.126 1.147.317 1.711.286.805 1.007 1.758 1.5 2.676.591 1.084 1.024 2.217 1.499 2.674.642.596 1.636.617 2.146 1.284.356 3.037-.699 5.967-.117 8.889.087.409.413.678.547 1.07.576 1.746.519 3.808 1.602 5.139v.959h-.644c-.916 1.16-2.149 1.998-1.71 4.496-.759.891-1.609 1.678-3.212 1.711-.112-.318.235-.182.428-.197-.864-.214-1.916.59-2.999.197.129-.75-1.021-.264-1.178-.742 1.187-.669 1.647-2.061 2.354-3.209.668-.061 1.479-.5 1.923-1.082.728-.924 1.714-2.977 1.815-3.639.29-1.822-.533-3.65-.741-5.244-.136-1.048-.052-1.922-.43-2.785-.54-1.23-1.37-2.345-1.922-3.63-.598-1.372-1.427-2.551-1.932-3.532.335-.059.285.279.534.316-1.425-3.392-2.623-7.008-4.925-9.525-.402-.08-.515.128-.858.108-.479.403-.539 1.23-1.172 1.49-.642 1.273-1.097 2.509-1.817 3.76-.113.175-.902 1.084-1.077 1.601-.304.921-.54 2.291-.96 3.429-.292.786-.815 1.343-1.181 2.138-.455 1.006-.504 2.422-.964 3.531-.3.719-.899 1.02-.958 1.718-.166.261-.479.364-.75.526-.528 2.732-2.532 4.947-1.828 7.932.027.27.189-.156.434 0-.653 1.425-2.483 1-2.681 2.781-.089.863.258 1.794-.102 2.886-1.197 1.056-5.073 1.885-6.314.325.208-1.325 1.501-1.568 1.702-2.898.531-.475 1.451-.559 2.358-.635 1.01-.992.832-3.174 2.034-3.974.932-3.069 2.271-6.396 2.256-10.476-.003-.689-.192-1.373-.217-2.045-.129-3.845.751-7.201.851-11.02.068-2.157-1.585-4.266-2.78-5.462-2.112.129-3.475 1.426-4.924 1.601.282 2.039.98 3.548.644 5.247-.266 1.298-1.544 2.975-2.357 4.289-.809 1.302-2.228 2.818-2.466 4.07-.143.817.197 1.695 0 2.452-.242.971-.959 1.5-1.602 2.249-.747.034-1.041-.369-1.816-.314-.452-.078.142.395-.331.429-.761-.034-1.456-.673-2.13-.429-1.311-.551-1.738-4.175-.54-5.252-.044-1.854-.157-4.081-.646-6.206-.078-.369-.349-.651-.426-.974-.126-.548-.011-1.103-.104-1.588-.145-.728-.896-1.551-.32-2.244-1.639-.864-.518-4.172-.641-6.113.017-.4.34-.522.428-.852-3.418-.763-5.21-3.143-7.505-5.028 2.259-.947 5.468-.394 7.608-.119.162-.473.51-1.208.43-1.816.629-.334.85-1.083.96-1.932.678-.314 1.499-.496 1.715-1.286.247-.037.441-.209.645 0 .123-.393.009-.611.107-.851.436-.033.649-.404.964 0 .042-.155.144-.577.107-.647.946.134.605-.905 1.71-.966.267-.067-.351-.319 0-.527.412.268.667-.726 1.185-.223-.26-.186.342-.795.525-.531.207-.008-.125-.351 0-.646.233-.219.42.134.646.228-.048-.319-.377-.337-.316-.751.965-.043 1.115-.555 1.499-.542.261-.636.806-1.529 1.492-1.386-.404-.711.586-.005.213-.744.702.394.721-1.344 1.293-.86 0-.19-.081-.278-.222-.326 2.478-.262 4.271.073 6.54 0-.056-.087-.103-.189-.217-.213.083-.22.433.19.634.213.411.162.213-.292.537-.213.101.158.348.158.539.213 1.83-.329 4.454-.108 6.104-.74 1.593-.621 2.749-1.898 4.283-2.359.493-.165 1.069-.109 1.604-.217 2.024-.408 4.221-1.105 6.635-1.286.855-.062 1.837.119 2.784 0 2.913-.363 4.799-1.543 8.129-1.717 1.307-.064 2.558-.258 3.969-.203 5.52.164 12.188-1.315 16.701.742l-1.287-1.61c.51-.004.413-.865 1.076-.532.094-.256-.405-.908 0-1.283.135.473.494.711.748 1.073.184-.124-.247-.529-.216-.859.276.089.276.432.431.647 1.07.472 1.633 1.633 2.355 2.564.784 1.002 1.908 1.379 2.892 2.251.266.235.278.592.537.855 1.404 1.438 3.775 1.655 4.813 3.535.02.407-.084.03-.314.104.613 1.62 2.162 2.313 2.988 3.738-.511.021-.511-.486-.958-.537-.052.456.476.316.529.651-.161.236-.331.962-.642.422-.032.245.021.415.112.54.673.069.473-.749 1.066-.754.137.616-.537.828-.32 1.173.326-.032.803-1.158.32-1.495 1.4.091 2.398 3.838.861 3.757-.646-.05-.526-.784-1.074-1.291-.181-.171-.688-.36-.754-1.066.831 3.106-.721 6.985-2.349 9.315-.707 1-1.269 2.039-1.817 3.208-1.368 2.838-3.165 5.129-3.541 8.456-.115 1.068.15 1.846.326 2.667.008.356.633.086.535.54-.089-.063-.198-.127-.215 0 .813 1.631 1.195 3.655 2.253 5.031-.395.176.008.332 0 .546-.101 1.67-1.373 3.935-1.399 6.103 0 .259.186.452.216.751.126 1.39-.617 3.399-.746 5.235-.078 1.105.109 2.384.109 3.111-.007.204-.24.431-.218.646.131 1.364.775 2.482.534 3.741-.845.226-1.262.882-1.823 1.39.437.576.071 1.444.106 2.256-.913-.376-1.68.825-3.421.527zm13.597-52.884c-.227.44-.95.727-.644 1.38.611.126.407-.584.97-.52-.019-.386-.178-.623-.326-.86zm-1.288.213c.205.01.081.347.323.314.228-.445.319-1.033.857-1.169-.115-.354-.332-.598-.639-.752.238.951-.41 1.024-.541 1.607zm-7.486 47.313c-.654-.418-.929-1.2-2.147-1.068.381.907 1.61.412 1.715 1.393.047.479-.607.674-.422 1.18.449-.33.677-.882.854-1.505zm-2.893-2.775c-.312.875 1.083.05 1.068.642-.145.247-.744.037-1.068.104.661.338 1.861.479 2.356.645-.102-.069.173.373.428.541-.028-1.554-1.268-1.882-2.784-1.932zm.854-16.707c-1.271.222-2.437.051-2.994-.744.615.008.035-.102 0-.32.824-.177 2.09.107 3.208 0 .311-.626.85-1.583.746-2.265-.657 1.189-1.979 1.033-3.635 1.189-.263.136.192.335-.109.437-.252.024-.515-.473-.748-.112.005.955.857 1.617 1.176 2.563 2.366.854 3.757-.784 5.245-1.061-.079-.685-.595-.906-.638-1.61-.516.678-1.028 1.713-2.251 1.923zm-.536-3.208c-.194-.202-.557-.014-.644.207.315.032.547-.029.644-.207zm1.822-.431c-.087.917-.614 1.948-.647 2.575.427-.583.77-1.801.647-2.575zm-.647-2.244c.28 1.335-2.685 1.614-4.28 1.72.608.029 1.411-.13 1.713.206-1.017.296-2.075-.083-2.999-.206.083.332.2.663.326.956.822-.036 2.078.374 2.673-.121-.746-.055-1.781.158-2.349-.092 2.239.092 4.221-.059 5.462-.969-.246-.442-.225-1.145-.546-1.494zm-4.171-1.824c-.491-.044-.812-.258-1.287-.319-.333.304-.724.563-1.174.746.002.377.161.621.209.963.268-.082.581-.138.965-.103.037-.208-.139-.208-.212-.317.984.018 1.76-.326 2.571-.754.762.195 1.56.358 2.57.329-.02-.304.422-.713.208-.864-1.786.778-3.017-.73-4.596-.846.091-.358-.282-.234-.324-.432-.762.016-1.416.136-2.032.322-.264.436.167.617.207 1.067.924-.421 2.393-1.079 2.895.208zm1.176-4.493c.189 0 .622.286.751 0-1.898-1.142-4.547.042-5.79 1.179.021.551.125.833.325 1.393 2.319-1.597 6.424 2.203 7.821-.536-.558.168-1.813-.092-2.68-.211-.049-.559-.989-.994-1.39-.54.484.306 1.025.546 1.39.959-1.194.166-1.713-.341-2.14-.959-.843.037-1.7.641-2.46.425 1.342-.514 3.534-2.324 4.818-.648 1.261.166 1.908-.291 2.461-.846-.925.07-2.5.333-3.106-.216zm-3.323 6.209c.044.319.069.657.321.753.113-.108.033-.4.326-.319 1.74.255 4.166.105 4.923-1.29-1.215.187-2.072-.331-2.785.529-.851-.237-1.819.304-2.785.327zm.648 1.289c0 .425.923.493 1.17.313-.502.016-.797-.195-1.17-.313zm6.422-7.401l-.858.76c.416-.046.952-.542.858-.76zm2.044-2.767c-.564.725-1.321 1.245-2.044 1.81.992-.223 1.918-1.081 2.044-1.81zm4.81-9.863c-3.484-.99-6.241.33-8.781 1.184-1.384.464-2.89.917-4.065 1.395-2.619 1.058-4.214 3.435-6.314 4.496.053-.317-.421.162-.108.106.293-.049-.447.577-.429.959.973.523 1.864 1.136 2.251 2.249.605.032 1.337-.365 1.708-.219-.198.071-.445.065-.538.219.192.004.637.274.434.322-.241.103-1.083-.092-1.294.325.085.231.247 1.426.756 1.176-.142-.006-.135-.292 0-.323 1.576-.779 3.615-1.415 5.891-1.178.359 1.021 1.976 1.713 3.431.963.137-.61 1.48-.941 1.916-1.608-1.239.355-2.421 1.358-3.637 1.388.765-.405 1.857-.488 2.357-1.173-2.128.57-3.424-1.438-5.14-1.71-1.926-.315-3.321 1.517-5.357.849-.187.102-.132.445-.526.329.006-.352.172-.529.098-.961.634-.075 1.116-1.06 1.93-1.39l1.496-.216c1.163-.372 1.725-1.56 2.685-.641-.259.247-.163.346-.115.743 1.916.662 3.589 2.006 6.106 1.715.521-.728 1.874-1.191 1.824-2.133-.396.496-1.134 1.214-1.605 1.274.915-.803 2.256-1.739 2.349-3.001-1.212.851-2.955 1.061-5.032.964-2.293-.1-4.318.212-5.352-.964-.574.084-.829.458-1.495.432.132-.442.896-.241 1.07-.646-1.172-.022-1.604 1.254-2.354 1.292.287-.715 1.496-1.079 1.605-1.604-1.129.63-1.823 1.702-2.793 2.567-1.217 1.101-.325-.014.226-.543.721-.686 1.228-1.528 1.824-2.024 1.439-1.236 2.65-.181 4.38-.115 1.085.038 2.508-.465 3.858-.853 1.341-.388 2.726-.664 3.744-.963 1.261-.389 1.93-1.17 2.784-1.603.038-.379.237-.616.212-1.079zm-16.805 14.459c.21-.046.83-.222.528-.425-.131.173-.51.124-.528.425zm.209-1.17c-.161.371-.882.752-.852.954.245-.291 1.233-.393.852-.954zm.108-2.791c-.34-.019-.649 0-.751.212.305-.017.737.093.751-.212zm-2.044-.329c.296.11.146.662.539.644-.058-.26-.366-.834-.539-.644zm-2.774 3.004c.358-.035.466-.318.642-.542-.735-.583-.472-1.799-1.277-2.461.175 1.193-.253 2.051.635 3.003zm1.715-1.72c-.076-.56.229-1.508-.324-1.589.262-.666.397-1.224.11-1.937-.274-.113-.378.463-.535.107.25-.588.711-.637.961-.75-.132-.014-.25-.021-.212-.208.12-.038.252-.184.106-.209-.774.181-.777 1.14-1.402 1.49.274 1.189.724 2.214 1.296 3.096zm-.966-.524c.355.244.159 1.042.43 1.388.261.019.332-.162.43-.324-.409-.158-.516-1.19-.86-1.064zm0 2.666c.235-.482.948-.482 1.073-1.062-.413.229-1.135.712-1.073 1.062zm.429.223c.365-.132 1.178-.855 1.074-.752-.457.15-.943.278-1.074.752zm1.178-1.188c-.306.069-.947.338-.748.542.153-.274.652-.209.748-.542zm1.275-9.309c-.171.355-.552.511-.74.858.373-.073.875-.613.74-.858zm0 .647c.155-.426.997-.728.869-1.063-.175.39-.954.741-.869 1.063zm3.116-2.251c-1.244.247-1.148.692 0 0zm1.495.109c-.425.156-.883.256-1.174.538.466-.121.868-.264 1.174-.538zm4.598-1.709c-.488.188-1.206.136-1.385.641.492-.189.982-.383 1.385-.641zm2.897-1.936c-.466.029-.886.109-1.174.323.35-.086 1.237-.183 1.174-.323zm3.429.533c-.038-.452-.954-.162-1.072 0h1.072zm-4.066-5.343c-2.61.188-6.468.639-7.823 1.39-2.272 1.247-3.656 3.695-5.35 5.78-.917 1.133-2.779 2.534-3.106 3.536-.605 1.853.017 3.66.642 4.818-.449-2.12.844-3.529 2.039-4.715 1.321-1.331 3.226-2.904 4.706-3.859 1.117-.71 2.475-1.045 4.069-1.606 1.513-.519 2.854-1.584 3.854-1.913 2.25-.776 5.339.111 7.386-.112-.447-2.647-3.273-3.548-6.417-3.319zm-16.386 15.1c-.027.421.132.658.326.85-.038-.358-.109-.679-.326-.85zm-.321-2.68c0-.356.418-.881.104-1.177.064.42-.447.82-.104 1.177zm-.109-.751c-.132-.597.527-.417.431-.963-.414-.029-.665.676-.431.963zm4.714-9.1c1.006-1.083 1.42-2.569 2.782-3.217 1.176-.546 2.744-.474 4.172-1.177-1.728.207-3.58.834-4.811 1.177-.337.951-1.907 2.164-2.143 3.217zm.315-1.074c.053-.248.595-.543.318-.756-.076.202-.506.628-.318.756zm4.603-3.216c-.382.079-.809.113-1.062.323.393-.057.814-.106 1.062-.323zm3.644.322c.838.084 3.047-.21 1.393-.21-.448 0-1.058.027-1.393.21zm1.611-1.063c-.381-.02-.688.026-.863.219.383.016.685-.04.863-.219zm-2.57 2.462c.726.045 1.28-.078 1.813-.217.573.041 2.031-.079 1.716-.209-1.29.027-2.459.181-3.529.426zm-3.533.739c-.933.185-2.1.691-2.144 1.39.584-.591 1.506-.831 2.144-1.39zm-1.606 1.937c.31-.307.673-.55.965-.864-.409.135-1.21.438-.965.864zm-1.187.855c.233-.316 1.078-.561.866-.962-.173.31-1.028.994-.866.962zm.326-2.141c-.153.557-1.03.962-.97 1.381.219-.449 1.352-1.042.97-1.381zm1.39-1.606c-.433.089-.77.291-.962.645.438-.111.773-.303.962-.645zm-.424.855c.358-.321 1.047-.314 1.392-.639-.491.104-1.497.288-1.392.639zm3.852-1.599c-1.127.258-3.091.258-3.324 1.064.929-.543 2.443-.497 3.324-1.064zm.324-.439c-1.02.131-2.414.448-2.889.75.902-.295 2.121-.295 2.889-.75zm-2.361 1.399c.713-.149 1.502-.229 2.037-.551-.813.065-1.561.158-2.037.551zm-.208.951c1.313-.28 2.807-.405 4.065-.741-1.496.108-3.179.027-4.065.741zm3.641-1.276c-.357-.244-.902.048-1.177.211.387-.07.888-.035 1.177-.211zm-7.817 2.038c-.175.683-1.06 1.218-.961 1.818.191-.656 1.092-1.186.961-1.818zm-1.929 6.309c.512-.804 1.56-1.659 1.705-2.463-.469.848-1.494 1.715-1.705 2.463zm15.635-9.743c-.477-.021-1.76-.265-1.821 0 .598-.056 1.326.322 1.821 0zm-.856.856c.546-.162 1.048.296 1.391 0-.343-.018-1.467-.257-1.391 0zm-2.361-6.309c.038.581 1.08.699 1.288.76-.483-.2-.765-.602-1.288-.76zm-2.031 2.144c-4.47-.227-7.281.936-9.419 2.568-.535 1.35-1.92 2.186-2.673 3.414-.563.905-.904 1.878-1.511 2.791-1.723 2.607-3.973 5.454-3.521 9.217 1.041-1.623 2.562-3.27 3.951-4.819.82-.922 1.365-2.188 2.136-3.33.828-1.184 1.821-2.241 2.261-3.315.137-.329.036-.653.211-.954.62-1.11 2.234-2.343 3.536-2.905 1.696-.719 3.185-.369 5.353-.525 1.102-.083 2.271-.644 3.637-.54 1.496.123 2.352.689 3.324 1.288-.883-1.671-3.26-1.447-5.361-1.721.375-.048.812-.04 1.072-.215-.472-.161-1.05-.224-1.391-.526 1.154.096 1.675.828 3.101.647.305.279 1.598.567.965.199-1.273-.73-3.725-1.171-5.671-1.274zm-17.346 13.697c.109 0 .131-.186 0-.212-.475.408.168 1.692 0 .212zm.321-1.174c-.061.395-.765.725-.527 1.067.053-.409.744-.747.527-1.067zm-1.077.853c.651-.311 1.232-1.272 1.294-1.815-.333.639-1.268 1.215-1.294 1.815zm.433-1.176c.055-.052.634-.423.546-.747-.293.411-1.054 1.27-.546.747zm1.18-2.137c.925-1.558 2.267-3.229 2.886-4.715-1.052 1.406-2.266 3.223-2.886 4.715zm2.035-4.294c-.68.336-1.408 1.727-1.392 2.032.434-.693.98-1.301 1.392-2.032zm4.389-5.13c-.928.917-2.428 1.854-2.677 3.107.39-.438.775-1.435 1.178-1.5-.024.267-.542.587-.322.745.528-.799 1.66-1.548 1.821-2.352zm0 .749c.072-.251.815-.387.431-.749-.082.245-.659.546-.431.749zm-2.787 3.092c.112-.13.437-.617.537-.41-.196.083-.629.511-.427.635.452-.797 1.524-1.544 1.705-2.242-.468.732-1.709 1.273-1.815 2.017zm.217.654c.398-.104.76-.806.749-.969l-.749.969zm-1.285 3.959c.393-.794 1.031-1.324 1.285-2.251-.835.284-1.094 1.696-1.285 2.251zm0-2.673c-.346.727-1.2 1.508-1.076 2.353.341-.749 1.082-1.634 1.076-2.353zm-1.283 3.857c.469-.423.971-1.384 1.071-1.817-.49.465-.803 1.114-1.071 1.817zm8.776-10.607c-.893.177-2.168.547-2.255 1.191.58-.577 1.572-.727 2.255-1.191zm-27.728 1.603c.804-1.731 2.308-2.749 3.529-4.058-.873.144-1.68.666-2.24 1.288-.622.684-1.294 1.816-1.289 2.77zm0 10.503c.14.328.331 1.158.535 1.066-.217-.307-.057-1-.535-1.066zm.426-2.358c-.059-.73-.028-1.552-.53-1.819.099.671.187 1.372.53 1.819zm.322-1.173c.297 1.471.093-.681.109-.335-.035-.717-.265-2.228-.644-3.629.121 1.226.424 3.432.535 3.964zm0-3.863c-.022-.081-.081-.125-.213-.102.023.495.322 2.6.322 1.178-.185-.199-.075-.705-.109-1.076zm-.748.752c.028.37.053.737.214.96-.063-.991-.264-2.147-.318-2.564-.126.473-.398 1.997.104 1.604zm.108 4.594c-.129-.361-.228-.757-.534-.956-.064.563.094.905.534.956zm-1.171-.52c.106.48.384.817.959.855-.189-.41-.554-.665-.959-.855zm.097-7.494c.054.422-.107 1.595.104 1.491-.034-.407.126-1.603-.104-1.491zm-.313-2.786c.026-.334.572-.706.417-.855-.051.297-.773.5-.417.855zm-1.064 0l1.28-1.286c-.74.051-1.318.832-1.28 1.286zm1.809 10.28c.107-1.439-.976-1.669-1.388-2.58.281.028.643.923.743.429-.109-.215-.444-.75-.208-.962.158.674.323 1.318.751 1.707-.348-1.847-.889-3.521-.751-5.874-.625-.158-.39-1.181-.75-1.608-.026.192.108.543-.207.428-.03-1.172 1.02-2.378 1.165-2.674-.669.283-.857 1.059-1.603 1.28-.809 3.453-.588 8.724 2.248 9.854zm-2.139-.86c.037.418.344.577.536.86.076-.541-.286-.647-.536-.86zm-.541-3.534c.021-.334.013-.648-.209-.744-.215.231-.036.664.209.744zm-.422 2.987c.243.127.413.878.647.659-.28-.097-.351-.942-.647-.659zm-.113-2.032c-.542-1.616-.151-4.025-.211-5.661-.189 1.7-.501 4.299.211 5.661zm-.529-.635c-.014.557.271 1.365.425 1.391-.186-.42-.107-1.098-.425-1.391zm-.644-4.929c.12.286-.327.513 0 .657.098-.086.472-.657 0-.657zm0 .963c-.011.141.02.305-.107.325-.134 2.577.412.377.107-.325zm.113 3.312c-.086 1.172.424 2.29.85 2.577-.428-.7-.475-1.798-.85-2.577zm-.22-5.656c.259-.184.472-.387.642-.64-.505-.17-.719.921-.642.64zm-2.352 1.603c.855-.378 1.453-1.615 2.132-1.811-.272.25-.504.557-.741.847.531-.214.788-.709 1.068-1.177-1.124.404-1.987 1.072-2.459 2.141zm1.925.961c.023.227-.082 1.141.102.858-.028-.235.087-1.144-.102-.858zm.316-1.5c-.159.366-.496.583-.524 1.065.295-.154.755-.719.524-1.065zm-2.566 7.376c-.201-.504-.343-1.067-.639-1.495.129.588.346 1.081.639 1.495zm-.104 1.403c.073.383.274.652.532.855-.075-.378-.272-.647-.532-.855zm-.859-2.686c.109.394.701 1.767.645 1.282-.225-.413-.296-.968-.645-1.282zm-.531-3.194c-.022.116-.12.064-.219 0 .076.634.093 1.318.32 1.817-.066-.578.142-1.431-.101-1.817zm0 3.738c-.156.362.622 1.199.855 1.181-.096-.255-.53-.841-.855-1.181zm-.328-6.206c.295-.375.474-.894.859-1.18-.687-.088-.896.884-.859 1.18zm-3.098 7.705c-.323-.394-.249-1.182-.546-1.604-.106.754.223 1.64.546 1.604zm-.546 2.14c.546.317 1.027 1.266 1.609 1.181-.662-.193-1.063-1.216-1.609-1.181zm-1.175-4.495c.343-.092.493-.935.433-1.065-.12.37-.417.577-.433 1.065zm-2.137-3.629c.244.428.273 1.087.432 1.591.269-.47.902-1.154.741-1.704-.184.244-.813.039-1.173.113zm-1.179 1.591c-.532-.244-.643-.915-1.069-1.276.038.457.641.932.428 1.276-.153-.019-.179-.17-.321-.21.488.754.296 1.809.11 2.885.94-.06.509-1.47 1.282-1.702.126-.903-.364-.525-.106-1.295-.449.036-.667-.76-.855-.643.133.35.789.587.531.965zm-5.673.973c-.532-.246-.647-.932-1.177-1.183.03.816 1.099 1.183 1.177 1.609l-.963-.648c.467.329.549 1.32 1.181 1.189.185.735.819 1.148.958 1.916.316 1.606-.632 3.222-.958 4.61-.128.526-.016 1.451-.326 1.925.054-.102-.089-.356-.108-.325-.966 1.93-1.467 4.599.108 6.748-.507-3.189 1.371-4.557 1.609-6.748.126-1.139-.307-2.34-.217-3.634.11-1.492 1.346-2.886.645-4.605-.359-.031-.406-.683-.645-.217-.126-.604-.809-1.184-1.179-1.171.129-.031.37.301.112.312-.377-.235-.714-1.073-1.073-.96.351.334.748.617.856 1.182zm-.537 6.63c-.01-.406.482-1.313.211-1.285 0 .44-.511.91-.211 1.285zm-5.134 2.683c-.025.521.126.866.317 1.171.173-.176.091-.63.106-.957l.091-.215.021.001.023-.115c.701-1.683 2.532-3.394 1.468-5.663-.421.024.083.328-.211.423-.366-.57-.604-1.253-1.173-1.607.326.815.963 1.316 1.28 2.139-.475-.104-.277-.018-.644.115-.056-.202-.056-.455-.209-.541.595 1.717-.172 3.444-.512 5.134l-.045.114c-.312.035-.315-.202-.512.001zm.957-5.569c-.228-.087-.138-.506-.42-.547-.031.296.157.918.42.547zm-2.771.86c-.071.52.31 1.159.416 1.165-.101-.429-.191-.863-.416-1.165zm-2.256 2.245c-.22.206-.209-.059-.431-.108.731.689-.117 1.654.431 2.452.478-.949.968-1.632.318-2.775-.055.652-.833-.628-.639-.214l.321.645zm-1.395 2.343c.595 2.306-.783 5.545 1.5 6.333-.745-1.088-1.4-4.184-.425-5.893-.269-.134-.449.31-.541 0-.249-.458.411-1.645 0-1.933.092.375-.161.375-.316.219-.011.352.171 1.419-.218 1.274zm-1.395 4.728c1.13 2.829 4.072 4.411 6.745 5.346-1.828-.552-2.516-2.266-3.741-3.425.071.489.379.734.427.961-.666-.116-1.071-.667-1.605-1.066-.495-.375-1.197-.685-1.395-1.284-.637-1.945 1.698-4.598.112-6.317.29 2.007-.189 4.058-.543 5.785zm4.929 5.128c.679.504 1.789 1.145 2.575 1.18-.518-.731-1.677-.819-2.575-1.18zm3.101-.106c-.288-.053-.54-.735-.746-.534.176.186.527.752.746.534zm-3.636 2.785c.317.131 1.242.821 1.397.105-.806-.125-1.384-.47-1.93-.856l.211-.531c-.413-.367-.832-.509-1.393-.218-1.477-.235-1.91-1.514-2.68-2.463.354.022.519-.122.543-.43-.305-1.297-1.552-1.89-1.182-3.415-.872 2.502.554 4.309.851 5.989 1.129 1.157 2.909 2.232 4.834 2.25-.248-.057-.868-.269-.651-.431zm-3.417-.429c.243.474.791 1.203 1.278 1.07-.539-.253-.915-.657-1.278-1.07zm6.42-.425c-1.191-.514-1.736-1.238-3.436-1.069.788.693 2.041 1.989 3.436 1.069zm-8.463-10.913c.236.859.729 1.475.647 2.666-.211.112-.572.074-.437.533.344.212.472-.127.754-.1.165-.943.425-2.444 0-3.32-.019.126-.035.247-.214.222.066-.444-.271-1.02-.54-.767.17.419.649 1.073.329 1.61-.344-.121-.232-.696-.539-.844zm-1.713 6.739c-.067.525.56.807.321 1.169-.463-.344-.548-1.092-.86-1.598-.258 2.13 2.513 2.686 2.581 4.498.392.475 1.127 1.021.737 1.914.589.951 2.003 2.043 3.431 2.144.349.033 1.344.243 1.067-.318-.315.594-1.028-.144-1.278-.32.611-.04 1.023.128 1.499.222-.057-.343.193-.391.103-.752-.578-.064-1.313.024-1.602-.33.062.065.51.257.538 0-1.809-.903-3.988-1.424-4.396-3.738-.82-.862-1.428-1.924-2.141-2.891zm1.173 4.39c.296.273.79.908 1.08.853-.296-.279-.773-.935-1.08-.853zm.219-.541c-.56-.768-1.27-1.375-1.718-2.25.244 1.009.864 2.211 1.718 2.25zm0-2.564c-.05-.519-.021-1.124-.423-1.286-.267.522.164.949.423 1.286zm-1.392-2.683l.646-.213c.18.061-.007.507.215.536l.213-.966c-.269.022-.34.209-.428-.104.384-.545.606-1.251.631-2.137l-.521-.224c.121.536-.387.964-.11 1.291.056-.265.088-.549.428-.536-.196.769-.384 1.542-1.074 1.816.088-.542.806-1.004.321-1.492-.485.27-.548 1.375-.321 2.029zm-4.924-3.849c.221-.068.704.128.75-.11-.184-.181-.663-.112-.75.11zm4.173 2.999c-.399-.049-.967.299-1.284 0 .197-.399 1.313.103 1.496-.531-.316-.029-.7.414-.96.106l-.112-.22c.079-.503 1.064-.089 1.072-.648-.534-.064-1.346.146-1.708-.1.478-.382 2.021.313 2.033-.536-1.061-1.152-4.264-.739-6.212-.646 1.006.721 2.463 1.52 2.569 2.782 1.19.529 2.046.299 3.106-.207zm.537 8.464c1.683 1.271 2.632 3.354 4.388 4.588.604.418 1.403.332 1.927.957-1.158.446-2.115-.793-2.778-.835.825 1.133 3.47 2.135 3.851 0-.34-.034-.352.274-.751.206-1.996-.136-2.666-1.41-3.744-2.563-.657-.711-1.233-1.55-1.816-2.149-.469-.461-1.148-.609-1.075-1.391.816.181.979 1.017 1.714 1.284 1.328 1.494 2.979 4.773 5.673 3.863-.063-.372.138-.997-.11-1.192-2.102.805-3.055-1.794-4.599-1.92-.821-1.306-2.143-2.161-3.003-3.417-.223-.345-.176-.898-.746-.972.03.706.299.706-.104 1.176.331.053.279-.374.533-.103.034.996.608 1.461.64 2.468zm6.954 6.415c-.364.79-1.809-.094-2.461.319.652.46 1.073 1.142 2.361.966.02-.373.415-.935.1-1.285zm-6.299-3.86c-.243-.021-.589-.489-.767-.204 1.296.66 2.392 2.091 3.428 2.668-1.181-1.247-1.484-3.359-3.746-3.526.099.542 1.246.602 1.085 1.062zm-.337 2.99c1.168-1.161 2.387.771 3.218.87-1.118-.792-1.365-2.854-3.536-2.244.11.459.157.984.318 1.374zm.428 3.016c.92-1.487 3.267-1.39 4.072 0 .055.084-.156.173-.102.312.156.475.708.61.956.97.642-.074.89-.533 1.078-1.074-1.605-.124-2.363-1.069-3.113-2.035-.011.168.019.371-.214.325-1.357-1.272-4.023-.743-2.677 1.502zm2.039.636c1.942-.674 1.797 1.62 3.103 1.931l.325-.646c-.271-.084-.577-.145-.965-.117-.366-.693-1.331-1.339-1.18-1.913-1.761-.583-1.987 1.014-3.208 1.281l-.114 1.492c1.372-.154 1.578-1.189 2.039-2.028zm3.103 2.57c-.154.47.351.296.642.323.045-.358-.462-.181-.642-.323zm-4.174 3.535c.044-.364-.185-.461-.327-.641.044.277-.143.789.327.641zm1.394.963c-.235-.131-.066-.648-.323-.756-.288.226.052 1.1.323.756zm.428-.427c-.226-.416-.162-1.129-.645-1.288.24.328.24 1.473.645 1.288zm1.712-2.464c-1.991-.107-2.002-2.636-4.064-2.028 1.36.848 2.494 1.921 3.738 2.885.275-.124.313-.473.326-.857zm.215-1.073c-.752-.169-1.13-.735-1.493-1.288-.333-.065-.928.144-1.078-.105.329-.605 1.082-.169 1.714-.207-.489-1.007-1.936-.696-2.031.108-.141 1.083 2.119 1.871 2.778 2.137-.254-.095.09-.472.11-.645zm1.288.221c-.176-.19-.634-.084-.968-.108-.021.476-.422 1.143-.217 1.499.375-.338.388-1.04.963-1.186.049.189-.156.275 0 .325.049-.201.312-.185.222-.53zm.425-2.039l-.54-.221c-.135.373-.381.628-.534.965.137.157.474.119.753.119-.071-.468.347-.446.321-.863zm2.244-3.958c-.34.296-.651.614-1.065.851-.93-.47-1.313 1.383-1.5 2.358.261.097.461.243.857.214.591-1.054 1.432-2.421 1.708-3.423zm.751-.86c-1.066-.25-1.671.46-2.459 0v.424c.464.146.963-.242 1.174 0-.441-.007-.531.268-.531.436-.323.03-.839-.132-.863.208.983.087 1.029-.239 1.713-.539-.16.486 1.004-.105.966-.529zm1.283-2.349c-.661.768-2.311 1.08-3.319 1.167 1.219 1.622 3.198.246 3.319-1.167zm0-1.072c-1.264.333-2.412-.159-3.319-.751.537.113.825.468 1.395.533-.306-.537-.85-.861-1.395-1.18-.005.386-.167.623-.213.962.234.257.612.39.964.543-.485.128-.641-.409-.964-.107.046.588.934.362 1.183.746-.501.061-.621-.244-1.065-.224-.033.635 1.379.284 1.065.869 1.196-.06 2.389-.108 2.349-1.391zm-.431-2.577c-.314.632-1.825.294-2.239 0 0-.314.192-.451.42-.535.597.629 2.308-.079 1.505-.858-.374.344-.872.559-1.604.538-.266.488-.852 1.216-.649 1.817.612-.162 1.606 1.103 2.899.963.017-.771-.085-1.425-.332-1.925zm1.08-3.316c-.893-.61-1.405-1.6-1.713-2.792-.5-.455-1.358-.539-1.827-1.063-.141-.169-.091-.558-.208-.751-.792-1.263-2.262-2.701-1.825-5.025 1.238-.048 1.261-2.162 1.825-3.216-.444-.275-.412-1.023-.863-1.293-.036.483.559 1.18.114 1.404-.318-.048-.096-.629-.651-.438.081.65.161 1.28.111 2.043-1.279 1.485-.454 4.25-.314 5.892 1.901 1.554 3.257 4.231 5.351 5.239zm-4.716-9.09c.014.305-.453.604 0 .746-.111-.309.268-.962 0-.746zm4.39 8.122c-.168-.618-.634-.935-.968-1.379.231.556.524 1.045.968 1.379zm2.352-.105c-1.85-2.14-5.18-4.505-5.457-7.816-.197-2.357 2.007-3.224 1.291-5.772.058.602-.343.15-.434 0-.008.515-.504.632-.644.21-.08.793.124 1.306.109 2.035-.035.215-.29.206-.433.324-.223.816.126 3.004-.317 3.959.275 2.76 2.106 3.957 3.746 5.342.03.256-.31.127-.321.329.22 0 .403.588.529.318-.257 0-.019-.355.114-.318.332.671 1.242 1.314 1.817 1.389zm-.215-.64c-.101-.362-.621-.867-.856-.751l.856.751zm3.005 2.465c-1.526-3.766.692-7.083 2.031-9.842.139-1.474-.143-2.904-.112-4.191.049-1.539.802-2.542 1.076-3.533-.035.171-.449.461-.539.207.739-.999.237-3.355-.858-3.412 1.901 2.049-.528 4.614-.426 6.737.074 1.459.774 2.329.426 3.542-.188.667-.797 1.037-1.063 1.496-.634 1.113-1.154 3.294-1.396 4.818-.09.514.212 1.417-.21 1.602-1.771-1.947-3.635-3.647-3.21-6.521l.42-1.395c.079-.451-.021-.95.105-1.393.332-1.08 1.467-2.184 1.824-3.216.333-.951.005-1.844-.102-2.681-.535-.199-.488-.485-.85-.958-.091.724.792 1.046.525 1.603-.34-.331-.572-1.24-1.069-1.067-.266.893.829 1.098.855 2.041-.361-.247-.63-1.164-.959-1.079.539.729.583 1.985.525 3.313-1.786 1.646-2.454 5.618-1.383 8.568.479.233.839.582 1.179.966.079.304.21.57.326.849 1.412.727 1.75 2.528 2.885 3.546zm2.565 16.482c-.422.312-.718-.234-1.063-.318.06.323-.146.92.096 1.063.11-.135.104-.397.321-.418.627.749 1.85.223 2.359-.328-1.502.417-2.108-.945-2.776-1.706-.201 1.345.707 1.039 1.063 1.707zm-3.316 16.064c-.554-.202-1.104-.388-1.499-.752.029.653 1.082.843 1.499.752zm.21-.539c.021-.271-.164-.34-.21-.527-.156.055-.554-.135-.538.096.318.07.438.695.748.431zm.647-.853c-.835.008-1.164-.474-1.718-.746-.012.479-.65.908-.422 1.281.493-.053 0-.48.422-.646.887-.253 1.195.607 1.718.111zm.856-.86c-.639-.362-1.602-.395-1.933-1.071 0-.066-.011-.121-.101-.104-.097.233-.649.559-.323.852.559-.157 1.584 1.05 2.357.323zm.323-.749c.003-.614-.313-.906-.217-1.611-.607-.061-.836-.505-1.395-.637.021.345-.184.453-.11.859.39.043 1.054-.194.869.417-.396-.023-.731-.134-1.082-.196l-.212.641c.599.288 1.144.634 2.147.527zm1.171-5.465c-.768.207-1.067-.049-1.494-.421-.214 1.276-.981 2.011-1.181 3.319l1.504.643c-.085-.302.151-.282.104-.543-.271-.255-1.146.072-1.282-.318.203-.452 1.085-.105 1.396 0-.096-.304.15-.271.096-.528-.518-.12-1.245-.496-1.063-.968.342.189.809.262 1.285.32.154-.557.401-1.029.635-1.504zm.644-2.036c-.39-.104-1.711-.302-1.928.112.285.047.952.327 1.284.647l-.425.317c-.244-.215-.705-.215-.963-.421.077.324-.106.386-.106.636.427-.236.528.265.857.432 1 0 1.099-.896 1.281-1.723zm.858-1.273c-.532-.287-2.054.101-2.673-.221v.539c.619.327 2.538.7 2.673-.318zm.75-1.498c-1.132-.087-2.687.257-3.206-.437-.041.474-.176.83-.113 1.39 1.403.507 2.48-.273 3.319-.953zm.965-2.255c-1.208-.191-1.943.713-2.896.864-.321.045-.97-.209-1.179.097.713 1.105 2.368.237 3.646.325l.429-1.286zm.957-2.144c-1.823 1.019-3.626-.411-4.922-1.168.252-.035-.012-.41-.11-.442.084.442-.096.615-.096.979 1.841.358 2.238 2.189 4.387 2.239.128-.582.839-1.147.741-1.608zm.648-1.494c-.975-.316-2.294.552-3.212.967.674.459 2.142.14 2.889 0 .182-.253.235-.625.323-.967zm-4.822-1.714c.425.143.263-.315.539-.315.896.944 4.392 1.433 4.818-.325-.384.163-.06-.362-.318-.32-1.449 1.188-4.635.996-5.676-.326-.161.706-.022 1.69-.222 2.359 1.212.223 1.538 1.099 2.782.966 1.006-.118 1.863-1.04 3.001-.966-.009-.344.292-.366.213-.753-1.34.701-3.825 1.293-5.028.108.211-.211-.047-.211-.109-.428zm6.313-3.426c-.032.12-.46.369-.531.109.203-.024.355-.064.434-.218-2.435.153-4.714 2.106-6.753.756v.535c1.74.154 2.016 1.767 4.289 1.391.994-.469 2.024-.907 2.464-1.926-.185-.053-.277.148-.324 0-.101-.404.731-.404.421-.647zm.973-1.06c-2.518.535-3.916-.414-6.316-.112-.154-.422-.869-.278-1.286-.438v1.287c1.729 1.02 3.348-.907 4.926-.536.307.075.299.31.528.323.836.062 1.491-.166 2.148-.524zm.533-1.401c-.549-.086-.81.108-1.177.214.4-.391-.505-.045-.54-.33.256-.055.784.138.863-.101-2.426-.16-5.355-.038-7.173-.53v.855c1.028.416 2.19.294 3.424.432 1.357.14 2.957 1.167 4.069 0-.539-.132.523-.272.534-.54zm1.076-2.036c-2.315-.786-5.172-.43-7.501-1.081.229-1.217-1.754-.948-2.143.125.445 1.357 2.598.862 3.965 1.381 1.318.517 3.606.265 4.944.619l-.022-.082c.46.205.648-.468.757-.962zm3.745-4.283c-.209.971-.986 1.941-1.074 2.682.504-.747 1.074-2 1.718-2.25-.493.824-1.414 1.798-1.608 2.574.672-.772 1.299-1.567 2.038-2.256-.068.626-.815 1.373-.969 1.819.361-.238.897-.885 1.18-.858-.146.109-.211.292-.325.436 1.637-1.022-.264-3.761-1.392-3.859.037 1.475-1.612 2.834-1.391 4.067.33-.735.804-1.335 1.185-2.028-.246 1.077-1.272 1.943-1.4 2.778.933-.811 1.295-2.423 2.038-3.105zm-1.396 4.065c.42.643 2.033.25 2.576 0-.505-.303.981-.512.311-.628-.772.507-2.024.082-2.887.628zm3.541.538c-.118-.414-.169-.589-.222-.853-.403.272-.65.704-.965 1.068.464-.006.79-.149 1.187-.215zm-.109.106c-.228.23-.039.671.214.755-.053-.288-.061-.598-.214-.755zm-2.787.438c.469-.07.984-.092 1.285-.329-.406-.149-.743.315-.967 0 1.822-.248.561-.201-.428-.215-.033.251.016.41.11.544zm.427.955c.819-.075 1.719-.053 2.247-.421-.088-1.507-1.397-.063-2.356-.218l.109.639zm8.137 14.564c-.242.764-.898-.33-1.395-.33.235.446.207 1.149.534 1.507.241-.372 1.143-.639.861-1.177zm1.606 7.807c-.443.396-1.332.594-1.716 0 .077.764-.205 1.159-.432 1.611.663.237 1.621.157 2.147.543-.937-.036-1.6.186-2.573.096-.2.734-.913 1.518-.967 2.041 1.074-.217 1.94-.194 2.894-.648-.161.412-.812.318-1.069.648.968-.034 1.456-.545 1.716-1.293-.425-.024-1.057.311-1.399 0 .331-.211 1.019-.049 1.51-.098 1.035-.697.599-2.071-.111-2.9zm-1.606-3.31c-.236-.743.411-1.852.422-2.993-.472-.089-.642.138-1.068.106-.069 1.018.394 2.463.315 3.953.533.05 1.132.022 1.29.426-.228.234-.521.408-1.069.318-.049.844-.035 1.613.647 1.723.422-.223.482-.783 1.068-.859-.307-1.044-.458-2.252-.865-3.217-.433-.017-.348.508-.74.543zm.642-8.242c-1.292.274-1.958 1.177-3.108 1.597.22.654.68 2.047 1.499 1.402.441.194.757.531 1.289.645-.009-.654.44-1.414.101-2.047-.091.197-.197.379-.532.325-.035-.155-.132-.181 0-.325-.472-.031-.747.686-1.077.428.797-.49 1.507-1.06 1.828-2.025zm-.22-1.183c-.091.188-.235.331-.422.426-.743.561-2.815.308-3.104.972.884-.363 2.563.008 3.746-.544-.093-.266.213-.918-.22-.854zm-.216-.643c-.943.272-2.923.864-3.63 1.394 1.323.063 3.188-.229 3.63-1.394zm-2.352.432c.315-.124 1.289-.135 1.074-.432-.26.239-1.013-.016-1.074.432zm.433-1.828c-.795.463-1.267 1.245-2.244 1.505.18.199.225.561.316.856.426-.292 1.286-.714 1.286-1.072-.085.238-.378.271-.535.425.262-.475.858-.631 1.286-.964.05.151-.417.271-.109.333.024-.229.276-.217.425-.333.03-.413-.46-.321-.425-.75zm-2.244 1.289c.445-.726.868-1.477 1.811-1.708-.216-2.215-3.154.767-1.811 1.708zm.316-4.492c-.336.537-1.55 1.25-1.923.75.285.925.61 1.81 1.066 2.557 0-.951.731-1.835 1.501-2.346-.309-.231-.283-.794-.644-.961zm-4.282-4.069c1.013 1.448 1.383 1.828 1.926 3.96.888.007 2.021.478 2.248-.326-.433-.209-.359-.921-.748-1.172.061.738-.848.501-1.5.539l-.111-.446c.44.023.918-.32.862-.629-.046.296-.455.149-.531.104.375-.344.85-.582.85-1.287-.798-.583-2.087-.498-2.996-.743zm4.072-4.607c-.41-.381-.808-.762-1.076-1.28.244-.15.405.276.431 0-.459-.577-.592-1.488-1.066-2.034-.036.671.405.871.42 1.494-.987-2.254-3.163-3.323-5.353-4.39-.414-.75-1.028-.999-1.818-1.703-1.923-1.754-4.438-3.226-5.993-5.042-.446-.508-.814-1.271-.644-1.713-1.302-2.53.622-5.025 1.499-6.754-.656.144-.511.751-.749 1.189-.742 1.375-1.842 2.601-1.932 4.394-.05 1.065.433 2.064.539 3.211.153 1.595-.137 2.781.535 3.628h-.855c-.169.659-.548 1.097-.639 1.831-.346.057-.335-.205-.537 0 .239 1.741-.986 2.754-1.604 3.96-.164.98.233 1.833.102 2.459.321.185.458.984.854.75-1.574-2.793 2.646-3.65 4.605-4.599.342-.752-.324-.981-.32-1.717h.751c.186.168.269.45.218.859.711.35 1.242.988 2.344 1.177l-.211.316c.688.281 1.228.695 1.717 1.173.007 1.395 2.482 1.14 2.567 2.79-2.711-1.299-7.443.052-10.277-1.07-.544.514-1.765 1.031-1.177 2.04.922-.58 1.084-1.526 2.142-1.395.597.068 1.014.733 1.713.959 1.44.466 3.004-.121 4.82.11.604.246 1.423.863 1.925.863-.264-.382-1.101-.758-1.067-1.079.441.21.796 1.053 1.384.757-.266-.456-1.336-.661-1.285-1.071.311.334.828.447 1.182.747.321-.372-.773-.692-.529-.971.311.255.524.621.959.753 2.073-4.037-1.997-4.787-4.283-6.317-1.126-.762-1.671-1.795-2.996-1.389-.737.545-.75 1.818-1.926 1.93-.568.834-1.452 2.443-2.678 1.924.321-.141.085-.84.754-.646.07-.641.07-.814.206-1.277.832.052.72-.254 1.068-.541-.219-.234-.185-.215-.42-.536 1.069-.55.845-1.188.959-2.14.895.24 2.202-1.131 1.359-1.255-.04-.051-.093-.081-.183-.024l.183.024c.077.102.063.315-.073.287-.732-.198-.71-1.154-.965-1.803.249-.153.4.259.43 0-.187-1-.696-2.245-.641-3.122 1 1.259 2.103 2.386 2.463 4.287 1.025 1.751 3.24 2.464 4.929 3.64.866.614 1.422 1.563 2.133 2.138-.159-.127.401-.042.213.215.693-.501 1.014.924 1.294.43-.03-.574-1.738-.965-1.716-1.599.519.5 1.25.819 1.922 1.169.087-.271.109-.605.323-.736.055.401-.184.521-.104.954 1.822.345 2.401 2.607 2.884 3.636.151-.284 1 .279 1.29.109zm-17.773-.425c1.658-1.817 5.032-1.561 8.457-1.395-.421-.869-1.727-1.767-3.645-1.494-.003-.069-.02-.126-.099-.117-.71.726-2.135.726-2.899 1.398-.743.087-2.173.445-1.814 1.608zm16.481-4.923c-.974-1.558-2.103-3.308-3.421-4.498-.02.08-.006.217-.109.217-1.138-1.324-2.342-2.593-3.744-3.649 0-.139.191-.1.213-.206-1.183-.896-2.118-2.028-3.426-2.783 0-.149.181-.1.217-.216-.067-.192-.509.001-.54-.21-1.194-1.856.033-5.3.323-6.542-.761 1.915-2.348 3.45-2.145 5.895.109 1.33 1.421 2.388 2.038 3.215l.323.641c2.077 2.67 6.205 3.766 7.168 6.845 1.797 1.378 3.436 3.496 4.497 5.25-.272-.192-.299-.622-.642-.75-.216.354.649.664 0 .645.184.132.422.214.434.54-.335.116-.265-.177-.434-.224.222.608.675.969 1.079 1.394.835-2.514-.816-3.961-1.831-5.564zm-10.701-12.53c-.093.449.203.494.213.851.231.193-.065-.73-.213-.851zm5.778 4.176c-.567-.541-1.327-1.461-2.025-1.505.747.367 1.41 1.373 2.025 1.505zm1.929 1.822c-.28.111-.378-.461-.537-.106.414.215.902 1.1.537.106zm8.238 12.524c-.095-.09-.68-.23-.747 0 .087.105.676.23.747 0zm.22-.644c-.135-1.613-1.445-2.054-1.609-3.632-1.546-1.948-2.547-4.622-3.744-6.965-1.028-1.994-2.578-3.574-3.746-5.355 0-.14.184-.095.214-.221-1.278-1.097-2.54-2.241-3.108-4.059.507-.119-.414-1.389-.217-2.248.241-.07.343.3.332-.113-.058-.93.701-2.09.423-2.562-.11.472-.521 1.2-.755 1.181.367-.704.707-1.436 1.069-2.148-.352 1.136.516-.234.324-.426-1.359 1.036-2.229 2.552-2.777 4.394-.229.058-.356.22-.537.324-.519 2.897.71 4.901 2.35 5.993-.549-.097-1.069-.784-1.385-.763 4.013 2.918 7.282 7.135 9.205 11.777 1.641 1.174 1.394 4.71 3.53 5.041-.228-1.453-1.098-2.254-1.493-3.53.787.939 1.228 2.248 1.924 3.312zm-11.141-22.371c.021.344.063.657.216.851-.082-.277.217-.921-.216-.851zm4.603 9.416c-.134-.559-1.082-1.375-1.063-1.386.302.514.594 1.042 1.063 1.386zm1.074-.424c-.1-.544-.277-1.002-.746-1.179.171.468.471.803.746 1.179zm.856 2.564c-.14-.176-.087-.558-.317-.645-.242.149.266.811.317.645zm1.291 3.112c-.014-.392-.057-.737-.315-.863-.252.301.18.614.315.863zm7.484 8.773c-1.868-1.956-3.803-4.362-5.03-7.28.72.647 1.085 2.215 1.935 2.354-.801-1.164-1.35-2.581-1.935-3.958.007-.172.278-.088.211-.327-1.063-1.923-.814-5.159-2.242-6.74-3.016-1.512-4.389-4.665-4.493-9.094-.041-.203-.413-.081-.325-.434-.042-.935.085-1.048.325-1.714-1.551.355-2 2.64-1.821 4.701.373 4.2 4.239 6.542 5.247 9.651.031.241-.312.115-.316.312.888 1.792 1.819 3.531 2.669 5.355-.044.174-.334.096-.214.43.997 2.395 2.461 4.312 3.53 6.643-.211.175-.14-.019-.423 0 .033.388 1.02.393 1.173.314-.469-.451-.803-1.05-1.173-1.606.746.542 1.628 2.72 2.882 1.393zm4.078-.641c-.49-.212-1.723.247-2.252 0 .631-.074 1.214-.212 1.927-.212.313-.234-.482-.598-.211-.747.026.087.288.475.314.209-.736-.719-1.899-1.328-2.562-2.567-.789-1.445-1.894-3.461-2.042-5.137-.124-1.412.601-3.007.435-4.706-.172-1.653-.891-3.517-1.397-5.032-.271-.809-.747-1.558-.857-2.369-.264-1.934-.032-3.465.326-4.381.118-.115.554.024.314-.22-.004.127-.133.086-.098-.094.813-.629 1.233-.328 2.024-.869.097-.334-.35-.142-.313-.426.902-1.488 2.394-2.374 3.854-3.309-2.656.07-2.979 2.62-4.929 3.418-.742.306-1.642.34-2.033.86l.001-.001c-.099-.018-.099.045-.11.115l.109-.114c-.795.712-.992 2-.862 3.634.498.802.386 2.221.534 3.217.227 1.407.965 2.99 1.611 3.962.419.615 1.617 1.063 1.178 2.029-.098-.829-.923-1.515-1.282-1.714 1.009 2.151 1.173 5.337.74 7.816-.74-.564-.582-2.044-.636-3.307-1.053-1.856-.663-5.131-2.683-6.013-.251.405.29 1.128.432.861.437 2.58.943 5.058 1.505 7.5-.161.248-.232.188-.109.529.82 3.039 2.928 4.788 4.386 7.173-.467-.456-.371.787-.209.973 1.145-.188 2.587-.061 2.895-1.078zm-8.029-19.377c-.063-.512.012-1.151-.331-1.383.092.478.066 1.072.331 1.383zm0 .533c-.178-.006-.069-.294-.216-.328-.008.78.287 1.687.216.328zm2.025 7.395c-.013-.312.098-.741-.21-.751-.015.336 0 .649.21.751zm2.683-12.419c.253-.559 1.25-.97 1.282-1.389-.375.44-1.508.699-1.282 1.389zm0-1.716c.121-.275.663-.676.538-.858-.11.299-.752.602-.538.858zm.215 13.17c0-.683-.039-1.324-.215-1.819.004.187-.085.222-.213.103.104.596-.054 1.479.428 1.716zm-.324 1.818c.027 1.076-.104 2.317.212 3.104-.018-1.023-.053-2.595-.212-3.104zm.212-4.282c-.121-.766.026-1.289-.429-1.818.164.576.059 1.434.429 1.818zm-.53 4.704c.038.29-.103 1.322.101 1.072-.037-.284.1-1.299-.101-1.072zm-.113-4.704c-.156.188.065.645.214.852-.037-.325.119-.832-.214-.852zm-.217 1.39c.017 1.078 0 1.529.217 2.358.259-.725-.046-2.088-.217-2.358zm-.643-8.773c-.009.833-.274 1.82.113 2.455-.063-.708.129-2.268-.113-2.455zm.113 4.39c.005.59.172 1.041.43 1.38-.085-.521-.192-1.022-.43-1.38zm.218-4.829c-.237.455-.101 1.356.104 1.717-.073-.534.138-1.351-.104-1.717zm.529-1.49c-.046.416-.724.762-.529 1.064.069-.392.831-.657.529-1.064zm-.529 14.762c-.163.799.003 2.225.313 2.465-.326-.588-.071-1.777-.313-2.465zm.104-14.44c.096-.279.789-.677.316-.862-.054.269-.499.71-.316.862zm.538-1.824c-.321.804-1.242 1.547-1.189 2.352.261-.787 1.349-1.854 1.189-2.352zm-1.398 3.316c.063.695-.135 2.2.109 2.352-.064-.674.129-2.202-.109-2.352zm.538-2.567c-.289.326-.746 1.038-.643 1.399.067-.49 1.027-1.154.643-1.399zm-.329.214l.547-.855c-.371-.107-.823.25-.547.422.322-.29-.329.41 0 .433zm-.419-.434c-.103.346-.585.843-.321 1.187.016-.389.543-1.253.321-1.187zm-.432 2.684h-.217c.08.853.163 1.698.327 2.454.022-.637.373-2.026-.11-2.454zm-.75-.543v1.171c.181 2.176.4-.618 0-1.171zm3.854 12.426c-.099.77-.209 1.827.111 2.463-.065-.787.143-1.859-.111-2.463zm.111-.853c-.085-1.179.071-2.567-.432-3.321.111.889.142 1.858.32 2.676-.022.22-.006 1.226.112.645zm7.493 10.27c-1.93-.744-3.354-1.997-4.168-3.85-.03-.285.411-.087.307-.429-.151-1.505-.49-3.036-.633-4.601-.147-1.621.17-3.311-.112-4.711-.683-3.463 4.417-7.415 4.503-10.288.853-.919 1.66-1.886 2.996-2.345 2.314-2.253 5.743-3.38 10.17-3.538-4.621-.605-8.51 1.285-11.135 3.113-1.54 0-2.641 1.354-3.749 2.136-.371 1.909-1.681 3.579-2.347 5.13-.263.606-.351 1.334-.649 1.937-.22.438-.825.76-.965 1.265-.235.938.359 1.953-.215 2.805-.246-.917-.624-1.736-1.287-1.713-.71-1.597-.209-3.908.757-5.033.011.153-.039.397.109.428.099-.585.726-1.736.636-1.827-.25.041-.226.913-.43.649.948-2.837 2.073-5.485 4.391-6.957 1.255-.499 2.639-.86 3.749-1.501-2.001.492-4.799.458-6.211 2.142-.97 1.154-1.526 2.528-2.571 3.53-1.202 1.173-1.716 1.158-1.713 2.889.006 1.52-.78 3.801-.101 4.711.572.311 1.088.5 1.279 1.388l-.104.651c1.532 2.513-.326 7.536.858 10.39.748 1.795 2.675 3.426 3.527 4.914 0 .362-.853.858-.422.973.833.067 2.08-.083 1.279-.437.578-.14.946-.479 1.505-.642-.235.375-.833.388-1.076.757.771-.099 1.252-.471 1.929-.651.063-.611.081-.789-.107-1.285zm-2.03-25.152c.358-.102.962-.524.85-.745-.176.358-.71.358-.85.745zm-.751-.538c-.032-.275.702-.685.431-.534-.365.02-.699.424-.431.742.261 0 .68-.371.431-.532-.07.123-.365.559-.431.324zm-.326 1.926c-.515.804-1.439 1.764-1.499 2.682.42-.909 1.329-1.893 1.499-2.682zm-.323 1.72c-.159.373-.787.826-.642 1.172.138-.405.839-.8.642-1.172zm-1.176-1.506c-.065.506-.693 1.013-.535 1.39.123-.444.875-.838.535-1.39zm-.115 1.389c-.217.524-.729 1.326-.628 1.822.156-.595.888-1.182.628-1.822zm.86-2.244c.228-.343.378-.774.542-1.172-.41.038-.627 1.326-.542 1.172zm-2.136 7.92c.039-.354.658-1.149.215-1.285.123.631-.729.9-.215 1.285zm0-1.403c.119-.334.421-1.055.321-1.282-.084.382-.602.898-.321 1.282zm6.322-.31c.178-.386.973-1.204.642-1.383-.102.491-.73 1.041-.642 1.383zm.641-2.474c-.418.625-1.039 1.615-1.069 2.263.273-.762 1.032-1.609 1.069-2.263zm1.819-2.987c-.947.885-1.927 2.29-2.355 3.32 1.036-1.091 1.487-2.157 2.355-3.32zm-2.247 1.397c0-.36.598-.686.32-.962-.054.311-.562.723-.32.962zm2.247-2.685c.165-.226.919-.426.642-.743-.121.247-.867.857-.642.743zm1.604-.63c.339-.301.595-.714.75-.862-.724.267-1.12.875-1.605 1.395-.464.302.505-.242.855-.533zm-6.639 16.371c.161.501-.354 1.02.106 1.18-.039-.329.114-1.38-.106-1.18zm-1.822-3.966c.153.659-.307 1.254 0 1.718-.107-.621.51-1.384 0-1.718zm.112-1.391c-.373-1.743 1.119-2.788 1.279-3.961-.621 1.243-2.058 3.095-1.603 4.394-.073-.55.144-.982.324-.433zm1.388 2.787c.04-.324.395-1.328 0-1.397 0 .505.052 1.046-.108 1.397v.861c.256-.084.044-.609.108-.861zm.107-4.405c-.031.483-.642.945-.315 1.402.049-.452.511-1.044.315-1.402zm-.528 11.159c.042.27.146.489.313.64v-.64h-.313zm.421-11.358c-.341.059-.576.762-.421.956.099-.355.336-.582.421-.956zm-.639 1.817c0 .296-.444.689-.107.972-.021-.327.424-.711.107-.972zm-.749 6.11c-.053 1.108.129 2.017.324 2.887-.036-.973-.183-2.397-.324-2.887zm.641 1.5c-.082-.588-.125-1.233-.316-1.718-.012.694-.029 1.377.316 1.718zm0-3.534c.03-.798.277-1.942 0-2.686-.09.735-.235 1.973 0 2.686zm.108 7.704c.229.281.693.87.962.743-.216-.279-.734-.828-.962-.743zm1.282-13.597c-.109.458-.603 1.103-.421 1.505.055-.522.668-1.047.421-1.505zm0 1.505c.053-.507.837-1.35.428-1.61-.129.477-.669 1.106-.428 1.61zm10.066 14.875c-.181-.321-.219-.78-.641-.863.068.914-1.148 1.628-1.927.965 1.538.134 1.371-1.402.857-2.352-.146.362.233.75 0 .862-.222-.27-.02-.984-.221-1.292-1.009-1.027-1.223-3.393-.96-5.346-.66.202-1.288 1.342-1.929 1.929-1.02 3.412 2.195 4.921 1.285 7.173.17.287.443-.195.536.103-1.082.658-2.361.977-3.423.855l.211-.11c-.172-.283.37-.689.429-1.056.235.307-.324.697-.42 1.05.509-.279.543-1.022.957-1.376-.089.579-.414.938-.645 1.394.868.003 1.058-.665 1.285-1.295.044.436-.096.691-.216.971 1.175-.029.377-1.561.425-2.355-1.01-.624-1.536-1.753-2.345-2.58-.533-1.83-1.211-4.24-1.29-6.523-.039-1.132.321-2.173.531-3.208.11-.517-.118-1.304.54-1.508.137.27-.314.444 0 .543.358-1.569 1.543-2.888 2.033-3.974-.862 1.204-1.932 2.214-2.573 3.648.518-1.692 1.76-3.006 2.787-4.387 1.277-1.715 2.415-3.673 3.75-5.032.052-.299.255-.452.32-.749 2.14-1.673 5.048-2.59 8.131-3.316-.465-.143-.961.228-1.175 0 .86-.143 1.77-.239 2.678-.323-.141.408.798.332 1.392.323-2.81-1.633-6.975-.381-9.42.861-1.419.718-3.102 1.34-3.855 1.924-.772.592-1.378 1.762-2.146 2.883-1.901 2.79-4.757 6.612-5.029 10.283-.12 1.742.291 2.961.108 4.487.007-.108.139-.09.108.114-.707 2.507.455 4.586 1.391 6.1 1.74.345 2.402 2.721.646 3.543 3.486.879 5.562-1.313 7.815-2.366zm-6.958-11.776c-.073.691.102 2.07.102.646.055-.242.249-.58-.102-.646zm-.75 0c-.113.909-.231 2.25.108 3.009-.016-1.16-.016-2.186-.108-3.009zm9.318 17.239c1.949-.214 2.81-2.571 4.926-1.93-.151-.667-.587-1.062-.762-1.712-.848-.077-1.359.562-2.034.313-.48 1.163-1.356 1.93-2.13 2.79-.397-.356.417-.811.106-1.062-.199.569-1.176.349-1.502.315 1.244-.676 1.784-2.068 2.668-3.1.345.278.58-.224.765-.436l-.541.326c.242-.573.872-.781 1.171-1.287-.005.409-.426.409-.537.749.502-.071.715-.428.97-.749l-.534-.423c-2.565.566-3.628 2.644-5.136 4.276.999.494 1.436 1.564 2.57 1.93zm6.202 1.075c-.705-.524-.518-2.069-1.171-2.899-.479.774-1.89.614-2.364 1.394-.173.981-1.54 1.654-2.241 2.468.369.706.688 1.601 1.386 1.711 1.619.246 3.589-2.181 4.39-2.674zm-2.038 7.175c.61-1.113 2.757-.692 3.118-2.036-.848-.077-2.582-.469-3.538.093-.085-.119-.144-.278-.104-.53 1.688.017 2.717-.635 3.744-1.281.07-.997-.453-1.401-.855-1.926-.053.39-.172.618 0 .959-.553.308-1.003.709-1.822.752-.044.189.164.273 0 .324-.518-.134-1.239-.086-1.707 0 .156.171.433.518.21.754-.353-.229-.353-.792-.852-.862.817 1.019 1.064 2.639 1.806 3.753zm-2.775 12.622c.369.691 1.467.223 2.138.432v-2.362c-.461-.065-1.205.146-1.49-.106-.018-.062-.018-.112-.115-.09-.229.663-.457 1.317-.533 2.126zm.532 4.289c-1.144-.223-.299-1.334-1.496-1.609-.646 1.387-1.785 2.273-2.676 3.432.546.34 1.354.422 1.927.744-.192-1.443 1.094-1.406 1.596-2.145-.159-.457-.807-.457-.847-1.068.618.054.993 1.48 1.496.646zm-.96-2.461c1.146.19 1.916.799 3.104.959.161-1.664-1.919-1.079-3.104-1.396-.134.294-.332.528-.427.863.847.658 2.31 1.242 3.316 1.389-1.022-.555-1.855-1.286-2.889-1.815zm2.678-1.072c-.994-.043-1.973.344-2.461-.324l-.109.637c.751.364 2.123.087 2.782.544l-.212-.857zm.321-4.069c-.785-.006-1.083.364-1.714 0-.006.342-.301.409-.21.851.608.038 1.077.202 1.603.336.012-.497.252-.761.321-1.187zm.746-1.508c-.784.159-1.105-.163-1.497-.414-.047.526-.474.665-.542 1.174.695.942 1.987.391 2.039-.76zm1.822-1.818c-.701.229-1.467.387-2.463.324l-.426.752c1.085 1.246 3.033-.477 2.889-1.076zm.754-1.064c.07-.789.688-1.015.959-1.604-.71.151-1.609.102-2.466.102-.092 1.004-.696 1.511-1.069 2.252.967.193 1.354.143 2.356 0 0-.278.699-.992.22-.75zm1.493-2.68c-1.027-.101-2.071-.078-3 .214v.751c1.095-.309 2.188-.681 3-.965zm1.179-1.063c-.329-.26-.258-.899-.534-1.176-.535.854-2.697 1.02-3.645.533-.226.087-.599.607-.85.321 1.024-1.021 3.276-.796 4.277-1.833.022.094.003.215.11.215.03-.486-.354-.57-.647-.739.094.341-.161.335-.321.419-1.512.314-3.052.595-4.181 1.29.337.814.915 1.375 1.509 1.933.344-1.026 2.604-1.438 3.641-.757.149-.374-.647-.339-.323-.527.592.166.339.614.748.852.038-.208-.144-.212-.209-.325.247.018.394-.029.425-.206zm.104 0c1.171-.157 1.373-1.015 2.461-1.394l-1.713.53c.304-.501 1.299-.313 1.179-.958 1.219-.074 2.104.178 2.894.526-.077-.389.129-.501.115-.86-2.185-.501-3.724.669-5.363.646-.026.675.292.998.427 1.51zm2.033-.322c.361-.068.789-.082.97-.321-.501-.066-.777.076-.97.321zm-1.497 2.784c.595-.222 1.254.179 1.604.524.637-.146.752-.82 1.717-.631-.004-.505.191-.808.21-1.293-.506-.079-.683.173-1.175.114.019-.276-.241-.267-.321-.432-.096.099-.551.358-.644.107.447-.523 1.718-.547 2.25-.107 0-.368.51-.766.213-1.067-1.129-.648-3.044.916-4.17.955.064.795.316 1.219.316 1.83zm.541 3.208c1.238.08 1.518-1.192 2.779-.752.153-.638-.228-.941-.104-1.814-.942-.312-1.211.242-2.037.313-.479-.129-.63-.589-1.068-.739.202.918.43 1.856.43 2.992zm-.329 4.705c.423-.005.787 0 1.071.114.666-.729 2.247-1.715 1.072-2.998-.417-.027-.768.578-1.072.318.365-.475 1.064-1.461 1.721-.967.159-.406.004-1.124.212-1.49l-.86-.107c-.104.565-.461.883-.534 1.492-1.49.259-1.563 1.939-1.61 3.638zm-.315 2.362c.6.111 1.837.15 2.138.221-.59-.497-1.42-.368-1.822-.977.074.1-.019-.571 0-.535.896.146 1.567.514 2.255.862.078-.464.244-1.396 0-1.819-.279.598-1.745.279-2.356.207-.067.691-.124 1.371-.215 2.041zm-.537 4.713c.899.222 2.054.801 2.462-.113-.218-.251-.461.182-.538-.209.161-.525.729-.632.751-1.295-.498-.313-1.297-.345-2.138-.32-.191.818-1.167 1.293-.962 2.146l-.216-.102c.085.522.778-.015.641-.107zm-7.709-59.635c.472-.211.932-.421 1.282-.744-.472.203-1.05.294-1.282.744zm1.919-.743c-.656.257-1.412.425-1.807.959.644-.292 1.243-.605 1.807-.959zm-26.11.85c-.268.563-1.298.916-1.287 1.39.331-.479 1.307-.893 1.287-1.39zm36.716 8.458c.533-.073 3.447.019 2.147-.115-.431-.029-.798.134-1.614-.097.214-.114 1.154-.057.966-.228-.984.124-1.558.215-2.248.545-1.129.544.085-.015.749-.105zm1.717 6.852c-.147-.02-.597.168-.319.212.219-.315 1.594-.261 1.07-.643.622.23 1.248-.254 1.708-.536-1.006-.021-2.449.379-3.105 1.067.28.09.498-.412.646-.1zm1.177 0c-.49.15-.919.367-1.283.644.485-.158.91-.374 1.283-.644zm-1.93 4.603c-.645.324-1.332.592-1.819 1.066.616-.225 1.792-.97 1.819-1.066zm-1.388 1.6c.689-.193 1.508-.841 1.601-1.277-.43.541-1.207.723-1.601 1.277zm-25.479 5.472c-.635.019-1.587-.547-2.044 0 .72-.115 1.616.163 2.044 0zm-10.179-.115c.271.866.857 1.436 1.395 2.039-.038-.695-1.049-1.313-1.395-2.039zm22.918.538c-.425-.034-.883.921-.752.747.291-.196.448-.559.752-.747zm-12.963.746c-.357.064-.987-.137-1.171.113.844.35 3.163-.609 1.171-.113zm-17.985 5.362c-.42.026-.976-.382-1.173-.226.29.111.831.522 1.173.226zm-25.155 3.74c-.193.417-.75 1.036-.644 1.39.226-.335.823-1.353.644-1.39zm-.643.538c-.233.292-.318.749-.535 1.07.36-.071.675-1.217.535-1.07zm44.01 20.226c.757-.34 1.971-.227 2.664-.641-.795.231-2.467.166-2.664.641zm-20.991.646c.463-.361.978-.662 1.393-1.076-.602-.066-.928.715-1.283.549.161-.309-.274.354-.431.417-4.151.417-8.592.55-12.313 1.397 4.141-.488 8.47-.81 12.634-1.287zm.11.539c.787-.322 1.263-.955 1.924-1.393-.677.438-1.574.64-1.924 1.393zm-26.557.958c1.411-.414 4.482-1.007 6.216-1.815-1.686.166-3.775.857-5.671 1.18.066.463-.236.543-.545.635zm28.596-.635c.074.371 1.017-.102 1.384.209-1.068.521-2.781.402-3.637.643.548-.805 1.869-.845 2.884-1.176.238.136-.31.389-.631.324zm-.115.107c-.425.097-.979.08-1.173.422.359-.174.863-.2 1.173-.422zm31.361 2.022c1.104-.21 2.015-.619 3.004-.953-.57-.075-1.458.108-1.711 0 1.865-.616-.619-.275-1.178.205.147.321 1.028-.097 1.178.23-.448.149-1.309-.111-1.293.518zm11.788-.845c.061.351 1.748-.282 2.356-.433-.889.034-1.452.405-2.356.433zm-35.653 1.601c.644-.567 1.285-1.079 2.247-1.069.013-.523-.564.049-.642-.205.742-.873 2.931-.473 4.067-.656-.688.604-2.365.217-3.325.539 1.08.392 2.568-.287 3.646.117-1.143.49-3.198.082-4.388.519.351.745-1.143.641-1.605.755zm.854-.217c.134-.215.645-.063.751-.32-.179 0-.061-.295-.219-.326-.087.241-.753.458-.532.646zm7.493-1.287c-.663.016-.933.436-1.716.321-.014.136.017.304-.106.319-1.743.626-5.078.205-5.88 1.402 1.522-.826 4.06-.654 5.986-1.076.181 0 .063-.295.216-.326 1.185.08 2.375-.402 3.316-.205-.534.021-1.071.069-1.279.424.983.159 2.03-.521 3.103-.629-.151-.35.613-.527.112-.544-1.205.294-2.564.433-3.975.544.001-.156.202-.101.223-.23zm-34.148-4.28c-.045.19-.14-.018-.323 0-.034.355-.313.472-.534.646-.274-.354-1.229.4-1.5.745.332.368.652-.512.854 0 .316-.215.598-.475 1.18-.43-.149-.512.72-.556.323-.961zm19.051 3.534c-2.599.999-6.097 1.108-8.987 1.817 2.951.705 5.766-.476 8.773-.432-.796-.829-2.887.211-3.846-.096 1.572-.314 3.338-.447 4.391-1.29h-.331zm-14.826 49.695c-1.109 0-1.829.46-1.829 1.189 0 2.129 4.108 1.029 4.088 3.607 0 1.08-.97 1.779-2.429 1.779-.93 0-1.879-.41-2.488-1.01l.22-.369c.569.59 1.459.949 2.278.949 1.2 0 1.97-.52 1.97-1.339.02-2.188-4.088-1.069-4.088-3.589 0-1.009.919-1.658 2.299-1.658.709 0 1.479.229 1.999.569l-.19.38c-.521-.338-1.231-.508-1.83-.508zm4.821-.42v6.986h-.42v-6.986h.42zm3.14 0l4.667 6.347v-6.347h.41v6.986h-.49l-4.657-6.347v6.347h-.42v-6.986h.49zm10.609.391c-1.77 0-3.198 1.379-3.198 3.088 0 1.719 1.429 3.107 3.198 3.107.829 0 1.608-.319 2.198-.85l.26.291c-.649.6-1.539.969-2.469.969-1.988 0-3.607-1.568-3.607-3.508s1.619-3.498 3.607-3.498c.939 0 1.81.359 2.459.939l-.25.32c-.579-.539-1.369-.858-2.198-.858zm8.909-.391v.41h-4.088v2.788h3.638v.42h-3.638v2.958h4.218v.41h-4.638v-6.986h4.508zm8.71 1.68c0-.811-.659-1.3-1.729-1.3-.7 0-1.449.319-2.009.859l-.21-.329c.609-.59 1.449-.939 2.259-.939 1.299 0 2.118.639 2.118 1.668 0 .631-.499 1.439-1.269 2.239l-2.599 2.688h4.367v.42h-4.866l.01-.43 2.809-2.938c.68-.7 1.119-1.429 1.119-1.938zm7.51 1.798c0 2.269-.899 3.518-2.549 3.518-1.639 0-2.538-1.249-2.538-3.518 0-2.249.899-3.498 2.538-3.498 1.649 0 2.549 1.249 2.549 3.498zm-4.678 0c0 2.039.75 3.139 2.129 3.139 1.38 0 2.139-1.1 2.139-3.139 0-2.029-.759-3.119-2.139-3.119-1.379 0-2.129 1.09-2.129 3.119zm11.098 0c0 2.269-.899 3.518-2.549 3.518-1.639 0-2.538-1.249-2.538-3.518 0-2.249.899-3.498 2.538-3.498 1.649 0 2.549 1.249 2.549 3.498zm-4.678 0c0 2.039.75 3.139 2.129 3.139 1.38 0 2.139-1.1 2.139-3.139 0-2.029-.759-3.119-2.139-3.119-1.379 0-2.129 1.09-2.129 3.119zm10.718-1.808c0 .789-.46 1.309-1.249 1.568.979.25 1.579.879 1.579 1.799 0 1.24-.949 1.959-2.489 1.959-1.549 0-2.498-.719-2.498-1.949 0-.93.609-1.559 1.589-1.809-.789-.26-1.259-.789-1.259-1.579 0-1.06.829-1.688 2.168-1.688 1.339 0 2.159.638 2.159 1.699zm-4.258 3.328c0 1.02.79 1.619 2.099 1.619 1.29 0 2.089-.59 2.089-1.609 0-.949-.789-1.539-2.099-1.539-1.289 0-2.089.579-2.089 1.529zm.309-3.299c0 .869.68 1.389 1.789 1.389s1.779-.52 1.779-1.389c0-.85-.67-1.359-1.779-1.359s-1.789.51-1.789 1.359z"/></svg>