<svg xmlns="http://www.w3.org/2000/svg" width="152" height="60" viewBox="0 0 152 60"><path d="M36.16 45.898v2.479l.022.054.052.023h.117c.056 0 .108.021.151.066l.063.158c0 .057-.02.109-.063.15-.043.045-.096.063-.151.063h-.824l-.155-.063-.058-.15.058-.158.155-.066h.118l.052-.023.025-.054v-1.72l-.052-.074-.089.018c-.044.053-.099.074-.164.074l-.145-.051-.078-.15.059-.157.517-.6c.047-.048.107-.077.173-.077l.143.053.061.085.014.094v.026000000000000002zm4.947.222c.04.1.063.2.063.304v1.691c0 .163-.045.307-.137.43-.081.135-.195.229-.339.287-.101.043-.202.061-.309.061l-.221-.033-.214-.098c-.128-.082-.22-.197-.282-.346-.041-.099-.063-.199-.063-.301v-1.691c0-.162.044-.308.137-.438.081-.127.198-.223.342-.281l.146-.053.155-.012c.161 0 .313.047.442.138.129.083.226.201.28.342zm-.372.304c0-.07-.022-.131-.063-.194l-.151-.124-.136-.026-.187.057c-.064.044-.104.094-.122.159l-.029.129v1.691c0 .07.018.131.059.187.036.059.088.101.149.128l.13.025c.079 0 .136-.021.19-.055.064-.041.104-.094.13-.155l.029-.13v-1.692zm3.648 1.992c-.041-.099-.063-.199-.063-.301v-1.691c0-.162.044-.308.137-.438.08-.127.198-.223.345-.281l.145-.053.157-.012c.16 0 .31.047.439.138.127.083.22.2.282.342.041.1.061.2.061.304v1.691c0 .163-.045.307-.133.43-.087.135-.199.229-.343.287-.104.043-.204.061-.307.061l-.228-.033-.21-.098c-.128-.082-.227-.198-.282-.346zm.38-.301c0 .07.021.131.059.187.036.059.088.101.15.128l.132.025.188-.055c.063-.041.104-.094.129-.155l.031-.13v-1.691c0-.07-.022-.131-.063-.194l-.151-.124-.133-.026-.19.057c-.063.044-.103.094-.123.159l-.027.129v1.69zm6.542-.066c.031.074.045.154.045.235 0 .084-.014.167-.045.241l-.132.194-.197.132c-.074.031-.152.045-.239.045-.085 0-.166-.014-.24-.045l-.192-.132-.132-.194c-.032-.074-.052-.157-.052-.241 0-.081.02-.161.052-.235l.132-.195.192-.131c.074-.033.155-.051.24-.051.084 0 .165.018.235.051.08.031.143.076.201.131.056.054.1.119.132.195zm-.39.235l-.051-.122-.128-.047-.123.047-.052.122.052.128.123.049.128-.049.051-.128zm-1.561-2.586c.071-.032.156-.05.237-.05.085 0 .165.018.244.05.072.03.139.073.191.131l.131.193c.033.076.048.157.048.238 0 .085-.015.163-.048.239l-.131.192-.191.132c-.079.033-.159.049-.244.049-.081 0-.163-.016-.237-.049l-.194-.132c-.058-.053-.101-.114-.132-.192-.033-.076-.048-.154-.048-.239 0-.081.015-.162.048-.238.031-.074.074-.142.132-.193l.194-.131zm.064.563l.048.124.125.051.12-.051.057-.124-.057-.125-.12-.048-.125.048-.048.125zm1.674-.616c-.058.008-.104.041-.143.095l-1.934 2.817-.032.163c.008.06.04.106.092.14l.122.037.099-.018.083-.072 1.935-2.82.036-.162c-.011-.063-.04-.111-.096-.142-.048-.035-.1-.048-.162-.038zm7.467.652c.021-.063.061-.112.123-.152.063-.041.126-.061.191-.061l.135.026.151.124c.038.059.057.119.057.194l.062.155c.045.043.097.064.158.064.063 0 .114-.021.154-.064.044-.046.066-.094.066-.155 0-.104-.019-.205-.059-.304-.063-.145-.158-.26-.287-.343-.129-.093-.276-.134-.438-.134-.11 0-.214.021-.301.063-.147.059-.263.151-.351.279-.088.13-.133.275-.133.438v1.692c0 .1.019.201.066.297.06.149.15.264.28.348.14.09.287.131.438.131.103 0 .203-.018.302-.063.147-.057.261-.152.35-.281l.099-.21.033-.222c0-.063-.022-.113-.066-.156-.04-.045-.092-.064-.154-.064s-.113.02-.158.064l-.062.156-.025.131-.126.15c-.057.039-.122.053-.191.053l-.133-.023c-.063-.025-.114-.065-.15-.125-.044-.059-.066-.121-.066-.186v-1.692l.035-.13zm5.728-.138c.048.117.074.226.074.337v1.543c0 .17-.051.329-.148.479l-.17.183c-.058.052-.128.097-.208.126-.107.047-.218.066-.332.066-.169 0-.331-.047-.481-.146l-.181-.166-.132-.212c-.045-.104-.063-.216-.063-.329v-1.543l.032-.25.115-.227c.095-.146.217-.248.376-.309.106-.043.22-.07.334-.07.177 0 .339.049.479.148.142.096.247.219.305.37zm-.368.337c0-.088-.025-.164-.073-.23-.042-.068-.104-.117-.177-.149l-.166-.037c-.081 0-.158.024-.235.069-.067.046-.118.111-.151.188l-.025.078-.004.082v1.543c0 .088.021.166.067.231.046.07.105.122.184.153l.165.031c.085 0 .166-.023.23-.073.07-.043.124-.104.155-.181l.03-.162v-1.543zm5.212 2.338c.041.045.091.063.154.063.055 0 .109-.018.155-.063.043-.039.065-.094.065-.154v-2.814l-.048-.138-.129-.077-.044-.002-.117.033-.088.097-.562 1.276-.046.025-.038-.025-.57-1.276c-.037-.089-.103-.13-.198-.13l-.041.002-.129.077-.052.138v2.814c0 .061.023.115.07.154.041.045.088.063.151.063.059 0 .109-.018.157-.063.041-.039.063-.094.063-.154v-1.557l.037-.047.052.029.298.679.081.091.119.035.12-.035.085-.091.303-.679.036-.029h.011l.037.047v1.557c.001.06.023.115.068.154zm5.01-1.616l-.022.052.022.057c.083.083.15.182.193.289.049.113.073.233.073.359 0 .189-.051.362-.157.516-.104.157-.24.27-.412.33-.11.055-.231.076-.35.076h-.606c-.063 0-.119-.02-.159-.064l-.061-.152v-2.814l.061-.154c.044-.041.1-.063.159-.063h.606c.184 0 .361.051.515.157.147.107.259.239.331.401.049.112.073.231.073.357 0 .189-.051.366-.157.516l-.047.068-.062.069zm-.171.757c0-.091-.028-.188-.083-.273-.057-.078-.125-.135-.215-.172l-.184-.037h-.308l-.057.021-.026.06v.81l.026.052.057.021h.309c.097 0 .18-.023.269-.077.077-.059.137-.126.174-.212l.038-.193zm0-1.411c0-.086-.028-.18-.083-.268-.06-.083-.125-.141-.215-.172l-.184-.041h-.308l-.057.021-.026.054v.817l.026.055.057.018h.309c.097 0 .18-.025.269-.076.077-.06.137-.129.174-.215l.038-.193zm3.953-.46l.056-.024h.81c.056 0 .11-.021.155-.065l.059-.152-.059-.155-.155-.065h-1.107l-.148.065c-.043.044-.065.093-.065.155v2.814c0 .061.022.113.065.154l.148.063h1.107c.056 0 .11-.018.155-.063l.059-.154-.059-.154c-.045-.045-.1-.066-.155-.066h-.81l-.056-.023-.021-.054v-.812l.021-.059.056-.021h.585c.06 0 .111-.021.155-.067.043-.04.065-.089.065-.149 0-.063-.022-.115-.065-.158-.044-.043-.096-.064-.155-.064h-.585l-.056-.021-.021-.053v-.814l.021-.058zm5.745.1c.041.109.065.231.065.358v1.41c0 .186-.05.361-.157.516-.106.158-.243.266-.404.33-.115.051-.236.074-.357.074h-.546c-.055 0-.106-.02-.152-.066-.045-.043-.063-.092-.063-.15v-2.814c0-.063.019-.112.063-.156l.152-.064h.546c.188 0 .357.053.516.157.148.105.259.241.337.405zm-.371.359c0-.088-.027-.184-.082-.268-.058-.086-.124-.145-.212-.175l-.185-.041h-.25l-.052.024-.022.055v2.22l.022.054.052.023h.25c.097 0 .185-.025.268-.081.078-.057.136-.128.173-.212l.038-.189v-1.41zm7.619-.266l.127-.152c.063-.041.126-.061.195-.061l.129.026c.063.025.115.069.155.124.036.059.055.119.055.194 0 .062.023.109.066.155.045.043.096.064.159.064l.158-.064.06-.155c.002-.104-.02-.205-.06-.304-.06-.145-.158-.26-.283-.343-.137-.093-.277-.134-.439-.134-.114 0-.22.021-.308.063-.146.059-.254.151-.344.279-.088.13-.136.275-.136.438v1.692c0 .1.021.201.066.297.056.149.151.264.279.348.141.09.287.131.441.131.101 0 .203-.018.303-.063.147-.057.262-.152.347-.281l.099-.21.034-.222-.06-.156c-.048-.045-.1-.064-.158-.064-.063 0-.114.02-.159.064-.043.043-.066.094-.066.156l-.025.131c-.025.065-.073.116-.125.15-.054.039-.121.053-.188.053l-.136-.023c-.062-.025-.11-.065-.15-.125-.045-.059-.063-.121-.063-.186v-1.692l.027-.13zm5.732-.138c.049.117.074.226.074.337v1.543c0 .17-.052.329-.146.479l-.166.183-.214.126c-.105.047-.214.066-.33.066-.173 0-.329-.047-.475-.146l-.188-.166-.129-.212c-.048-.104-.07-.216-.07-.329v-1.543l.041-.25.109-.227c.097-.146.22-.248.376-.309.106-.043.218-.07.336-.07.176 0 .337.049.478.148.141.096.246.219.304.37zm-.363.337c0-.088-.029-.164-.078-.23-.041-.068-.103-.117-.181-.149l-.16-.037c-.078 0-.154.024-.237.069-.069.046-.121.111-.15.188l-.025.078-.007.082v1.543c0 .088.022.166.071.231.046.07.105.122.183.153l.166.031c.088 0 .164-.023.234-.073.065-.043.117-.104.151-.181l.033-.162v-1.543zm4.901-.857h-1.418c-.06 0-.112.021-.155.064l-.063.154.063.152.155.066h.412l.055.022.021.056v2.525l.066.152c.045.047.092.064.159.064.055 0 .106-.018.15-.064.043-.041.065-.096.065-.152v-2.525l.026-.056.052-.022h.41l.153-.066.062-.152-.062-.154-.151-.064zm4.857.371c.046-.041.068-.094.068-.152 0-.06-.022-.108-.068-.154-.038-.043-.088-.064-.152-.064h-1.413c-.063 0-.11.021-.153.064l-.063.154c0 .059.02.111.063.152.039.041.091.066.153.066h.412l.055.022.023.056v2.525c0 .057.021.111.066.152.042.047.091.064.154.064.059 0 .107-.018.154-.064.044-.041.066-.096.066-.152v-2.525l.021-.056.056-.022h.408c.062 0 .112-.025.15-.066zm3.025 2.57l-.134-.212c-.039-.104-.065-.216-.065-.329v-1.543l.04-.25.106-.227c.097-.146.221-.248.376-.309.109-.043.221-.07.339-.07.172 0 .338.049.479.148.139.096.242.219.301.37.051.117.073.226.073.337v1.543c0 .17-.043.329-.143.479l-.171.183-.211.126c-.107.047-.219.066-.328.066-.179 0-.335-.047-.479-.146l-.183-.166zm.239-.541c0 .088.03.166.074.231.045.07.105.122.181.153l.169.031c.088 0 .16-.023.23-.073.07-.043.123-.104.152-.181l.031-.162v-1.543c0-.088-.021-.164-.072-.23-.045-.068-.104-.117-.184-.149l-.158-.037c-.081 0-.159.024-.236.069-.068.046-.117.111-.15.188l-.029.078-.008.082v1.543zm5.932-2.398l-.15.065c-.045.044-.066.093-.066.155v1.624l-.04.041-.052-.025-.81-1.735-.09-.089-.113-.036-.048.008-.121.074-.045.139v2.814c0 .061.022.113.063.154l.151.063c.063 0 .11-.018.152-.063.048-.041.07-.094.07-.154v-1.621l.031-.045h.016l.041.023.813 1.732.085.096.113.031.022-.002.029-.002.125-.08.044-.133v-2.814c0-.063-.022-.111-.066-.155l-.154-.065zm-106.086-23.019c.21.735.315 1.496.315 2.243 0 .769-.105 1.536-.315 2.273-.206.753-.5 1.422-.882 2.004-.442.668-1.021 1.182-1.714 1.529-.696.347-1.622.515-2.83.515h-2.101v8.158c0 .286-.234.521-.521.521h-.585c-.286-.001-.52-.235-.52-.521v-20.282c0-.287.234-.519.52-.519h3.208c1.082 0 2 .174 2.749.519.764.36 1.366.875 1.795 1.535.381.602.675 1.282.881 2.025zm-3.3 6.598c.438-.227.776-.541 1.046-.96.274-.453.519-.986.688-1.577.165-.598.257-1.213.257-1.832 0-.603-.092-1.203-.257-1.802-.169-.591-.413-1.125-.696-1.591-.261-.397-.637-.701-1.142-.932-.529-.241-1.198-.37-2.021-.37h-2.102v9.411h2.102c1.233 0 1.835-.188 2.125-.347zm16.679 10.614c-.726.205-1.436.309-2.112.309-.682 0-1.389-.104-2.092-.309-.765-.223-1.36-.559-1.77-.995-.368-.388-.642-.812-.824-1.282-.174-.447-.292-.879-.351-1.272-.059-.385-.085-.729-.085-1.015v-11.913c0-.798.119-1.535.348-2.175.242-.656.636-1.232 1.167-1.7.22-.202.486-.378.798-.527.305-.145.611-.262.938-.352.32-.088.637-.16.953-.206.625-.101 1.108-.101 1.8-.018.332.036.67.105 1 .195.324.091.645.201.942.331.313.146.589.322.813.522 1.053.937 1.598 2.256 1.598 3.929v12.054c0 .279-.051.611-.125.987-.082.374-.209.778-.38 1.192-.179.449-.454.867-.813 1.249-.436.442-1.051.773-1.805.996zm-.523-1.527c.267-.076.501-.166.714-.273.182-.086.328-.197.431-.311.244-.255.412-.527.519-.812.111-.324.207-.628.25-.912.056-.279.077-.613.077-1.005l.023-11.637c0-.59-.074-1.087-.223-1.481-.165-.417-.356-.752-.589-1.021-.13-.129-.32-.259-.528-.373-.248-.124-.505-.233-.759-.309-.262-.087-.526-.146-.788-.177-.269-.037-.515-.057-.717-.057-.395 0-.817.049-1.243.146-.401.087-.771.25-1.095.496-.324.235-.597.575-.816 1.013-.215.433-.32 1.03-.32 1.762v11.474c-.016.439 0 .807.043 1.107.056.307.145.635.262.979.11.311.269.572.508.822.225.242.597.427 1.087.565.843.219 1.575.269 2.373.166.272-.033.542-.088.791-.162zm18.862-.01h-6.966v-19.235c0-.287-.232-.519-.51-.519h-.587c-.288 0-.52.232-.52.519v20.282c0 .286.231.521.52.521h8.063c.287 0 .523-.234.523-.521v-.524c.001-.293-.236-.523-.523-.523zm9.629 1.567c.282 0 .516-.234.516-.521v-20.281c0-.287-.233-.519-.516-.519h-.589c-.279 0-.509.232-.509.519v20.282c0 .286.229.521.509.521h.589zm8.098-5.065l-.006.455c-.013.295.016.646.074 1.03.059.394.178.825.347 1.272.185.471.465.913.835 1.298.771.875 1.888 1.317 3.324 1.317 1.421 0 2.565-.44 3.39-1.304.356-.392.633-.829.822-1.322.163-.452.286-.899.352-1.326.073-.417.106-.772.106-1.071v-.436c0-.285-.229-.514-.515-.514h-.589c-.287 0-.522.229-.522.514 0 .449-.022.844-.074 1.174-.051.322-.132.661-.262 1.009-.12.313-.298.597-.528.843-.509.546-1.228.813-2.18.813-.925 0-1.608-.267-2.113-.813-.224-.253-.4-.525-.511-.827-.134-.34-.219-.654-.261-.938-.045-.312-.059-.683-.059-1.143v-11.506c0-.597.079-1.128.254-1.566.168-.428.389-.783.661-1.043.272-.26.585-.468.938-.593.696-.267 1.399-.287 2.157.005.358.147.679.358.97.649.298.301.544.683.729 1.157.194.475.279 1.052.279 1.704 0 .291.235.521.522.521h.614c.291 0 .521-.23.521-.521 0-.852-.143-1.664-.411-2.404-.286-.756-.698-1.369-1.232-1.817-1.365-1.118-3.122-1.433-4.715-.805-.537.206-.997.493-1.41.853-1.005.941-1.508 2.24-1.508 3.861v11.474zm24.853 3.498h-6.758v-7.111h5.087c.288 0 .515-.232.515-.521v-.531c0-.279-.227-.516-.515-.516h-5.087v-9.506h6.644c.295 0 .526-.233.526-.517v-.533c0-.287-.231-.519-.526-.519h-7.747c-.287 0-.522.232-.522.519v20.282c0 .286.235.521.522.521h7.861c.295 0 .523-.234.523-.521v-.524c.001-.293-.228-.523-.523-.523zm7.483-18.171c-.121.305-.202.589-.253.849-.06.281-.081.516-.081.715v.321c0 1.024.35 1.96 1.033 2.788.298.337.638.653 1.005.938.349.259.707.524 1.079.786.389.269.762.548 1.121.827.35.263.654.555.929.882.269.316.475.686.629 1.09.17.404.239.884.239 1.439 0 .461-.069.846-.21 1.148-.14.303-.324.546-.534.716-.239.189-.492.327-.772.409-.56.165-1.1.18-1.744.036-.263-.06-.489-.181-.718-.353-.214-.183-.402-.439-.553-.777-.161-.352-.238-.821-.238-1.406 0-.285-.232-.518-.522-.518h-.427c-.284 0-.524.233-.524.518 0 .643.104 1.242.289 1.805.197.596.511 1.083.935 1.451.423.357.882.598 1.371.701.441.092.851.148 1.197.148 1.035 0 1.917-.285 2.62-.867.862-.722 1.304-1.729 1.304-3.012 0-1.304-.401-2.459-1.2-3.436-.342-.417-.726-.79-1.145-1.117-.397-.306-.799-.609-1.193-.881-.35-.244-.685-.491-1.001-.74-.294-.22-.551-.47-.783-.741-.214-.252-.395-.538-.525-.843-.126-.291-.189-.629-.189-1.008 0-.269.019-.489.059-.681.029-.188.097-.394.182-.612.073-.177.176-.35.335-.513.341-.378.851-.562 1.538-.562.36 0 .654.05.906.147.23.099.418.233.566.398.144.158.228.319.279.523.067.236.11.465.144.696.021.219.025.485.015.784-.007.138.049.28.147.383.099.103.231.16.371.16h.439c.277 0 .503-.236.518-.514l.004-.284c.007-.209 0-.465-.033-.761-.029-.308-.1-.625-.195-.942-.103-.358-.283-.698-.548-1.012-.594-.693-1.477-1.05-2.613-1.05-1.107 0-1.991.351-2.625 1.021-.286.288-.498.608-.628.951zm12.456 14.323h.438c.285 0 .519-.23.519-.516v-15.067c0-.291-.233-.516-.519-.516h-.438c-.284 0-.513.225-.513.516v15.067c0 .286.228.516.513.516zm7.215-.658c.412.357.881.598 1.377.701.449.092.839.148 1.197.148 1.029 0 1.909-.285 2.607-.867.869-.722 1.314-1.729 1.314-3.012 0-1.304-.409-2.459-1.202-3.44-.343-.414-.733-.792-1.143-1.113-.396-.306-.798-.609-1.202-.881-.339-.244-.679-.495-.998-.735-.296-.23-.558-.475-.784-.746-.206-.258-.394-.545-.519-.845-.126-.283-.188-.626-.188-1.006 0-.27.01-.495.055-.675.034-.188.087-.396.181-.618.065-.177.176-.357.334-.513.339-.378.852-.562 1.544-.562.356 0 .669.05.897.147.234.099.43.233.572.397.13.159.227.32.278.519.073.242.113.471.139.699.026.222.029.488.022.792-.008.132.052.274.14.378.104.103.236.16.38.16h.434c.28 0 .508-.333.522-.603v-.195c.008-.208 0-.465-.026-.761-.029-.305-.105-.625-.195-.942-.118-.367-.294-.704-.556-1.012-.595-.693-1.476-1.05-2.607-1.05-1.109 0-2 .351-2.626 1.021-.291.283-.503.611-.625.946-.116.305-.206.589-.262.856-.055.274-.074.509-.074.708v.321c0 1.024.345 1.96 1.03 2.786.292.336.633.655 1.013.938.339.261.699.526 1.075.789.386.269.758.548 1.127.827.346.263.65.555.919.881.266.32.479.691.637 1.091.147.411.229.884.229 1.439 0 .461-.066.852-.207 1.148-.133.303-.323.546-.54.716-.236.189-.482.327-.773.409-.552.165-1.093.182-1.737.036-.257-.06-.496-.181-.723-.353-.208-.178-.4-.439-.551-.777-.155-.352-.234-.822-.234-1.406 0-.285-.234-.518-.521-.518h-.438c-.287 0-.515.233-.515.518 0 .631.098 1.24.282 1.805.206.593.523 1.084.941 1.454zm10.325-13.997h2.93v14.14c0 .285.231.516.515.516h.438c.283 0 .522-.23.522-.516v-14.14h2.771c.161.029.33-.022.449-.131.136-.122.191-.314.153-.498v-.284c0-.284-.238-.516-.518-.516h-7.262c-.283 0-.512.232-.512.516v.395c.002.29.23.518.514.518zm11.84 14.655h5.848c.292 0 .52-.23.52-.516v-.395c0-.281-.228-.516-.52-.516h-4.896v-5.015h3.658c.285 0 .518-.235.518-.515v-.396c0-.291-.232-.527-.518-.527h-3.658v-6.795h4.813c.285 0 .52-.231.52-.515v-.395c0-.291-.234-.516-.52-.516h-5.764c-.276 0-.515.225-.515.516v15.067c-.001.288.237.518.514.518zm11.528-.515v-15.068c0-.291.237-.516.519-.516h2.389c.813 0 1.52.128 2.093.396.598.276 1.064.68 1.389 1.183.287.455.52.973.677 1.537.158.572.235 1.148.235 1.713 0 .583-.077 1.16-.235 1.723-.157.575-.395 1.086-.681 1.524-.214.345-.482.646-.787.891-.184.135-.388.26-.614.354l2.586 5.902c.085.096.133.21.133.344 0 .289-.258.484-.54.518h-.457c-.213 0-.404-.12-.486-.311l-2.683-6.134-.102.004-.527.016h-1.432v5.925c0 .285-.232.516-.515.516h-.442c-.283-.002-.52-.232-.52-.517zm5.147-8.308c.199-.323.372-.708.493-1.138.126-.429.185-.879.185-1.322 0-.438-.059-.878-.185-1.295-.121-.433-.294-.82-.499-1.156-.182-.267-.439-.485-.792-.64-.38-.169-.862-.258-1.442-.258h-1.432v6.719h1.432c.883 0 1.317-.131 1.513-.243.309-.163.54-.374.727-.667zm2.003 13.511h-60.532c-.284 0-.524.231-.524.52 0 .281.24.516.524.516h60.532c.294 0 .526-.234.526-.516.001-.289-.232-.52-.526-.52zm-129.123 15.17h2.021v5.617h1.123v-5.617h2.011v-1.023h-5.154v1.023zm13.637 1.851h-3.302v-2.875h-1.11v6.641h1.11v-2.717h3.302v2.717h1.12v-6.641h-1.12v2.875zm6.926.932h3.188v-.994h-3.188v-1.763h3.553v-1.05h-4.67v6.641h4.785v-1.058h-3.668v-1.776zm18.334-.057c.241.279.364.631.364 1.045 0 .465-.158.872-.472 1.229-.376.41-1.012.617-1.921.617h-2.908v-6.641h2.588c.449 0 .831.059 1.158.16.333.109.567.255.729.436.301.346.453.729.453 1.166 0 .516-.162.898-.49 1.154l-.251.168-.237.105c.415.092.744.277.987.561zm-3.814-.997h1.425c.81 0 1.21-.272 1.21-.826 0-.314-.092-.543-.29-.683-.199-.139-.501-.208-.909-.208h-1.436v1.717zm3.026 1.918c0-.587-.464-.882-1.411-.882h-1.614v1.816h1.756c.408 0 .732-.066.945-.197.216-.13.324-.376.324-.737zm8.605-4.671l2.929 6.641h-1.195l-.662-1.512h-3.327l-.668 1.512h-1.198l2.925-6.641h1.196zm.613 4.094l-1.207-2.735-1.203 2.735h2.41zm8.628-1.341c-.682-.164-1.127-.313-1.332-.46-.211-.141-.316-.35-.316-.614 0-.271.105-.47.316-.604.205-.133.474-.2.801-.2.324 0 .657.058.991.172.342.112.6.262.799.438l.6-.848c-.307-.256-.666-.447-1.081-.589-.417-.139-.84-.208-1.264-.208-.663 0-1.214.167-1.655.498-.451.332-.674.803-.674 1.424 0 .605.195 1.064.589 1.362.199.157.419.288.68.388.248.098.62.203 1.105.32.489.12.827.244 1.026.391.206.139.305.342.305.593 0 .261-.102.47-.318.622-.211.156-.497.234-.861.234-.726 0-1.422-.294-2.088-.877l-.703.85c.802.713 1.723 1.072 2.764 1.072.711 0 1.28-.184 1.715-.541.44-.361.659-.832.659-1.417 0-.575-.174-1.009-.52-1.31-.345-.296-.861-.529-1.538-.696zm6.297 3.888h1.114v-6.641h-1.114v6.641zm8.921-5.699c.38 0 .719.059.997.176.278.121.586.334.898.645l.711-.781c-.692-.758-1.549-1.141-2.579-1.141-1.028 0-1.882.328-2.554.985-.674.661-1.013 1.481-1.013 2.472 0 .988.33 1.802.99 2.449.667.645 1.497.97 2.503.97 1.004 0 1.851-.393 2.559-1.171l-.723-.74c-.301.284-.592.493-.876.62-.276.133-.61.196-.996.196-.62 0-1.155-.229-1.608-.675-.453-.453-.683-1.021-.683-1.691 0-.68.229-1.232.688-1.663.459-.438 1.016-.651 1.686-.651zm15.934 3.224l-2.006-4.166h-1.74v6.641h1.121v-5.189l2.298 4.605h.633l2.312-4.605v5.189h1.118v-6.641h-1.732l-2.004 4.166zm9.554-.359h3.184v-.994h-3.184v-1.763h3.547v-1.05h-4.669v6.641h4.78v-1.058h-3.658v-1.776zm-42.926-50.249c-.157.292.063.724.479.724h2.881c.314 0 .543-.209.543-.486 0-.261-.229-.475-.543-.475h-1.976l1.83-2.934v.007c.246-.377.609-.947.609-1.704 0-1.023-.864-1.842-1.912-1.842-1.064 0-1.937.841-1.937 1.883 0 .251.238.462.533.462.303 0 .539-.21.539-.462 0-.516.399-.94.864-.94.463 0 .831.414.831.899 0 .493-.242.916-.43 1.192l-2.311 3.676zm9.909-4.838v3.737c0 1.045-.876 1.887-1.94 1.887-1.07 0-1.938-.842-1.938-1.887v-3.737c0-1.032.868-1.873 1.938-1.873 1.064 0 1.94.842 1.94 1.873zm-1.074 0c0-.506-.391-.93-.866-.93-.471 0-.868.424-.868.93v3.737c0 .506.397.919.868.919.476 0 .866-.413.866-.919v-3.737zm7.148 5.075c0-.248-.249-.462-.543-.462h-.67v-6.014c0-.265-.268-.472-.541-.472-.173 0-.33.05-.408.167l-1.362 1.623c-.249.326.031.774.425.774.153 0 .323-.051.403-.167l.401-.47v4.559h-.752c-.313 0-.55.214-.55.462 0 .277.237.486.55.486h2.504c.294 0 .543-.209.543-.486zm4.076-.406c-.468 0-.864-.316-.864-.814 0-.274-.239-.486-.537-.486-.295 0-.534.212-.534.486 0 1.032.854 1.769 1.936 1.769 1.072 0 1.94-.842 1.94-1.874v-1.462c0-1.105-.868-1.873-1.94-1.873-.313 0-.721.057-.932.341v-1.619h2.132c.298 0 .534-.207.534-.486 0-.261-.236-.474-.534-.474h-2.55c-.314 0-.55.212-.55.474v3.28c0 .272.235.48.55.48.246 0 .449-.161.511-.366.101-.443.428-.687.839-.687.471 0 .858.422.858.929v1.462c0 .494-.388.92-.859.92zm-43.911-.084h-2.382v-2.573h2.055c.309 0 .547-.21.547-.47 0-.275-.238-.5-.547-.5h-2.055v-2.009h2.352c.303 0 .546-.224.546-.498 0-.264-.243-.475-.546-.475h-2.911c-.289 0-.538.211-.538.475v6.541c0 .277.249.486.538.486h2.941c.302 0 .545-.209.545-.486 0-.285-.243-.491-.545-.491zm6.525-.877c0-.885-.497-1.612-1.31-2.083-.723-.416-1.173-.688-1.336-.823-.576-.4-.576-.718-.576-.949 0-.432.31-.884.998-.884.675 0 .986.346.986.829 0 .278.239.485.549.485.306 0 .553-.208.553-.485 0-1.112-.923-1.8-2.088-1.8-1.123 0-2.086.698-2.086 1.864 0 .791.412 1.322 1.088 1.774.204.125.39.246 1.09.641l.287.165c.642.424.743.813.743 1.268 0 .572-.433.948-1.103.948-.708 0-1.08-.442-1.08-.906 0-.274-.25-.486-.556-.486-.294 0-.54.212-.54.486 0 .957.813 1.874 2.176 1.874 1.13-.002 2.205-.695 2.205-1.918zm1.998-4.675h1.2v6.097c0 .276.247.495.541.495.302 0 .555-.218.555-.495v-6.097h1.201c.308 0 .545-.224.545-.498 0-.264-.237-.475-.545-.475h-3.497c-.309 0-.552.211-.552.475.001.274.244.498.552.498zm6.537 4.688v-4.775c0-.258.247-.462.541-.462h1.48c1.182 0 2.139.927 2.139 2.086v1.525c0 1.158-.957 2.1-2.139 2.1h-1.48c-.294.001-.541-.204-.541-.474zm1.059-.476h.962c.599 0 1.086-.517 1.086-1.148v-1.526c0-.635-.487-1.144-1.086-1.144h-.962v3.818zm2.784 2.308c0-.258-.207-.464-.469-.464h-2.889c-.262 0-.468.206-.468.464 0 .264.206.475.468.475h2.889c.262 0 .469-.211.469-.475z"/></svg>