<svg xmlns="http://www.w3.org/2000/svg" width="134" height="99" viewBox="0 0 134 99"><path d="M123.412 45.061c.126.486.218.776.277.896h.899c-.086-.154-.193-.658-.312-1.092-.106-.359-.25-.614-.517-.718v-.022c.331-.121.678-.438.678-.951 0-.358-.123-.635-.352-.807-.269-.236-.681-.306-1.259-.306-.471 0-.882.024-1.175.07v3.826h.873v-1.523h.268c.353 0 .523.136.62.627zm-.886-1.252v-1.084l.401-.007c.397 0 .649.167.649.525 0 .339-.262.565-.711.565h-.339zm-122.526 55.191h134v-36.533h-134v36.533zm64.416-33.729c-.088.08-.244.2-.269.433-.058.489-1.294.86-1.294.86-.125-.611-.146-1.021-.096-1.293h1.659zm14.726 5.161l-3.123 4.401c-.957 1.282-1.067.214-1.067.214.32-.643.7-3.6.7-3.6.54-.113 1.936-4.939 1.936-4.939l1.337 1.768c.867 1.028.217 2.156.217 2.156zm-4.292 11.384s-.386.469-.815-.177c0 0-2.745-4.55-.265-9.934 0 0 .354-.154.31.328-.001.001-2.188 6.612.77 9.783zm-2.898-12.512c-3.08 3.103-4.792 9.231-4.792 9.231-1.234.59-.544-3.162-.544-3.162 2.314-7.74 5.336-7.695 5.336-7.695 1.277.111 0 1.626 0 1.626zm-14.254 10.208c-1.011 1.762-3.114.279-3.056.088 1.24-3.854 4.354-4.767 4.354-4.767.382 2.307-1.298 4.679-1.298 4.679zm-1.815-14.241v.211c.09 3.019-1.611 2.592-1.611 2.592-1.022-1.035-.677-2.432-.565-2.803h2.176zm-22.673 18.883s2.587-.732 5.277-.526c0 0 4.723 1.198 5.045-.747 0 0 .211-.847-3.221-1.607 0 0-1.078-.44.96-2.799l4.728-6.539s.534 2.586.748 3.438c0 0-3.004 8.688-1.183 8.602 0 0 6.131-.347 10.207.18 0 0 1.281-.631-1.275-1.912 0 0-1.196-.867.428-.655l1.704-.098s1.398 1.72 4.092.327c0 0 1.51-1.088 4.608 2.338 0 0 3.123 1.398 3.025.114 0 0-1.193-2.558-.661-4.054 0 0 .437-3.879 4.413-8.943 0 0-7.086 10.315-2.365 13.651 0 0 .765.534 1.713-.862l9.249.441s1.602.324.64-1.189c0 0-2.903-2.369.862-5.156 0 0 1.607-2.244 1.607-.417l.012.618c-.345.716-1.063 2.12-1.298 2.273 0 0-2.699 3.975 2.475 4.195h7.728s1.392-.852-.429-2.047c0 0-.968-.745.857-.963 0 0 2.371-.65-.219-3.002l1.622-3.027s.968-.205 1.599 3.551c0 0 .11.432-.419 1.082-.112.646-2.477 3.002 1.18 2.789 0 0 5.034-.43 7.732.419 0 0 2.466.641 1.937-.632 0 0-3.859-3.551-3.859-9.562 0 0-.225-2.905.734-4.934 0 0 .955-2.005.888-3.229h26.853v30.924l-128.408.007v-30.932h36.928c-.643 1.279-7.828 15.724-8.551 16.857 0 .001-1.388 3.003 2.037 2.026zm37.547-3.408c-.32-.715-1.662-.863-.098-3.407 0 0 .794 3.194 1.232 3.563.429.371-.804.53-1.134-.156zm-70.757-80.746v36.517h134v-36.516999999999996h-134zm98.345 33.709l-.076-3.013c0-.815-1.937-2.18-1.937-2.18 1.278-3.702-.408-5.231-.408-5.231v-3.156l-.57.099c0 1.037-.794 2.409-.794 2.409-.473.242.079.713.079.713.89.336.956 1.77.956 1.77.244 1.954-1.116 3.068-1.116 3.068-1.772.572-1.701-2.984-1.542-3.132-.067-.816-.958-.393-.958-.393-1.444-.492.251-2.276.251-2.276.87-.392.146-.958.146-.958l-2.407-1.047c-1.688-1.051-.084-2.337-.084-2.337 1.936-1.207 1.12-1.521 1.12-1.521-3.453-1.786-4.902 3.447-4.902 3.447-.975 2.416.555 4.843.555 4.843l-1.616 2.004c-.324 0-.642-1.034-.642-1.034 1.776-.892.899-2.905.899-2.905 0-1.37-.978-.97-.978-.97 0 1.126-.957 2.662-.957 2.662s.156 1.596 0 2.248c-.156.647-1.621.157-1.621.157-1.04.238.646-1.855.646-1.855.574-1.12-.889-2.733-.889-2.733-.47-1.756 1.945-2.159 1.945-2.159 1.045-.731-.419-2.671-.419-2.671.494-.479-.063-1.033-.227-1.12-1.617.226-1.711 1.85-1.711 1.85-.31 1.044.411.481 1.048.481.663 0 0 .487 0 .487-1.843.717-2.39 2.579-2.39 2.579-.329 1.203-1.306 1.689-1.306 1.689-1.204.396-1.121-3.393-1.121-3.393.23-2.334 4.758-3.932 4.758-3.932 1.212-.573 0-1.701 0-1.701h-3.233c-3.375.326-4.591 5.321-4.591 5.321v1.775c.334 3.844 4.671 6.276 4.671 6.276.552 1.289-.32 2.012-.32 2.012-1.449.948-1.532 1.935-1.532 1.935s.248 1.185.207 1.893h-5.13l.172-.852c1.5 0 .322-1.383.322-1.383-1.294.102-3.549-2.148-3.549-2.148-2.677-2.042-4.491-1.288-4.491-1.288-2.603.097-4.001-4.626-4.001-4.626-.87-.532-.438-1.175-.438-1.175 2.914.433 2.368-.866 2.368-.866-.107-1.184-1.704-.435-1.704-.435-.77.117-.227-.965-.227-.965 2.477.434 2.904-.947 2.904-.947 1.943-.643 2.158 1.381 2.158 1.381-2.042-.101-1.843.759-1.843.759-.199 1.382 2.044.543 2.044.543.974 0 .552 2.882.552 2.882 1.808-1.391 1.183-4.067 1.183-4.067-.761-5.699-5.37-4.628-5.37-4.628-5.604 1.185-4.748 6.016-4.748 6.016-.733 4.188 1.306 4.731 1.306 4.731.102 1.178-.973.644-.973.644-.534-2.573-2.893-1.394-2.893-1.394-1.401-3.864-4.102-2.369-4.102-2.369-2.039-.852-.837-2.687-.837-2.687 2.033-.104 2.033-1.94 2.033-1.94.533-1.817 1.729-.626 1.729-.626.422 1.383 1.273.846 1.273.846-.325-1.396 3.768-5.16 3.768-5.16 1.271-1.16-.762-1.056-.762-1.056-1.506.207-5.363-2.17-5.363-2.17-1.077-.212-1.393 2.17-1.393 2.17-2.371.207-3.437 1.056-3.437 1.056-1.086.542-1.407-.417-1.407-.417-.424-.962-3.216-4.835-3.216-4.835l.422-2.14c-.212-.958-1.388.745-1.388.745-1.507 1.611-2.903.642-2.903.642-1.398-1.716-2.15-.855-2.15-.855l-2.792 5.805c-.757 1.923.631 1.704.631 1.704 2.705 1.931 1.294 4.088 1.294 4.088-1.602 1.938-2.997 4.506-2.997 4.506-1.443 3.375-4.511 7.428-4.511 7.428-1.149 1.539-1.153 2.553-1.013 3.083h-25.004v-30.914h128.392v30.913h-32.843zm-20.556-.432s-.15-.739.492-.896c0 0 2.254-2.908 2.254-3.783 0 0-.404-.411.553-.485l2.917.075s1.687.97.975 2.333c-.581 0-1.772-.08-2.592-1.047-.477-.148-.793-.875-1.206 0 0 0-.152.822.413.822 0 0 3.532 1.28 3.703 3.308 0 0-.416 0-.582-.326-.157-.321-.636-1.134-2.156-.975 0 0-2.024 0-2.429 1.381l-.072.026h-1.811c-.174-.098-.336-.225-.459-.433zm10.067-7.659c2.512.069 2.577 2.005 2.184 2.333-.408.327-2.489 2.254-2.977 2.254-.563 0-.804-.481-1.13-1.849-.324-1.381 1.923-2.738 1.923-2.738zm3.089 8.091c-.208-.354-.967-1.407-2.192-.106h-1.289c.476 0-.624-.984 3.305-3.879 0 0 .886-1.208 1.846.073 0 0 2.024 2.181 1.299 3.698l-1.906.213h-1.063zm-42.007 0l-.796-1.283h-.853l-1.262 1.283h-3.999c.555-1.746 3.658-5.891 4.397-5.671.736.206 1.716.527 2.584-.432.851-.966 2.895-.644 2.895-.644 2.368-.111 2.368 1.281 2.368 1.281-.192 1.273 1.729 4.817 2.091 5.466h-7.425zm-8.085-18.028c-.868-1.501 1.063-1.403 1.063-1.403 1.398.218 1.505-1.751 1.505-1.751.538-1.187 1.173.1 1.173.1-.134 1.553.972 1.328.593 1.758-.379.437.605 1.14.605 1.14.476 1.066 0 1.715 0 1.715-.715 2.529.84 3.429.84 3.429.823.267.489 1.357.489 1.357.381 2.088-2.353 1.6-2.353 1.6-.386-.591-1.348-.591-1.348-.591-2.469-.366-1.505-1.982-1.505-1.982 0-.423 1.217-.531 1.217-.531 1.415-.432.826-1.333.826-1.333-.167-.561-.826.629-1.027.262-.217-.388-.96-.178-.96-.178-.646.111-.806-.682-.806-.682-1.181-.969-2.139.432-2.139.432-.652-1.023.259-1.353.259-1.353 2.686-.211 2.086-.593 2.467-1.234.376-.655-.899-.755-.899-.755zm18.594 18.028c.034-.146.109-.395.284-.48.302-.099.302-.691.609-.21l.52.593-.04.098h-1.373zm-6.365-21.733s.803-.101.866.6c0 0 1.18.324 1.881 1.055 0 0 .855-.256.855.22 0 0 .748 1.241-1.763.818 0 0-2.002-.489-2.154-1.501 0 0-.332-.54.152-.705.001 0-.151-.646.163-.487zm-26.608 81.837h.093l-.361.98h-3.501l.341-.98c.347 0 .611-.081.814-.24.143-.093.273-.349.402-.708l1.556-4.28c.12-.305.173-.561.137-.67-.028-.142-.23-.229-.604-.279h-.054l.354-.994h3.522l-.356.994c-.365 0-.64.08-.852.229-.139.132-.277.385-.401.695l-1.579 4.378c-.116.287-.148.484-.116.587.04.18.248.288.605.288zm3.245-7.172h2.834l.507 4.713.926-2.556c.172-.483.251-.803.219-.884-.034-.199-.25-.305-.626-.305l.348-.969h2.615l-.366.969c-.379 0-.643.096-.809.271-.12.114-.278.434-.458.917l-2.167 5.995h-1.23l-.76-6.35-1.512 4.184c-.141.359-.207.597-.207.668-.037.211.028.348.226.41.125.058.268.091.425.091l-.373.997h-2.564l.354-.98c.328 0 .588-.086.789-.24.133-.121.253-.349.381-.708l1.561-4.28c.132-.336.187-.589.168-.665-.04-.155-.251-.252-.648-.31l.367-.968zm6.203 2.494l1.693-2.494h5.315l-.11 2.494-.842.319c-.033-.319-.063-.531-.087-.617l-.149-.54c-.068-.143-.177-.273-.335-.383-.151-.137-.309-.199-.456-.199-.125 0-.229.092-.281.28l-1.707 4.634c-.162.482-.222.754-.195.877.041.199.233.307.579.307h.113l-.373.978h-3.539l.351-.978h.139c.337 0 .602-.111.787-.307.079-.094.206-.309.32-.626l1.778-4.885.058-.231c-.002-.028-.05-.049-.138-.049-.326 0-.73.199-1.203.582-.173.146-.365.309-.549.525-.127.109-.306.326-.583.632l-.586-.319zm6.714 3.494l1.49-4.091c.098-.274.139-.474.139-.571-.035-.146-.158-.248-.379-.281l-.189-.051.346-.994h5.605l.051 2.494-.775.387c-.235-1.205-.82-1.805-1.801-1.805-.489 0-.793.068-.926.202-.116.104-.25.371-.381.737l-.423 1.2h.463c.307 0 .553-.098.708-.247.182-.188.354-.531.531-1.051h.77l-1.341 3.677h-.765c.12-.354.173-.683.117-.986-.038-.203-.224-.286-.576-.286h-.317l-.61 1.664c-.149.433-.233.698-.233.756-.02.212.184.305.604.305.669 0 1.317-.201 1.933-.576.488-.32 1.086-.846 1.756-1.559l.518.418-2.088 2.822h-5.78l.362-.98.158-.05c.313-.062.536-.168.659-.312.096-.126.227-.402.374-.822zm6.051 1.184h-.078l-.348.98h3.478l.351-.98h-.114c-.346 0-.547-.081-.598-.265-.03-.136.042-.423.188-.864l.501-1.367h.522l.833 3.477h2.251l.353-.98c-.334-.05-.57-.178-.689-.4-.034-.086-.089-.26-.156-.548l-.495-1.847c.513-.1.988-.362 1.441-.771.437-.408.773-.903.971-1.448.331-.9.185-1.522-.436-1.868-.356-.2-.942-.289-1.789-.289h-3.648l-.361.994h.101c.415 0 .595.138.556.43-.016.09-.09.328-.227.7l-1.431 3.919c-.174.473-.311.768-.435.891-.142.154-.388.236-.741.236zm4.488-5.549c.063-.188.135-.297.218-.35.143-.137.43-.199.807-.199.455 0 .733.092.854.28.201.302.231.61.136.911-.169.457-.515.807-1.034 1.052-.27.126-.579.185-.966.185h-.703l.688-1.879zm5.939.32c.118-.336.179-.589.146-.665-.042-.155-.245-.252-.64-.31l.355-.969h2.838l.5 4.713.932-2.556c.176-.483.244-.803.23-.884-.041-.199-.254-.305-.644-.305l.354-.969h2.616l-.354.969c-.377 0-.661.096-.814.271-.133.114-.277.434-.443.917l-2.189 5.995h-1.228l-.741-6.35-1.529 4.184c-.146.359-.215.597-.215.668-.03.211.047.348.24.41.134.058.267.091.414.091l-.343.997h-2.598l.369-.98c.315 0 .589-.086.782-.24.123-.121.275-.349.387-.708l1.575-4.279zm5.17 4.711c-.326.297-.662.463-1.062.518l-.35.98h2.979l.354-.98h-.094c-.309-.081-.481-.125-.522-.17-.088-.07-.11-.163-.064-.317l.139-.267c.033-.027.099-.113.186-.264l.591-.883h2.095l-.056.883-.026.282-.057.355c-.073.173-.215.272-.448.309-.219.032-.383.071-.508.071l-.351.98h3.545l.368-.98h-.104c-.352-.086-.53-.24-.567-.487l-.008-.644.26-6.041h-1.546l-3.903 5.563c-.396.561-.692.922-.851 1.092zm4.423-4.69l-.114 2.221h-1.401l1.515-2.221zm6.828 6.185h-3.551l.364-.978h.128c.337 0 .601-.111.791-.307.097-.094.192-.309.31-.626l1.793-4.885.052-.231c0-.028-.052-.049-.139-.049-.318 0-.718.199-1.203.582-.177.146-.35.309-.546.525-.115.109-.306.326-.578.632l-.575-.319 1.683-2.494h5.296l-.094 2.494-.84.319-.076-.617-.155-.54c-.076-.143-.191-.273-.343-.383-.156-.137-.302-.199-.464-.199-.104 0-.216.092-.286.28l-1.695 4.634c-.149.482-.234.754-.188.877.039.199.232.307.579.307h.099l-.362.978zm4.65-7.155h-.046l.347-.994h3.521l-.363.994c-.354 0-.641.08-.846.229-.139.132-.271.385-.401.695l-1.571 4.378c-.109.287-.156.484-.122.587.037.182.247.289.604.289h.095l-.358.98h-3.512l.355-.98c.341 0 .614-.081.81-.24.142-.093.271-.349.391-.708l1.567-4.28c.124-.305.17-.561.136-.67-.038-.143-.232-.229-.607-.28zm2.902 6.238c.379.764 1.055 1.133 2.021 1.133 1.098 0 2.13-.437 3.162-1.318.939-.846 1.659-1.899 2.121-3.16.424-1.185.452-2.162.08-2.939-.387-.777-1.079-1.168-2.13-1.168-1.074 0-2.099.443-3.102 1.295-.926.817-1.622 1.85-2.069 3.099-.461 1.237-.487 2.26-.083 3.058zm1.99-3.088c.304-.827.677-1.519 1.14-2.088.571-.702 1.142-1.045 1.724-1.045.579 0 .873.332.921 1.018.015.526-.097 1.174-.383 1.934-.291.816-.639 1.502-1.061 2.023-.574.785-1.156 1.169-1.758 1.169-.605 0-.921-.345-.956-1.028-.04-.533.087-1.18.373-1.983zm7.537-2.201c.131-.336.179-.589.163-.665-.041-.155-.26-.252-.643-.31l.35-.969h2.861l.473 4.713.939-2.556c.179-.483.265-.803.233-.884-.024-.199-.256-.305-.639-.305l.354-.969h2.618l-.358.969c-.383 0-.662.096-.806.271-.13.114-.293.434-.457.917l-2.175 5.995h-1.234l-.75-6.35-1.519 4.184c-.132.359-.206.597-.222.668-.024.211.06.348.243.41.115.058.259.091.415.091l-.351.997h-2.59l.368-.98c.322 0 .588-.086.787-.24.133-.121.243-.349.374-.708l1.566-4.279zm5.18 4.711c-.307.297-.663.463-1.057.518l-.35.98h2.974l.359-.98h-.088c-.312-.081-.495-.125-.521-.17-.087-.07-.12-.163-.07-.317l.152-.267c.024-.027.084-.113.155-.264l.6-.883h2.111l-.072.883-.034.282c-.015.178-.028.288-.051.355-.054.173-.206.272-.443.309l-.495.071-.361.98h8.756l2.046-2.854-.528-.429c-1.116 1.449-2.221 2.177-3.306 2.177-.251 0-.423-.045-.472-.139-.021-.063.019-.224.121-.5l1.621-4.49c.137-.348.263-.586.411-.709.141-.114.417-.183.83-.24l.364-.969h-3.417l-.347.969c.359.078.563.163.579.31.034.104-.039.41-.202.879l-1.405 3.857c-.178.47-.323.757-.431.868-.142.164-.408.25-.801.289h-.013c-.346-.086-.534-.24-.556-.487l-.009-.644.233-6.041h-1.524l-3.909 5.563c-.375.562-.672.923-.85 1.093zm4.434-4.69l-.115 2.221h-1.405l1.52-2.221zm.975-32.63v-12.662c0-1.16-1.25-.952-1.25-.952v-3.048h10.604v6.741h-1.899c-1.111-3.901-2.156-3.516-2.156-3.516-1.096 0-1.24.535-1.24.535v3.962c0 .753.653.629.653.629h1.755v3.318h-1.678c-.959 0-.771.752-.771.752v4.058c0 1.01 1.171.72 1.171.72 1.887 0 2.078-3.344 2.078-3.344h1.949v6.443h-10.571v-2.988c1.034 0 1.355-.648 1.355-.648zm-29.06-.383v-12.752s-.111-.418-1.253-.418l-.362-.36v-2.745h7.948v2.745l-.508.477s-1.435-.171-1.435.589v12.404l1.684 1.023v3.152h-8.086v-3.27l2.012-.845zm-16.307.051v-11.843c0-1.341-1.381-1.341-1.381-1.341l.107-3.095h7.528v3.028c-1.188 0-1.642.604-1.642.604v13.485c3.03.558 2.395-3.871 2.395-3.871h2.38v7.152h-10.875v-2.69c1.103.001 1.488-1.429 1.488-1.429zm-26.546-2.556s4.133.231 4.403-6.206c0 0 .288-7.631-5.224-7.213h-8.58v3.05s2.162-.076 2.162 1.508v11.971s-.03.533-1.42.533h-.417v3.342h7.616v-3.107s-1.712-.12-1.712-1.278v-2.6h3.172zm-2.955-9.073h1.384c1.373.683 1.742 2.78 1.742 2.78 0 2.211-1.617 2.684-1.617 2.684h-1.509v-5.464zm65.351 2.317v-2.24s-.135-1.436-1.443-1.154c0 0-1.564-.219-1.564 2.193 0 0-.764 10.592 1.112 11.277 0 0 2.263.867 2.263-3.237h2.439s.828 6.517-4.702 6.517c0 0-5.315.987-6.076-7.93 0 0-1.488-12.319 5.652-12.319 0 0 1.052-.064 2.242 1.024l.444-.976h2.204v6.843h-2.571zm-48.171 13.421c5.197.471 6.14-4.949 6.14-4.949 1.509-7.594-.319-12.064-.319-12.064-1.638-3.489-5.393-3.38-5.393-3.38-4.43-.298-6.089 3.841-6.089 3.841-1.713 6.875.082 12.067.082 12.067 1.56 5.002 5.579 4.485 5.579 4.485zm-1.107-16.266s.334-1.072 1.534-1.072c0 0 .85-.07 1.264 1.072v12.379s-.22.979-1.375.979c0 0-1.224 0-1.481-1.121l.058-12.237zm47.49-24.957c-.314.801-1.13.725-1.13.725s-.335-.487.166-.823c.479-.313.559-.785.559-.785s.736.072.405.883zm2.581.881c-.478.894-1.05.657-1.05.657.484-.415-.651-1.686-.405-2.271.239-.555.813.083 1.063.175.214.073.861.558.392 1.439zm-29.688 4.944c0 .46-.367.819-.835.819h-1.225c-.46 0-.825-.359-.825-.819 0-.459.365-.833.825-.833h1.225c.468 0 .835.374.835.833zm63.216 19.771c-.005-2.712-2.201-4.904-4.906-4.91-2.708 0-4.9 2.198-4.908 4.91 0 2.708 2.2 4.901 4.908 4.901 2.705-.009 4.906-2.193 4.906-4.901zm-9.219 0c0-2.385 1.92-4.305 4.313-4.31 2.382 0 4.303 1.924 4.303 4.31-.014 2.376-1.921 4.306-4.303 4.306-2.393 0-4.299-1.93-4.313-4.306z"/></svg>