<svg xmlns="http://www.w3.org/2000/svg" width="48" height="48" viewBox="0 0 48 48"><path d="M20.695 19.16l8.646 4.51-8.646 4.48v-8.99zm27.305 4.84c0 13.254-10.746 24-24 24-13.255 0-24-10.746-24-24s10.745-24 24-24c13.254 0 24 10.746 24 24zm-8-1.219c0-2.59-.32-5.18-.32-5.18s-.312-2.206-1.271-3.176c-1.218-1.275-2.581-1.282-3.206-1.354-4.479-.324-11.196-.324-11.196-.324h-.014s-6.718 0-11.196.324c-.623.072-1.987.08-3.205 1.354-.96.97-1.271 3.176-1.271 3.176s-.321 2.59-.321 5.18v2.426c0 2.59.321 5.18.321 5.18s.312 2.205 1.271 3.178c1.218 1.273 2.816 1.233 3.528 1.367 2.56.246 10.88.32 10.88.32s6.725-.009 11.203-.332c.625-.075 1.988-.082 3.206-1.355.959-.973 1.271-3.178 1.271-3.178s.32-2.59.32-5.18v-2.426z"/></svg>