<?xml version="1.0" encoding="utf-8"?>
<!-- Generator: Adobe Illustrator 16.2.0, SVG Export Plug-In . SVG Version: 6.00 Build 0)  -->
<!DOCTYPE svg PUBLIC "-//W3C//DTD SVG 1.1//EN" "http://www.w3.org/Graphics/SVG/1.1/DTD/svg11.dtd">
<svg version="1.1" id="Layer_1" xmlns="http://www.w3.org/2000/svg" xmlns:xlink="http://www.w3.org/1999/xlink" x="0px" y="0px"
	 width="160px" height="170px" viewBox="0 0 160 170" enable-background="new 0 0 160 170" xml:space="preserve">
<linearGradient id="SVGID_1_" gradientUnits="userSpaceOnUse" x1="0" y1="85" x2="160" y2="85">
	<stop  offset="0" style="stop-color:#F4343A"/>
	<stop  offset="1" style="stop-color:#1767AB"/>
</linearGradient>
<path fill-rule="evenodd" clip-rule="evenodd" fill="url(#SVGID_1_)" d="M129.087,167.179c-1.263-0.382-2.591-0.63-3.776-1.176
	c-4.51-2.077-6.253-7.485-4.227-13.323c0.994,0.369,1.982,0.733,3.63,1.346c-0.925-1.196-1.651-1.936-2.121-2.812
	c-0.324-0.602-0.617-1.532-0.372-2.069c1.381-3.045,2.93-6.014,4.521-9.204c0.919,1.228,3.14,1.421,2.537,3.729
	c-0.008,0.036,0.943,0.485,1.414,0.433c0.604-0.066,1.17-0.448,1.586-0.622c0.57-0.894,1.658-1.832,1.588-2.676
	c-0.094-1.134-1.033-2.227-1.719-3.271c-0.159-0.245-0.74-0.217-1.282-0.354c1.65-1.104,5.745,2.023,4.735-2.275
	c1.142-0.83,2.062-1.379,2.802-2.11c0.229-0.225,0.051-1.347-0.098-1.38c-1.05-0.236-2.141-0.297-3.309,0.085
	c0.346,0.184,0.693,0.365,1.365,0.717c-0.484,0.382-0.856,0.675-1.229,0.968c-0.171-0.5-0.349-0.996-0.511-1.499
	c-0.114-0.355-0.206-0.714-0.307-1.073c-0.386,0.113-0.903,0.11-1.132,0.362c-1.058,1.165-2.072,2.373-3.019,3.628
	c-0.308,0.412-0.362,1.012-0.58,1.667c-0.366,0.066-0.885,0.162-1.778,0.328c1.063-2.762,2.049-5.337,3.05-7.902
	c0.197-0.506,0.345-1.106,0.715-1.453c0.589-0.547,1.343-0.922,2.034-1.355c0.39-0.242,0.795-0.456,1.19-0.683
	c-0.252-0.259-0.692-0.501-0.719-0.786c-0.098-0.942-0.135-1.91-0.026-2.853c0.058-0.51,0.451-0.983,0.694-1.475
	c-0.527-0.035-1.055-0.069-1.923-0.129c0.449-2.288,0.925-4.716,1.255-6.394c1.22-0.808,2.324-1.16,2.425-1.698
	c0.12-0.648-0.61-1.451-0.965-2.191c-0.241-0.505-0.682-1.023-0.662-1.521c0.066-1.501,0.233-3.011,0.512-4.489
	c0.254-1.344,0.704-2.65,0.965-3.604c-0.254-1.351-0.585-2.451-0.646-3.562c-0.155-2.92-0.273-5.848-0.24-8.771
	c0.014-1.131,0.503-2.253,0.714-3.389c0.072-0.388,0.11-1.045-0.097-1.176c-2.204-1.399-1.452-3.812-2.034-5.737
	c-0.854-2.84-1.57-5.731-2.127-8.643c-0.114-0.599,0.561-1.692,1.165-2.003c0.993-0.514,2.896-3.979,2.284-4.979
	c-0.176-0.287-0.988-0.488-1.324-0.334c-2.965,1.35-4.465,0.769-5.999-2.163c-1.771-3.381-3.692-6.681-5.144-9.287
	c0.298-1.516,0.479-2.442,0.66-3.365c-0.207-0.119-0.414-0.236-0.622-0.353c-0.99,1.844-1.839,1.565-2.88,0.187
	c-5.14-6.812-11.352-12.442-18.86-16.634c-0.517-0.289-0.847-0.898-1.28-1.344c-0.176-0.182-0.372-0.399-0.602-0.469
	c-3.422-1.075-6.838-2.174-10.29-3.15c-0.845-0.237-1.812-0.047-2.72-0.062c-4.457-0.074-8.912-0.152-13.354-0.229
	c0.066-0.088,0.338-0.444,0.563-0.738c-0.815-0.847-1.802-1.51-0.167-2.698c2.738-1.99,3.276-3.46,2.624-6.515
	c-0.059,0.798-0.094,1.301-0.165,2.296c-1.093-0.474-2.666-0.737-2.779-1.287c-0.236-1.167,0.292-2.483,0.583-4.185
	c-0.081-0.03-0.726-0.254-1.368-0.48c-0.176,0.661-0.352,1.318-0.596,2.231c-0.458,0.072-1.217,0.19-2.255,0.352
	c0.359,0.437,0.628,0.762,0.85,1.031c-1.442,0.621-1.895,3.016-0.612,4.971c0.715,1.09,1.714,2.032,0.759,3.448
	c-0.044,0.069-0.052,0.209-0.01,0.278c1.718,2.845-0.909,2.367-2.237,2.856c-1.983,0.729-4.01,1.353-5.956,2.167
	c-1.923,0.808-3.771,1.794-6.06,2.899c0.716-1.348,1.34-2.361,1.797-3.444c0.267-0.637,0.534-1.507,0.288-2.039
	c-0.162-0.347-1.446-0.583-1.866-0.313c-0.547,0.352-0.97,1.231-1.034,1.921c-0.125,1.328,0.534,2.968-0.043,3.956
	c-0.687,1.179-2.329,1.811-3.586,2.635c-0.018,0.012-0.647-0.629-0.578-0.801c0.209-0.512,0.623-0.943,1.282-1.858
	c-0.394-0.44-1.102-1.232-1.81-2.024c-0.395,1.176-0.792,2.354-1.316,3.895c-1.52,0.888-2.605,0.037-3.542-1.842
	c-0.6-1.202-2.332-1.823-1.877-3.597c-0.725,0.023-1.451,0.044-2.469,0.072c1.523-4.032-3.698-2.833-4.369-5.946
	c-0.604,0.718-0.927,1.471-1.413,1.597c-0.897,0.234-1.966,0.334-2.823,0.063c-1.458-0.461-2.805-1.252-4.2-1.903l0.029,0.048
	c0.955-0.975,1.847-2.021,2.892-2.892c0.463-0.385,1.771-0.384,1.782-0.598c0.101-2.386,2.271-2.923,3.722-3.61
	c1.405-0.666,3.365-0.972,4.912,0.611c0.414,0.424,1.794,0.471,2.328,0.11c1.125-0.761,0.504-2.571-0.858-3.079
	c-0.489-0.184-0.882-0.61-1.316-0.926c0.219-0.266,0.388-0.613,0.666-0.784c6.617-4.07,13.751-6.914,21.36-8.511
	c3.658-0.768,7.383-1.224,11.073-1.82c1.433-0.043,2.861-0.084,4.289-0.125c0.478,0.687,0.904,1.414,1.441,2.051
	c1.044,1.236,2.097,2.477,3.256,3.604c0.482,0.474,1.24,0.671,1.874,0.993c0.118-0.176,0.235-0.35,0.353-0.525
	C85.682,4.202,84.992,2.261,84.189,0c4.632,0.846,9.4,1.717,13.831,2.526c-0.451,1.004-1.052,1.732-0.99,2.4
	c0.047,0.496,1.148,1.404,1.445,1.285c1.731-0.679,2.073,0.802,2.776,1.604c0.417,0.478,0.558,1.192,1.06,2.347
	c-0.118-0.006,0.845,0.178,0.897,0.031c0.251-0.675,0.591-1.68,0.271-2.127c-0.853-1.193-2.028-2.161-3.073-3.214
	c1.202-1.237,5.584-0.129,7.672,1.483c-0.083,2.047-0.104,3.919-0.249,5.781c-0.184,2.377-1.186,3.177-3.495,2.677
	c-1.647-0.358-3.239-0.965-5.14-1.545c0.33,1.675,0.572,2.897,0.814,4.132c-0.771,0.12-1.233,0.191-1.693,0.266
	c-0.062,0.189-0.124,0.382-0.185,0.572c1.056,0.305,2.141,0.926,3.169,0.846c1.686-0.134,3.365-0.634,4.981-1.172
	c0.525-0.176,0.859-0.947,1.249-1.472c0.264-0.347,0.38-0.922,0.712-1.08c1.862-0.865,1.388-2.326,0.723-3.495
	c-0.719-1.259-0.533-1.921,0.677-2.544c0.667-0.345,1.271-0.803,2.159-1.374c-0.106-0.036,0.177,0.021,0.423,0.147
	c6.957,3.569,13.055,8.284,18.571,13.75c0.327,0.324,0.138,1.158,0.189,1.756c0.264,0.832,1.237,1.305,2.06,1.96
	c1.531,1.222,3,2.523,4.428,3.864c0.167,0.16-0.098,0.767-0.179,1.284c0.111,0.061,0.387,0.211,0.66,0.358
	c-0.349,0.134-0.677,0.26-0.791,0.305c4.116,1.901,6.313,5.277,7.769,9.483c0.396,0.468,0.491,0.945,0.558,1.428
	c0.078,0.558-0.07,1.307,0.239,1.638c0.739,0.79,2.045,1.208,2.505,2.09c2.266,4.346,4.365,8.783,6.457,13.218
	c0.569,1.211,0.901,2.531,1.312,3.706c-0.553,0.168-0.917,0.279-1.28,0.393c0.083,0.246,0.133,0.509,0.257,0.734
	c0.889,1.624,2.22,3.147,2.602,4.877c0.724,3.286,0.929,6.688,1.287,10.047c0.04,0.36-0.305,1.087-0.483,1.093
	c-1.829,0.05-2.879,0.761-2.412,2.695c0.217,0.89,0.619,1.814,1.209,2.491c0.182,0.205,1.268-0.362,2.103-0.629
	c-0.063-0.082,0.098,0.131,0.26,0.34c0.047,1.606,0.096,3.211,0.143,4.816c-1.358,0.218-2.861,0.52-2.63,2.246
	c0.09,0.659,1.271,1.178,1.956,1.761c0.33-0.03,0.659-0.059,0.989-0.089c-0.647,1.322-1.294,2.644-1.948,3.98
	c0.416,0.063,0.905,0.137,1.47,0.223c-0.09,1.399-0.068,2.731-0.286,4.025c-0.226,1.349-0.85,2.643-0.998,3.99
	c-0.281,2.559-0.235,5.154-0.547,7.707c-0.187,1.51-0.793,2.972-1.212,4.454c-0.253,1.579-0.218,3.562-1.199,4.517
	c-2.251,2.183-4.04,4.481-4.721,7.532c-0.094,0.438,0.19,0.957,0.299,1.437c0.486-0.288,1.063-0.491,1.439-0.885
	c0.469-0.482,0.772-1.122,1.146-1.693c0.141,0.074,0.283,0.147,0.426,0.22c-0.43,1.386-0.857,2.772-1.234,3.989
	c-0.925-0.357-1.65-0.637-2.377-0.919c-0.006,0.67,0.006,1.342-0.022,2.011c-0.02,0.417-0.099,0.831-0.149,1.247l0.026-0.04
	c-0.57,0.223-1.453,0.29-1.658,0.696c-0.743,1.453-1.282,3.009-1.851,4.546c-0.475,1.282-0.882,2.591-1.22,3.596
	c-1.759-1.347-3.354-2.565-5.589-4.276c0.048,1.63,0.076,2.578,0.112,3.844c0.093-0.067-0.232,0.172-0.472,0.351
	c0.384,0.659,0.714,1.226,1.055,1.813c0.12,0.009,0.274,0.062,0.397,0.021c3.368-1.102,1.821,2.749,3.486,3.488
	c0.308,0.137,0.268,1.646-0.015,2.362c-0.49,1.237-1.297,2.352-1.973,3.516c-2.839,4.89-5.387,10.063-11.585,11.687
	C130.229,167.145,129.658,167.164,129.087,167.179z M146.288,101.358c-0.022,0.279-0.046,0.562-0.068,0.842
	c-0.801,0.115-1.623,0.399-2.396,0.3c-0.898-0.118-1.733-0.656-2.633-0.826c-0.25-0.051-0.806,0.509-0.896,0.866
	c-0.089,0.351,0.117,0.978,0.404,1.174c0.856,0.584,1.846,0.979,2.736,1.523c1.866,1.139,3.018,0.188,4.328-1.11
	c0.913-0.903,2.244-1.415,3.442-2c0.675-0.329,1.751-0.231,2.115-0.719c0.52-0.69,0.552-1.74,0.939-3.195
	c0.161,1.451,0.267,2.377,0.371,3.303c0.23-0.023,0.458-0.047,0.685-0.067c0.293-1.855,1.057-3.939-0.918-5.276
	c-1.025-0.695-2.619-0.57-4.361-0.892c0.366,2.463,0.645,4.369,0.88,5.963c-1.874-0.63-4.095-1.379-6.704-2.255
	c-0.018,0.003-0.562,0.11-1.197,0.236c0.044,0.503,0.085,0.996,0.104,1.22C144.323,100.792,145.304,101.075,146.288,101.358z
	 M57.516,7.253c-0.983,0.03-1.909,0.058-3.187,0.095c0.127,0.903,0.251,1.8,0.281,2.024c-0.578,1.83-1.31,3.18-1.307,4.523
	c0.002,0.74,1.112,1.902,1.938,2.139c2.586,0.737,5.266,1.187,7.933,1.597c0.469,0.072,1.276-0.46,1.543-0.925
	c0.92-1.612,0.687-2.995-1.236-3.79c-0.293,0.369-0.571,0.723-0.635,0.802c-0.61-0.603-1.055-1.415-1.624-1.513
	c-0.809-0.138-1.701,0.329-2.57,0.394c-0.663,0.051-1.351-0.09-2.009-0.233c-0.082-0.019-0.122-0.589-0.051-0.873
	c0.327-1.283,0.704-2.558,1.053-3.837C57.666,7.582,57.592,7.481,57.516,7.253z M141.358,69.415
	c-0.863,0.521-1.427,0.745-1.816,1.136c-0.278,0.282-0.582,0.966-0.438,1.173c0.882,1.269,2.691,1.989,2.301,3.994
	c-0.007,0.047,0.235,0.123,0.344,0.207c1.693,1.309,2.668,0.386,3.697-1.001c0.506-0.68,1.392-1.836,2.147,0.089
	c0.383,0.979,1.284,1.759,1.818,2.454c0.897-0.49,1.682-0.916,2.515-1.37c-0.096-0.08-0.258-0.225-0.425-0.361
	c-0.203-0.17-0.411-0.338-1.046-0.852c1.282-0.44,2.21-0.759,3.285-1.128c0.172-0.332,0.459-0.888,0.757-1.462
	c-0.521-0.427-1.023-0.839-1.568-1.284c-0.291,0.322-0.554,0.615-0.528,0.586c-1.455-0.167-2.732-0.003-3.656-0.494
	c-1.381-0.733-2.396-1.271-3.288,0.506c-0.237,0.474-0.628,0.935-1.065,1.23c-0.456,0.311-1.049,0.516-1.597,0.549
	c-0.14,0.011-0.348-0.785-0.5-1.219C141.968,71.24,141.66,70.305,141.358,69.415z M120.074,44.112
	c0.688,0.112,1.234,0.379,1.607,0.228c0.618-0.251,1.247-0.687,1.629-1.213c0.222-0.308,0.063-1.348-0.082-1.379
	c-2.146-0.494-1.55-2.632-2.432-3.851c-0.456-0.631-0.863-1.299-1.196-1.803c2.358-1.672,3.304-0.36,3.97,1.919
	c0.649-1.013,1.035-1.611,1.666-2.595c-1.104-0.817-2.174-1.604-3.235-2.396c-0.662-0.496-1.298-1.387-1.973-1.415
	c-0.859-0.033-2.077,0.409-2.516,1.061c-0.33,0.491,0.318,1.63,0.631,2.874c-1.407,2.278-1.091,3.023,1.456,5.146
	C120.275,41.257,122.511,42.511,120.074,44.112z M74.743,4.131c0.159-0.298,0.074-0.192,0.04-0.071
	c-0.217,0.816-0.564,1.633-0.562,2.45c0,0.313,0.78,0.68,1.257,0.919c0.605,0.299,1.27,0.48,1.897,0.736
	c1.089,0.446,1.595,2.3,3.298,1.284c0.55-0.326,1.235-0.424,1.79-0.739c0.328-0.189,0.522-0.608,0.779-0.925
	c-0.266-0.206-0.528-0.411-0.793-0.618c-0.368-0.286-0.848-0.506-1.087-0.876c-1.316-2.041-2.548-4.196-5.342-4.417
	c-0.566-0.046-1.202,0.369-1.737,0.686C74.199,2.608,74.485,3.268,74.743,4.131z M108.636,17.612
	c-1.513,2.95-0.957,4.938,1.643,7.499c1.392,1.37,2.951,1.491,4.54,0.681c0.761-0.388,1.27-1.261,1.892-1.912
	C111.492,24.739,109.345,22.224,108.636,17.612z M136.49,119.696c1.609-1.442,3.068-2.65,4.368-4.011
	c0.212-0.219-0.104-1.343-0.49-1.623c-0.691-0.507-1.708-1.069-2.433-0.91c-0.917,0.199-2.355,1.075-2.376,1.695
	C135.511,116.427,136.124,118.025,136.49,119.696z M122.847,162.022c0.28-0.097,0.563-0.192,0.843-0.29
	c0.981,0.586,1.938,1.228,2.967,1.719c0.257,0.125,0.951-0.12,1.098-0.387c0.715-1.279,0.683-2.487-0.503-3.593
	c-0.4-0.373-0.522-1.515-0.752-1.507c-0.915,0.021-2.231,0.07-2.64,0.645C123.207,159.524,123.154,160.863,122.847,162.022z
	 M66.697,21.912c-1.523,0.045-3.063,0.089-4.599,0.133c-0.037,0.18-0.075,0.358-0.11,0.537c0.73,0.473,1.463,0.945,2.195,1.422
	c-0.894,0.203-1.918,0.339-2.852,0.702c-0.342,0.134-0.628,0.799-0.644,1.234c-0.014,0.367,0.321,0.855,0.648,1.085
	c0.195,0.138,0.926-0.041,0.986-0.217c0.595-1.77,2.016-1.522,3.384-1.463c1.264,0.053,1.725-0.523,1.385-1.74
	C66.943,23.082,66.844,22.545,66.697,21.912z M140.519,49.748c-0.878-0.358-1.444-0.779-2.019-0.787
	c-1.585-0.024-3.204-0.021-4.745,0.283c-0.618,0.121-1.169,1.004-1.541,1.658c-0.119,0.212,0.403,1.127,0.666,1.142
	c0.542,0.029,1.09-0.423,1.661-0.505c0.79-0.113,1.621-0.176,2.403-0.063c0.778,0.115,1.652,0.839,2.236,0.628
	C139.729,51.902,139.949,50.827,140.519,49.748z M145.74,67.818c-0.299-0.767-0.538-1.394-0.789-2.018
	c-0.879-2.188-2.598-3.377-4.836-3.871c-0.378-0.084-0.843,0.209-1.265,0.328c0.203,0.313,0.358,0.675,0.615,0.938
	c1.226,1.246,2.746,2.303,3.641,3.744C143.953,68.301,144.629,68.416,145.74,67.818z M107.062,28.864
	c-0.365,0.544-0.976,1.338-0.922,1.387c0.847,0.741,1.723,1.495,2.726,1.99c0.307,0.155,1.355-0.363,1.443-0.725
	c0.216-0.882,0.427-2.421,0.006-2.682c-1.18-0.721-2.678-0.926-4.052-1.335c-0.062,0.214-0.124,0.43-0.188,0.645
	C106.401,28.382,106.726,28.621,107.062,28.864z M147.626,62.648c-0.509-0.228-0.975-0.438-1.44-0.646
	c-0.21,0.106-0.418,0.213-0.628,0.32c0.257,0.602,0.347,1.444,0.803,1.754c1.051,0.72,2.258,1.239,3.449,1.718
	c0.521,0.21,1.161,0.116,1.75,0.159c0.018-0.697,0.333-1.646-0.005-2.042c-0.777-0.909-1.874-1.549-3.051-2.461
	C148.17,61.905,147.926,62.24,147.626,62.648z M139.813,120.547c-0.266,0.093-0.531,0.188-0.795,0.284
	c-0.317,0.657-0.715,1.289-0.932,1.977c-0.229,0.713-0.636,1.864-0.334,2.137c0.577,0.521,1.748,0.927,2.404,0.679
	c0.632-0.235,1.384-1.439,1.265-2.069C141.226,122.489,140.385,121.541,139.813,120.547z M149.951,117.9
	c-0.022-0.092-0.043-0.185-0.065-0.278c-0.573,0.191-1.195,0.309-1.685,0.627c-0.121,0.078,0.067,1.083,0.318,1.189
	c1.365,0.582,2.77,1.149,4.217,1.39c0.302,0.048,0.853-1.293,1.265-2.007c0.187-0.316,0.315-0.663,0.471-0.995
	c-0.429-0.096-0.865-0.292-1.288-0.269C152.105,117.619,151.029,117.78,149.951,117.9z M52.501,24.467
	c0.244-0.323,0.808-0.8,1.019-1.396c0.708-2.011-0.622-3.014-2.195-3.683c-0.65-0.276-1.483-0.132-2.231-0.178
	c0.334,0.775,0.572,1.616,1.028,2.315C50.709,22.428,51.475,23.219,52.501,24.467z M148.418,109.019
	c-1.867-0.121-3.254-0.21-4.636-0.3c0.056-0.445,0.113-0.913,0.169-1.383c-0.246-0.111-0.49-0.223-0.737-0.334
	c-0.232,0.508-0.797,1.167-0.644,1.496c0.632,1.338,1.484,2.575,2.342,3.992C146.007,111.407,147.007,110.415,148.418,109.019z
	 M134.466,37.56c-0.885,0.502-1.711,0.86-2.401,1.395c-0.724,0.559-1.22,1.446-1.989,1.897c-1.218,0.706-1.398,1.061-0.809,1.903
	C132.1,42.447,134.238,41.308,134.466,37.56z M131.438,46.644c-1.309-1.159-2.612-2.329-3.949-3.462
	c-0.091-0.077-0.561,0.086-0.651,0.248c-0.271,0.483-0.438,1.02-0.648,1.535c0.578,0.223,1.159,0.443,1.296,0.497
	c-0.058,0.55-0.191,1.538-0.155,1.544C128.677,47.237,130.124,48.448,131.438,46.644z M121.268,25.366
	c-0.786-0.769-1.241-1.214-1.697-1.659c-0.829,1.19-1.657,2.379-2.484,3.567c0.723,0.382,1.877,1.243,2.095,1.056
	C119.974,27.639,120.458,26.595,121.268,25.366z M137.617,90.14c1.042,0.089,1.921,0.421,2.567,0.168
	c1.556-0.604,1.26-1.961,0.794-3.143c-0.123-0.313-0.899-0.639-1.266-0.546C137.855,87.097,136.608,88.752,137.617,90.14z
	 M143.93,118.888c0.757-1.419,1.673-2.351,1.526-3.067c-0.16-0.791-1.297-1.388-2.01-2.069c-0.488,0.966-1.186,1.894-1.366,2.913
	C141.998,117.122,142.951,117.763,143.93,118.888z M146.515,125.356c-0.006,0.004-0.317,0.131-0.316,0.257
	c0.011,1.035-0.006,2.087,0.219,3.085c0.031,0.144,1.293,0.018,1.984,0.016c-0.215-0.825-0.339-1.688-0.669-2.467
	c-0.371-0.876-0.898-1.696-1.418-2.498c-0.239-0.37-0.628-0.645-0.949-0.962c-0.129,0.457-0.495,1.043-0.33,1.344
	C145.295,124.604,145.912,124.889,146.515,125.356z M118.479,19.261c0.775-1.416,1.372-2.22,1.646-3.119
	c0.152-0.494-0.176-1.177-0.414-1.72c-0.066-0.151-0.722-0.266-0.85-0.138c-0.604,0.586-1.529,1.242-1.564,1.912
	C117.251,17.067,117.94,17.976,118.479,19.261z M136.917,70.564c-0.106-1.233-0.079-2.934-0.28-2.96
	c-1.188-0.157-2.429,0.072-3.653,0.173c-0.036,0.305-0.074,0.607-0.11,0.91C134.029,69.224,135.188,69.762,136.917,70.564z
	 M145.82,88.783c-0.575,0.483-1.377,0.877-1.695,1.51c-0.311,0.619-0.409,1.968-0.104,2.145c0.859,0.49,1.973,0.541,2.983,0.766
	C146.597,91.681,146.271,90.475,145.82,88.783z M96.62,6.111c-0.29-0.124-0.846-0.407-0.874-0.364
	c-0.66,1.051-1.365,2.093-1.813,3.235c-0.114,0.294,0.585,0.938,0.981,1.353c0.053,0.056,0.707-0.228,0.772-0.445
	C96.033,8.725,96.281,7.535,96.62,6.111z M61.763,22.836c-0.514-0.809-0.669-1.308-1.009-1.524
	c-0.462-0.293-1.273-0.674-1.563-0.479c-0.685,0.462-1.175,1.225-1.661,1.922c-0.048,0.068,0.515,0.786,0.74,0.76
	C59.39,23.381,60.49,23.1,61.763,22.836z M99.08,26.228c1.322-0.293,2.488-0.332,3.363-0.854c0.364-0.218,0.163-1.47,0.092-2.239
	c-0.02-0.234-0.459-0.434-0.705-0.65c-0.342,0.398-0.716,0.771-1.021,1.191C100.304,24.371,99.846,25.093,99.08,26.228z
	 M47.131,13.428c-0.205,0.383-0.41,0.768-0.615,1.15c0.951,0.616,1.9,1.232,2.85,1.845c0.182-0.674,0.675-1.824,0.493-1.942
	C49.056,13.966,48.055,13.75,47.131,13.428z M151.54,91.374c0.12,0.163,0.242,0.326,0.363,0.489c0.877-0.303,1.79-0.539,2.602-0.966
	c0.162-0.084,0.117-1.119-0.144-1.32c-0.723-0.559-1.609-0.905-2.431-1.336c-0.099,0.179-0.196,0.355-0.294,0.533
	c0.344,0.486,0.687,0.972,0.988,1.401C152.256,90.584,151.897,90.978,151.54,91.374z M89.859,11.817
	c0.761,1.146,1.354,2.036,1.946,2.93c0.421-0.43,1.205-0.864,1.199-1.29C92.982,11.974,92.001,11.441,89.859,11.817z
	 M151.026,93.877c-1.109-0.589-1.735-1.124-2.406-1.189c-0.354-0.032-1.2,0.949-1.109,1.146c0.295,0.631,0.865,1.45,1.439,1.542
	C149.429,95.452,150.061,94.617,151.026,93.877z M128.871,143.721c-0.183-0.075-0.364-0.148-0.546-0.225
	c-0.55,0.869-1.184,1.695-1.603,2.62c-0.157,0.354,0.185,0.928,0.3,1.4c0.496-0.224,1.327-0.352,1.43-0.691
	C128.748,145.837,128.752,144.762,128.871,143.721z M143.253,53.146c-0.22,0.332-0.438,0.661-0.66,0.992
	c0.746,0.606,1.49,1.216,2.235,1.823c0.242-0.511,0.783-1.379,0.672-1.467C144.836,53.946,144.02,53.574,143.253,53.146z
	 M135.112,149.109c-0.048-0.423-0.093-0.847-0.14-1.27c-1.083,0.186-2.166,0.37-3.251,0.556c0.078,0.312,0.159,0.895,0.23,0.895
	C133.006,149.274,134.059,149.184,135.112,149.109z M98.195,23.517c-0.203-0.181-0.406-0.361-0.608-0.541
	c-0.731,0.467-1.464,0.937-2.196,1.407c0.574,0.318,1.376,1.039,1.674,0.874C97.601,24.956,97.834,24.126,98.195,23.517z
	 M84.685,14.298c-0.236,0.162-0.475,0.325-0.711,0.488c0.087,0.811,0.173,1.622,0.258,2.432c0.716-0.23,1.431-0.466,2.145-0.698
	c-0.233,0.08-0.468,0.163-0.702,0.244C85.345,15.942,85.013,15.12,84.685,14.298z M139.017,129.161
	c0.067,0.297,0.134,0.593,0.201,0.89c0.637-0.128,1.287-0.217,1.896-0.428c0.089-0.031-0.026-0.639-0.046-0.98
	C140.385,128.816,139.699,128.989,139.017,129.161z M89.518,20.373c-0.349,0.065-0.695,0.129-1.042,0.192
	c0.115,0.737,0.228,1.474,0.342,2.211c0.378-0.134,1.084-0.283,1.078-0.396C89.859,21.706,89.662,21.043,89.518,20.373z
	 M69.976,7.236c-0.506-0.714-0.903-1.275-1.3-1.836c-0.177,0.333-0.561,0.723-0.485,0.985c0.162,0.578,0.559,1.091,0.857,1.632
	C69.315,7.794,69.581,7.57,69.976,7.236z M141.501,85.842c-0.024,0.317-0.049,0.635-0.073,0.951
	c1.078,0.017,2.154,0.031,3.231,0.049c0.006-0.2,0.014-0.399,0.021-0.597C143.619,86.112,142.561,85.978,141.501,85.842z
	 M150.557,88.34c0.26-0.059,0.519-0.118,0.777-0.174c-0.072-0.622-0.144-1.24-0.215-1.855c-0.414,0.095-0.828,0.193-1.243,0.289
	C150.103,87.18,150.33,87.761,150.557,88.34z M140.926,80.995c0.056,0.29,0.111,0.583,0.165,0.872
	c0.66-0.137,1.321-0.271,1.982-0.408c-0.046-0.271-0.09-0.544-0.134-0.817C142.269,80.761,141.598,80.878,140.926,80.995z
	 M144.67,135.534c-0.268,0.064-0.531,0.127-0.798,0.192c0.085,0.474,0.068,1.01,0.303,1.397c0.107,0.18,0.706,0.067,1.083,0.085
	C145.062,136.65,144.866,136.093,144.67,135.534z M103.244,24.496c0.2,0.716,0.266,1.364,0.408,1.382
	c0.711,0.084,1.447,0.006,2.765-0.032C105.129,25.298,104.409,24.994,103.244,24.496z M28.57,21.599
	c-1.066,2.779,1.63,6.655,4.563,6.433c0.659-0.049,1.406-1.087,1.886-0.939c1.644,0.501,3.188,1.329,4.771,2.033
	c-0.365,0.6-0.61,1.338-1.12,1.765c-0.565,0.473-1.517,0.525-2.021,1.036c-0.261,0.266-0.146,1.39,0.186,1.654
	c1.602,1.277,4.913,0.724,6.229-1.179c0.253,2.753,0.987,4.981,3.993,5.256c-2.594,2.998-5.04,6.002-7.729,8.781
	c-0.505,0.521-1.97,0.129-3.178,0.164c0.607,3.424-0.422,6.312-2.388,8.924c-0.226,0.3-0.546,0.626-0.886,0.724
	c-0.681,0.191-1.402,0.237-2.107,0.343c0.32,0.775,0.641,1.55,1.069,2.587c-1.322,3.635-2.802,7.704-4.186,11.513
	c-0.79,0.081-1.705-0.072-1.947,0.257c-0.377,0.517-0.402,1.362-0.389,2.063c0.012,0.711,0.251,1.42,0.389,2.131
	c0.406-0.385,0.813-0.77,1.22-1.156c-0.103,0.54-0.209,1.08-0.311,1.609c-1.82,0.435-1.816,1.201-1.174,2.876
	c0.494,1.289,0.058,2.945-0.039,4.432c-0.073,1.124-0.459,2.255-0.364,3.353c0.166,1.9-0.487,2.347-2.199,1.653
	c-0.468-0.19-1.121-0.468-1.472-0.289c-0.615,0.313-1.549,1.344-1.507,1.395c0.846,1.032,1.764,2.715,2.768,2.781
	c2.839,0.189,2.323,1.92,1.969,3.439c-0.295,1.257-1.045,2.267,0.231,3.516c0.495,0.482,0.26,1.714,0.321,2.607
	c0.636,9.32,2.824,18.312,5.697,27.175c0.263,0.808-0.184,1.843-0.301,2.769c-1.068-0.452-2.32-0.711-3.127-1.448
	c-0.366-0.334,0.123-1.621,0.281-2.466c0.073-0.396,0.283-0.766,0.359-0.963c-0.817-0.014-1.638,0.2-2.135-0.104
	c-0.371-0.228-0.242-1.157-0.489-1.708c-0.235-0.531-0.668-0.977-1.016-1.462c-0.469,0.387-1.22,0.695-1.36,1.177
	c-0.556,1.898,0.557,3.058,2.783,3.084c0.368,2.966-0.193,3.563-3.175,3.453c-0.759-0.028-1.583,0.238-2.263,0.017
	c-0.643-0.21-1.142-0.87-1.688-1.354c-0.242-0.214-0.44-0.476-0.661-0.715c-0.135,0.287-0.467,0.671-0.377,0.842
	c0.733,1.413,1.421,2.884,2.407,4.115c0.33,0.411,1.493,0.264,2.261,0.203c0.797-0.064,1.578-0.333,2.903-0.633
	c0.691-0.968,1.721-1.441,2.98,0.519c0.191,0.297,1.552,0.163,2.155-0.165c1.3-0.703,2.148-0.979,2.817,0.77
	c1.208,3.162,2.607,6.256,4.21,10.052c-1.228-0.752-1.881-1.328-2.643-1.578c-0.942-0.303-1.97-0.396-2.969-0.441
	c-0.206-0.009-0.609,0.588-0.633,0.924c-0.088,1.212-0.407,2.645,1.625,2.608c0.053,0.598,0.099,1.11,0.141,1.609
	c2.942,1.604,3.566-0.834,4.72-2.979c2.295,5.193,4.826,9.953,6.486,14.996c1.403,4.259-3.441,9.605-8.045,9.689
	c-0.65,0.01-1.294,0.399-1.941,0.612c-0.476,0.015-0.953,0.03-1.428,0.044c-0.511-0.09-1.016-0.229-1.528-0.269
	c-1.662-0.124-2.223-1.063-2.198-2.616c0.011-0.692-0.263-1.391-0.406-2.087c-0.992,0.361-1.985,0.723-3.173,1.155
	c-2.756-2.693-3.507-5.686-1.37-9.083c-1.606,0.236-2.664,0.392-4.069,0.6c-2.04-3.463-4.319-7.33-6.941-11.782
	c3.018,2.554,4.334,6.252,9.391,5.77c-1.421-1.968-2.322-3.832-3.783-5.032c-1.021-0.843-2.857-0.646-4.233-1.162
	c-0.837-0.317-1.646-1-2.184-1.723c-0.472-0.634-0.483-1.584-0.813-2.345c-2.013-4.622-4.057-9.232-6.175-14.034
	c0.971-0.168,1.368-0.239,1.766-0.308c0.005-0.153,0.011-0.306,0.016-0.458c-0.484-0.027-0.965-0.053-1.505-0.083
	c-0.429-1.461-0.907-2.987-1.322-4.531c-0.412-1.538-0.766-3.09-1.156-4.686c1.06,1.007,1.914,1.926,2.896,2.679
	c0.231,0.178,0.896-0.199,1.36-0.323c-0.192-0.398-0.277-0.989-0.595-1.164c-1.622-0.886-1.658-2.145-1.408-3.779
	c0.167-1.088-0.366-2.279-0.608-3.547c-1.054,0.831-1.645,1.299-2.392,1.888c-0.216-1.025-0.418-1.751-0.515-2.491
	c-0.521-3.966-1.016-7.932-1.52-11.897C0.173,95.765,0.088,92.84,0,89.911c0.108-0.539,0.219-1.08,0.326-1.622
	c0.164,0.169,0.328,0.342,0.491,0.512c1.025-0.861,2.84-1.674,2.896-2.595c0.094-1.542-0.934-3.148-3.512-1.998
	c0.385-3.613,0.737-6.935,1.09-10.254c0.659,2.273,1.78,1.345,2.901,0.625c0.732-0.474,2.013-1.383,2.198-1.208
	c0.889,0.836,1.489,1.974,2.277,3.127c-2.689,0.342-3.592,1.6-3.171,3.695c1.562-0.214,3.108-0.394,4.64-0.651
	c0.793-0.135,1.561-0.409,2.341-0.618c0.279-0.078,0.788-0.134,0.796-0.23c0.025-0.324-0.048-0.718-0.232-0.983
	c-0.375-0.557-1.039-0.984-1.244-1.581c-0.563-1.645-0.949-3.35-1.421-5.084c0.063-0.012,0.548-0.106,1.468-0.285
	c-0.78-0.667-1.297-1.129-1.837-1.563c-0.359-0.29-0.752-0.541-1.129-0.811c-0.031,0.479-0.047,0.959-0.099,1.436
	c-0.051,0.482,0.016,1.092-0.255,1.4c-0.184,0.207-0.908,0.106-1.305-0.061c-1.196-0.497-2.351-1.095-3.522-1.65
	c0.328-0.214,0.653-0.424,0.978-0.633c-0.84,0.23-1.68,0.457-2.882,0.784c1.191-3.856,2.256-7.302,3.203-10.369
	c2.546-0.679,4.719-1.168,6.802-1.899c0.402-0.142,0.568-1.234,0.618-1.907c0.02-0.24-0.636-0.771-0.964-0.756
	c-1.579,0.072-3.152,0.282-4.865,0.458c1.497-3.293,3.068-6.756,4.564-10.057c0.639,0.288,0.987,0.445,1.459,0.655
	c0.199,1.775,0.164,1.737-2.253,3.873c-0.411,0.362-0.486,1.202-0.511,1.83c-0.008,0.246,0.616,0.781,0.844,0.729
	c1.983-0.458,3.649-1.373,4.124-3.553c0.617-2.827-0.512-4.897-2.784-4.851c0.315-0.648,0.55-1.253,0.883-1.799
	c1.421-2.343,2.661-4.835,4.36-6.964c3.644-4.571,7.536-8.95,11.326-13.408L28.57,21.599z M33.704,41.919
	c-0.03-0.492-0.06-0.985-0.089-1.477c-0.796,0.198-1.588,0.395-2.383,0.592c0.04,0.257,0.08,0.518,0.119,0.777
	c0.797,0.025,1.593,0.048,2.39,0.075c-0.929,1.035-0.94,1.979,0.289,3.049c0.508-1,0.911-1.798,1.394-2.747
	C34.705,42.076,34.203,41.999,33.704,41.919z M16.944,65.133c0.898,0.52,1.646,0.821,2.213,1.324
	c0.37,0.332,0.792,1.099,0.642,1.412c-0.345,0.718-1.135,1.88-1.55,1.805c-2.154-0.385-1.925,0.856-1.934,1.961
	c0.971,0.205,1.749,0.513,2.522,0.496c0.914-0.018,1.918-0.13,2.707-0.535c0.852-0.439,1.523-1.238,2.225-1.928
	c0.463-0.459,0.838-1.005,1.252-1.511c-0.572-0.281-1.131-0.599-1.723-0.836c-1.005-0.398-2.825,0.243-2.413-1.916
	c0.02-0.107-0.087-0.298-0.19-0.363c-1.789-1.142-3.582-2.278-5.391-3.389c-0.147-0.091-0.592-0.023-0.606,0.037
	c-0.383,1.659-0.729,3.329-1.2,5.536C15.192,66.197,16.152,65.614,16.944,65.133z M21.927,37.865
	c0.809,0.842,1.422,2.053,2.276,2.249c1.67,0.381,2.236,1.205,2.343,2.752c0.027,0.385,0.627,1.02,0.983,1.035
	c0.563,0.021,1.296-0.245,1.671-0.648c0.485-0.525,0.693-1.307,0.95-1.826c-0.911-0.685-1.933-1.26-2.688-2.076
	c-0.655-0.71-1.035-1.679-1.493-2.556c-1.059-2.02-2.639-1.869-4.62-1.505c-2.135,0.392-3.071,1.257-2.824,3.394
	C19.747,38.389,20.905,38.111,21.927,37.865z M17.659,104.521c-0.144,0.173-0.288,0.347-0.433,0.521
	c0.696,0.742,1.392,1.485,1.992,2.124c-0.123,0.338-0.599,1.002-0.427,1.345c0.213,0.416,0.951,0.605,1.494,0.816
	c0.551,0.209,1.137,0.439,1.711,0.452c0.934,0.023,1.872-0.124,2.809-0.197c-0.333-0.58-0.593-1.22-1.013-1.729
	c-1.359-1.641-3.944-1.844-4.773-4.4c-0.211-0.648-2.762-2.209-4.736-1.359c-0.268,0.113-0.639,0.558-0.585,0.74
	c0.201,0.679,0.56,1.314,0.624,1.453C15.694,104.384,16.677,104.452,17.659,104.521z M34.04,48.798
	c-0.716-0.139-1.668-0.036-2.101-0.456c-1.818-1.77-3.917-2.193-6.291-1.669c-0.311,0.067-0.808,0.65-0.77,0.71
	c0.615,0.949,1.324,2.641,1.967,2.619C29.258,49.932,32.191,52.451,34.04,48.798z M16.757,135.769
	c-0.942,0.601-1.634,1.041-2.325,1.479c-0.04-0.844-0.244-1.717-0.092-2.525c0.347-1.842-0.091-3.015-1.661-3.082
	c0.045,1.484,0.088,2.946,0.135,4.459c-0.202,0.118-0.617,0.356-1.031,0.598c0.161,0.26,0.292,0.549,0.49,0.775
	c0.508,0.579,1.049,1.13,1.478,1.589c0.056-0.183,0.192-0.646,0.236-0.795c1.494-0.046,2.708-0.079,3.921-0.115
	C17.505,137.316,17.101,136.48,16.757,135.769z M20.425,83.096c-2.4-0.195-3.957-0.416-5.511-0.396
	c-0.581,0.008-1.544,0.512-1.627,0.927c-0.106,0.524,0.383,1.32,0.842,1.77c1.762,1.721,3.008-0.609,4.572-0.723
	C19.212,84.636,19.665,83.821,20.425,83.096z M17.702,98.397c0.012-0.261,0.023-0.52,0.036-0.779
	c-1.262-1.35-2.522-2.701-3.783-4.051c-0.264,0.079-0.53,0.159-0.795,0.24c-0.029,1.553-0.059,3.107-0.09,4.725
	C14.877,98.479,16.291,98.437,17.702,98.397z M26.212,144.427c0.126,2.957,1.548,4.466,3.711,4.045
	c0.499-0.097,1.315-0.927,1.232-1.152c-0.233-0.645-0.78-1.242-1.341-1.69c-0.669-0.532-1.488-0.882-2.231-1.329
	c-0.354-0.212-0.685-0.467-1.023-0.703C26.41,143.951,26.263,144.308,26.212,144.427z M22.358,146.031
	c0.118-0.096,0.739-0.348,0.794-0.689c0.08-0.503-0.072-1.263-0.428-1.574c-1.049-0.915-2.219-1.706-3.412-2.432
	c-0.196-0.121-1.015,0.26-1.093,0.534C17.886,143.063,20.692,146.117,22.358,146.031z M10.776,111.582
	c0.115-0.197,0.229-0.394,0.344-0.59c2.502,0.655,1.454-1.329,1.968-2.153c-0.934-0.554-1.816-1.292-2.826-1.559
	c-0.324-0.085-1.519,1.276-1.384,1.632C9.248,109.898,10.109,110.706,10.776,111.582z M7.461,106.596
	c0.935-0.618,1.467-0.883,1.881-1.271c0.292-0.274,0.595-0.725,0.581-1.088c-0.024-0.756-0.256-1.506-0.402-2.26
	c-0.446,0.176-1.013,0.233-1.314,0.545c-0.98,1.001-1.864,2.096-2.806,3.182C6.366,106.122,7.141,106.456,7.461,106.596z
	 M25.019,30.472c2.09,2.396,3.706,2.679,5.515,1.367c0.274-0.198,0.449-0.752,0.403-1.107c-0.039-0.269-0.513-0.695-0.775-0.686
	C28.603,30.115,27.048,30.292,25.019,30.472z M20.31,115.563c0.2-0.391,0.402-0.778,0.601-1.17c-0.809-0.77-1.617-1.539-2.426-2.312
	c-0.511,0.856-1.021,1.711-1.534,2.566C18.07,114.953,19.189,115.259,20.31,115.563z M23.605,58.934
	c0.347-0.154,0.692-0.307,1.036-0.461c-0.192-1.099-0.388-2.195-0.583-3.292c-0.947,0.364-1.895,0.73-2.844,1.095
	C22.013,57.16,22.81,58.047,23.605,58.934z M10.054,87.37c1.162,1.264,2.051,2.231,3.13,3.403
	C13.938,87.458,13.392,86.805,10.054,87.37z M17.909,123.068c3.466,0.13,3.711-0.367,2.405-3.658
	C19.508,120.633,18.835,121.659,17.909,123.068z M20.05,44.801c-0.487,0.957-1.171,1.795-0.995,2.049
	c0.478,0.688,1.301,1.154,2.041,1.621c0.085,0.056,0.796-0.576,0.758-0.656C21.388,46.922,20.834,46.075,20.05,44.801z
	 M24.957,119.77c0.367-0.099,0.732-0.194,1.098-0.292c-0.11-0.784-0.219-1.568-0.327-2.355c-0.584,0.098-1.167,0.192-1.751,0.287
	C24.304,118.196,24.632,118.983,24.957,119.77z M38.237,151.769c-0.861,0.532-1.457,0.901-2.053,1.27
	c0.63,0.419,1.229,0.907,1.915,1.201c0.14,0.059,0.826-0.613,0.853-0.977C38.982,152.845,38.56,152.393,38.237,151.769z
	 M11.496,98.762c-1.729,1.74-1.451,2.973,0.639,4.271C11.915,101.568,11.736,100.384,11.496,98.762z M4.514,89.697
	c-0.323,0.89-0.569,1.569-0.818,2.253c0.692,0.141,1.385,0.282,2.077,0.421c-0.076-0.771-0.074-1.565-0.28-2.303
	C5.431,89.851,4.784,89.79,4.514,89.697z M18.83,137.355c0.033,1.1,0.053,1.792,0.082,2.773c0.686-0.358,1.403-0.582,1.871-1.047
	c0.194-0.197,0.017-1.155-0.271-1.339C20.018,137.428,19.305,137.448,18.83,137.355z M37.212,160.702
	c-0.132,0.216-0.262,0.43-0.392,0.648c0.854,0.426,1.708,0.853,2.768,1.382C39.834,159.936,37.962,161.283,37.212,160.702z
	 M6.557,87.473c0.08,0.32,0.161,0.637,0.24,0.953c0.758-0.162,1.512-0.324,2.269-0.488c-0.099-0.357-0.194-0.715-0.294-1.073
	C8.034,87.067,7.295,87.272,6.557,87.473z M38.774,35.868c-0.094-0.108-0.188-0.212-0.28-0.319
	c-0.504,0.697-1.009,1.392-1.511,2.088c0.485,0.295,0.973,0.592,1.441,0.876C38.575,37.37,38.675,36.619,38.774,35.868z
	 M24.857,65.061c0.156-0.205,0.313-0.408,0.473-0.61c-0.43-0.443-0.857-0.888-1.284-1.329c-0.175,0.407-0.608,0.988-0.473,1.183
	C23.829,64.674,24.411,64.821,24.857,65.061z"/>
</svg>
