<?xml version="1.0" encoding="utf-8"?>
<!-- Generator: Adobe Illustrator 16.2.0, SVG Export Plug-In . SVG Version: 6.00 Build 0)  -->
<!DOCTYPE svg PUBLIC "-//W3C//DTD SVG 1.1//EN" "http://www.w3.org/Graphics/SVG/1.1/DTD/svg11.dtd">
<svg version="1.1" id="Layer_1" xmlns="http://www.w3.org/2000/svg" xmlns:xlink="http://www.w3.org/1999/xlink" x="0px" y="0px"
	 width="160px" height="170px" viewBox="0 0 160 170" enable-background="new 0 0 160 170" xml:space="preserve">
<linearGradient id="SVGID_1_" gradientUnits="userSpaceOnUse" x1="0" y1="85" x2="160" y2="85">
	<stop  offset="0" style="stop-color:#F4343A"/>
	<stop  offset="1" style="stop-color:#1767AB"/>
</linearGradient>
<path fill-rule="evenodd" clip-rule="evenodd" fill="url(#SVGID_1_)" d="M82.143,0.052c-0.449,0.839-0.075,1.449,0.734,1.545
	c0.61,0.073,1.291-0.232,1.907-0.462c0.512-0.188,0.982-0.745,1.458-0.729c1.616,0.051,3.231,0.252,4.838,0.46
	c0.469,0.063,1.325-0.034,0.846,1.002c-0.095,0.203,0.297,0.812,0.593,0.94c0.21,0.091,0.632-0.319,0.97-0.485
	c0.447-0.225,0.948-0.674,1.346-0.598c1.818,0.346,3.623,0.787,5.393,1.326c0.404,0.119,0.77,0.719,0.905,1.17
	c0.052,0.172-0.594,0.551-0.923,0.833c-0.23,0.198-0.628,0.375-0.655,0.599c-0.03,0.259,0.287,0.812,0.402,0.799
	c0.974-0.109,2.373,0.008,2.813-0.569c0.929-1.22,2.091-1.231,3.075-0.857c2.977,1.128,5.86,2.496,8.769,3.792
	c1.163,0.519,0.382,1.218,0.104,1.836c-0.163,0.361-0.402,0.686-0.608,1.028c0.438,0.227,0.864,0.592,1.318,0.624
	c0.219,0.018,0.666-0.569,0.699-0.912c0.171-1.739,1.07-1.145,1.836-0.563c3.93,2.991,7.848,5.996,11.708,9.071
	c0.38,0.304,0.323,1.126,0.507,1.694c0.164,0.506,0.271,1.112,0.626,1.44c0.187,0.174,0.838-0.18,1.288-0.238
	c0.261-0.033,0.658-0.048,0.783,0.103c0.471,0.557,1.084,1.144,1.199,1.8c0.094,0.543-0.468,1.186-0.663,1.811
	c-0.063,0.198,0.149,0.688,0.172,0.687c0.938-0.175,1.817,2.674,2.814,0.084c0.006-0.02,0.419,0.029,0.511,0.146
	c1.256,1.608,2.492,3.234,3.719,4.865c0.091,0.12,0.052,0.334,0.073,0.507c-0.123-0.11-0.229-0.289-0.369-0.319
	c-2.047-0.445-4.095-0.893-6.154-1.264c-0.175-0.031-0.605,0.455-0.651,0.746c-0.28,1.757,1.5,3.122,3.192,2.546
	c0.315-0.106,0.8-0.003,1.104,0.178c1.201,0.705,2.333,1.321,3.51-0.066c0.129-0.154,0.859-0.088,0.997,0.101
	c0.842,1.147,1.61,2.35,2.339,3.569c0.076,0.128-0.198,0.604-0.416,0.731c-0.38,0.216-0.848,0.291-1.277,0.427
	c0.31,0.287,0.642,0.556,0.921,0.87c0.563,0.635,1.079,1.312,1.648,1.941c0.172,0.191,0.628,0.436,0.657,0.401
	c1.077-1.244,1.112,0.319,1.249,0.582c1.635,3.156,3.258,6.321,4.686,9.571c0.3,0.682-0.287,1.71-0.319,2.583
	c-0.024,0.648,0.197,1.302,0.287,1.957c0.051,0.375,0.044,0.761,0.084,1.14c0.06,0.614,0.071,1.244,0.255,1.818
	c0.035,0.108,0.784,0.056,1.184-0.027c1.092-0.222,2.771,1.335,2.55,2.43c-0.027,0.131-0.388,0.337-0.466,0.293
	c-1.048-0.615-1.5,0.072-2.054,0.795c-1.171,1.521-2.521,2.829-4.551,3.207c-0.158,0.03-0.319,0.704-0.271,1.05
	c0.224,1.542,0.744,3.078,0.695,4.603c-0.021,0.728-0.99,1.516-1.678,2.107c-0.637,0.549-1.435,0.971-2.229,1.278
	c-2.326,0.9-4.043,3.238-6.98,2.814c-0.493-0.071-1.166,0.856-1.695,1.384c-0.189,0.188-0.108,0.681-0.307,0.819
	c-0.401,0.285-0.908,0.427-1.373,0.628c-0.132-0.434-0.305-0.86-0.394-1.3c-0.273-1.346-0.529-2.693-0.765-4.044
	c-0.097-0.561-0.661-1.365,0.608-1.353c0.074,0,0.243-0.406,0.215-0.427c-0.197-0.154-0.448-0.235-0.657-0.372
	c-0.255-0.169-0.488-0.372-0.73-0.562c0.194-0.194,0.356-0.497,0.586-0.565c1.391-0.398,1.27-1.598,1.229-2.554
	c-0.036-0.819-0.454-1.67-0.894-2.394c-0.106-0.173-1.071-0.045-1.462,0.212c-0.675,0.444-0.818,0.235-1.075-0.396
	c-1.498-3.68-3.022-7.348-4.583-11.002c-0.582-1.36-0.056-2.538,1.459-2.664c1.559-0.13,2.118-0.995,2.085-2.354
	c-0.009-0.357-0.458-0.703-0.705-1.055c-0.363,0.254-1.026,0.495-1.034,0.759c-0.032,1.069-0.77,1.29-1.482,1.168
	c-0.829-0.141-1.378-0.11-1.64,0.758c-0.216-0.086-0.523-0.113-0.632-0.271c-1.146-1.687-2.224-3.42-3.39-5.095
	c-3.55-5.101-7.697-9.672-12.646-13.458c-1.495-1.144-2.601-2.457-3.084-4.187c-0.356-1.271-1.327-1.48-2.289-1.761
	c-0.193-0.059-0.784,0.438-0.799,0.699c-0.056,1.077-0.55,0.726-1.097,0.434c-4.353-2.328-8.953-3.954-13.817-4.869
	c-0.258-0.052-0.641-0.97-0.503-1.283c0.357-0.796,1.019-1.453,1.468-2.217c0.214-0.361,0.389-0.892,0.273-1.248
	c-0.081-0.26-0.652-0.446-1.033-0.51c-0.532-0.093-1.115-0.149-1.633-0.029c-1.131,0.267-1.458-0.362-1.788-1.237
	c-0.177-0.474-0.65-0.834-0.99-1.248c-0.218,0.571-0.566,1.129-0.623,1.716c-0.119,1.236,0.928,2.436,0.139,3.767
	c-0.074,0.124,0.825,0.806,1.254,1.245c0.175,0.18,0.304,0.405,0.452,0.609c-0.227,0.023-0.454,0.066-0.68,0.06
	c-0.604-0.021-1.212-0.021-1.803-0.118c-0.327-0.054-0.688-0.224-0.912-0.455c-0.235-0.241-0.325-0.619-0.478-0.938
	c-0.263,0.304-0.493,0.645-0.798,0.901c-0.313,0.262-0.678,0.574-1.056,0.628c-2.583,0.372-5.174,0.694-7.767,0.991
	c-0.354,0.039-0.905-0.056-1.077-0.291c-0.755-1.066-3.452-2.222-4.696-1.914c-0.542,0.134-1.083,0.328-1.634,0.369
	c-1.139,0.087-1.697-0.744-1.378-1.59c0.875-2.313-0.448-4.089-1.225-5.994c-0.1-0.25-0.883-0.451-1.216-0.323
	c-0.389,0.148-0.858,0.664-0.884,1.046c-0.035,0.58,0.233,1.204,0.476,1.768c0.085,0.197,0.482,0.381,0.731,0.373
	c1.331-0.042,1.299,0.996,0.907,1.556c-0.507,0.731-1.384,1.345-2.234,1.665c-0.752,0.283-1.832,0.769-2.383-0.562
	c-0.136-0.329-0.834-0.78-0.891-0.732c-0.503,0.434-0.968,0.934-1.324,1.489c-0.068,0.106,0.381,0.541,0.594,0.824
	c0.028,0.037,0.073,0.062,0.102,0.1c1.03,1.406,2.136,2.347,4.173,1.876c0.752-0.175,1.749,0.802,2.666,1.18
	c0.945,0.385,1.945,0.963,2.525-0.627c0.067-0.184,1.44,0.075,2.201,0.173c0.303,0.041,0.588,0.203,0.881,0.31
	c-0.268,0.163-0.524,0.356-0.809,0.483c-3.129,1.401-6.25,2.811-9.4,4.154c-0.398,0.169-0.959,0.021-1.43-0.06
	c-0.211-0.032-0.419-0.412-0.572-0.379c-2.808,0.607-0.896-1.718-1.524-2.495c-0.539-0.667-0.638-1.688-0.933-2.553
	c-0.416,0.303-1.056,0.521-1.209,0.923c-0.519,1.367-0.911,2.789-1.27,4.213c-0.278,1.108,0.065,1.765,1.401,1.751
	c0.536-0.006,1.077,0.406,1.615,0.631c-0.344,0.38-0.655,0.798-1.04,1.129c-0.505,0.433-1.049,0.829-1.609,1.186
	c-0.812,0.52-1.561,1.881-2.26-0.342c-0.333-1.06-1.962-1.436-3.363-0.87c-0.453,0.182-1.076,0.171-1.531,0.009
	c-0.186-0.066-0.242-0.799-0.172-1.194c0.202-1.104-1.783-4.592-2.873-4.903c-0.148-0.046-0.448-0.024-0.472,0.044
	c-0.085,0.232-0.106,0.498-0.108,0.752c-0.008,1.525-0.016,3.054,0.013,4.579c0.003,0.255,0.168,0.517,0.301,0.751
	c0.129,0.233,0.392,0.41,0.458,0.648c0.098,0.354,0.071,0.743,0.098,1.115c0.651-0.128,1.409-0.09,1.932-0.419
	c1.137-0.719,1.678-0.552,2.102,0.694c0.172,0.505,0.661,1.011,1.141,1.279c0.968,0.541,0.856,0.996,0.212,1.735
	c-2.688,3.068-5.46,6.083-7.942,9.314c-1.725,2.247-3.022,4.814-4.522,7.233c-0.134,0.211-0.348,0.373-0.522,0.56
	c-0.041-0.228-0.055-0.467-0.13-0.682c-0.05-0.14-0.189-0.336-0.299-0.342c-0.157-0.013-0.371,0.088-0.48,0.211
	c-0.765,0.835-1.691,1.6-2.18,2.577c-0.242,0.482,0.32,1.375,0.554,2.071c0.096,0.285,0.474,0.62,0.398,0.795
	c-3.579,8.185-5.617,16.754-6.573,25.598c-0.137,1.272-0.163,2.555-0.225,3.833c-0.047,0.943,0.031,1.87-1.154,2.354
	c-0.218,0.089-0.126,1.246,0.04,1.85c0.184,0.671,0.869,1.263,0.899,1.908c0.15,3.202,0.156,6.408,0.212,9.613
	c0.014,0.779-1.09,1.784,0.467,2.248c-0.076,0.035-0.154,0.101-0.23,0.098c-0.381-0.009-0.783,0.026-1.139-0.077
	c-0.205-0.063-0.34-0.362-0.506-0.556c-0.086,0.303-0.337,0.701-0.226,0.889c0.314,0.526,0.713,1.053,1.206,1.4
	c0.251,0.177,0.778-0.031,1.181-0.064c-0.038,0.861-0.025,1.73-0.138,2.582c-0.066,0.519-0.368,1.005-0.49,1.523
	c-0.157,0.68-0.018,1.039,0.793,0.626c0.132-0.067,0.623,0.195,0.666,0.375c0.851,3.494,1.661,6.996,2.471,10.501
	c0.041,0.174,0.067,0.415-0.021,0.543c-0.541,0.786-0.428,0.895,0.141,1.742c0.664,0.995,1.215,2.096,1.646,3.216
	c2.004,5.21,3.955,10.438,5.909,15.67c0.322,0.855,0.863,1.704-0.251,2.523c-0.29,0.215-0.111,1.056-0.146,1.608
	c0.433-0.112,0.859-0.267,1.299-0.318c0.266-0.032,0.713,0.01,0.804,0.17c1.383,2.49,0.871,3.725-1.923,4.76
	c-0.753,0.279-1.524,0.521-2.242,0.869c-0.223,0.109-0.339,0.514-0.405,0.804c-0.021,0.088,0.291,0.334,0.472,0.361
	c1.525,0.229,3.055,0.439,4.588,0.611c0.253,0.029,0.596-0.087,0.789-0.256c1.73-1.527,1.658,0.039,1.795,1.055
	c0.308,2.275-0.612,3.923-2.576,4.844c-0.718,0.341-1.518,0.588-1.103,1.762c0.099,0.281-0.576,1.075-1.047,1.265
	c-1.66,0.667-3.387,1.174-5.087,1.743c-0.095-0.001-0.19-0.004-0.286-0.004c-0.482-0.577-0.915-1.207-1.459-1.721
	c-0.799-0.752-1.776-0.551-2.126,0.314c-0.352,0.876-0.752,1.048-1.35,0.567c-0.45-0.362-2.108-0.112-1.015-1.521
	c-0.305-0.215-0.767-0.685-0.897-0.606c-1.357,0.805-1.77-0.407-2.239-1.103c-0.57-0.846-0.896-1.855-1.285-2.813
	c-0.021-0.057,0.354-0.244,0.5-0.408c0.225-0.253,0.635-0.628,0.568-0.794c-0.142-0.358-0.502-0.813-0.838-0.876
	c-1.538-0.292-2.389-1.309-3.217-2.505c-0.859-1.241-0.231-2.1,0.81-2.189c1.441-0.119,2.119-0.757,2.49-1.971
	c0.187-0.609,0.188-1.31,0.491-1.848c0.702-1.248,0.009-1.537-1.008-1.656c-1.233-0.146-2.477-0.374-3.704-0.315
	c-0.577,0.025-1.124,0.642-1.686,0.992c0.439,0.41,0.841,1.118,1.325,1.177c1.236,0.148,1.1,0.388,0.264,0.994
	c-0.253,0.188-0.381,0.543-0.62,0.763c-0.094,0.088-0.449,0.084-0.486,0.014c-1.393-2.534-2.767-5.076-4.124-7.625
	c-0.129-0.242-0.279-0.739-0.218-0.774c1.605-0.925,0.024-2.001,0.128-2.985c0.023-0.217-0.416-0.528-0.702-0.707
	c-0.101-0.063-0.46,0.093-0.544,0.235c-0.117,0.201-0.087,0.484-0.12,0.735c-0.152-0.229-0.362-0.438-0.45-0.689
	c-1.533-4.369-3.109-8.727-4.554-13.127c-0.807-2.465-1.399-5-2.06-7.512c-0.091-0.345-0.018-0.734-0.021-1.104
	c0.263,0.157,0.515,0.428,0.788,0.449c0.759,0.059,1.912,0.756,1.739-0.963c-0.115-1.153-0.086-2.322-0.155-3.481
	c-0.064-1.129-0.082-2.274-0.307-3.374c-0.091-0.44-0.629-0.975-1.065-1.097c-0.368-0.103-1.019,0.229-1.305,0.565
	c-0.338,0.403-0.415,1.019-0.616,1.539c-0.067,0.174-0.171,0.333-0.258,0.501c-0.072-0.162-0.188-0.319-0.207-0.486
	c-0.506-4.222-1.012-8.443-1.483-12.668c-0.036-0.32,0.149-0.935,0.295-0.952c0.805-0.107,1.651-0.189,2.424-0.013
	c0.213,0.047,0.212,0.995,0.329,1.523c0.092,0.401,0.219,0.8,0.331,1.2c0.494-0.278,1.056-0.484,1.465-0.856
	c0.56-0.511,1.211-1.078,1.437-1.747c0.219-0.655-0.046-1.47-0.098-2.215c-0.187,0.195-0.375,0.389-0.555,0.587
	c-0.056,0.06-0.087,0.14-0.129,0.21c-0.021-0.084-0.054-0.165-0.056-0.249c-0.041-1.328-1.175-1.379-2.042-1.789
	c-0.305-0.143-0.607-0.556-0.675-0.89C2.502,92.823,1.859,92.058,0,91.938c0.019-1.328,0.039-2.655,0.059-3.983
	c0.22-2.153,0.407-4.313,0.702-6.455c0.043-0.309,0.577-0.599,0.939-0.802c0.43-0.238,0.92-0.374,1.383-0.555
	c-0.481-0.345-0.972-0.673-1.434-1.04c-0.251-0.199-0.657-0.483-0.637-0.693c0.193-1.93,0.437-3.859,0.757-5.771
	c0.036-0.213,0.737-0.549,0.979-0.454c1.019,0.403,1.566-0.011,2.148-0.794c0.593-0.799,1.333-1.496,2.059-2.188
	c0.631-0.598,2.042-0.7,1.022-2.183c-0.283-0.413,0.136-1.293,0.197-1.962c0.037-0.377,0-0.759-0.003-1.138
	c-0.43,0.137-0.937,0.175-1.267,0.436c-0.348,0.276-0.66,0.735-0.752,1.163c-0.368,1.681-1.914,2.055-3.08,2.848
	c-0.07,0.049-0.477-0.206-0.466-0.253c0.241-0.95,0.281-2.08,0.846-2.799c1.215-1.551,2.904-2.816,1.714-5.134
	c-0.078-0.15,0.097-0.447,0.182-0.662c0.942-2.373,1.885-4.747,2.851-7.111c0.151-0.37,0.429-0.688,0.647-1.032
	c0.029,0.365,0.071,0.729,0.089,1.093c0.049,1.018,0.376,1.634,1.604,1.604c1.188-0.024,1.39-0.682,1.265-1.564
	c-0.213-1.505-0.602-2.982-0.756-4.489c-0.067-0.674,0.127-1.911,0.43-1.985c0.793-0.196,1.712,0.095,2.578,0.218
	c0.552,0.078,1.096,0.202,1.643,0.309c-0.002-0.686,0.179-1.45-0.079-2.021c-0.146-0.317-1.029-0.422-1.569-0.398
	c-0.366,0.018-0.7,0.458-1.083,0.639c-0.265,0.127-0.588,0.129-0.886,0.188c0.07-0.258,0.085-0.549,0.22-0.77
	c1.865-3.08,3.77-6.139,5.62-9.228c0.661-1.104,1.198-1.289,2.302-0.381c0.352,0.29,1.548-0.418,2.347-0.7
	c0.146-0.054,0.331-0.265,0.329-0.399c-0.002-0.148-0.196-0.302-0.314-0.443c-0.178-0.213-0.363-0.42-0.545-0.629
	c0.272-0.133,0.536-0.288,0.817-0.398c1.898-0.73,4.226-0.788,5.088-3.151c0.117-0.317,0.098-0.688,0.142-1.033
	c-0.26,0.118-0.516,0.251-0.781,0.356c-0.242,0.095-0.497,0.237-0.74,0.229c-0.757-0.019-1.515-0.066-2.262-0.182
	c-0.257-0.038-0.479-0.3-0.719-0.46c0.994-0.958,1.86-2.153,3.032-2.787c0.779-0.427,1.227-0.605,1.43-1.562
	c0.142-0.661,0.981-1.636,1.546-1.661c1.722-0.08,2.34-0.451,2.536-2.116c0.049-0.417,0.283-0.894,0.585-1.191
	c0.815-0.793,1.693-1.525,2.579-2.247c1.758-1.432,1.898-1.345,3.312,0.398c0.374,0.463,1.264,0.514,1.915,0.755
	c-0.186-0.508-0.456-0.997-0.544-1.52c-0.163-0.964-1.813-1.848-0.237-2.927c6.403-4.391,13.365-7.613,20.793-9.914
	c1.752-0.541,2.469,0.115,3.065,1.507c0.107,0.249,0.432,0.527,0.695,0.574c1.167,0.202,2.338-1.318,1.688-2.372
	c-0.664-1.07-0.067-1.07,0.655-1.172c2.401-0.336,4.803-0.681,7.21-0.992C75.461,0.34,77.084,0.184,78.704,0
	C79.851,0.017,80.997,0.035,82.143,0.052z M14.045,95.48c0.209-1.438-0.368-1.832-1.777-1.243c-0.513,0.213-1.138,0.156-1.665,0.346
	c-0.319,0.116-0.669,0.419-0.805,0.727c-0.379,0.868-0.465,1.553,0.875,1.782c0.57,0.097,2.047,0.174,0.805,1.814
	c-1.021,1.354-3.325,1.639-3.268,3.847c0.013,0.514-0.102,1.029-0.158,1.546c-0.02,0.183,0.024,0.43-0.079,0.537
	c-0.461,0.476-1.022,0.864-1.436,1.373c-0.331,0.409-0.803,1.274-0.692,1.374c0.527,0.481,1.204,0.943,1.884,1.045
	c0.307,0.052,0.77-0.73,1.119-1.167c0.276-0.349,0.473-0.76,0.737-1.122c1.227-1.674,2.879-2.704,4.891-3.22
	c0.172-0.042,0.292-0.354,0.403-0.557c0.836-1.536,1.749-1.705,3.206-0.661c0.225,0.161,0.635,0.066,0.96,0.089
	c0-0.388,0.131-0.854-0.037-1.146c-0.153-0.263-0.619-0.415-0.973-0.485C15.52,99.866,14.008,98.065,14.045,95.48z M74.042,12.452
	c0.097,0.141,0.195,0.283,0.292,0.424c0.918-0.622,2.246-1.056,2.638-1.915c0.386-0.845,1.042-2.509-0.93-3.027
	c-0.19-0.049-0.159-0.719-0.354-1.019c-0.192-0.294-0.545-0.487-0.827-0.725c-0.223,0.294-0.704,0.697-0.631,0.862
	c0.648,1.477-0.275,1.614-1.369,1.878c-1.063,0.252-2.413,0.692-2.349,1.978c0.104,2.034-2.671,1.43-2.652,3.197
	c-0.987-0.347-1.964-0.724-2.965-1.029c-0.76-0.233-1.546-0.394-2.33-0.536c-0.191-0.036-0.423,0.183-0.637,0.183
	c-0.278,0-0.559-0.099-0.84-0.156c-0.073,0.511-0.223,1.034-0.16,1.53c0.016,0.107,0.778,0.113,1.194,0.188
	c0.311,0.059,0.715,0.05,0.907,0.24c1.432,1.443,2.958,2.306,5.18,2.008c1.33-0.178,2.771-0.719,3.3-2.017
	C71.968,13.392,72.687,12.494,74.042,12.452z M26.076,46.388c0.389-0.117,1.049-0.149,1.123-0.372
	c0.284-0.859,0.464-1.775,0.521-2.683c0.043-0.685-0.117-1.396-0.274-2.074c-0.047-0.205-0.361-0.42-0.591-0.481
	c-0.145-0.036-0.432,0.169-0.531,0.336c-0.657,1.121-0.639,1.121-1.455,0.264c-0.121-0.127-0.362-0.266-0.506-0.229
	c-2.103,0.54-3.45-0.755-4.926-1.87c-0.469-0.354-1.386-0.589-1.841-0.365c-0.472,0.234-0.95,1.141-0.864,1.664
	c0.215,1.318,0.676,2.613,1.174,3.867c0.512,1.289,1.693,1.547,2.883,0.75c0.274-0.185,0.615-0.321,0.802-0.573
	c0.835-1.145,1.479-0.487,1.872,0.288C24.033,46.027,24.796,46.521,26.076,46.388z M136.822,43.315
	c0.575-1.456-0.318-2.005-1.19-2.083c-1.318-0.121-2.693-0.008-3.996,0.244c-1.123,0.213-2.013,0.826-1.493,2.289
	c0.116,0.325-0.135,0.795-0.256,1.186c-0.083,0.265-0.235,0.505-0.356,0.754c0.401,0.084,0.872,0.338,1.193,0.213
	c0.55-0.219,0.96-0.783,1.509-1c0.814-0.317,1.829-0.814,2.513-0.564c0.542,0.196,1.013,1.412,0.971,2.144
	c-0.043,0.745-0.587,1.69-1.21,2.107c-0.646,0.431-1.664,0.273-2.494,0.476c-0.475,0.115-0.926,0.401-1.335,0.684
	c-0.108,0.076-0.018,0.428-0.018,0.657c0.479-0.045,0.994,0.012,1.428-0.148c1.363-0.502,2.751,0.092,3.026,1.501
	c0.262,1.345,1.008,0.936,1.597,0.458c0.627-0.512,1.426-1.192,1.505-1.875c0.071-0.599-0.76-1.295-1.17-1.96
	c-0.132-0.215-0.272-0.471-0.272-0.705C136.768,46.158,136.802,44.624,136.822,43.315z M108.507,8.705
	c-0.809,0.729-1.4,1.23-1.951,1.769c-0.399,0.39-1.115,0.928-1.036,1.232c0.159,0.616,0.701,1.187,1.198,1.656
	c0.679,0.649,1.449,1.21,2.213,1.763c0.401,0.291,0.862,0.513,1.319,0.717c1.209,0.543,2.513,0.882,3.166,2.271
	c0.395,0.834,1.002,1.619,1.679,2.246c0.269,0.25,1.063,0.178,1.49-0.021c1.332-0.624,0.541-2.11,1.1-3.025
	c0.639-1.048,0.27-1.359-0.741-1.461c-1.25-0.122-2.533-0.104-3.748-0.382c-2.473-0.564-4.401-3.22-4.396-5.79
	C108.799,9.416,108.646,9.154,108.507,8.705z M20.538,121.424c-1.556-0.009-1.383,0.767-1.147,1.526
	c0.071,0.228,0.314,0.402,0.478,0.6c-1.21,0.716-0.485,1.616-0.327,2.523c0.068,0.397-0.345,0.876-0.538,1.318
	c-0.315-0.236-0.694-0.427-0.916-0.73c-0.083-0.115,0.249-0.484,0.314-0.754c0.07-0.288,0.049-0.597,0.067-0.895
	c-0.238-0.002-0.478,0.011-0.717-0.006c-1.448-0.108-2.896-0.247-4.35-0.314c-0.336-0.017-0.705,0.168-1.016,0.34
	c-0.076,0.042-0.002,0.573,0.044,0.579c1.349,0.18,2.281,2.056,3.97,0.976c0.129-0.082,0.67,0.299,0.884,0.568
	c0.339,0.424,0.479,1.031,0.873,1.37c0.147,0.128,0.758-0.304,1.17-0.445c1.467-0.503,1.661-3.227,3.989-2.261
	c0.101,0.039,0.334-0.159,0.471-0.284c0.34-0.318,0.676-0.957,0.982-0.939c1.92,0.109,1.514-1.499,1.834-2.44
	c0.424-1.243-0.804-1.115-1.485-1.399c-0.129-0.058-0.322-0.074-0.376-0.171c-0.535-0.915-0.407-0.271-0.606,0.179
	c-0.328,0.735-0.848,1.387-1.286,2.075c-0.413-0.278-0.819-0.568-1.244-0.826C21.182,121.755,20.737,121.532,20.538,121.424z
	 M130.255,32.856c-0.151-0.006-0.303-0.009-0.453-0.016c0.098-0.081,0.257-0.147,0.284-0.248c0.139-0.512,0.242-1.031,0.359-1.546
	c-0.432,0.013-0.865-0.002-1.292,0.044c-0.325,0.037-0.695,0.292-0.953,0.198c-0.857-0.309-1.69-0.703-2.495-1.128
	c-0.277-0.148-0.445-0.493-0.664-0.749c-0.141,0.354-0.354,0.695-0.412,1.058c-0.17,1.08-0.316,2.162-0.393,3.25
	c-0.029,0.377,0.082,0.844,0.303,1.143c0.552,0.742,1.1,1.554,1.842,2.065c0.76,0.522,1.918,1.18,2.585,0.933
	c0.661-0.245,1.095-1.502,1.32-2.393C130.491,34.651,130.282,33.731,130.255,32.856z M13.841,62.321
	c-0.012,1.561,2.302,3.586,4.063,3.741c0.894,0.078,2.184,0.356,2.631-0.098c1.256-1.271,2.402-0.781,3.689-0.371
	c0.166,0.051,0.625-0.249,0.651-0.428c0.082-0.582,0.026-1.187,0.023-1.781c-0.671,0.057-1.343,0.107-2.016,0.173
	c-0.301,0.026-0.778,0.217-0.873,0.098c-1.092-1.37-2.442-1.15-3.871-0.758c-0.573,0.158-1.188,0.173-1.784,0.251
	c0.1-0.708,0.183-1.419,0.306-2.124c0.029-0.169,0.309-0.343,0.28-0.472c-0.13-0.554-0.183-1.274-0.557-1.573
	c-0.26-0.21-1.313,0.01-1.463,0.306C14.403,60.318,14.125,61.469,13.841,62.321z M139.203,57.589
	c0.416,0.365,0.729,0.802,1.151,0.972c0.808,0.32,1.665,0.562,2.525,0.687c0.388,0.058,0.975-0.12,1.216-0.407
	c0.567-0.675,0.963-1.491,1.468-2.221c0.22-0.321,0.688-0.857,0.787-0.806c1.287,0.66,1.942,0.049,2.284-1.083
	c0.168-0.555,0.133-1.171,0.188-1.758c-0.976-0.007-2.089-0.312-2.898,0.049c-1.089,0.488-1.764,2.165-3.307,0.784
	c-0.111-0.097-0.47-0.124-0.531-0.043C141.147,54.971,140.237,56.204,139.203,57.589z M90.143,11.539
	c0.015,0.061,0.029,0.124,0.044,0.186c0.938-0.125,1.969-0.052,2.777-0.438c0.608-0.293,0.927-1.176,1.376-1.792
	c-0.386-0.232-0.755-0.507-1.162-0.694c-1.061-0.481-2.761-0.67-3.088-1.44c-0.892-2.104-1.664-0.593-2.351-0.114
	c-0.249,0.173-0.129,0.957-0.08,1.457c0.1,1.049,0.252,2.096,0.433,3.135c0.01,0.066,0.43,0.126,0.639,0.085
	C89.209,11.828,89.672,11.672,90.143,11.539z M102.702,19.421c0.202-0.337,0.394-0.565,0.488-0.827
	c0.474-1.326,0.933-2.656,1.372-3.994c0.133-0.398,0.325-1.15,0.243-1.188c-0.955-0.423-2.143-1.229-2.899-0.945
	c-0.775,0.286-1.295,1.61-1.636,2.577c-0.25,0.721-0.042,1.586-1.069,0.537c-0.014-0.01-0.387,0.207-0.408,0.349
	c-0.092,0.552-0.174,1.12-0.123,1.67c0.021,0.214,0.555,0.588,0.592,0.561c1.116-0.883,1.694-0.21,2.29,0.676
	C101.719,19.081,102.155,19.152,102.702,19.421z M14.918,82.465c0.127-0.051,0.252-0.099,0.378-0.146
	c-0.145-0.231-0.292-0.658-0.429-0.655c-0.395,0.011-0.95,0.072-1.146,0.336c-0.896,1.208-1.718,2.475-2.499,3.761
	c-0.139,0.227-0.074,0.85,0.094,0.943c1.834,1.035,3.686,2.053,5.59,2.953c0.447,0.212,1.126,0.038,1.662-0.096
	c0.187-0.049,0.263-0.522,0.388-0.801c-0.503-0.202-1.001-0.419-1.513-0.603c-0.477-0.165-1.324-0.199-1.395-0.458
	C15.58,85.979,15.274,84.216,14.918,82.465z M32.816,41.756c-0.695,0.307-1.449,0.639-2.199,0.978
	c-0.48,0.217-0.955,0.447-1.433,0.671c0.456,0.228,0.894,0.511,1.374,0.669c1.387,0.455,2.753,0.854,2.195,2.837
	c-0.081,0.288,0.322,0.753,0.578,1.076c0.093,0.116,0.447,0.125,0.626,0.051c0.371-0.151,0.696-0.416,1.06-0.593
	c0.511-0.246,1.218-0.306,0.481-1.147c-0.22-0.252-0.77-1.282,0.585-1.079c0.211,0.031,0.731-0.531,0.725-0.81
	c-0.014-0.47-0.21-1.174-0.552-1.346C35.227,42.537,34.088,42.218,32.816,41.756z M9.966,123.626
	c-0.638,0.919-1.111,1.671-1.664,2.363c-0.259,0.327-0.638,0.611-1.022,0.78c-0.41,0.18-1.241,0.134-1.277,0.308
	c-0.102,0.509,0.027,1.104,0.204,1.616c0.233,0.675,0.596,1.304,0.907,1.949c0.111,0.229,0.233,0.451,0.351,0.677
	c0.15-0.153,0.288-0.326,0.457-0.459c1.185-0.946,2.732-1.632,2.463-3.592c-0.021-0.152,0.565-0.331,0.757-0.581
	c0.309-0.402,0.846-1.07,0.715-1.282C11.498,124.821,10.844,124.411,9.966,123.626z M126.478,24.183
	c0.187-0.563,0.4-0.856,0.331-1.053c-0.334-0.96-0.778-1.882-1.105-2.845c-0.104-0.309,0.028-0.694,0.04-1.047
	c0.018-0.499,0.24-1.219-0.006-1.453c-0.566-0.544-1.351-0.873-2.065-1.252c-0.514-0.271-1.055-0.484-1.585-0.725
	c-0.264,0.732-0.972,1.74-0.714,2.146c0.986,1.554,2.276,2.919,3.465,4.346C125.298,22.854,125.783,23.388,126.478,24.183z
	 M46.232,20.119c0.79-0.306,1.235-0.433,1.637-0.643c0.598-0.313,1.178-0.997,1.739-0.969c1.439,0.065,1.022-1.219,1.559-1.769
	c-0.538-0.393-1.06-1.081-1.623-1.118c-1.225-0.078-2.617-0.113-3.659,0.399c-0.63,0.312-0.963,1.674-0.986,2.573
	C44.888,19.101,45.779,19.63,46.232,20.119z M111.512,20.659c-0.132-0.073-0.264-0.147-0.394-0.224c0.003-0.233,0.077-0.5-0.005-0.7
	c-0.234-0.583-0.398-1.373-0.854-1.63c-0.338-0.193-1.145,0.218-1.626,0.539c-0.606,0.4-1.15,0.932-1.615,1.494
	c-0.604,0.729-1.542,1.687-0.211,2.391c0.957,0.508,2.308,0.829,3.282,0.554C110.742,22.895,111.049,21.51,111.512,20.659z
	 M29.041,136.68c-0.301,0.151-0.398,0.179-0.463,0.238c-1.289,1.192-2.64,2.334-3.813,3.629c-0.262,0.292,0.005,1.184,0.235,1.711
	c0.075,0.168,0.901,0.217,1.229,0.037c1.308-0.709,2.576-1.5,3.815-2.328c0.347-0.234,0.843-0.878,0.756-1.017
	C30.287,138.129,29.623,137.402,29.041,136.68z M135.9,64.055c0.501-0.365,0.853-0.577,1.147-0.85
	c0.45-0.419,0.86-0.878,1.288-1.321c-0.814-0.362-1.618-0.921-2.45-0.976c-0.286-0.016-0.677,1.234-0.964,1.928
	c-0.083,0.196,0.033,0.677,0.029,0.677c-2.298,0.193-1.363,1.974-1.36,3.058c0.002,1.527,1.992,0.091,2.456,1.295
	c0.029,0.081,0.939-0.016,0.954-0.114c0.078-0.43,0.062-0.92-0.079-1.338C136.686,65.701,136.332,65.028,135.9,64.055z
	 M32.077,150.404c0.464-0.48,0.946-0.781,1.1-1.199c0.122-0.343-0.021-1.046-0.28-1.202c-0.808-0.487-1.155-0.728-1.167-1.979
	c-0.01-1.105-0.678-3.04-2.622-3.52c-1.103-0.271-1.45,0.273-1.22,0.952c0.326,0.952,0.027,2.465,1.813,2.575
	c0.287,0.018,0.46,1.134,0.77,1.699C30.977,148.651,31.551,149.536,32.077,150.404z M145.683,59.877
	c0.169,1.605,0.095,2.91,1.938,2.596c0.206-0.035,0.471,0.067,0.66,0.184c1.311,0.794,2.285,0.271,3.095-0.784
	c0.337-0.438-0.664-2.263-1.222-2.295c-1.131-0.068-2.266-0.193-3.398-0.179C146.356,59.404,145.961,59.746,145.683,59.877z
	 M21.123,116.04c0.155-0.063,0.312-0.125,0.468-0.188c-0.3-0.66-0.599-1.316-0.899-1.976c-0.554,0.36-1.414,0.606-1.604,1.106
	c-0.602,1.574,0.18,3.362,1.651,4.304c0.138,0.088,0.342,0.072,0.516,0.104c-0.174,0.019-0.35,0.063-0.52,0.052
	c-1.333-0.08-0.223,0.848-0.506,1.195c0.301,0.188,0.646,0.576,0.893,0.523c0.845-0.174,1.66-0.493,2.472-0.795
	c0.134-0.048,0.31-0.372,0.274-0.413c-0.138-0.165-0.334-0.313-0.537-0.386c-0.341-0.119-0.932-0.077-1.019-0.278
	C21.846,118.238,21.507,117.13,21.123,116.04z M130.789,54.859c0.022,0.212-0.006,0.447,0.076,0.634
	c0.4,0.898,0.651,1.968,1.319,2.601c0.326,0.309,0.399,1.876,1.749,0.856c1.41-1.068,0.732-2.284,0.691-3.504
	c-0.05-1.521-1.144-1.234-2.084-1.249c-0.188-0.002-0.408-0.004-0.554-0.096C130.987,53.446,130.782,53.938,130.789,54.859z
	 M143.16,48.631c0.187,0.937,0.266,1.633,0.491,2.28c0.073,0.212,0.521,0.379,0.807,0.396c0.16,0.006,0.519-0.459,0.489-0.5
	c-0.937-1.287,0.135-1.705,0.937-2.288c0.375-0.27,0.769-0.636,0.933-1.046c0.342-0.849,0.532-1.755,0.786-2.637
	c-0.702,0.117-1.4,0.282-2.106,0.335c-1.33,0.093-1.976,1.027-1.481,2.192c0.04,0.094-0.118,0.289-0.212,0.42
	C143.563,48.112,143.313,48.429,143.16,48.631z M20.955,143.072c-0.164,0.541-0.443,1.015-0.414,1.467
	c0.047,0.699,0.304,1.386,0.472,2.076c0.722-0.409,2.144,0.312,2.108-1.341c-0.015-0.639,0.301-1.296,0.234-1.921
	c-0.124-1.184-0.262-2.479-1.799-2.737c-0.297-0.053-0.953,0.304-0.95,0.462C20.618,141.739,20.82,142.397,20.955,143.072z
	 M123.396,27.087c-0.129-0.663-0.063-1.423-1.096-0.731c-0.284,0.191-0.771,0.071-1.155,0.14c-0.296,0.051-0.799,0.121-0.836,0.271
	c-0.393,1.572-1.17,3.127-0.506,4.795c0.084,0.211,0.484,0.351,0.763,0.419c0.212,0.051,0.661-0.042,0.672-0.12
	c0.166-1.117,0.342-2.244,0.363-3.368c0.006-0.355-0.865-0.831,0.264-0.84c0.015,0,0.028-0.265,0.042-0.409
	c-0.036,0-0.073,0.001-0.109,0.003c0.169,0.05,0.374,0.053,0.502,0.153c0.256,0.207,0.471,0.466,0.702,0.701
	C123.135,27.758,123.268,27.418,123.396,27.087z M119.92,42.853c0.294,0.599,0.392,0.908,0.574,1.156
	c0.714,0.969,2.806,1.153,4.002,0.32c0.313-0.218,0.496-0.618,0.741-0.936c-0.351-0.262-0.667-0.64-1.062-0.764
	c-0.915-0.285-1.867-0.563-2.813-0.605C120.914,42.005,120.44,42.536,119.92,42.853z M2.791,85.8
	c-0.009,1.022,0.944,1.652,1.764,0.979c1.021-0.837,1.808-1.97,2.641-3.016c0.097-0.119-0.087-0.678-0.263-0.755
	C5.399,82.34,2.809,84.108,2.791,85.8z M69.953,21.689c0.531-0.702,1.212-1.588,1.869-2.495c0.098-0.134,0.109-0.356,0.092-0.533
	c-0.013-0.105-0.133-0.236-0.239-0.296c-0.263-0.146-4.501,0.627-4.649,0.873c-0.114,0.186-0.134,0.447-0.143,0.674
	C66.818,21.844,68.374,21.381,69.953,21.689z M32.344,32.796c-0.135,0.106-0.271,0.215-0.406,0.319
	c0.665,0.693,1.329,1.39,1.993,2.085c0.564-0.566,1.696-1.314,1.583-1.665c-0.274-0.851-0.011-2.339-1.65-2.333
	C32.781,31.205,32.098,31.535,32.344,32.796z M140.575,72.006c-1.053,0.654-2.005,1.249-2.958,1.84
	c0.749,0.503,1.442,1.301,2.254,1.443c1.344,0.232,2.811-1.009,2.578-2.062C142.353,72.791,141.43,72.536,140.575,72.006z
	 M90.575,16.891c0.635,0.555,1.406,1.226,2.176,1.898c0.606-0.772,1.293-1.503,1.744-2.356c0.083-0.152-0.804-1.168-1.226-1.157
	C92.371,15.301,91.087,14.912,90.575,16.891z M34.191,21.188c1.111,0.857,1.886,1.456,2.659,2.055c0.468-0.752,1.29-1.502,1.3-2.256
	c0.006-0.648-0.92-1.307-1.435-1.96C36.01,19.633,35.301,20.238,34.191,21.188z M19.64,54.877c0.065,0.171,0.133,0.344,0.2,0.515
	c0.935-0.439,1.883-0.859,2.802-1.335c0.267-0.137,0.446-0.438,0.664-0.666c-0.507,0.015-1.197-0.172-1.489,0.085
	c-1.351,1.192-2.523,1.063-3.864-0.036c-0.303-0.246-1.156,0.014-1.66,0.245c-0.196,0.09-0.313,0.96-0.146,1.102
	c0.377,0.317,0.958,0.555,1.449,0.543C18.28,55.314,18.958,55.04,19.64,54.877z M21.755,135.683
	c0.108,0.391,0.145,0.953,0.418,1.354c0.156,0.234,0.842,0.418,1.039,0.276c1.538-1.094,1.597-2.816,0.178-3.816
	c-0.347-0.244-0.763-0.399-1.148-0.595c-0.085,0.438-0.179,0.876-0.258,1.316C21.906,134.675,21.84,135.133,21.755,135.683z
	 M114.939,30.392c-0.489,0.727-1.092,1.345-1.347,2.082c-0.181,0.519,0.025,1.226,0.214,1.797c0.13,0.397,0.523,0.712,0.799,1.065
	c0.281-0.287,0.856-0.677,0.796-0.844c-0.533-1.484,0.219-2.165,1.469-2.623c0.06-0.022,0.092-0.354,0.04-0.387
	C116.397,31.173,115.864,30.896,114.939,30.392z M13.188,135.269c0.488-0.437,1.283-0.964,1.216-1.115
	c-0.541-1.208-1.215-2.358-1.926-3.479c-0.11-0.174-0.614-0.102-0.937-0.144c-0.004,0.284-0.067,0.582,0.002,0.85
	c0.282,1.069,0.581,2.141,0.937,3.189C12.563,134.818,12.894,134.986,13.188,135.269z M74.781,3.551
	c0.047,0.123,0.182,0.479,0.319,0.834c1.178-0.93,1.028,0.627,1.549,0.785c0.627,0.188,1.41,0.148,2.031-0.065
	c0.246-0.083,0.239-0.897,0.346-1.381c-0.89,0.059-1.381-2.061-2.607-0.469c-0.1,0.131-0.729-0.112-1.103-0.219
	c-0.188-0.054-0.35-0.198-0.523-0.301C74.79,2.914,74.787,3.091,74.781,3.551z M47.235,27.235c0.322-0.981,0.553-1.505,0.653-2.05
	c0.088-0.485,0.088-1.006,0.018-1.493c-0.048-0.34-0.214-0.854-0.447-0.928c-0.515-0.166-1.12-0.19-1.651-0.088
	c-0.188,0.035-0.435,0.653-0.366,0.935c0.21,0.836,0.541,1.647,0.869,2.45C46.411,26.312,46.651,26.504,47.235,27.235z
	 M80.724,7.647c0.039,0.049,0.285,0.686,0.68,0.796c0.952,0.271,2.735-0.95,2.658-1.795c-0.038-0.409-0.698-1.14-0.938-1.086
	C82.138,5.774,80.662,5.446,80.724,7.647z M15.756,138.035c-0.602-0.464-1.008-0.964-1.516-1.101
	c-0.289-0.078-1.016,0.394-1.066,0.694c-0.172,1.027-0.146,2.09-0.149,3.139c-0.002,0.09,0.46,0.282,0.482,0.255
	C14.215,140.117,14.897,139.191,15.756,138.035z M145.246,62.656c-1,0.462-1.961,0.815-2.799,1.354
	c-0.238,0.154-0.312,0.966-0.123,1.271c0.233,0.375,0.797,0.635,1.261,0.73c0.17,0.038,0.45-0.556,0.719-0.823
	c0.307-0.307,0.728-0.523,0.966-0.87c0.205-0.305,0.272-0.729,0.304-1.106C145.587,63.04,145.367,62.848,145.246,62.656z
	 M16.366,72.733c0.491-0.686,1.025-1.146,1.178-1.707c0.269-0.99-0.457-1.571-1.325-1.515c-0.815,0.055-1.603,0.515-2.401,0.795
	C14.575,71.027,15.332,71.749,16.366,72.733z M29.777,28.995c1.031-1.038,1.711-1.717,2.387-2.399
	c-0.412-0.371-1.117-1.112-1.189-1.054c-0.744,0.582-1.422,1.263-2.016,2C28.869,27.65,29.305,28.178,29.777,28.995z M98.297,25.705
	c0.191,0.305,0.318,0.647,0.562,0.85c0.155,0.126,0.671,0.131,0.705,0.053c0.471-1.068,0.917-2.154,1.277-3.262
	c0.059-0.176-0.285-0.657-0.508-0.704c-0.249-0.055-0.717,0.146-0.835,0.368C99.051,23.859,98.706,24.765,98.297,25.705z
	 M25.274,40.021c1.229,0.029,2.073-0.21,1.239-1.657c-0.112-0.196-0.105-0.455-0.215-0.648c-0.285-0.511-0.607-1.005-0.916-1.501
	c-0.303,1.019-0.656,2.031-0.865,3.068C24.48,39.48,25.027,39.79,25.274,40.021z M17.1,51.625c-0.305-2.061-0.32-2.128-1.599-1.821
	c-0.358,0.085-0.854,0.721-0.824,1.068c0.074,0.944,0.554,1.799,1.709,1.545C16.771,52.332,17.035,51.705,17.1,51.625z
	 M125.573,169.966c-1.096-0.427-2.203-0.825-3.282-1.285c-4.09-1.737-4.978-5.562-4.717-9.878c0.025-0.425,0.138-0.844,0.199-1.263
	c0.175-1.204,0.682-1.697,1.719-0.704c0.744,0.712,1.241,0.572,1.861-0.177c0.323-0.395,0.989-0.491,1.369-0.86
	c0.465-0.446,0.789-1.036,1.177-1.564c-0.462,0.027-0.923,0.058-1.385,0.083c-0.268,0.019-0.576,0.117-0.8,0.024
	c-1.412-0.586-2.178-2.497-1.452-3.826c0.998-1.825,2.104-3.593,3.175-5.378c0.094-0.153,0.268-0.359,0.413-0.365
	c2.501-0.103,1.17-2.058,1.556-3.167c0.485-1.398,0.658-2.983,1.448-4.17c0.471-0.704,1.899-0.738,2.843-1.186
	c0.439-0.209,0.746-0.69,1.112-1.048c-0.472-0.035-0.96-0.16-1.413-0.086c-1.498,0.247-1.747-0.018-1.32-1.412
	c1.614-5.294,3.236-10.583,4.774-15.897c0.26-0.895,0.567-1.251,1.521-1.231c0.352,0.006,0.732-0.538,1.059-0.87
	c0.103-0.104,0.02-0.436,0.12-0.493c2.916-1.696,0.096-2.901-0.342-4.321c-0.205-0.663-0.436-1.424-0.297-2.063
	c0.245-1.103,0.752-2.152,1.199-3.202c0.035-0.08,0.47,0.015,0.717,0.014c0.276-0.002,0.573,0.024,0.824-0.061
	c0.111-0.04,0.119-0.339,0.198-0.509c0.224-0.467,0.463-0.929,0.695-1.393c-0.879-0.016-1.759-0.056-2.636-0.027
	c-0.176,0.004-0.345,0.271-0.518,0.418c-0.041-0.269-0.135-0.537-0.12-0.801c0.178-3.502,0.359-7.003,0.579-10.502
	c0.02-0.297,0.437-0.557,0.492-0.862c0.104-0.604,0.324-1.371,0.062-1.813c-0.48-0.807-1.487-4.792-0.864-5.33
	c1.287-1.108,2.787-1.973,4.206-2.928c0.23-0.155,0.497-0.256,0.746-0.384c0.654-0.335,1.539-1.106,1.909-0.913
	c0.717,0.378,1.173,1.28,1.658,2.014c0.083,0.126-0.194,0.519-0.354,0.758c-0.294,0.439-0.975,0.989-0.871,1.256
	c0.369,0.952,0.49,2.323,2.11,2.098c0.471-0.066,0.949-0.121,1.421-0.114c0.933,0.015,2.064-0.155,1.453,1.453
	c-0.091,0.239,0.164,0.677,0.369,0.938c0.968,1.239,1.116,2.497,0.538,3.992c-0.412,1.068-0.565,2.271-0.589,3.419
	c-0.006,0.321,0.819,0.746,1.333,0.96c0.319,0.138,0.767-0.032,1.159-0.065c-0.041-0.388,0.033-0.836-0.137-1.155
	c-0.836-1.569,0.671-1.964,1.398-2.107c0.901-0.178,2.245,0.055,2.859,0.654c0.999,0.975,1.549,0.804,2.221-0.12
	c0.552-0.758,1.161-1.51,1.509-2.358c0.163-0.391-0.205-1.019-0.392-1.521c-0.141-0.384-0.47-0.716-0.545-1.104
	c-0.263-1.377-0.37-2.785-0.723-4.138c-0.087-0.336-0.882-0.489-1.35-0.728c-0.011,0.354-0.024,0.71-0.033,1.066
	c-0.004,0.195,0.078,0.503-0.016,0.572c-1.244,0.907-0.788,1.327,0.394,1.737c0.383,0.133,0.918,0.764,0.854,1.055
	c-0.134,0.619-0.475,1.374-0.978,1.698c-1.239,0.793-3.542-0.039-4.281-1.392c-1.084-1.979-0.438-3.939,1.429-5.012
	c0.495-0.285,0.609-1.219,0.897-1.855c-0.463,0.029-0.945-0.021-1.381,0.102c-2.369,0.661-3.192,0.037-3.86-2.317
	c-0.323-1.131-0.083-1.697,0.718-2.312c0.168-0.132,0.313-0.373,0.349-0.582c0.439-2.542,2.299-3.818,4.379-4.916
	c0.225-0.118,0.512-0.353,0.531-0.555c0.016-0.178-0.271-0.441-0.483-0.571c-1.156-0.707-1.554-1.827-0.878-2.859
	c0.786-1.2,1.386-2.616,3.307-2.884c1.152-0.161,0.868,0.571,0.944,0.842c1.376,5.035,2.294,10.131,2.196,15.387
	c-0.036,1.921,0.284,3.853,0.441,5.779c-0.05,3.413-0.098,6.829-0.146,10.241c-0.45,3.752-0.904,7.505-1.35,11.258
	c-0.099,0.821-0.113,1.673-1.394,1.198c-0.179-0.066-0.719,0.321-0.767,0.562c-0.051,0.256,0.29,0.853,0.45,0.848
	c1.641-0.029,1.101,1.021,0.949,1.832c-0.197,1.071-0.461,2.127-0.689,3.189c-0.137,0.626-0.15,1.328-1.024,0.425
	c-0.258-0.267-0.955-0.11-1.451-0.145c0.174,0.299,0.353,0.597,0.52,0.899c0.112,0.204,0.241,0.407,0.314,0.628
	c0.584,1.779,0.55,3.518-0.088,5.315c-2.116,5.955-3.147,12.344-7.117,17.559c-0.052,0.071-0.141,0.197-0.117,0.232
	c0.963,1.374-0.64,2.156-0.785,3.28c-0.031,0.252-0.577,0.683-0.609,0.659c-0.867-0.63-1.741-1.265-2.482-2.025
	c-0.103-0.105,0.494-0.876,0.766-1.34c0.162-0.281,0.338-0.558,0.477-0.853c0.632-1.325-0.604-1.992-0.988-2.977
	c-0.591-1.517-1.584-1.685-2.808-1.313c-1.221,0.373-1.735,2.018-1.527,3.292c0.149,0.92-0.132,1.909-0.257,2.863
	c-0.073,0.56-0.471,1.476-0.287,1.602c1.498,1.022,3.045,2.014,4.694,2.768c0.991,0.454,1.431,0.805,0.834,1.833
	c-1.097,1.884-2.389,3.692-3.198,5.693c-0.78,1.927-2.564,2.241-4.001,2.621c-1.262,0.333-1.42,0.762-1.35,1.728
	c0.044,0.59,0.314,1.206,0.199,1.755c-0.132,0.632-0.545,1.22-0.908,1.779c-0.063,0.096-0.564,0.056-0.729-0.083
	c-1.292-1.079-2.596-1.923-4.458-1.58c-1.294,0.236-1.32,0.091-1.477,1.216c-0.008,0.068-0.089,0.155-0.158,0.184
	c-0.682,0.283-1.366,0.556-2.051,0.834c-0.029-0.448-0.006-0.906-0.103-1.337c-0.062-0.289-0.381-0.782-0.441-0.761
	c-0.482,0.158-0.928,0.424-1.387,0.653c0.149,0.196,0.28,0.413,0.451,0.586c0.435,0.443,0.75,0.814-0.053,1.253
	c-0.174,0.097-0.208,0.906-0.13,0.938c2.207,0.851-0.086,0.827-0.238,1.182c-0.183,0.42-0.448,0.805-0.677,1.206
	c0.448,0.095,0.915,0.321,1.336,0.256c0.537-0.086,1.188-0.276,1.519-0.657c0.664-0.766,1.112-0.577,1.646,0.061
	c0.614,0.732,1.281,0.799,1.881,0.015c0.348-0.452,0.501-1.06,0.883-1.473c0.48-0.519,1.281-1.391,1.631-1.262
	c0.952,0.343,1.059,2.219,0.154,2.764c-1.802,1.085-3.723,1.977-5.595,2.949C127.102,169.99,126.338,169.977,125.573,169.966z
	 M154.745,107.439c-1.012-0.542,0.076-2.819-2.208-1.846c-0.138,0.057-0.406-0.247-0.635-0.313c-0.214-0.059-0.598-0.113-0.66-0.016
	c-0.614,0.965-1.146,1.981-1.762,2.944c-0.909,1.43,0.175,2.498,0.545,3.731c0.369,1.22,0.939,1.548,2.049,0.973
	c0.418-0.218,0.805-0.65,1.226-0.679c1.063-0.067,1.152-0.8,1.001-1.466c-0.094-0.416-0.639-0.775-1.053-1.063
	c-0.443-0.308-1.056-0.41-1.424-0.772c-0.193-0.189-0.021-0.747-0.012-1.138c0.107,0.139,0.192,0.362,0.33,0.399
	c0.509,0.141,1.055,0.354,1.544,0.276C154.015,108.421,154.271,107.924,154.745,107.439z M149.986,120.995
	c-1.041,0.294-2.35,0.391-2.288,2.143c0.008,0.262-0.295,0.751-0.489,0.769c-1.47,0.137-1.271,0.541-0.929,1.858
	c0.284,1.096,0.905,1.455,1.486,1.483c0.72,0.035,1.526-0.462,2.185-0.893c0.425-0.276,0.562-1.005,0.989-1.255
	c0.963-0.559,1.771-0.95,0.098-1.629c-0.104-0.042-0.16-0.643-0.03-0.767C152.627,121.157,151.189,121.215,149.986,120.995z
	 M138.185,117.384c0.294,0.373,0.677,0.853,1.057,1.335c0.493-0.497,1.026-0.958,1.463-1.499c0.413-0.508,0.651-1.165,1.096-1.635
	c0.452-0.479,0.746-3.247,0.21-3.334c-2.119-0.34-1.415-1.773-1.12-2.856c0.343-1.254-0.521-1.696-1.256-1.973
	c-0.395-0.15-1.435,0.373-1.568,0.787c-0.179,0.555,0.138,1.348,0.43,1.946c0.316,0.649,1.342,1.391,1.196,1.756
	c-0.591,1.484,1.11,3.614-1.271,4.574C138.293,116.536,138.3,116.912,138.185,117.384z M136.901,152.638
	c-0.159-0.24-0.626-0.636-0.667-1.071c-0.133-1.419-0.913-1.533-2.07-1.285c-1.823,0.385-2.403,1.63-2.425,3.285
	c-0.004,0.431,0.031,1.2,0.17,1.23c0.494,0.104,1.333,0.146,1.522-0.134c1.151-1.692,2.142-1.249,3.336-0.056
	c0.28,0.28,1.248,0.314,1.537,0.057c0.456-0.404,0.607-1.15,0.887-1.751c-0.529-0.102-1.059-0.207-1.59-0.302
	C137.51,152.594,137.413,152.617,136.901,152.638z M125.993,145.429c-0.507,0.339-1.252,0.74-1.871,1.278
	c-0.458,0.401-1.129,1.07-1.035,1.462c0.165,0.69,0.842,1.262,1.305,1.881c0.334-0.473,0.601-1.019,1.018-1.401
	c0.475-0.431,1.059-0.768,1.645-1.045c0.407-0.195,0.974-0.111,1.324-0.355c0.206-0.143,0.249-0.967,0.159-1.004
	C127.819,145.938,127.053,145.748,125.993,145.429z M128.879,154.669c-0.248-0.013-0.495-0.024-0.746-0.034
	c-0.494,0.808-1.314,1.588-1.388,2.432c-0.066,0.757,0.691,1.582,1.086,2.38c0.187-0.232,0.413-0.441,0.551-0.699
	c0.249-0.466,0.409-0.983,0.678-1.438c0.211-0.357,0.812-0.727,0.748-0.962C129.643,155.751,129.206,155.225,128.879,154.669z
	 M145.723,100.727c-0.957-0.769-1.48-1.537-1.96-1.51c-1.515,0.085-1.188,1.56-1.424,2.492c-0.091,0.358,0.552,0.9,0.857,1.361
	C143.912,102.406,144.627,101.744,145.723,100.727z M134.535,122.49c0.807,0.622,1.555,1.37,1.689,1.274
	c0.612-0.438,1.135-1.071,1.487-1.74c0.073-0.136-0.865-1.111-1.092-1.029C135.962,121.23,135.43,121.809,134.535,122.49z"/>
</svg>
