<?xml version="1.0" encoding="utf-8"?>
<!-- Generator: Adobe Illustrator 16.2.0, SVG Export Plug-In . SVG Version: 6.00 Build 0)  -->
<!DOCTYPE svg PUBLIC "-//W3C//DTD SVG 1.1//EN" "http://www.w3.org/Graphics/SVG/1.1/DTD/svg11.dtd">
<svg version="1.1" id="Layer_1" xmlns="http://www.w3.org/2000/svg" xmlns:xlink="http://www.w3.org/1999/xlink" x="0px" y="0px"
	 width="550px" height="620px" viewBox="0 0 550 620" enable-background="new 0 0 550 620" xml:space="preserve">
<g>
	<linearGradient id="SVGID_1_" gradientUnits="userSpaceOnUse" x1="0" y1="361.8516" x2="503.1719" y2="361.8516">
		<stop  offset="0" style="stop-color:#F4343A"/>
		<stop  offset="1" style="stop-color:#1767AB"/>
	</linearGradient>
	<path fill="url(#SVGID_1_)" d="M65.563,332.515c23.937,25.47,45.057,52.556,72.3,74.546
		c53.751,43.378,114.779,85.86,184.206,97.609c34.371,5.816,67.643,6.639,102.33,3.996c17.671-1.346,35.283-3.121,52.87-5.322
		c21.54-2.69,30.558-14.257,23.584-19.906c-5.144-4.163-34.439,4.15-56.729-2.129c-13.631-3.839-27.881-2.332-41.993-3.069
		c-30.766-1.6-48.842-7.645-78.337-16.602c-65.154-19.788-114.94-62.593-167.331-103.835
		c-52.612-41.42-98.149-91.799-147.983-136.485l-0.822-0.748c-0.021-0.018-0.033-0.027-0.033-0.027
		c-2.563-2.337-5.102-4.643-7.624-6.939v54.446c3.261,3.354,6.313,6.473,6.313,6.473C25.944,293.782,46.691,312.43,65.563,332.515z"
		/>
	<linearGradient id="SVGID_2_" gradientUnits="userSpaceOnUse" x1="0" y1="527.8574" x2="474.1924" y2="527.8574">
		<stop  offset="0" style="stop-color:#F4343A"/>
		<stop  offset="1" style="stop-color:#1767AB"/>
	</linearGradient>
	<path fill="url(#SVGID_2_)" d="M402.779,605.916c-37.232-2.91-102.695-22.352-138.319-32.983
		c-69.192-20.659-129.446-51.241-192.479-86.528c-24.621-13.79-46.97-31.362-69.336-48.614c0,0-1.038-0.815-2.646-2.075v48.506
		c0.452,0.34,0.902,0.684,1.355,1.023v0.001c38.933,28.709,78.758,55.71,124.235,74.173
		c60.231,24.458,107.617,40.312,171.872,51.438c38.237,6.621,78.862,9.582,109.633,9.093c14.233-0.223,69.015-3.016,67.045-10.863
		C472.153,601.17,440.005,608.825,402.779,605.916z"/>
	<linearGradient id="SVGID_3_" gradientUnits="userSpaceOnUse" x1="0" y1="252.7124" x2="517.8115" y2="252.7124">
		<stop  offset="0" style="stop-color:#F4343A"/>
		<stop  offset="1" style="stop-color:#1767AB"/>
	</linearGradient>
	<path fill="url(#SVGID_3_)" d="M410.022,422.496c-36.697-9.896-58.25-23.945-92.507-40.668
		c-32.366-15.798-56.055-33.808-80.714-60.371c-24.124-25.992-42.334-61.563-58.831-92.816
		c-16.65-31.539-30.632-63.328-50.762-93.021c-10.526-15.53-32.352-24.343-48.425-32.883c-16.992-9.034-34.701-17.184-50.998-27.454
		c-5.52-3.475-10.962-7.186-16.367-11.61C7.535,60.319,3.72,56.752,0,53.03v38.733c3.361,3.641,6.787,7.175,10.309,10.607
		c12.705,11.875,26.713,22.818,42.725,33.563c15.573,10.453,34.213,20.081,47.261,33.74c12.862,13.464,21.671,32.668,31.482,48.399
		c10.17,16.306,22.121,31.157,33.214,46.823c6.299,8.889,40.371,46.272,14.446,43.366c1.269,0.036-2.024-1.188-0.367-0.035
		c-29.444-20.563-52.451-57.508-73.883-85.909c-12.049-15.972-24.842-32.001-39.964-45.208c-14.7-12.841-31.48-23.031-46.116-35.955
		c-3.228-2.852-6.327-5.994-9.344-9.064c0.069,0.069,0.14,0.142,0.21,0.21c-3.456-3.688-6.769-7.515-9.973-11.446v53.874
		c2.225,4.372,4.693,8.598,7.881,12.431l0.549,0.677c2.226,2.344,4.752,4.69,7.64,6.443c27.966,16.966,53.039,44.193,75.048,68.088
		c22.846,24.804,51.11,45.506,76.663,67.511c51.46,44.322,100.147,92.964,167.721,111.061c32.938,8.823,63.469,10.675,97.288,11.258
		c20.406,0.352,90.792,2.005,84.644-16.253C513.663,424.757,451.022,433.555,410.022,422.496z"/>
	<linearGradient id="SVGID_4_" gradientUnits="userSpaceOnUse" x1="0" y1="443.9512" x2="516.2275" y2="443.9512">
		<stop  offset="0" style="stop-color:#F4343A"/>
		<stop  offset="1" style="stop-color:#1767AB"/>
	</linearGradient>
	<path fill="url(#SVGID_4_)" d="M470.885,532.09c-17.18,0.457-93.557,4.662-157.464-9.783
		c-35.828-8.104-67.094-21.021-99.887-37.737c-33.892-17.278-64.877-37.93-97.207-57.789c-26.42-16.23-44.486-47.428-63.561-71.04
		c-13.905-17.215-29.703-30.744-46.026-45.571c-0.009-0.009-2.784-2.648-6.74-6.532v47.604c1,0.931,1.998,1.859,3.007,2.797
		c0,0,16.676,15.343,24.254,22.299c10.721,9.849,21.756,19.251,32.747,28.788c10.748,9.321,4.402,16.228-6.555,10.999
		c-10.957-5.231-33.546-23.968-49.063-38.22c0.015,0.015-0.864-0.802-0.864-0.802c-1.197-1.119-2.361-2.213-3.526-3.31v36.795
		c0.881,0.663,1.745,1.336,2.632,1.996l0.496,0.374c33.577,24.564,69.637,46.266,105.824,65.929
		C171.813,513.042,237.175,547.11,307,564.613c34.067,8.536,63.92,17.234,99.558,19.3c45.85,2.661,91.647-10.414,89.827-18.032
		c-2.023-8.478-49.534,4.176-87.801,1.647c-38.266-2.525-80.669-16.279-74.976-18.947c5.695-2.667,57.176,1.788,88.867,0.941
		c35.113-0.938,98.928-9.486,93.417-14.774C508.688,527.84,485.591,531.699,470.885,532.09z"/>
	<linearGradient id="SVGID_5_" gradientUnits="userSpaceOnUse" x1="0" y1="197.0317" x2="550" y2="197.0317">
		<stop  offset="0" style="stop-color:#F4343A"/>
		<stop  offset="1" style="stop-color:#1767AB"/>
	</linearGradient>
	<path fill="url(#SVGID_5_)" d="M356.92,320.859c-43.986-29.703-50.773-53.82-74.496-76.874
		c-23.771-23.104-47.343-52.284-64.69-80.5c-17.7-28.794-32.557-56.435-61.564-75.403C124.988,67.693,90.196,53.39,55.894,39.274
		C39.77,32.639,25.454,23.302,12.571,12.438C8.19,8.497,4.004,4.339,0,0v32.053c3.776,3.826,7.674,7.529,11.695,11.081
		c11.758,9.848,24.483,18.753,38.211,25.597c32.685,16.306,66.802,25.958,93.592,52.298c26.601,26.151,43.738,63.453,59.312,96.813
		c30.044,64.349,86.115,124.756,152.89,151.579c35.215,14.149,62.935,20.209,100.355,24.276
		c16.732,1.819,91.465-2.854,93.901-20.019C552.386,356.507,453.238,385.907,356.92,320.859z"/>
</g>
</svg>
