<?xml version="1.0" encoding="utf-8"?>
<!-- Generator: Adobe Illustrator 16.2.0, SVG Export Plug-In . SVG Version: 6.00 Build 0)  -->
<!DOCTYPE svg PUBLIC "-//W3C//DTD SVG 1.1//EN" "http://www.w3.org/Graphics/SVG/1.1/DTD/svg11.dtd">
<svg version="1.1" id="Layer_1" xmlns="http://www.w3.org/2000/svg" xmlns:xlink="http://www.w3.org/1999/xlink" x="0px" y="0px"
	 width="550px" height="863px" viewBox="0 0 550 863" enable-background="new 0 0 550 863" xml:space="preserve">
<linearGradient id="SVGID_1_" gradientUnits="userSpaceOnUse" x1="0" y1="431.5" x2="550" y2="431.5">
	<stop  offset="0" style="stop-color:#F4343A"/>
	<stop  offset="1" style="stop-color:#1767AB"/>
</linearGradient>
<path fill="url(#SVGID_1_)" d="M548.934,336.339c-3.372,5.775-6.73,11.52-9.156,17.813c-4.295,11.143-7.32,22.732-11.578,33.843
	c-11.085,28.931-12.865,59.481-16.635,89.699c-1.31,10.5-8.727,41.447-12.531,51.52c-8.014,21.199-16.389,43.153-25.744,55.666
	c-9.359,12.514-18.86,25.184-21.642,33.084c-3.888,11.029-1.935,26.296-6.883,32.436c-4.946,6.141-5.196-12.068-8.474-17.666
	c-3.274-5.598,3.498-22.822,6.619-28.324c4.805-8.485,14.965-33.182,16.461-36.56c4.387-9.904,14.267-20.019,25.604-53.063
	c11.34-33.046,15.521-50.079,20.005-75.979c2.709-15.648,4.791-31.438,9.17-46.734c2.444-8.537,5.593-16.882,8.633-25.236
	c3.828-10.506,7.288-21.146,12.143-31.276c3.428-7.155,8.65-13.017,13.031-19.479c0.722-1.064,1.374-2.177,2.043-3.275V200.36
	c-0.14-0.085-0.27-0.174-0.43-0.25c-0.71-0.105-0.78,1.329-1.734,0.733c-1.617-0.66-0.795-2.13-0.916-3.159
	c-1.419-2.247-2.865-4.123-5.848-2.381c-1.446-5.291-9.242-6.255-7.411-12.72c-2.023-0.763-3.812,0.772-5.019-1.656
	c0-0.835,0-2.146,0-3.593c-1.166,0.122-2.1,0.219-3.041,0.317c-1.676-0.989-2.684-2.462-3.332-4.344
	c-1.717-0.298-3.396-0.591-4.938-0.859c-0.402-1.231-0.716-2.189-1.078-3.304c-1.327,0.092-2.49,0.172-3.631,0.25
	c-1.849-2.324-3.664-4.596-5.508-6.912c-0.979,0.058-1.998,0.121-2.913,0.176c-6.53-8.33-8.177-9.565-13.84-10.453
	c-1.505-1.116-0.049-3.19-1.505-4.45c-0.597-0.041-1.294-0.087-1.35-0.091c-4.447-3.271-8.607-5.536-13.804-5.804
	c0.031-2.321-0.255-4.865-3.793-5.039c-1.171-2.639-5.163-1.823-5.464-5.234c-1.399,0.491-2.03,1.913-3.4,1.495
	c0.148-6.005-1.672-8.499-7.728-9.446c-6.267-0.979-11.079-4.916-16.092-8.018c-5.196-3.217-10.487-6.244-15.917-8.943
	c-3.884-1.93-7.496-3.783-9.469-7.854c-0.195-0.4-0.578-0.708-0.907-1.101c-0.624,0.347-1.151,0.638-1.594,0.885
	c-1.796-1.03-2.092-3.596-4.305-3.794c-3.507-0.315-6.612-1.221-8.082-4.567c-2.703-0.094-4.331-1.161-5.417-3.319
	c-1.842-3.667-5.484-5.358-9.028-6.021c-3.191-0.597-4.95-2.001-6.239-4.62c-0.136-0.275-0.344-0.517-0.574-0.859
	c-0.5,0.41-0.924,0.758-1.338,1.095c-5.516-5.719-17.485-10.811-23.166-9.858c-2.053-3.115-6.373-2.932-8.5-6.012
	c-1.076,0.601-1.886,1.052-2.854,1.59c-0.618-2.465-2.143-3.617-4.536-3.5c-3.284,0.16-6.716,0.764-8.251-3.208
	c-1.284,0.123-2.283,0.22-3.154,0.304c-1.229-1.062-0.506-2.897-2.035-3.708c-1.77-0.174-2.048,2.033-3.696,2.479
	c-3.036-0.637-0.271-3.788-2.023-5.107c-1.999,0.323-2.238,3.099-4.449,3.348c-0.782-0.691-1.6-1.408-2.388-2.104
	c-1.412,0.349-2.098,2.083-3.86,1.501c-1.046-2.929-4.316-3.983-5.708-6.584c-3.811,1.897-3.528,6.394-6.428,9.438
	c-2.266-2.611-3.322-6.055-6.239-7.724c-1.776,1.057-1.683,3.5-3.752,4.202c-0.747-0.456-1.527-0.934-2.202-1.346
	c-1.046,0.396-0.987,1.909-2.357,1.723c-1.035-0.887,0.233-3.065-1.827-3.448c-2.323,1.127-1.057,4.204-3.062,5.784
	c-0.863-2.536-1.521-5.15-4.781-5.265c-1.434,1.343-0.318,3.48-1.541,4.865c-2.884-2.003-3.746-6.749-7.93-5.91
	c-5.52-3.038-9.189-7.497-13.107-11.63c-4.643-4.896-9.375-9.77-12.094-16.162c-2.143-5.033-2.672-10.487-4.344-15.631
	c-1.025-3.147-3.432-4.226-6.304-4.559c-4.464,5.582-7.688,11.388-9.159,18.077c-2.279,10.375-2.021,20.958-2.503,31.48
	c-0.055,1.226,0.081,2.396-1.08,3.147c-1.039,0.203-1.753-0.357-2.413-0.923c-6.177-5.29-10.954-11.562-13.502-19.384
	c-0.613-1.88-0.92-4.187-3.693-3.834c-2.919,0.371-2.717,2.856-2.695,4.845c0.135,11.343-0.389,22.767,0.821,34.003
	c1.267,11.779,2.569,23.89,10.429,33.812c1.267,1.599,3.291,3.058,2.096,5.778c-0.798,0.791-1.637,1.768-2.627,2.562
	c-0.926,0.745-1.988,1.332-3.024,1.93c-17.183,9.888-33.654,20.702-48.133,34.437c-11.161,10.588-28.527,31.019-45.707,48.242
	c-17.183,17.224-47.088,38.043-53.763,42.452c-12.885,8.508-22.79,20.138-33.501,30.977c-7.353,7.442-13.108,15.169-14.349,26.121
	c-2.141,18.906-1.504,36.919,10.132,53.21c4.609,6.452,10.87,9.58,18.061,10.966c2.927,0.564,4.99,0.883,6.286,3.809
	c1.222,2.762,3.766,3.758,6.62,2.896c7.031-2.123,12.759,0.005,18.054,4.703c4.581,4.066,9.888,5.181,15.78,2.826
	c4.991-1.994,8.604-5.552,11.256-10.019c3.038-5.118,7.385-7.202,13.183-6.935c7.469,0.345,14.724-0.775,21.787-3.305
	c4.291-1.538,8.742-2.502,13.288-2.979c16.81-1.761,33.46-4.229,48.522-12.596c6.177-3.429,12.283-4.268,19.015-1.699
	c2.878,1.1,6.22,0.943,9.186-0.221c7.585-2.984,15.618-4.508,23.267-7.231c7.586-2.702,13.549-1.312,18.867,5.097
	c9.288,11.195,16.07,19.861,23.846,36.123c7.771,16.264,17.526,30.862,22.878,41.943c5.352,11.08,18.197,32.801,29.302,50.072
	c11.104,17.271,45.014,59.592,51.291,68.404c6.278,8.814,14.033,22.861,14.894,25.283c5.53,15.57,10.011,31.471,14.626,47.34
	c3.809,13.083,8.45,25.961,12.772,38.912c2.715,8.137,3.444,16.881,7.726,24.536c0,0,14.124,29.282,24.195,44.662l0.675,1.274
	c4.842,9.096,13.644,10.825,24.437,15.668c8.1,3.635,15.129,9.725,22.453,14.966c1.401,1.004,2.474,3.04,2.863,4.786
	c2.113,9.374,3.283,19.021,6.12,28.153c2.261,7.278,5.314,13.284,8.644,20.231c0,0,0.419,1.018,1.022,2.155
	c5.149,9.713,10.288,19.437,15.63,29.042c0,0,3.357,5.486,4.494,8.198c1.331,3.179,2.907,6.337,3.629,9.666
	c1.411,6.509,2.826,12.826,4.236,19.337v-48.787c-5.079,0.557-9.196,0.586-13.801,0.252c-1.442-0.104-2.133-1.839-1.94-2.826
	c0.19-0.986,1.493-1.317,2.296-1.4c4.58-0.467,9.05-1.308,13.445-2.385v-14.809c-2.903,1.788-6.357,2.57-9.701,3.585
	c-4.152,1.26-10.611,2.007-12.411,1.296c-1.798-0.711-2.591-1.379-3.283-4.517c-0.957-4.345-0.523-7.282,7.71-6.684
	c7.084,0.517,12.69-1.74,17.686-5.171v-26.803c-8.369,6.511-16.109,11.333-26.723,14.946c-2.47,0.841-7.229,1.486-8.719,0
	c-2.753-2.743-2.127-9.231,1.105-11.415c11.473-7.762,22.688-15.965,34.336-23.432v-22.688
	c-10.535,6.803-21.266,13.315-31.771,20.167c-2.36,1.54-3.976,4.193-6.008,6.259c-0.753,0.765-1.657,2.379-2.588,1.964
	s-1.263-1.96-1.214-2.903c0.222-4.414,0.355-8.875,1.153-13.203c0.849-4.588,3.271-7.257,8.81-7.29
	c3.422-0.02,7.247-2.012,10.154-4.131c4.118-3.001,7.027-6.79,10.943-10.072c0,0,4.131-3.914,7.279-5.667
	c1.088-0.605,2.158-1.207,3.24-1.764v-18.646c-12.129,4.844-21.524,14.225-25.623,18.856c-2.309,2.61-5.387,4.077-8.996,3.599
	c-3.101-0.412-6.572,1.951-8.623,1.448c-1.75-0.429-1.176-2.706-0.5-3.679c0.953-1.373,3.598-4.434,6.697-6.269
	c7.137-4.226,7.258-9.061,12.369-15.247c2.846-3.445,11.692-14.169,24.676-19.817V634.44c-0.194,0.072-0.391,0.138-0.586,0.216
	c-3.596,1.432-7.542,2.275-10.774,4.278c-7.502,4.648-16.437,8.087-20.634,16.351c-3.521,6.935-8.894,12.7-11.546,20.132
	c-3.309,9.265-7.333,24.736-7.343,28.397c-0.01,3.66,0.73,6.973,0.778,8.389c0.033,1.007-0.079,3.025-0.858,3.06
	c-0.781,0.034-1.625-1.159-1.973-1.943c-1.527-3.436-1.909-6.816-2.989-10.365c-0.255-0.877-0.549-2.116-0.549-2.116
	c-2.423-11.254-3.587-22.674,0.488-33.733c3.458-9.386,6.665-19.238,13.986-26.399c5.269-5.157,11.62-9.245,17.868-13.338
	c7.594-4.973,15.75-6.173,24.131-6.167v-20.845c-8.002,5.496-16.175,10.779-26.997,13.823c4.301-12.726,6.565-25.343,13.739-36.8
	c5.412,4.713,9.52,9.986,13.258,15.475v-23.444c-9.027-15.556-13.528-45.481-16.843-47.071c-3.337-1.6-1.341,8.259-3.858,24.273
	c-2.515,16.015-15.248,43.51-21.296,57.32c-6.046,13.809-11.266,26.453-19.75,46.467c-12.471,29.42-1.44,47.325-4.798,48.763
	c-1.871,0.804-12.15,0.8-17.426-23.181c-5.276-23.982,0.473-41.484,12.15-57.717c10.089-14.025,13.049-24.912,17.77-36.657
	c4.969-12.362,9.773-24.745,17.37-35.967c8.629-12.752,11.279-27.376,11.425-42.754c0.125-13.236,0.896-26.558,2.667-39.669
	c2.462-18.23,6.24-36.271,11.15-54.045c3.345-12.107,7.033-24.094,11.438-35.801v-38.862
	C549.645,335.119,549.29,335.729,548.934,336.339z M471.133,202.286c3.332-2.197,5.306-6.291,9.973-6.959
	c4.335,1.404,4.931,3.076,2.278,7.005c-2.526,3.746-5.767,6.803-9.166,9.741c-7.949,6.865-16.043,13.581-23.641,20.817
	c-4.289,4.088-9.605,6.51-14.071,10.194c-4.099,3.38-8.225,6.75-11.519,10.992c-1.656,2.136-3.437,4.179-5.2,6.228
	c-0.541,0.629-1.257,0.992-2.504,0.426c0.799-4.713,3.866-8.188,6.146-12.036c2.103-3.549,4.35-7.016,6.578-10.489
	c0.553-0.861,1.156-1.773,1.95-2.383c8.927-6.844,16.543-15.147,25.051-22.462C461.561,209.448,466.11,205.597,471.133,202.286z
	 M438.907,172.761c3.409-1.73,7.081-2.946,10.517-4.635c2.422-1.188,4.497,0.216,6.693,0.246c0.511,1.072,0.084,1.987-0.529,2.508
	c-3.337,2.837-5.777,6.527-9.235,9.278c-6.498,5.17-13.694,9.271-20.571,13.855c-5.363,3.573-10.979,6.763-16.493,10.106
	c-7.628,4.626-12.223,12.015-17.07,19.082c-6.146,8.959-13.352,17.044-20.136,25.476c-0.802,0.997-1.645,2.161-3.507,2.552
	c-0.327-3.26,2.048-5.027,3.366-7.08c6.79-10.58,11.751-22.055,17.112-33.358c2.974-6.274,7.78-11.278,13.448-15.398
	c5.204-3.785,10.056-8.115,15.513-11.471C424.727,179.792,431.864,176.336,438.907,172.761z M435.262,156.392
	c-0.718,0.833-1.271,1.487-1.833,2.13c-8.394,9.563-18.837,16.434-29.323,23.464c-5.721,3.833-11.697,7.599-16.846,12.334
	c-0.791,0.731-1.481,1.712-1.879,2.712c-2.1,5.266-4.189,10.537-6.093,15.877c-2.049,5.751-5.402,10.81-8.761,15.753
	c-10.391,15.283-21.086,30.355-29.796,46.705c-1.741,3.271-3.474,6.551-5.638,10.631c-0.772-5.286,0.72-9.361,1.899-13.362
	c3.834-13.007,10.312-24.711,17.188-36.384c8.128-13.795,17.207-27.099,23.187-42.159c3.056-7.7,8.045-14.072,15.976-18.087
	c8.827-4.468,16.437-10.893,23.733-17.595c1.035-0.95,1.942-2.13,3.285-2.435c1.213,0.211,0.9,1.342,1.641,2.077
	C425.879,154.523,430.131,152.955,435.262,156.392z M231.479,49.167c2.468,6.596,3.482,13.473,6.416,20.55
	c0.555-1.083,0.863-1.403,0.848-1.709c-0.301-6.701,2.633-12.939,2.788-19.575c0.078-3.226,1.759-5.001,4.799-5.269
	c5.03,2.128,7.488,6.561,10.266,10.58c3.581,5.18,6.563,10.729,9.602,16.259c3.94,7.17,8.804,13.833,13.167,20.559
	c1.51,0.134,2.059-0.556,2.392-1.618c-0.716-2.915-3.327-5.001-3.634-8.194c-0.277-2.901-0.924-5.767-1.426-8.748
	c3.652-0.821,8.615,2.728,9.794-4.865c0.778,3.812,0.321,6.588,2.258,8.908c0.514,0.053,1.206,0.123,1.952,0.199
	c0.887,1.541,1.035,3.176,0.788,4.858c-0.259,1.737-0.81,3.458-0.843,5.194c-0.094,4.805-0.502,9.216,2.397,14.081
	c3.536,5.942,4.376,13.17,2.786,20.556c-2.477,11.515-5.676,22.72-10.039,33.672c-2.329,5.84-3.397,12.17-5.348,18.175
	c-0.973,2.985-1.605,6.23-3.865,9.085c-1.475-3.555-0.702-6.855-0.896-10.05c-0.479-8.018-1.438-16.036,0.334-24.068
	c0.781-3.542,3.55-5.779,4.867-8.877c3.373-7.927,8.31-15.169,10.601-23.547c0.973-3.558,0.3-7.328-0.183-10.953
	c-0.191-1.435-1.491-2.428-3.383-1.841c-1.333,1.9-0.449,4.161-0.858,6.215c-0.306,1.537-0.259,3.461-2.282,3.772
	c-2.152,0.33-2.299-1.616-2.645-3.02c-0.464-1.892-2.688-2.236-3.118-4.051c-4.421,2.531-6.505,6.869-5.589,12.241
	c0.484,2.847,1.448,12.748,0.596,16.637c-0.851,3.89-4.044,4.336-9.246,1.896c-8.792-4.125-13.914-11.3-17.764-19.94
	c-6.499-14.581-9.128-30.155-12.65-45.53c-1.285-5.601-1.77-11.292-2.836-16.904C231.236,52.337,231.479,50.729,231.479,49.167z
	 M217.929,214.449c1.592,10.717,4.101,21.306,4.338,32.2c0.206,9.434-1.004,18.805-1.415,28.214
	c-0.033,0.773-0.315,1.381-1.006,1.779c-1.568,0.002-1.533-1.179-1.929-2.239c-3.075-8.284-3.47-17.019-4.37-25.659
	c-0.797-7.693-4.855-14.135-7.88-20.946c-1.923-4.321-3.23-7.956-0.476-12.741c3.443-5.982,5.708-12.664,6.894-19.56
	c0.685-3.978-2.16-7.251-2.296-11.151c-2.299,0.031-3.816,1.187-5.025,2.467c-6.05,6.396-13.603,7.701-21.898,6.893
	c-1.713-0.167-2.89-0.736-3.408-2.439c0.182-1.015,0.854-1.476,1.828-1.558c9.758-0.812,18.409-4.575,26.59-9.754
	c4.091-2.59,5.226-6.986,7.109-10.882c4.11-8.49,4.669-18.343,10.195-26.356c-3.721,1.604-5.234,5.026-6.994,7.969
	c-3.474,5.797-6.301,11.979-9.378,18.011c-1.131,2.215-4.599,3.191-6.782,1.977c-3.244-1.799-6.534-3.512-9.936-5.332
	c0.404-0.552,0.563-0.977,0.865-1.149c6.129-3.524,7.557-10.163,10.295-15.843c3.458-7.17,6.936-14.266,11.191-21.046
	c3.646-5.811,6.683-12.087,9.039-18.617c0.557-1.544,1.362-3,2.077-4.547c2.782,0.667,2.45,2.518,2.031,4.208
	c-2.123,8.532-4.993,16.806-8.956,24.667c-4.36,8.65-8.91,17.195-14.4,25.2c-0.535,0.778-1.284,1.542-0.142,2.636
	c3.271-1.761,5.383-4.814,7.494-7.646c3.556-4.766,7.331-9.336,11.063-13.956c5.158-6.385,9.708-13.133,9.926-21.846
	c0.045-1.792,0.476-3.645,2.001-5.098c1.466,1.473,2.251,3.313,2.146,5.177c-0.302,5.399-0.81,10.804-3.658,15.635
	c-4.792,8.137-6.788,17.256-9.309,26.208c-1.937,6.882-4.466,13.56-8.171,19.73c-0.553,0.921-1.468,1.791-0.203,3.433
	c7.105-7.613,13.394-15.615,17.973-24.906c4.551-9.241,7.706-18.879,8.027-29.424c2.203,1.925,2.996,4.317,3.008,6.485
	c0.029,5.935,0.97,11.783,1.215,17.685c0.298,7.104-1.858,13.328-7.145,18.26c-7.369,6.875-13.418,14.839-18.479,23.467
	C216.284,200.355,216.915,207.61,217.929,214.449z M175.98,171.918c-0.811-1.633-0.033-2.163,0.99-2.646
	c4.4-2.078,12.805-1.021,16.609,2.739C187.174,172.648,181.519,169.258,175.98,171.918z M180.913,179.033
	c-0.759,0.677-1.529,0.274-2.483,0.224c-0.307-1.75-0.112-2.901,1.746-3.079C181.007,177.067,181.203,177.996,180.913,179.033z
	 M182.158,197.597c8.635,3.522,15.697,1.906,21.682-5.068c0.661-0.771,1.343-1.337,2.901-0.983
	c-0.092,5.997-1.921,11.334-5.581,16.064c-3.065,3.958-7.053,6.438-12.077,4.952c-7.843-2.318-15.962-3.854-23.282-7.83
	c-6.965-3.782-14.053-5.441-21.104-0.019c-0.729,0.561-1.664,0.428-2.886,0.004c1.511-4.007,5.138-6.224,7.112-9.675
	c1.279-2.238,3.229-4.115,4.994-6.046c1.73-1.895,4.001-2.337,6.077-0.9C166.754,192.78,174.717,194.56,182.158,197.597z
	 M218.285,23.654c1.37,1.765,1.475,3.749,1.582,5.604c1.188,20.705,6.432,40.664,11.068,60.735c0.682,2.947,0.553,3.518-1,4.861
	C219.291,88.639,209.89,32.165,218.285,23.654z M197.699,93.127c-2.896-8.572-4.035-17.33-3.746-26.323
	c0.027-0.792-0.087-1.611,0.791-2.429c0.547-0.059,1.317-0.142,2.226-0.239c0.874-1.297,2.372-1.863,3.92-2.558
	c4.03,1.758,7.772-1.346,12.04-0.994c1.412,4.443,3.452,8.738,2.701,13.969c-3.655-0.141-6.229,1.528-8.38,4.181
	c-2.339,2.888-1.769,5.656-0.312,8.67c2.258,4.677,4.875,9.07,8.96,12.456C208.545,105.358,200.782,102.248,197.699,93.127z
	 M201.615,117.1c1.477,4.072,1.241,7.445,0.367,10.729c-1.122,4.19-1.796,8.434-1.932,12.743
	c-0.184,5.958-2.771,10.943-5.953,15.739c-1.09,1.639-1.539,3.612-3.007,5.097c-2.442,2.469-5.13,2.935-8.494,1.66
	C191.136,148.753,197.879,133.974,201.615,117.1z M162.395,149.908c2.797-4.852,6.759-8.728,10.766-13.082
	c0.907,2.345-0.52,3.569-1.203,4.926c-1.9,3.776-3.897,7.429-3.496,11.948c0.533,5.98-2.563,10.544-6.49,14.6
	c-1.456,1.506-2.511,3.173-3.352,4.929c0.656,0.974,1.417,0.786,2.056,0.507c4.807-2.088,9.282-4.456,11.522-9.734
	c2.553-5.999,3.523-12.43,5.546-18.574c2.45-7.447,6.839-13.611,11.55-19.635c0.887-1.135,1.215-2.821,2.901-3.415
	c1.703,1.702,0.469,3.248-0.313,4.548c-5.46,9.054-8.866,18.775-10.294,29.269c-0.458,3.365-2.651,6.245-4.859,8.689
	c-3.427,3.792-7.3,7.189-11.126,10.594c-0.957,0.851-2.421,1.429-3.707,1.557c-6.229,0.618-10.193,3.683-13.159,9.364
	c-2.931,5.61-5.7,11.561-11.452,15.357c-5.665,3.738-11.26,7.559-17.013,11.187c-10.572,6.665-22.618,11.012-31.774,19.936
	c-1.847,1.8-2.966,2.236-4.412,2.225c-0.224-1.172,0.705-1.781,1.374-2.318c6.01-4.821,11.934-9.659,18.62-13.681
	c11.368-6.837,23.031-13.419,32.584-22.873c3.458-3.423,6.29-7.388,8.686-11.641c0.496-0.882,0.759-1.762-0.158-2.734
	c-3.339,0.868-4.855,3.926-6.955,6.154c-10.053,10.673-21.311,20.023-33.816,27.443c-9.343,5.544-16.743,13.25-25.407,19.467
	c-3.568,2.561-7.024,5.278-10.533,7.927c-0.241-0.271-0.479-0.539-0.721-0.807c2.577-2.469,5.097-5.003,7.745-7.391
	c6.563-5.905,12.848-12.191,19.889-17.468c5.553-4.157,11.624-7.718,17.015-12.114c7.739-6.309,16.541-11.405,23.057-19.103
	c5.079-6.002,9.506-12.548,14.453-18.667c1.935-2.394,3.942-4.666,5.225-7.572c2.129,6.145-4.075,9.32-4.713,14.72
	c1.551-1.486,3.597-2.705,4.562-4.503c2.882-5.388,7.467-10.184,6.551-17.086C161.416,151.923,161.893,150.78,162.395,149.908z
	 M63.63,236.107c12.017-10.06,22.412-22.001,35.481-30.825c8.47-5.718,16.805-11.89,22.543-20.245
	c7.216-10.513,17.371-18.119,25.211-27.938c4.165-5.214,8.976-9.913,13.502-14.851c1.833,1.48,0.881,2.395,0.159,3.344
	c-7.163,9.4-13.854,19.25-22.847,27.044c-9.894,8.573-17.52,19.316-27.652,27.717c-8.362,6.935-17.022,13.512-25.191,20.676
	c-3.275,2.871-6.471,5.871-9.413,9.078c-4.153,4.53-9.368,7.559-14.39,10.887c-0.895,0.591-1.735,0.832-2.666-0.371
	C59.553,238.352,61.899,237.557,63.63,236.107z M46.752,289.587c-2.793,2.396-3.725,4.534-4.54,9.341
	c-1.738,10.252-5.965,14.13-11.751,16.188c-7.811,2.779-17.531-1.066-17.239-2.02c0.506-1.659,6.659-0.297,10.329-0.231
	c9.227,0.167,15.723-11.178,12.289-21.872c-3.435-10.695-16.59-4.775-18.933-4.584c-2.341,0.189-0.774-3.369,4.264-6.412
	c5.04-3.045,16.129-3.65,24.213-0.63C50.591,281.313,51.004,285.935,46.752,289.587z M118.866,348.848
	c-1.446,1.007-2.919,1.113-4.681-0.146c1.89-2.508,1.255-5.818,3.401-8.463c1.925-2.374-1.776-9.48-5.838-11.69
	c-2.514-1.366-5.268-2.284-7.86-3.511c-1.947-0.92-3.804-2.029-5.721-3.015c-1.44-0.741-2.937-1.247-4.828-0.555
	c-0.158,2.95,2.172,4.801,3.476,6.959c1.629,2.699,3.915,5.033,6.091,7.362c3.112,3.33,3.485,6.289,0.833,10.028
	c-1.239,1.745-2.691,3.336-3.95,4.877c-1.73,0.061-2.287-0.747-2.188-2.086c0.469-6.188-2.088-11.35-5.486-16.219
	c-0.922-1.321-1.904-2.634-1.839-4.329c0.253-6.697-6.231-10.869-11.098-11.517c-5.363-0.713-10.56-1.308-14.948-4.802
	c-4.544-3.617-7.951-8.049-8.602-13.936c-0.262-2.342-1.245-4.789-0.336-7.413c1.668,0.296,2.446,1.332,3.098,2.249
	c7.582,10.662,18.577,15.236,30.8,18.313c8.627,2.174,16.268,7.072,24.139,11.194c3.526,1.848,7.808,2.615,9.933,6.604
	c0.296,0.557,0.839,0.99,1.076,1.561C125.965,334.239,122.354,346.417,118.866,348.848z M151.258,339.641
	c-0.199,4.479-3.989,3.918-6.79,4.229c-2.497,0.279-3.392-1.563-3.446-3.877c-0.133-5.552-1.492-10.978-2.897-16.229
	c-1.294-4.844-6.06-7.091-10.822-7.412c-8.084-0.543-15.899-2.221-23.251-5.328c-8.331-3.521-17.227-4.898-25.689-7.816
	c-0.604-0.208-1.191-0.461-1.764-0.744c-7.704-3.803-16.404-13.68-19.517-22.347c1.594-0.657,3.052-1.257,4.432-1.827
	c13.681,1.78,23.549,11.218,35.258,16.857c10.589,5.101,21.673,9.502,33.775,9.924c9.047,0.314,19.295,11.088,19.978,20.086
	C150.89,329.988,151.472,334.797,151.258,339.641z M161.722,329.69c-0.623-3.907-0.31-7.13,0.292-10.339
	c1.404-7.477-0.211-10.882-6.973-14.404c-8.907-4.643-18.528-7.321-28.098-10.15c-7.04-2.081-14.015-4.377-21.06-6.447
	c-7.81-2.295-13.807-7.797-20.803-11.524c-1.544-0.823-3.038-1.745-4.542-2.641c-1.217-0.724-2.628-1.255-2.997-2.831
	c1.539-4.322,10.209-7.767,14.794-5.759c5.703,2.496,11.158,5.67,17.023,7.649c7.631,2.578,14.647,6.746,22.6,8.431
	c5.116,1.084,10.358,0.662,15.48,1.47c5.23,0.823,9.697,2.009,12.628,7.766c2.8,5.5,7.155,10.17,8.265,16.605
	c1.274,7.397-0.241,14.083-4.536,20.176C163.36,328.309,162.692,328.766,161.722,329.69z M185.682,309.022
	c-1.402,8.065-3.43,16.009-2.475,24.577c-6.513,1.21-11.705,4.336-16.646,7.265c-2.007-1.579-1.068-2.597-0.476-3.744
	c6.745-13.081,11.813-26.601,9.783-41.704c-1.396-10.387-7.961-17.191-17.458-19.76c-10.896-2.946-20.993-8.146-31.974-10.528
	c-12.522-2.714-24.829-7.801-38.104-4.323c-2.728,0.713-5.338,1.547-7.773,2.977c-6.65,3.904-12.849,8.802-20.916,9.643
	c-0.758,0.079-1.515,0.551-2.4-0.059c0.968-2.234,3.275-2.733,5.068-3.659c4.131-2.132,8.126-4.159,11.534-7.6
	c8.794-8.874,19.45-11.571,31.661-8.397c5.22,1.357,10.279,3.184,15.435,4.645c2.479,0.703,5.434,2.552,8.78,0.374
	c-4.678-2.221-8.988-4.175-13.212-6.302c-3.999-2.012-7.685-4.479-10.841-7.739c-3.503-3.618-8.5-3.776-12.98-1.495
	c-6.134,3.124-10.419,8.327-15.539,12.595c-4.328,3.604-9.09,6.681-13.677,9.968c-0.202,0.145-0.578,0.045-1.031,0.066
	c0.051-1.909,1.499-2.723,2.577-3.571c7.443-5.87,14.988-11.605,22.449-17.454c2.249-1.761,4.382-3.68,6.477-5.625
	c6.326-5.879,13.834-6.086,20.918-1.289c9.957,6.736,21.06,11.27,32.146,15.82c8.202,3.365,16.704,4.85,25.464,5.703
	c9.545,0.932,13.714,5.223,15.488,14.709C190.171,285.945,187.688,297.503,185.682,309.022z M201.263,327.845
	c-2.027,1.019-4.058-1.524-3.602-4.66c0.383-2.599,0.687-5.248,1.243-7.778c2.528-11.504,3.493-23.274,1.654-34.708
	c-1.827-11.372-3.606-23.345-12.614-32.151c-5.377-5.26-12.146-7.201-19.357-7.374c-10.294-0.248-20.12-2.604-29.685-6.052
	c-3.838-1.382-7.426-3.636-10.875-5.881c-6.146-4.002-12.401-4.098-19.08-1.605c-7.452,2.78-13.977,7.059-20.251,11.814
	c-0.632,0.477-1.253,1.355-2.821,0.555c2.239-2.565,4.526-4.749,6.992-6.805c6.64-5.538,14.214-9.351,22.314-12.147
	c3.92-1.353,7.974-2.313,11.959-3.478c7.822-2.287,15.621-1.867,23.035,1.191c11.277,4.652,23.241,5.094,35.056,6.571
	c2.579,0.322,5.187,0.485,7.739,0.948c3.117,0.564,4.438,3.044,5.651,5.663c6.05,13.077,9.55,27.074,14.71,40.47
	c1.836,4.77,1.388,9.766,1.944,14.63c0.796,6.95,2.007,13.944,1.329,20.998C215.664,317.842,209.498,323.7,201.263,327.845z
	 M244.774,317.088c0.051,1.953-1.531,3.062-2.658,4.363c-9.534,0.092-17.437,6.318-27.237,6.539
	c0.925-3.775,3.252-6.057,5.208-8.212c3.562-3.926,5.383-8.44,5.471-13.446c0.383-21.645,3.656-43.139,3.104-64.838
	c-0.327-12.814-2.534-25.412-3.672-38.132c-0.292-3.303,0.441-6.009,2.52-8.858c5.606-7.685,11.396-15.225,18.497-21.523
	c7.438-6.595,8.07-14.53,5.475-23.114c-1.88-6.215-1.851-12.754-3.867-18.899c-0.212-0.641-0.14-1.276,0.762-1.744
	c2.137,1.599,2.102,4.245,2.691,6.466c1.459,5.496,2.6,11.101,4.055,16.572c1.905,7.178,2.906,14.068,0.411,21.22
	c-0.563,1.608-1.347,3.034-2.234,4.462c-6.792,10.902-14.224,21.544-15.823,34.785c-1.343,11.166-0.294,22.33,0.504,33.469
	c0.874,12.202,2.752,24.316,5.502,36.201C246.16,293.977,244.479,305.527,244.774,317.088z M253.75,320.253
	c-1.084,0.731-2.395,0.759-3.724,0.488c-1.103-1.839-0.856-3.671-0.463-5.585c3.691-17.842,3.979-35.61,0.755-53.68
	c-3.872-21.688-5.715-43.603,1.37-65.131c2.215-6.722,5.827-13.043,7.512-19.863c2.378-9.642,2.073-19.498-1.306-29.054
	c-1.229-3.481-1.221-4.119-0.018-6.131c2.119,2.211,3.346,4.844,4.036,7.578c3.521,13.931,2.762,27.725-0.763,41.642
	c-2.779,10.986-4.379,22.258-4.213,33.678c0.02,1.244,0.147,2.488,0.222,3.731c6.72-13.204,6.505-27.726,9.113-41.693
	c2.68-14.354-1.993-28.338-1.864-43.642c3.619,3.189,3.396,6.612,3.888,9.374c2.754,15.511,4.624,31.202,3.266,46.936
	c-1.041,12.034-3.227,23.977-5.644,35.861c-2.801,13.77-1.967,27.727-0.1,41.522c0.966,7.136,3.692,14.09,2.832,21.408
	c-0.666,5.663,0.335,12.047-5.541,15.999C259.949,315.818,256.908,318.122,253.75,320.253z M265.303,330.833
	c-1.617,2.5-3.341,2.222-4.921,0.159c-0.987-1.287-2.05-2.414-3.326-3.4c-2.401-1.859-1.572-3.389,0.468-4.938
	c8.273-6.278,14.195-14.026,15.126-24.788c0.896-10.344-1.204-20.462-2.05-30.689c-1.14-13.722-1.194-27.517,3.33-41.028
	c4.469-13.338,5.523-27.499,8.399-41.23c1.516-7.243,4.974-13.722,8.431-20.261c2.753-5.204,4.816-11.006,8.416-15.514
	c3.904-4.894,5.818-10.024,6.033-15.928c0.316-8.557-0.997-17.201-4.198-24.892c-4.227-10.154-0.812-17.333,5.877-24.221
	c1.236-1.272,2.213-2.983,4.289-3.41c1.174,0.782,1.554,1.816,1.821,2.802c0.029,1.147-1.492,1.973-0.322,3.284
	c2.197-0.472,3.088-2.831,5.054-3.766c1.635,1.657-0.763,3.403,0.414,5.211c0.44,0.233,1.131,0.597,1.962,1.037
	c-1.492,6.937-3.472,13.656-8.948,18.679c-1.878,1.722-2.37,3.242-1.718,5.995c1.555,6.56,3.254,13.221,1.549,20.112
	c-0.572,2.312-0.358,2.403,0.549,4.027c4.593-1.896,7.584-6.88,6.824-11.574c-0.414-2.536-0.728-5.058-0.482-7.627
	c0.172-1.801,0.621-3.629,2.104-4.689c6.574-4.709,10.497-11.702,15.547-17.725c1.217-1.451,2.352-3.022,4.636-3.65
	c0.792,3.171,2.515,6.03,1.67,9.499c4.73,1.268,6.589-3.795,10.625-4.601c-0.64,3.167-3.668,4.806-3.754,7.827
	c1.812,0.759,2.521-1.307,4.003-1.316c0.876,0.344,1.209,1.114,1.368,1.976c-0.825,3.002-4.314,4.253-5.181,7.417
	c2.546,0.687,4.404-1.69,6.646-0.5c-0.045,1.62-1.275,2.123-2.403,2.646c-3.25,1.511-6.504,2.873-10.054,3.74
	c-7.023,1.717-11.055,7.191-13.824,13.315c-3.109,6.872-7.386,12.361-13.815,16.441c-3.697,2.348-6.079,6.3-8.559,9.892
	c-5.091,7.371-8.673,15.281-10.532,24.266c-4.063,19.596-9.014,39.013-12.182,58.789c-1.67,10.442-1.689,21.043-1.211,31.576
	c0.666,14.735-1.733,28.889-6.912,42.619c-1.806,4.782-4.97,8.672-8.596,12.205C266.714,329.323,265.854,329.982,265.303,330.833z
	 M286.661,378.56c-0.604-1.077-2.372-4.355-3.091-5.875c-4.273-9.041-12.483-25.353-3.822-32.272
	c1.565-1.251,3.54-3.832,5.796-8.906c2.255-5.072,5.21-33.087,7.315-53.082c1.924-18.258,3.619-36.54,6.042-54.742
	c0.596-4.476,1.525-8.953,2.806-13.283c2.441-8.27,5.965-15.987,11.006-23.157c5.493-7.809,9.572-16.591,16.492-23.44
	c2.719-2.689,4.973-5.846,7.596-8.638c2.041-2.166,3.043-4.622,3.096-7.547c0.107-5.635,1.031-10.261,6.792-13.772
	c6.554-3.993,12.028-9.764,18.096-14.867c2.899,2.155,7.08-2.333,9.18,2.393c4.538-2.178,7.439-5.973,12.266-8.686
	c-0.833,2.33-0.188,3.643,0.547,4.891c-3.162,3.83-6.231,7.547-9.294,11.254c0.212,0.733,0.408,1.405,0.755,2.599
	c-8.249,5.879-15.767,12.964-24.749,16.845c-5.543,6.16-6.39,13.916-9.636,20.609c-0.241,0.496-0.52,0.986-0.853,1.424
	c-4.547,5.954-9.078,11.923-13.672,17.845c-6.641,8.568-11.541,18.04-14.427,28.473c-1.384,4.992-2.074,10.169-3.333,15.198
	c-2.873,11.458-5.297,22.998-6.861,34.714c-1.125,8.438-2.083,16.886-4.093,25.21c-1.444,5.974-4.226,11.484-5.387,17.507
	c-3.799,19.75-7.931,39.448-8.517,59.66c0,0,0.096,5.788,0.67,10.924C287.381,379.838,287.266,379.635,286.661,378.56z
	 M306.89,359.287c-2.646,12.65-3.567,25.416-2.862,38.305c0.2,3.625,0.494,7.243,0.769,11.177
	c-2.956-3.215-9.843-16.032-9.843-16.032c-1.537-5.17-0.96-11.37-0.123-16.801c1.174-7.611,3.908-14.887,5.041-22.397
	c2.529-16.748,5.927-33.366,9.656-49.798c4.297-18.926,8.083-38.041,14.346-56.567c4.66-13.779,9.427-27.292,17.135-39.738
	c4.703-7.59,8.469-15.758,12.657-23.665c0.373-0.706,0.606-1.58,1.171-2.071c4.451-3.879,6.525-9.369,6.963-14.634
	c0.607-7.292,6.115-8.955,10.709-11.414c6.921-3.706,12.895-8.776,19.673-12.668c2.09-1.201,4.232-3.087,5.941-5.097
	c2.778-3.26,5.474-6.633,10.401-4.803c1.952-1.181,3.76-2.272,5.797-3.503c0.584,2.896,3.071,5.192,0.693,8.138
	c1.471,0.951,3.063,1.393,3.519,3.186c1.161-0.429,2.131-0.788,3.102-1.144c-2.749,3.771-5.517,7.576-9.15,10.165
	c-7.212,5.139-14.85,9.696-22.422,14.312c-3.462,2.115-6.831,4.593-10.833,5.561c-4.741,1.149-8.121,3.888-10.402,8.014
	c-4.587,8.284-8.757,16.814-13.638,24.918c-6.334,10.515-11.394,21.59-15.298,33.148c-7.229,21.388-14.063,42.906-21.093,64.361
	c-0.968,2.951-2.569,5.758-3.12,8.768c-2.492,13.623-6.461,26.951-7.737,40.828C307.654,352.963,307.536,356.188,306.89,359.287z
	 M312.006,418.768c-2.323-2.245-1.874-4.64-1.531-7.085c0.774-5.504,3.145-10.528,4.633-15.815
	c3.667-13.022,4.49-26.63,7.853-39.662c3.305-12.8,8.035-25.212,14.282-36.979c2.539-4.785,4.653-9.805,6.78-14.797
	c0.708-1.658,1.729-3.041,2.769-4.43c5.098-6.813,9.809-13.887,14.627-20.895c5.885-8.563,11.974-17.16,20.155-23.719
	c6.967-5.587,11.522-13.199,17.71-19.436c6.986-7.041,12.896-15.107,20.6-21.514c8.377-6.965,15.849-14.969,24.662-21.446
	c4.857-3.571,10.787-5.204,15.596-8.972c1.982-1.552,4.382,0.158,5.515,2.304c1.027,1.947,1.59,4.137,2.356,6.218
	c-7.342,8.675-15.31,15.965-25.345,21.301c-7.175,3.816-15.239,7.032-20.013,14.309c-4.451,6.787-10.118,12.695-13.913,19.979
	c-1.57,3.016-4.044,5.639-6.424,8.14c-8.973,9.435-17.059,19.559-24.886,29.961c-4.121,5.48-7.42,11.579-11.824,16.706
	c-9.111,10.604-12.834,23.959-19.164,35.924c-5.747,10.859-11.142,22.231-13.847,34.482c-2.288,10.363-5.696,20.385-9.014,30.447
	C321.478,410.174,315.844,413.529,312.006,418.768z M359.092,430.87c-4.364,3.967-7.76,8.718-10.016,14.196
	c-4.303,10.453-3.603,20.893,0.357,31.251c-2.629-3.827-15.852-16.78-20.102-29.282c-2.524-7.431,0.439-16.007,4.322-18.83
	c6.487-4.717,9.885-13.697,13.289-21.45c2.566-5.837,5.219-11.408,9.245-16.409c4.487-5.57,7.57-12.105,11.677-17.984
	c5.223-7.477,10.066-15.293,14.537-23.215c7.971-14.122,17.502-27.138,26.676-40.422c10.123-14.663,20.126-29.412,30.339-44.012
	c1.938-2.773,4.178-5.84,7.031-7.367c7.5-4.019,12.748-10.357,18.386-16.303c6.889-7.262,13.928-14.3,22.288-19.913
	c1.627-1.09,3.1-2.573,4.252-4.157c1.02-1.402,2.246-2.072,3.686-2.602c1.397,1.617-1,2.643-0.4,4.036
	c7.982-0.804,7.982-0.804,9.564,4.142c0.827,0.51,2.182-0.529,2.76,1.063c-1.938,3.693-4.369,7.15-6.819,10.668
	c-3.723,5.352-7.498,10.574-12.391,14.854c-6.764,5.913-13.097,12.382-20.928,16.978c-5.417,3.178-7.791,9.003-11.781,13.417
	c-9.422,10.421-16.469,22.544-24.484,33.972c-1.639,2.338-2.423,5.338-4.268,7.449c-6.471,7.406-10.985,16.109-15.263,24.705
	c-11.011,22.135-20.771,44.936-35.004,65.282C371.07,418.049,365.605,424.946,359.092,430.87z M387.668,512.883
	c0.327,5.725,3.898,18.128,2.123,16.969c-1.773-1.158-10.362-9.916-11.939-12.396c-3.182-5.006-6.945-9.77-7.955-15.796
	c-0.947-5.637-0.492-11.312,0.645-16.911c2.07-10.217,7.81-18.648,13.4-27.113c13.185-19.966,24.354-40.938,32.07-63.649
	c2.725-8.021,5.557-15.995,9.252-23.63c0.348-0.716,0.406-1.74,1.572-1.934c0.619,0.838,0.286,1.658,0.14,2.516
	c-1.835,10.682-3.813,21.33-6.273,31.895c-4.381,18.806-11.949,36.428-19.603,54.05c-4.126,9.495-11.64,17.235-12.326,28.632
	C388.225,494.637,387.148,503.779,387.668,512.883z M406.555,570.94c-2.238-7.515-5.115-16.147-7.193-25.58
	c-0.815-2.808,3.438-24.089,3.746-26.089c0.917-5.91,1.897-12.04,4.906-17.088c2.543-4.268,4.203-8.689,5.775-13.246
	c3.227-9.349,5.971-18.886,9.641-28.055c4.363-10.908,7.607-22.174,11.428-33.247c2.627-7.62,4.291-15.604,6.581-23.335
	c4.951-16.701,7.561-34.018,14.545-50.239c3.921-9.109,5.988-19.097,10.65-27.998c3.309-6.317,7.094-12.384,10.661-18.567
	c0.277-0.48,0.535-0.984,0.708-1.512c3.601-10.963,10.31-20.052,17.312-28.996c3.136-4.006,5.282-8.716,8.705-12.55
	c4.186-4.688,7.79-9.761,13.638-12.958c3.775-2.065,6.506-6.031,9.736-9.111c1.335-1.275,2.572-2.89,4.88-2.245
	c1.352,3.355,0.499,5.974-2.383,8.63c3.107,0.221,5.188,1.281,7.285,2.432c3.606,9.198-2.399,15.521-8.652,19.947
	c-4.02,2.844-7.69,6.178-10.58,9.82c-7.355,9.273-15.496,17.805-23.449,26.506c-3.562,3.897-5.064,8.779-7.388,13.164
	c-4.33,8.174-7.418,17.022-10.795,25.679c-3.637,9.317-7.41,18.615-10.399,28.147c-3.476,11.082-5.945,22.461-8.276,33.854
	c-2.042,9.978-5.54,24.706-11.27,45.606c-5.733,20.901-23.582,50.163-30.858,67.788C408.231,539.321,408.561,573.273,406.555,570.94
	z M426.221,603.235c-2.059,2.569-0.881-12.312-4.438-17.905c-5.804-9.132,14.052-49.014,14.235-49.376
	c4.121-8.099,13.013-27.605,13.46-29.206c2.497-8.962,8.156-16.525,11.114-25.305c4.18-12.395,8.856-24.603,12.203-37.291
	c3.307-12.522,5.541-25.21,7.776-37.938c1.319-7.499,3.618-14.873,6.029-22.119c2.723-8.171,4.382-16.605,6.895-24.813
	c2.738-8.947,6.414-17.401,11.264-25.521c4.524-7.579,8.493-15.57,11.728-23.902c3.141-8.089,9.308-14.15,15.242-20.314
	c4.859-5.047,7.153-8.122,12.17-12.975c0.31-0.3,0.805-0.724,1.684-0.674c0.879,0.049,0.51,1.436,0.105,2.021
	c-4.174,6.049-2.374,11.813-1.559,18.963c0.392,3.424-2.453,5.174-4.309,7.013c-7.898,7.822-14.638,16.427-20.517,25.876
	c-2.643,4.246-5.251,8.505-7.572,12.914c-3.744,7.111-4.787,15.116-6.988,22.735c-3.104,10.749-4.616,21.922-7.813,32.597
	c-6.015,20.077-6.612,41.107-11.691,61.309c-4.732,18.833-12.809,36.429-20.116,54.309c-1.935,4.732-3.995,9.416-5.788,14.203
	c-2.68,7.162-10.823,18.295-17.605,31.434C434.947,572.41,431.858,596.191,426.221,603.235z M543.909,449.643
	c0.995-11.196,2.931-22.245,5.112-33.219c0.296-1.486,0.629-2.963,0.979-4.436v119.878c-1.733-4.731-3.335-9.513-4.748-14.386
	c-4.028-13.872-4.462-28.084-4.462-42.25C540.79,466.703,543.146,458.202,543.909,449.643z"/>
</svg>
